<?xml version="1.0" encoding="UTF-8"?> <svg xmlns="http://www.w3.org/2000/svg" width="16" height="16" viewBox="0 0 16 16" fill="none"><g clip-path="url(#clip0_3629_52246)"><path d="M0 2C0 0.895431 0.895431 0 2 0C3.10457 0 4 0.895431 4 2C4 3.10457 3.10457 4 2 4C0.895431 4 0 3.10457 0 2Z" fill="#6088D6"></path><path d="M0 8C0 6.89543 0.895431 6 2 6C3.10457 6 4 6.89543 4 8C4 9.10457 3.10457 10 2 10C0.895431 10 0 9.10457 0 8Z" fill="#6088D6"></path><path d="M0 14C0 12.8954 0.895431 12 2 12C3.10457 12 4 12.8954 4 14C4 15.1046 3.10457 16 2 16C0.895431 16 0 15.1046 0 14Z" fill="#6088D6"></path><path d="M6 2C6 0.895431 6.89543 0 8 0C9.10457 0 10 0.895431 10 2C10 3.10457 9.10457 4 8 4C6.89543 4 6 3.10457 6 2Z" fill="#6088D6"></path><path d="M6 8C6 6.89543 6.89543 6 8 6C9.10457 6 10 6.89543 10 8C10 9.10457 9.10457 10 8 10C6.89543 10 6 9.10457 6 8Z" fill="#6088D6"></path><path d="M6 14C6 12.8954 6.89543 12 8 12C9.10457 12 10 12.8954 10 14C10 15.1046 9.10457 16 8 16C6.89543 16 6 15.1046 6 14Z" fill="#6088D6"></path><path d="M12 2C12 0.895431 12.8954 0 14 0C15.1046 0 16 0.895431 16 2C16 3.10457 15.1046 4 14 4C12.8954 4 12 3.10457 12 2Z" fill="#6088D6"></path><path d="M12 8C12 6.89543 12.8954 6 14 6C15.1046 6 16 6.89543 16 8C16 9.10457 15.1046 10 14 10C12.8954 10 12 9.10457 12 8Z" fill="#6088D6"></path><path d="M12 14C12 12.8954 12.8954 12 14 12C15.1046 12 16 12.8954 16 14C16 15.1046 15.1046 16 14 16C12.8954 16 12 15.1046 12 14Z" fill="#6088D6"></path></g><defs><clipPath id="clip0_3629_52246"><rect width="16" height="16" fill="white"></rect></clipPath></defs></svg> 