<?xml version="1.0" encoding="UTF-8"?> <svg xmlns="http://www.w3.org/2000/svg" width="20" height="20" viewBox="0 0 20 20" fill="none"><path fill-rule="evenodd" clip-rule="evenodd" d="M7.91667 14.1667C7.22631 14.1667 6.66667 13.607 6.66667 12.9167V3.33333H7.5V0H0V3.33333H0.833333V12.9167C0.833333 16.8287 4.00465 20 7.91667 20C11.8287 20 15 16.8287 15 12.9167V7.08333C15 6.85321 15.1865 6.66667 15.4167 6.66667H16.6667V7.5H20V0H16.6667V0.833333H14.5833C11.5918 0.833333 9.16667 3.25846 9.16667 6.25V12.9167C9.16667 13.607 8.60702 14.1667 7.91667 14.1667ZM1.80662 8.71148L1.66667 8.80478V3.33333H5.83333V8.80478L5.69338 8.71148C5.2735 8.43156 4.7265 8.43156 4.30662 8.71148L3.98112 8.92848C3.84117 9.02178 3.65883 9.02178 3.51887 8.92848L3.19338 8.71148C2.7735 8.43156 2.2265 8.43156 1.80662 8.71148ZM5.23112 9.40485L5.83333 9.80633V12.9167C5.83333 14.0673 6.76607 15 7.91667 15C9.06726 15 10 14.0673 10 12.9167V11.6667H14.1667V12.9167C14.1667 16.3684 11.3684 19.1667 7.91667 19.1667C4.46489 19.1667 1.66667 16.3684 1.66667 12.9167V9.80633L2.26887 9.40485C2.40883 9.31155 2.59117 9.31155 2.73112 9.40485L3.05662 9.62185C3.4765 9.90177 4.0235 9.90177 4.44338 9.62185L4.76888 9.40485C4.90883 9.31155 5.09117 9.31155 5.23112 9.40485ZM15.4167 5.83333C14.7263 5.83333 14.1667 6.39298 14.1667 7.08333V10.8333H10V6.25C10 3.71869 12.052 1.66667 14.5833 1.66667H16.6667V5.83333H15.4167ZM6.66667 0.833333V2.5H0.833333V0.833333H6.66667ZM17.5 0.833333H19.1667V6.66667H17.5V0.833333Z" fill="#6088D6"></path></svg> 