<?xml version="1.0" encoding="UTF-8"?> <svg xmlns="http://www.w3.org/2000/svg" width="20" height="20" viewBox="0 0 20 20" fill="none"><path fill-rule="evenodd" clip-rule="evenodd" d="M4.58333 0C3.43274 0 2.5 0.93274 2.5 2.08333V2.5H1.66667C0.746192 2.5 0 3.24619 0 4.16667C0 5.08714 0.746192 5.83333 1.66667 5.83333H2.5V17.9167C2.5 19.0673 3.43274 20 4.58333 20H12.9167C14.0673 20 15 19.0673 15 17.9167V17.5H15.4167C16.5673 17.5 17.5 16.5673 17.5 15.4167V5.83333H18.3333C19.2538 5.83333 20 5.08714 20 4.16667C20 3.24619 19.2538 2.5 18.3333 2.5H17.5V1.66667C17.5 0.746192 16.7538 0 15.8333 0H4.58333ZM14.3896 0.833333H4.58333C3.89298 0.833333 3.33333 1.39298 3.33333 2.08333V11.6667H14.1667V1.66667C14.1667 1.36309 14.2478 1.07848 14.3896 0.833333ZM14.1667 12.5H3.33333V14.1667H14.1667V12.5ZM14.1667 15H3.33333V17.9167C3.33333 18.607 3.89298 19.1667 4.58333 19.1667H12.9167C13.607 19.1667 14.1667 18.607 14.1667 17.9167V15ZM16.6667 2.5V1.66667C16.6667 1.20643 16.2936 0.833333 15.8333 0.833333C15.3731 0.833333 15 1.20643 15 1.66667V2.5H16.6667ZM15 3.33333V5H18.3333C18.7936 5 19.1667 4.6269 19.1667 4.16667C19.1667 3.70643 18.7936 3.33333 18.3333 3.33333H15ZM15 5.83333V16.6667H15.4167C16.107 16.6667 16.6667 16.107 16.6667 15.4167V5.83333H15ZM1.66667 3.33333H2.5V5H1.66667C1.20643 5 0.833333 4.6269 0.833333 4.16667C0.833333 3.70643 1.20643 3.33333 1.66667 3.33333Z" fill="#6088D6"></path></svg> 