<?xml version="1.0" encoding="UTF-8"?> <svg xmlns="http://www.w3.org/2000/svg" width="20" height="20" viewBox="0 0 20 20" fill="none"><path d="M9.58333 3.33333H9.16667V2.5H9.58333C12.1146 2.5 14.1667 4.55203 14.1667 7.08333V7.5H13.3333V7.08333C13.3333 5.01227 11.6544 3.33333 9.58333 3.33333Z" fill="#6088D6"></path><path fill-rule="evenodd" clip-rule="evenodd" d="M3.33333 6.66667C3.33333 2.98477 6.3181 0 10 0C13.6819 0 16.6667 2.98477 16.6667 6.66667V6.79658C16.6667 8.15032 16.2988 9.4786 15.6023 10.6394L14.9648 11.7019C14.4425 12.5723 14.1667 13.5683 14.1667 14.5833V16.25C14.1667 16.8021 13.8087 17.2706 13.3122 17.4361C13.1381 18.8806 11.9081 20 10.4167 20H9.58333C8.09191 20 6.86194 18.8806 6.68779 17.4361C6.19129 17.2706 5.83333 16.8021 5.83333 16.25V14.5833C5.83333 13.5683 5.55746 12.5723 5.03522 11.7019L4.39774 10.6394C3.70125 9.4786 3.33333 8.15032 3.33333 6.79658V6.66667ZM7.54167 17.5C7.7347 18.4509 8.57543 19.1667 9.58333 19.1667H10.4167C11.4246 19.1667 12.2653 18.4509 12.4583 17.5H7.54167ZM10 0.833333C6.77834 0.833333 4.16667 3.44501 4.16667 6.66667V6.79658C4.16667 7.99928 4.49353 9.17936 5.11231 10.2107L5.7498 11.2731C6.27809 12.1536 6.58693 13.146 6.65316 14.1667H13.3468C13.4131 13.146 13.7219 12.1536 14.2502 11.2731L14.8877 10.2107C15.5065 9.17937 15.8333 7.99928 15.8333 6.79658V6.66667C15.8333 3.44501 13.2217 0.833333 10 0.833333ZM13.3333 15H6.66667V16.25C6.66667 16.4801 6.85321 16.6667 7.08333 16.6667H12.9167C13.1468 16.6667 13.3333 16.4801 13.3333 16.25V15Z" fill="#6088D6"></path><path d="M2.37796 4.70537L0.711294 3.03871L0.122039 3.62796L1.78871 5.29463L2.37796 4.70537Z" fill="#6088D6"></path><path d="M18.2113 5.29463L19.878 3.62796L19.2887 3.03871L17.622 4.70537L18.2113 5.29463Z" fill="#6088D6"></path><path d="M0 8.33333H2.5V7.5H0V8.33333Z" fill="#6088D6"></path><path d="M17.5 8.33333H20V7.5H17.5V8.33333Z" fill="#6088D6"></path><path d="M1.78871 10.5387L0.122039 12.2054L0.711294 12.7946L2.37796 11.128L1.78871 10.5387Z" fill="#6088D6"></path><path d="M17.622 11.128L19.2887 12.7946L19.878 12.2054L18.2113 10.5387L17.622 11.128Z" fill="#6088D6"></path></svg> 