<?xml version="1.0" encoding="UTF-8"?> <svg xmlns="http://www.w3.org/2000/svg" width="20" height="20" viewBox="0 0 20 20" fill="none"><path fill-rule="evenodd" clip-rule="evenodd" d="M1.66667 0V2.5H0V12.0833C0 16.4556 3.54441 20 7.91667 20H17.5V18.3333H20V0H1.66667ZM16.6667 19.1667V3.33333H0.833333V12.0833C0.833333 13.2339 1.76607 14.1667 2.91667 14.1667H5.83333V17.0833C5.83333 18.2339 6.76607 19.1667 7.91667 19.1667H16.6667ZM5.5246 18.7526C5.19397 18.2797 5 17.7041 5 17.0833V15H2.91667C2.29585 15 1.72033 14.806 1.24741 14.4754C1.96044 16.4631 3.53687 18.0396 5.5246 18.7526ZM3.57741 2.5H2.5V0.833333H5.24408L3.57741 2.5ZM4.75592 2.5L6.42259 0.833333H8.57741L6.91074 2.5H4.75592ZM8.08926 2.5L9.75592 0.833333H11.9107L10.2441 2.5H8.08926ZM11.4226 2.5L13.0893 0.833333H15.2441L13.5774 2.5H11.4226ZM14.7559 2.5L16.4226 0.833333H18.5774L16.9107 2.5H14.7559ZM17.5 3.08926L19.1667 1.42259V3.57741L17.5 5.24408V3.08926ZM17.5 6.42259L19.1667 4.75592V6.91074L17.5 8.57741V6.42259ZM17.5 9.75592L19.1667 8.08926V10.2441L17.5 11.9107V9.75592ZM17.5 13.0893L19.1667 11.4226V13.5774L17.5 15.2441V13.0893ZM17.5 16.4226L19.1667 14.7559V17.5H17.5V16.4226Z" fill="#6088D6"></path></svg> 