<?xml version="1.0" encoding="UTF-8"?> <svg xmlns="http://www.w3.org/2000/svg" width="20" height="20" viewBox="0 0 20 20" fill="none"><g clip-path="url(#clip0_2813_51676)"><path d="M19.1788 15.1653L13.4997 9.51249L14.6439 8.3693C14.8395 8.17384 15.1188 8.07893 15.3928 8.11601C16.6573 8.28218 17.9017 7.86118 18.8077 6.95985C19.7165 6.0518 20.1461 4.75099 19.9572 3.48359C19.9146 3.18543 19.71 2.94099 19.423 2.84547C19.1355 2.74964 18.8242 2.82273 18.6106 3.0362L17.5551 4.09074C17.423 4.22273 17.2478 4.29536 17.0615 4.29536C17.0611 4.29536 17.0608 4.29536 17.0603 4.29536C16.8752 4.29505 16.7019 4.22288 16.5703 4.09074L15.9214 3.44224C15.7889 3.30995 15.7163 3.13447 15.7165 2.94801C15.7168 2.76307 15.7891 2.58988 15.9221 2.45789L16.9768 1.40061C17.1879 1.18974 17.262 0.882272 17.1705 0.598153C17.0783 0.312508 16.8371 0.105141 16.5407 0.056771L16.5325 0.0555503C15.2605 -0.133659 13.9586 0.295571 13.0489 1.20454C12.1476 2.10877 11.7261 3.35206 11.8928 4.61701C11.9294 4.88938 11.8345 5.16847 11.6392 5.36363L9.69931 7.3018L6.56607 4.1858L5.27853 1.7064C5.19934 1.55381 5.0765 1.43159 4.92331 1.3527L2.47641 0.0924766C2.15551 -0.0729287 1.7684 -0.0129616 1.51281 0.241555L0.244655 1.50422C-0.0121502 1.75996 -0.0724223 2.14784 0.094814 2.46934L1.36175 4.90464C1.44079 5.05677 1.56332 5.17869 1.71591 5.25758L4.20477 6.54221L7.34075 9.65821L0.625362 16.3675C-0.201512 17.1938 -0.20319 18.5397 0.621853 19.3678C1.02316 19.7707 1.55737 19.9928 2.12622 19.9936H2.12881C2.69659 19.9936 3.23034 19.7727 3.63195 19.3715L9.49346 13.5152L15.1684 19.1644C15.7212 19.715 16.4475 19.9999 17.1737 19.9999C17.9 19.9999 18.6265 19.715 19.1794 19.1641C19.7155 18.6301 19.9998 17.9199 19.9996 17.1646C19.9996 16.4092 19.7152 15.6992 19.1788 15.1653ZM4.99426 5.67445C4.93414 5.61479 4.86563 5.56474 4.79025 5.52583L2.35128 4.26698L1.2525 2.1547L2.16238 1.24864L4.28854 2.34361L5.55014 4.77311C5.5895 4.84879 5.64001 4.91761 5.70074 4.97804L8.87014 8.13004L8.16976 8.82981L4.99426 5.67445ZM2.80294 18.5431C2.62274 18.723 2.38348 18.8222 2.12866 18.822C2.12835 18.822 2.12789 18.822 2.12759 18.822C1.87246 18.8219 1.63275 18.7221 1.45285 18.5414C1.08282 18.17 1.08358 17.5664 1.45437 17.1959L12.468 6.19203C12.9204 5.74006 13.1397 5.09309 13.0549 4.46259C12.9363 3.56217 13.2369 2.67594 13.8788 2.03187C14.331 1.58021 14.9 1.29823 15.5108 1.21079L15.0939 1.62873C14.7402 1.97968 14.5449 2.44752 14.5441 2.94602C14.5432 3.44605 14.7379 3.91663 15.0924 4.27064L15.74 4.91761C16.0912 5.27101 16.5594 5.46601 17.0583 5.46693H17.0615C17.5609 5.46693 18.0305 5.27238 18.3841 4.91914L18.8003 4.50349C18.7124 5.11262 18.4305 5.68009 17.9796 6.13053C17.334 6.77278 16.447 7.07307 15.548 6.95497C14.9157 6.86936 14.2678 7.08848 13.8149 7.5409L2.80294 18.5431ZM18.3516 18.3345C17.7022 18.9813 16.6454 18.9815 15.9958 18.3347L10.3225 12.6869L12.6706 10.3407L18.3513 15.9952C18.6654 16.3077 18.8383 16.723 18.8383 17.1648C18.8384 17.6065 18.6655 18.0219 18.3516 18.3345Z" fill="#6088D6"></path></g><defs><clipPath id="clip0_2813_51676"><rect width="20" height="20" fill="white"></rect></clipPath></defs></svg> 