<?xml version="1.0" encoding="UTF-8"?> <svg xmlns="http://www.w3.org/2000/svg" width="20" height="20" viewBox="0 0 20 20" fill="none"><path d="M10.8333 15V14.1667H9.16667V15H10.8333Z" fill="#6088D6"></path><path d="M10.8333 18.3333V17.5H9.16667V18.3333H10.8333Z" fill="#6088D6"></path><path fill-rule="evenodd" clip-rule="evenodd" d="M8.33333 0V4.16667H7.5V2.5H5.83333V4.16667H2.5V20H17.5V4.16667H14.1667V2.5H12.5V4.16667H11.6667V0H8.33333ZM16.375 7.33333C16.482 7.19063 16.5789 7.04796 16.6667 6.90693V12.5H3.33333V6.90693C3.42107 7.04796 3.51797 7.19063 3.625 7.33333C4.6471 8.69614 6.5457 10 10 10C13.4543 10 15.3529 8.69614 16.375 7.33333ZM3.48442 5.24283C3.45768 5.15533 3.43544 5.07397 3.41699 5H16.583C16.5646 5.07397 16.5423 5.15533 16.5156 5.24283C16.383 5.67666 16.1418 6.25541 15.7083 6.83333C14.8554 7.97053 13.2124 9.16667 10 9.16667C6.78764 9.16667 5.14456 7.97053 4.29167 6.83333C3.85822 6.25541 3.61698 5.67666 3.48442 5.24283ZM10.8333 4.16667H9.16667V2.5H10.8333V4.16667ZM10.8333 1.66667H9.16667V0.833333H10.8333V1.66667ZM3.33333 15.8333V13.3333H16.6667V15.8333H3.33333ZM3.33333 19.1667V16.6667H16.6667V19.1667H3.33333Z" fill="#6088D6"></path></svg> 