<?xml version="1.0" encoding="UTF-8"?> <svg xmlns="http://www.w3.org/2000/svg" width="24" height="24" viewBox="0 0 24 24" fill="none"><path d="M3 12.1875C3 11.7188 3.16406 11.3203 3.49219 10.9922C3.82031 10.6641 4.21875 10.5 4.6875 10.5C5.15625 10.5 5.55469 10.6641 5.88281 10.9922C6.21094 11.3203 6.375 11.7188 6.375 12.1875C6.375 12.6562 6.21094 13.0547 5.88281 13.3828C5.55469 13.7109 5.15625 13.875 4.6875 13.875C4.21875 13.875 3.82031 13.7109 3.49219 13.3828C3.16406 13.0547 3 12.6562 3 12.1875ZM10.3125 12.1875C10.3125 11.7188 10.4766 11.3203 10.8047 10.9922C11.1328 10.6641 11.5312 10.5 12 10.5C12.4688 10.5 12.8672 10.6641 13.1953 10.9922C13.5234 11.3203 13.6875 11.7188 13.6875 12.1875C13.6875 12.6562 13.5234 13.0547 13.1953 13.3828C12.8672 13.7109 12.4688 13.875 12 13.875C11.5312 13.875 11.1328 13.7109 10.8047 13.3828C10.4766 13.0547 10.3125 12.6562 10.3125 12.1875ZM17.625 12.1875C17.625 11.7188 17.7891 11.3203 18.1172 10.9922C18.4453 10.6641 18.8438 10.5 19.3125 10.5C19.7812 10.5 20.1797 10.6641 20.5078 10.9922C20.8359 11.3203 21 11.7188 21 12.1875C21 12.6562 20.8359 13.0547 20.5078 13.3828C20.1797 13.7109 19.7812 13.875 19.3125 13.875C18.8438 13.875 18.4453 13.7109 18.1172 13.3828C17.7891 13.0547 17.625 12.6562 17.625 12.1875Z" fill="#6088D6"></path></svg> 