<?xml version="1.0" encoding="UTF-8"?> <svg xmlns="http://www.w3.org/2000/svg" width="20" height="20" viewBox="0 0 20 20" fill="none"><path fill-rule="evenodd" clip-rule="evenodd" d="M17.0264 3.03799H13.9089C13.9084 3.03799 13.908 3.03785 13.9076 3.03771C13.9071 3.03757 13.9067 3.03743 13.9062 3.03743H10.65C10.6495 3.03743 10.6491 3.03757 10.6487 3.03771C10.6483 3.03785 10.6478 3.03799 10.6474 3.03799H3.54611C3.20099 3.03799 2.92111 3.31787 2.92111 3.66299C2.92111 4.00812 3.20099 4.28799 3.54611 4.28799H10.025V8.04999C10.025 8.39374 10.3062 8.67499 10.65 8.67499H13.9062C14.25 8.67499 14.5312 8.39374 14.5312 8.04999V4.28799H17.0264C17.4496 4.28799 17.7939 4.63224 17.7939 5.05549V14.9444C17.7939 15.3677 17.4496 15.7119 17.0264 15.7119H7.13743C6.71443 15.7119 6.37024 15.3677 6.37024 14.9444V8.0743C6.37024 7.72918 6.09036 7.4493 5.74524 7.4493H4.09274C3.74761 7.4493 3.46774 7.72918 3.46774 8.0743C3.46774 8.41943 3.74761 8.6993 4.09274 8.6993H5.12024V14.9444C5.12024 16.0568 6.02511 16.9619 7.13743 16.9619H17.0264C18.1387 16.9619 19.0439 16.0568 19.0439 14.9444V5.05555C19.0439 3.94318 18.1387 3.03799 17.0264 3.03799ZM13.2812 7.42499H11.275V4.28799H13.2812V7.42499Z" fill="#6088D6"></path><path d="M1.58112 6.49293H5.43762C5.78274 6.49293 6.06262 6.21305 6.06262 5.86793C6.06262 5.5228 5.78274 5.24293 5.43762 5.24293H1.58112C1.23599 5.24293 0.956116 5.5228 0.956116 5.86793C0.956116 6.21305 1.23593 6.49293 1.58112 6.49293Z" fill="#6088D6"></path><path d="M16.4804 13.9035C16.4804 14.2486 16.2006 14.5285 15.8554 14.5285H13.9036C13.5584 14.5285 13.2786 14.2486 13.2786 13.9035C13.2786 13.5584 13.5584 13.2785 13.9036 13.2785H15.8554C16.2006 13.2785 16.4804 13.5584 16.4804 13.9035Z" fill="#6088D6"></path></svg> 