<?xml version="1.0" encoding="UTF-8"?> <svg xmlns="http://www.w3.org/2000/svg" width="20" height="20" viewBox="0 0 20 20" fill="none"><path fill-rule="evenodd" clip-rule="evenodd" d="M7.14341 7.05586C7.82884 6.37047 8.94407 6.37047 9.62946 7.05586C10.3149 7.74129 10.3149 8.85648 9.62946 9.54191C8.94407 10.2273 7.8288 10.2273 7.14341 9.54191C6.45806 8.85648 6.45806 7.74125 7.14341 7.05586ZM7.97216 8.7132C8.2006 8.94168 8.57235 8.94168 8.80083 8.7132C9.02927 8.48472 9.02927 8.11297 8.80083 7.88453C8.57231 7.65605 8.2006 7.65609 7.97212 7.88453C7.74364 8.11297 7.74372 8.48472 7.97216 8.7132Z" fill="#6088D6"></path><path fill-rule="evenodd" clip-rule="evenodd" d="M10.4581 12.8566C9.77115 12.1696 8.65923 12.1695 7.97212 12.8566C7.28669 13.542 7.28669 14.6572 7.97212 15.3426C8.65915 16.0296 9.77107 16.0297 10.4581 15.3426C11.1436 14.6572 11.1436 13.542 10.4581 12.8566ZM9.62947 14.5139C9.40052 14.7429 9.02978 14.743 8.8008 14.5139C8.57236 14.2855 8.57236 13.9137 8.8008 13.6853C9.02978 13.4563 9.40048 13.4562 9.62947 13.6853C9.85791 13.9137 9.85791 14.2854 9.62947 14.5139Z" fill="#6088D6"></path><path d="M12.4651 10.2025C12.7867 10.1668 13.0765 10.3986 13.1122 10.7202C13.148 11.0418 12.9162 11.3315 12.5946 11.3673L5.1365 12.196C5.11455 12.1984 5.09267 12.1996 5.07107 12.1996C4.77638 12.1996 4.52271 11.9779 4.48939 11.6783C4.45365 11.3566 4.68544 11.0669 5.00709 11.0312L12.4651 10.2025Z" fill="#6088D6"></path><path fill-rule="evenodd" clip-rule="evenodd" d="M18.9997 0.171636C19.2285 -0.0571917 19.5995 -0.0571917 19.8283 0.171636C20.0572 0.400464 20.0572 0.771479 19.8284 1.00031L18.1218 2.70694C18.1718 2.81187 18.212 2.92261 18.2409 3.03815L19.5511 8.34166C19.7001 8.93724 19.5229 9.57693 19.0888 10.011L9.62952 19.4859C8.9441 20.1714 7.82886 20.1713 7.14347 19.4859L0.514074 12.8566C-0.171277 12.1711 -0.171277 11.0559 0.514074 10.3705L9.98894 0.911244C10.423 0.477143 11.0627 0.299995 11.6583 0.448862L16.9618 1.75913C17.0774 1.788 17.1881 1.82827 17.293 1.87827L18.9997 0.171636ZM18.2601 9.1824C18.4047 9.03767 18.4638 8.82447 18.4142 8.62596L17.1843 3.64425L15.7732 5.05538C16.0844 5.7087 15.9703 6.51565 15.4301 7.0558C15.0875 7.39854 14.6373 7.56986 14.1872 7.56986C13.737 7.56986 13.2868 7.3985 12.9442 7.0558C12.2587 6.37037 12.2587 5.25518 12.9442 4.56975C13.4842 4.02968 14.2912 3.91554 14.9446 4.22671L16.3557 2.81558L11.3741 1.58577C11.3276 1.57417 11.2803 1.56851 11.2333 1.56851C11.0794 1.56851 10.9284 1.62909 10.8176 1.73991L1.3427 11.1992C1.11423 11.4276 1.11423 11.7994 1.3427 12.0279L7.97207 18.6573C8.20054 18.8857 8.5723 18.8857 8.80078 18.6573L18.2601 9.1824ZM13.7728 6.22717C14.0013 6.45565 14.3731 6.45561 14.6015 6.22717C14.8299 5.99873 14.83 5.62698 14.6015 5.39854L14.6015 5.3985L14.6014 5.39846C14.4872 5.28428 14.3372 5.22717 14.1872 5.22717C14.0371 5.22717 13.8871 5.28424 13.7728 5.3985C13.5444 5.62694 13.5444 5.99873 13.7728 6.22717Z" fill="#6088D6"></path></svg> 