<?xml version="1.0" encoding="UTF-8"?> <svg xmlns="http://www.w3.org/2000/svg" width="20" height="20" viewBox="0 0 20 20" fill="none"><g clip-path="url(#clip0_2641_60975)"><path d="M19.179 15.1652L13.4999 9.51246L14.6441 8.36927C14.8397 8.17381 15.119 8.0789 15.393 8.11598C16.6575 8.28214 17.9019 7.86115 18.8079 6.95982C19.7168 6.05177 20.1463 4.75095 19.9574 3.48356C19.9148 3.1854 19.7102 2.94096 19.4232 2.84544C19.1357 2.74961 18.8244 2.8227 18.6108 3.03617L17.5553 4.09071C17.4232 4.2227 17.248 4.29533 17.0617 4.29533C17.0613 4.29533 17.061 4.29533 17.0605 4.29533C16.8754 4.29502 16.7021 4.22285 16.5705 4.09071L15.9216 3.44221C15.7891 3.30991 15.7165 3.13444 15.7167 2.94798C15.717 2.76304 15.7893 2.58985 15.9223 2.45786L16.977 1.40058C17.1881 1.18971 17.2622 0.882241 17.1707 0.598122C17.0785 0.312478 16.8373 0.105111 16.5409 0.0567405L16.5327 0.0555198C15.2607 -0.133689 13.9588 0.295541 13.0491 1.20451C12.1478 2.10874 11.7263 3.35203 11.893 4.61698C11.9296 4.88935 11.8347 5.16843 11.6394 5.3636L9.69951 7.30177L6.56627 4.18577L5.27873 1.70637C5.19954 1.55378 5.07671 1.43156 4.92351 1.35267L2.47661 0.0924461C2.15572 -0.0729592 1.7686 -0.0129922 1.51302 0.241524L0.244859 1.50419C-0.0119461 1.75993 -0.0722182 2.1478 0.0950181 2.46931L1.36196 4.90461C1.441 5.05674 1.56352 5.17866 1.71611 5.25755L4.20497 6.54218L7.34096 9.65818L0.625566 16.3675C-0.201308 17.1937 -0.202986 18.5397 0.622057 19.3678C1.02336 19.7706 1.55757 19.9928 2.12642 19.9936H2.12901C2.69679 19.9936 3.23055 19.7726 3.63216 19.3715L9.49367 13.5151L15.1686 19.1644C15.7214 19.7149 16.4477 19.9998 17.1739 19.9998C17.9002 19.9998 18.6267 19.7149 19.1796 19.1641C19.7157 18.63 20 17.9199 19.9998 17.1646C19.9998 16.4091 19.7154 15.6991 19.179 15.1652ZM4.99446 5.67442C4.93434 5.61475 4.86583 5.56471 4.79045 5.5258L2.35149 4.26695L1.2527 2.15467L2.16258 1.2486L4.28874 2.34358L5.55034 4.77308C5.58971 4.84876 5.64021 4.91758 5.70094 4.97801L8.87035 8.13001L8.16997 8.82978L4.99446 5.67442ZM2.80315 18.5431C2.62294 18.723 2.38368 18.8222 2.12886 18.822C2.12856 18.822 2.1281 18.822 2.12779 18.822C1.87267 18.8218 1.63295 18.7221 1.45305 18.5414C1.08302 18.17 1.08379 17.5664 1.45458 17.1959L12.4682 6.19199C12.9206 5.74003 13.1399 5.09306 13.0551 4.46256C12.9365 3.56214 13.2371 2.67591 13.879 2.03184C14.3312 1.58018 14.9002 1.2982 15.511 1.21076L15.0941 1.6287C14.7404 1.97965 14.5451 2.44749 14.5443 2.94599C14.5434 3.44602 14.7381 3.9166 15.0926 4.27061L15.7402 4.91758C16.0914 5.27097 16.5596 5.46598 17.0585 5.4669H17.0617C17.5611 5.4669 18.0307 5.27235 18.3844 4.91911L18.8005 4.50346C18.7126 5.11259 18.4307 5.68006 17.9798 6.1305C17.3342 6.77274 16.4473 7.07304 15.5482 6.95493C14.9159 6.86933 14.268 7.08845 13.8151 7.54087L2.80315 18.5431ZM18.3519 18.3345C17.7024 18.9813 16.6456 18.9815 15.996 18.3346L10.3227 12.6869L12.6709 10.3407L18.3515 15.9952C18.6656 16.3077 18.8385 16.723 18.8385 17.1647C18.8386 17.6065 18.6657 18.0218 18.3519 18.3345Z" fill="#6088D6"></path></g><defs><clipPath id="clip0_2641_60975"><rect width="20" height="20" fill="white"></rect></clipPath></defs></svg> 