<?xml version="1.0" encoding="UTF-8"?> <svg xmlns="http://www.w3.org/2000/svg" width="150" height="45" viewBox="0 0 150 45" fill="none"><rect width="150" height="45" rx="8" fill="black"></rect><path d="M54.2325 30.6807H48.6832L47.3505 34.5486H45L50.2563 20.2386H52.6984L57.9546 34.5486H55.5641L54.2325 30.6807ZM49.2579 28.8959H53.6567L51.4882 22.6187H51.4276L49.2579 28.8959Z" fill="white"></path><path d="M69.3064 29.3326C69.3064 32.5747 67.541 34.6577 64.8768 34.6577C64.2019 34.6924 63.5307 34.5396 62.94 34.2168C62.3494 33.894 61.8632 33.4142 61.5371 32.8324H61.4867V38H59.3079V24.1155H61.4168V25.8507H61.4569C61.798 25.2717 62.2925 24.7944 62.8876 24.4696C63.4827 24.1449 64.1563 23.9847 64.8367 24.0063C67.5306 24.0063 69.3064 26.0994 69.3064 29.3326ZM67.067 29.3326C67.067 27.2203 65.9564 25.8316 64.2619 25.8316C62.5972 25.8316 61.4775 27.2496 61.4775 29.3326C61.4775 31.4347 62.5972 32.8425 64.2619 32.8425C65.9564 32.8425 67.067 31.464 67.067 29.3326Z" fill="white"></path><path d="M80.9891 29.3326C80.9891 32.5747 79.2236 34.6577 76.5594 34.6577C75.8845 34.6924 75.2133 34.5396 74.6227 34.2168C74.032 33.894 73.5458 33.4142 73.2197 32.8324H73.1693V38H70.9905V24.1155H73.0994V25.8507H73.1395C73.4806 25.2717 73.9751 24.7944 74.5702 24.4697C75.1653 24.1449 75.8389 23.9847 76.5193 24.0063C79.2133 24.0063 80.9891 26.0994 80.9891 29.3326ZM78.7496 29.3326C78.7496 27.2203 77.639 25.8316 75.9446 25.8316C74.2799 25.8316 73.1602 27.2496 73.1602 29.3326C73.1602 31.4347 74.2799 32.8425 75.9446 32.8425C77.6391 32.8425 78.7496 31.464 78.7496 29.3326Z" fill="white"></path><path d="M88.7103 30.5615C88.8718 31.9805 90.2743 32.9123 92.1909 32.9123C94.0273 32.9123 95.3485 31.9805 95.3485 30.7009C95.3485 29.5902 94.5517 28.9252 92.6648 28.4694L90.778 28.0226C88.1047 27.3879 86.8636 26.159 86.8636 24.1649C86.8636 21.6959 89.0527 20 92.1611 20C95.2374 20 97.3464 21.6959 97.4174 24.1649H95.218C95.0863 22.7368 93.8853 21.8748 92.1302 21.8748C90.375 21.8748 89.174 22.747 89.174 24.0164C89.174 25.0281 89.9411 25.6234 91.8176 26.0791L93.4216 26.4662C96.4087 27.1606 97.6498 28.34 97.6498 30.4331C97.6498 33.1103 95.4801 34.787 92.0294 34.787C88.8007 34.787 86.6208 33.1497 86.48 30.5614L88.7103 30.5615Z" fill="white"></path><path d="M102.352 21.6464V24.1155H104.37V25.8114H102.352V31.563C102.352 32.4565 102.756 32.8729 103.643 32.8729C103.883 32.8688 104.122 32.8523 104.36 32.8234V34.5091C103.961 34.5824 103.556 34.6156 103.15 34.6082C101.001 34.6082 100.163 33.8148 100.163 31.7914V25.8114H98.6195V24.1155H100.163V21.6464H102.352Z" fill="white"></path><path d="M105.539 29.3326C105.539 26.0499 107.506 23.9872 110.574 23.9872C113.651 23.9872 115.609 26.0499 115.609 29.3326C115.609 32.6242 113.661 34.678 110.574 34.678C107.487 34.678 105.539 32.6242 105.539 29.3326ZM113.389 29.3326C113.389 27.0808 112.339 25.7517 110.574 25.7517C108.808 25.7517 107.759 27.0909 107.759 29.3326C107.759 31.5934 108.808 32.9123 110.574 32.9123C112.339 32.9123 113.389 31.5934 113.389 29.3326Z" fill="white"></path><path d="M117.405 24.1155H119.483V25.8912H119.534C119.674 25.3366 120.005 24.8465 120.47 24.5032C120.935 24.16 121.506 23.9845 122.087 24.0063C122.338 24.0054 122.588 24.0322 122.833 24.0862V26.0893C122.516 25.9941 122.186 25.9504 121.854 25.9599C121.538 25.9473 121.222 26.0021 120.929 26.1207C120.636 26.2393 120.373 26.4187 120.157 26.6468C119.942 26.8748 119.779 27.146 119.68 27.4418C119.581 27.7376 119.548 28.0509 119.584 28.3603V34.5486H117.405L117.405 24.1155Z" fill="white"></path><path d="M132.879 31.4842C132.586 33.3782 130.709 34.678 128.308 34.678C125.22 34.678 123.304 32.6445 123.304 29.3821C123.304 26.1096 125.231 23.9872 128.217 23.9872C131.153 23.9872 133 25.97 133 29.1334V29.8671H125.503V29.9965C125.469 30.3805 125.517 30.7673 125.647 31.1313C125.776 31.4952 125.982 31.828 126.252 32.1075C126.522 32.387 126.85 32.6068 127.213 32.7524C127.576 32.8979 127.967 32.9659 128.359 32.9517C128.873 32.9991 129.39 32.8819 129.832 32.6175C130.273 32.3531 130.616 31.9556 130.81 31.4842L132.879 31.4842ZM125.513 28.3704H130.82C130.84 28.0252 130.786 27.6797 130.664 27.3556C130.541 27.0316 130.351 26.7359 130.107 26.4873C129.862 26.2387 129.568 26.0424 129.243 25.9108C128.918 25.7791 128.568 25.715 128.217 25.7225C127.862 25.7204 127.51 25.7874 127.182 25.9196C126.853 26.0518 126.555 26.2467 126.304 26.4928C126.052 26.739 125.853 27.0317 125.718 27.3539C125.582 27.6762 125.513 28.0217 125.513 28.3704Z" fill="white"></path><path d="M48.556 9.32367C49.0181 9.29289 49.4817 9.35769 49.9135 9.5134C50.3453 9.6691 50.7345 9.91183 51.0531 10.2241C51.3716 10.5363 51.6115 10.9103 51.7555 11.3191C51.8994 11.7278 51.9439 12.1611 51.8856 12.5877C51.8856 14.6863 50.6638 15.8927 48.556 15.8927H46V9.32367H48.556ZM47.0991 14.9637H48.4332C48.7634 14.982 49.0938 14.9317 49.4004 14.8166C49.707 14.7014 49.9821 14.5242 50.2057 14.2979C50.4292 14.0716 50.5956 13.8019 50.6926 13.5083C50.7897 13.2148 50.8151 12.9049 50.7669 12.6011C50.8116 12.2985 50.7837 11.9905 50.6851 11.6992C50.5865 11.4078 50.4197 11.1403 50.1967 10.9157C49.9737 10.6912 49.6999 10.5153 49.395 10.4005C49.0902 10.2858 48.7617 10.2351 48.4332 10.252H47.0991V14.9637Z" fill="white"></path><path d="M53.1272 13.4118C53.0936 13.086 53.1337 12.7573 53.245 12.4467C53.3563 12.1362 53.5363 11.8507 53.7734 11.6085C54.0105 11.3663 54.2995 11.1728 54.6219 11.0404C54.9443 10.908 55.293 10.8396 55.6455 10.8396C55.9981 10.8396 56.3467 10.908 56.6691 11.0404C56.9915 11.1728 57.2805 11.3663 57.5176 11.6085C57.7548 11.8507 57.9347 12.1362 58.046 12.4467C58.1573 12.7573 58.1975 13.086 58.1639 13.4118C58.1981 13.7379 58.1584 14.067 58.0474 14.3781C57.9364 14.6891 57.7566 14.9751 57.5194 15.2178C57.2822 15.4605 56.993 15.6544 56.6703 15.7871C56.3475 15.9198 55.9985 15.9883 55.6455 15.9883C55.2926 15.9883 54.9435 15.9198 54.6208 15.7871C54.2981 15.6544 54.0088 15.4605 53.7716 15.2178C53.5345 14.9751 53.3546 14.6891 53.2436 14.3781C53.1326 14.067 53.0929 13.7379 53.1272 13.4118ZM57.0799 13.4118C57.0799 12.3372 56.5599 11.7088 55.6473 11.7088C54.7312 11.7088 54.2158 12.3372 54.2158 13.4118C54.2158 14.495 54.7312 15.1185 55.6473 15.1185C56.5599 15.1185 57.0799 14.4906 57.0799 13.4118Z" fill="white"></path><path d="M64.8591 15.8926H63.7658L62.6621 12.2415H62.5787L61.4796 15.8926H60.3968L58.9248 10.9352H59.9937L60.9504 14.718H61.0291L62.127 10.9352H63.1381L64.236 14.718H64.3194L65.2714 10.9352H66.3253L64.8591 15.8926Z" fill="white"></path><path d="M67.5633 10.9352H68.5778V11.7227H68.6566C68.7902 11.4399 69.0155 11.2028 69.3012 11.0445C69.5868 10.8861 69.9186 10.8145 70.2502 10.8395C70.51 10.8214 70.7709 10.8578 71.0136 10.9459C71.2562 11.0341 71.4744 11.1718 71.6519 11.3489C71.8294 11.526 71.9617 11.7379 72.039 11.9689C72.1164 12.1999 72.1367 12.4441 72.0986 12.6833V15.8925H71.0447V12.929C71.0447 12.1324 70.6717 11.7362 69.8923 11.7362C69.7159 11.7286 69.5398 11.7564 69.3761 11.8179C69.2123 11.8794 69.0649 11.973 68.9438 12.0923C68.8226 12.2116 68.7308 12.3538 68.6744 12.5092C68.618 12.6646 68.5985 12.8294 68.6172 12.9925V15.8926H67.5633L67.5633 10.9352Z" fill="white"></path><path d="M73.7779 9H74.8318V15.8926H73.7779V9Z" fill="white"></path><path d="M76.2968 13.4118C76.2632 13.086 76.3034 12.7572 76.4147 12.4467C76.5261 12.1361 76.7061 11.8506 76.9432 11.6084C77.1803 11.3662 77.4694 11.1727 77.7918 11.0403C78.1142 10.9079 78.4629 10.8395 78.8155 10.8395C79.168 10.8395 79.5167 10.9079 79.8391 11.0403C80.1615 11.1727 80.4506 11.3662 80.6877 11.6084C80.9249 11.8506 81.1049 12.1361 81.2162 12.4467C81.3275 12.7572 81.3677 13.086 81.3341 13.4118C81.3683 13.7379 81.3286 14.067 81.2175 14.3781C81.1065 14.6891 80.9266 14.9752 80.6894 15.2178C80.4522 15.4605 80.163 15.6544 79.8402 15.787C79.5175 15.9197 79.1684 15.9883 78.8155 15.9883C78.4625 15.9883 78.1134 15.9197 77.7907 15.787C77.4679 15.6544 77.1787 15.4605 76.9415 15.2178C76.7043 14.9752 76.5244 14.6891 76.4134 14.3781C76.3023 14.067 76.2626 13.7379 76.2968 13.4118ZM80.2495 13.4118C80.2495 12.3372 79.7295 11.7088 78.8169 11.7088C77.9008 11.7088 77.3855 12.3372 77.3855 13.4118C77.3855 14.495 77.9009 15.1185 78.8169 15.1185C79.7295 15.1185 80.2495 14.4906 80.2495 13.4118Z" fill="white"></path><path d="M82.4436 14.4906C82.4436 13.5983 83.1593 13.0839 84.4298 13.0107L85.8763 12.9333V12.5054C85.8763 11.9819 85.5034 11.6862 84.783 11.6862C84.1947 11.6862 83.7871 11.8867 83.6701 12.2372H82.6498C82.7575 11.3857 83.6203 10.8395 84.8317 10.8395C86.1705 10.8395 86.9256 11.4583 86.9256 12.5054V15.8926H85.9111V15.1959H85.8277C85.6584 15.4458 85.4208 15.6495 85.139 15.7863C84.8572 15.923 84.5413 15.9879 84.2237 15.9743C83.9995 15.9959 83.7729 15.9737 83.5585 15.9091C83.3442 15.8445 83.1468 15.7389 82.9791 15.5991C82.8113 15.4593 82.677 15.2884 82.5848 15.0975C82.4926 14.9066 82.4445 14.6999 82.4436 14.4906ZM85.8763 14.067V13.6526L84.5723 13.73C83.8368 13.7757 83.5033 14.0079 83.5033 14.4449C83.5033 14.8911 83.9202 15.1508 84.4935 15.1508C84.6615 15.1665 84.8312 15.1508 84.9925 15.1045C85.1538 15.0581 85.3034 14.9821 85.4324 14.881C85.5614 14.7799 85.6672 14.6557 85.7435 14.5159C85.8197 14.3761 85.8649 14.2234 85.8763 14.067Z" fill="white"></path><path d="M88.3107 13.4118C88.3107 11.8453 89.1782 10.853 90.5274 10.853C90.8611 10.8387 91.1924 10.9129 91.4823 11.0669C91.7723 11.2209 92.0091 11.4484 92.165 11.7227H92.2438V9H93.2976V15.8926H92.2878V15.1093H92.2044C92.0364 15.3818 91.7914 15.6064 91.4958 15.7589C91.2002 15.9114 90.8653 15.9858 90.5274 15.9743C89.1689 15.9743 88.3107 14.982 88.3107 13.4118ZM89.3994 13.4118C89.3994 14.4632 89.9333 15.0959 90.8262 15.0959C91.7145 15.0959 92.2635 14.4541 92.2635 13.4161C92.2635 12.3829 91.7087 11.7319 90.8262 11.7319C89.9391 11.7319 89.3994 12.3689 89.3994 13.4118Z" fill="white"></path><path d="M97.658 13.4118C97.6245 13.086 97.6646 12.7573 97.7759 12.4467C97.8872 12.1362 98.0672 11.8507 98.3043 11.6085C98.5414 11.3663 98.8304 11.1728 99.1528 11.0404C99.4752 10.908 99.8239 10.8396 100.176 10.8396C100.529 10.8396 100.878 10.908 101.2 11.0404C101.522 11.1728 101.811 11.3663 102.049 11.6085C102.286 11.8507 102.466 12.1362 102.577 12.4467C102.688 12.7573 102.728 13.086 102.695 13.4118C102.729 13.7379 102.689 14.067 102.578 14.3781C102.467 14.6891 102.287 14.9751 102.05 15.2178C101.813 15.4605 101.524 15.6544 101.201 15.7871C100.878 15.9198 100.529 15.9883 100.176 15.9883C99.8234 15.9883 99.4744 15.9198 99.1517 15.7871C98.8289 15.6544 98.5397 15.4605 98.3025 15.2178C98.0653 14.9751 97.8855 14.6891 97.7745 14.3781C97.6635 14.067 97.6238 13.7379 97.658 13.4118ZM101.611 13.4118C101.611 12.3372 101.091 11.7088 100.178 11.7088C99.262 11.7088 98.7467 12.3372 98.7467 13.4118C98.7467 14.495 99.2621 15.1185 100.178 15.1185C101.091 15.1185 101.611 14.4906 101.611 13.4118Z" fill="white"></path><path d="M104.109 10.9352H105.123V11.7227H105.202C105.336 11.4399 105.561 11.2028 105.847 11.0445C106.132 10.8861 106.464 10.8145 106.796 10.8395C107.056 10.8214 107.316 10.8578 107.559 10.9459C107.802 11.0341 108.02 11.1718 108.197 11.3489C108.375 11.526 108.507 11.7379 108.585 11.9689C108.662 12.1999 108.682 12.4441 108.644 12.6833V15.8925H107.59V12.929C107.59 12.1324 107.217 11.7362 106.438 11.7362C106.261 11.7286 106.085 11.7564 105.922 11.8179C105.758 11.8794 105.61 11.973 105.489 12.0923C105.368 12.2116 105.276 12.3538 105.22 12.5092C105.164 12.6646 105.144 12.8294 105.163 12.9925V15.8926H104.109V10.9352Z" fill="white"></path><path d="M114.599 9.70099V10.9578H115.756V11.7819H114.599V14.331C114.599 14.8503 114.83 15.0776 115.354 15.0776C115.489 15.0772 115.623 15.0697 115.756 15.0551V15.87C115.567 15.9014 115.375 15.9182 115.183 15.92C114.011 15.92 113.544 15.5373 113.544 14.5815V11.7818H112.696V10.9578H113.544V9.70099H114.599Z" fill="white"></path><path d="M117.196 9H118.24V11.7319H118.324C118.464 11.4464 118.695 11.2079 118.987 11.049C119.278 10.8901 119.615 10.8185 119.952 10.8438C120.211 10.8308 120.469 10.8708 120.709 10.9612C120.949 11.0515 121.164 11.1898 121.34 11.3664C121.516 11.5429 121.647 11.7532 121.725 11.9823C121.803 12.2115 121.826 12.4538 121.791 12.692V15.8926H120.736V12.9333C120.736 12.1415 120.339 11.7405 119.594 11.7405C119.413 11.7267 119.231 11.7498 119.06 11.8082C118.89 11.8666 118.735 11.9589 118.607 12.0786C118.479 12.1983 118.381 12.3426 118.319 12.5012C118.257 12.6599 118.234 12.8292 118.25 12.9973V15.8926H117.196L117.196 9Z" fill="white"></path><path d="M127.936 14.5541C127.793 15.0071 127.483 15.399 127.06 15.6612C126.637 15.9234 126.128 16.0392 125.622 15.9883C125.271 15.9969 124.921 15.9343 124.598 15.8049C124.275 15.6756 123.986 15.4824 123.751 15.239C123.516 14.9955 123.341 14.7076 123.239 14.3951C123.136 14.0826 123.107 13.7531 123.156 13.4295C123.109 13.1048 123.138 12.7746 123.24 12.4612C123.343 12.1478 123.517 11.8586 123.75 11.613C123.983 11.3674 124.271 11.1712 124.593 11.0378C124.916 10.9044 125.265 10.8367 125.618 10.8395C127.104 10.8395 128 11.7819 128 13.3386V13.68H124.229V13.7348C124.213 13.9168 124.237 14.0999 124.301 14.2724C124.366 14.445 124.468 14.6032 124.602 14.7369C124.736 14.8707 124.898 14.9769 125.079 15.0489C125.26 15.1209 125.455 15.157 125.651 15.155C125.903 15.1831 126.159 15.141 126.385 15.034C126.611 14.9269 126.798 14.7599 126.922 14.554L127.936 14.5541ZM124.229 12.9564H126.926C126.94 12.7901 126.915 12.6229 126.855 12.4658C126.794 12.3087 126.699 12.1651 126.575 12.0441C126.452 11.9232 126.302 11.8276 126.136 11.7636C125.97 11.6995 125.792 11.6684 125.612 11.6722C125.43 11.6701 125.249 11.7019 125.08 11.7657C124.911 11.8294 124.758 11.924 124.629 12.0437C124.5 12.1633 124.398 12.3058 124.33 12.4625C124.261 12.6193 124.227 12.7872 124.229 12.9564Z" fill="white"></path><path d="M33.5397 22.2949C33.5525 21.3367 33.8153 20.3972 34.3037 19.5637C34.792 18.7303 35.4902 18.0301 36.333 17.5282C35.7976 16.7875 35.0912 16.1779 34.27 15.7479C33.4487 15.3179 32.5353 15.0793 31.6022 15.051C29.6117 14.8487 27.6821 16.2046 26.6678 16.2046C25.6338 16.2046 24.0722 15.0711 22.3905 15.1046C21.3027 15.1387 20.2427 15.445 19.3135 15.9939C18.3843 16.5427 17.6178 17.3153 17.0886 18.2364C14.7962 22.0805 16.5061 27.7302 18.7021 30.8375C19.8008 32.3591 21.0848 34.0587 22.765 33.9984C24.4091 33.9324 25.0231 32.983 27.0077 32.983C28.9739 32.983 29.55 33.9984 31.2643 33.9601C33.0285 33.9324 34.14 32.4318 35.2002 30.8958C35.9896 29.8116 36.597 28.6134 37 27.3454C35.975 26.9256 35.1004 26.2227 34.485 25.3246C33.8697 24.4265 33.5409 23.3728 33.5397 22.2949Z" fill="white"></path><path d="M30.3018 13.0074C31.2638 11.889 31.7377 10.4514 31.6229 9C30.1533 9.1495 28.7958 9.82979 27.8209 10.9053C27.3442 11.4307 26.9791 12.042 26.7465 12.7042C26.5139 13.3663 26.4183 14.0664 26.4652 14.7644C27.2003 14.7717 27.9275 14.6174 28.592 14.3131C29.2566 14.0087 29.8412 13.5623 30.3018 13.0074Z" fill="white"></path></svg> 