<?xml version="1.0" encoding="UTF-8"?> <svg xmlns="http://www.w3.org/2000/svg" width="150" height="45" viewBox="0 0 150 45" fill="none"><rect width="150" height="45" rx="5" fill="black"></rect><path d="M54.3994 13.1999C54.3994 13.9999 54.1994 14.6999 53.6994 15.1999C53.0994 15.7999 52.3994 16.0999 51.4994 16.0999C50.5994 16.0999 49.8994 15.7999 49.2994 15.1999C48.6994 14.5999 48.3994 13.8999 48.3994 12.9999C48.3994 12.0999 48.6994 11.3999 49.2994 10.7999C49.8994 10.1999 50.5994 9.8999 51.4994 9.8999C51.8994 9.8999 52.2994 9.9999 52.6994 10.1999C53.0994 10.3999 53.3994 10.5999 53.5994 10.8999L53.0994 11.3999C52.6994 10.8999 52.1994 10.6999 51.4994 10.6999C50.8994 10.6999 50.2994 10.8999 49.8994 11.3999C49.3994 11.7999 49.1994 12.3999 49.1994 13.0999C49.1994 13.7999 49.3994 14.3999 49.8994 14.7999C50.3994 15.1999 50.8994 15.4999 51.4994 15.4999C52.1994 15.4999 52.6994 15.2999 53.1994 14.7999C53.4994 14.4999 53.6994 14.0999 53.6994 13.5999H51.4994V12.7999H54.3994C54.3994 12.9999 54.3994 13.0999 54.3994 13.1999Z" fill="white"></path><path d="M59.0994 10.6999H56.3994V12.5999H58.8994V13.2999H56.3994V15.1999H59.0994V15.9999H55.5994V9.9999H59.0994V10.6999Z" fill="white"></path><path d="M62.2994 15.9999H61.4994V10.6999H59.7994V9.9999H63.9994V10.6999H62.2994V15.9999Z" fill="white"></path><path d="M66.9994 15.9999V9.9999H67.7994V15.9999H66.9994Z" fill="white"></path><path d="M71.1994 15.9999H70.3994V10.6999H68.6994V9.9999H72.7994V10.6999H71.0994V15.9999H71.1994Z" fill="white"></path><path d="M80.6994 15.1999C80.0994 15.7999 79.3994 16.0999 78.4994 16.0999C77.5994 16.0999 76.8994 15.7999 76.2994 15.1999C75.6994 14.5999 75.3994 13.8999 75.3994 12.9999C75.3994 12.0999 75.6994 11.3999 76.2994 10.7999C76.8994 10.1999 77.5994 9.8999 78.4994 9.8999C79.3994 9.8999 80.0994 10.1999 80.6994 10.7999C81.2994 11.3999 81.5994 12.0999 81.5994 12.9999C81.4994 13.8999 81.1994 14.5999 80.6994 15.1999ZM76.7994 14.6999C77.1994 15.0999 77.7994 15.3999 78.3994 15.3999C78.9994 15.3999 79.5994 15.1999 79.9994 14.6999C80.3994 14.2999 80.6994 13.6999 80.6994 12.9999C80.6994 12.2999 80.4994 11.6999 79.9994 11.2999C79.5994 10.8999 78.9994 10.5999 78.3994 10.5999C77.7994 10.5999 77.1994 10.7999 76.7994 11.2999C76.3994 11.6999 76.0994 12.2999 76.0994 12.9999C76.1994 13.6999 76.3994 14.2999 76.7994 14.6999Z" fill="white"></path><path d="M82.5994 15.9999V9.9999H83.4994L86.3994 14.6999V9.9999H87.1994V15.9999H86.3994L83.2994 11.0999V15.9999H82.5994Z" fill="white"></path><path d="M54.3994 13.1999C54.3994 13.9999 54.1994 14.6999 53.6994 15.1999C53.0994 15.7999 52.3994 16.0999 51.4994 16.0999C50.5994 16.0999 49.8994 15.7999 49.2994 15.1999C48.6994 14.5999 48.3994 13.8999 48.3994 12.9999C48.3994 12.0999 48.6994 11.3999 49.2994 10.7999C49.8994 10.1999 50.5994 9.8999 51.4994 9.8999C51.8994 9.8999 52.2994 9.9999 52.6994 10.1999C53.0994 10.3999 53.3994 10.5999 53.5994 10.8999L53.0994 11.3999C52.6994 10.8999 52.1994 10.6999 51.4994 10.6999C50.8994 10.6999 50.2994 10.8999 49.8994 11.3999C49.3994 11.7999 49.1994 12.3999 49.1994 13.0999C49.1994 13.7999 49.3994 14.3999 49.8994 14.7999C50.3994 15.1999 50.8994 15.4999 51.4994 15.4999C52.1994 15.4999 52.6994 15.2999 53.1994 14.7999C53.4994 14.4999 53.6994 14.0999 53.6994 13.5999H51.4994V12.7999H54.3994C54.3994 12.9999 54.3994 13.0999 54.3994 13.1999Z" stroke="white" stroke-width="0.2" stroke-miterlimit="10"></path><path d="M59.0994 10.6999H56.3994V12.5999H58.8994V13.2999H56.3994V15.1999H59.0994V15.9999H55.5994V9.9999H59.0994V10.6999Z" stroke="white" stroke-width="0.2" stroke-miterlimit="10"></path><path d="M62.2994 15.9999H61.4994V10.6999H59.7994V9.9999H63.9994V10.6999H62.2994V15.9999Z" stroke="white" stroke-width="0.2" stroke-miterlimit="10"></path><path d="M66.9994 15.9999V9.9999H67.7994V15.9999H66.9994Z" stroke="white" stroke-width="0.2" stroke-miterlimit="10"></path><path d="M71.1994 15.9999H70.3994V10.6999H68.6994V9.9999H72.7994V10.6999H71.0994V15.9999H71.1994Z" stroke="white" stroke-width="0.2" stroke-miterlimit="10"></path><path d="M80.6994 15.1999C80.0994 15.7999 79.3994 16.0999 78.4994 16.0999C77.5994 16.0999 76.8994 15.7999 76.2994 15.1999C75.6994 14.5999 75.3994 13.8999 75.3994 12.9999C75.3994 12.0999 75.6994 11.3999 76.2994 10.7999C76.8994 10.1999 77.5994 9.8999 78.4994 9.8999C79.3994 9.8999 80.0994 10.1999 80.6994 10.7999C81.2994 11.3999 81.5994 12.0999 81.5994 12.9999C81.4994 13.8999 81.1994 14.5999 80.6994 15.1999ZM76.7994 14.6999C77.1994 15.0999 77.7994 15.3999 78.3994 15.3999C78.9994 15.3999 79.5994 15.1999 79.9994 14.6999C80.3994 14.2999 80.6994 13.6999 80.6994 12.9999C80.6994 12.2999 80.4994 11.6999 79.9994 11.2999C79.5994 10.8999 78.9994 10.5999 78.3994 10.5999C77.7994 10.5999 77.1994 10.7999 76.7994 11.2999C76.3994 11.6999 76.0994 12.2999 76.0994 12.9999C76.1994 13.6999 76.3994 14.2999 76.7994 14.6999Z" stroke="white" stroke-width="0.2" stroke-miterlimit="10"></path><path d="M82.5994 15.9999V9.9999H83.4994L86.3994 14.6999V9.9999H87.1994V15.9999H86.3994L83.2994 11.0999V15.9999H82.5994Z" stroke="white" stroke-width="0.2" stroke-miterlimit="10"></path><path d="M75.2002 24.8001C72.8002 24.8001 70.9002 26.6001 70.9002 29.1001C70.9002 31.6001 72.8002 33.4001 75.2002 33.4001C77.6002 33.4001 79.5002 31.6001 79.5002 29.1001C79.4002 26.6001 77.5002 24.8001 75.2002 24.8001ZM75.2002 31.6001C73.9002 31.6001 72.8002 30.5001 72.8002 29.0001C72.8002 27.5001 73.9002 26.4001 75.2002 26.4001C76.5002 26.4001 77.6002 27.4001 77.6002 29.0001C77.6002 30.5001 76.5002 31.6001 75.2002 31.6001ZM65.9002 24.8001C63.5002 24.8001 61.6002 26.6001 61.6002 29.1001C61.6002 31.6001 63.5002 33.4001 65.9002 33.4001C68.3002 33.4001 70.2002 31.6001 70.2002 29.1001C70.1002 26.6001 68.2002 24.8001 65.9002 24.8001ZM65.9002 31.6001C64.6002 31.6001 63.5002 30.5001 63.5002 29.0001C63.5002 27.5001 64.6002 26.4001 65.9002 26.4001C67.2002 26.4001 68.3002 27.4001 68.3002 29.0001C68.3002 30.5001 67.1002 31.6001 65.9002 31.6001ZM54.8002 26.1001V27.9001H59.1002C59.0002 28.9001 58.6002 29.7001 58.1002 30.2001C57.5002 30.8001 56.5002 31.5001 54.8002 31.5001C52.1002 31.5001 50.1002 29.4001 50.1002 26.7001C50.1002 24.0001 52.2002 21.9001 54.8002 21.9001C56.2002 21.9001 57.3002 22.5001 58.1002 23.2001L59.4002 21.9001C58.3002 20.9001 56.9002 20.1001 54.9002 20.1001C51.3002 20.1001 48.2002 23.1001 48.2002 26.7001C48.2002 30.3001 51.3002 33.3001 54.9002 33.3001C56.9002 33.3001 58.3002 32.7001 59.5002 31.4001C60.7002 30.2001 61.1002 28.5001 61.1002 27.2001C61.1002 26.8001 61.1002 26.4001 61.0002 26.1001H54.8002V26.1001ZM100.1 27.5001C99.7002 26.5001 98.7002 24.8001 96.5002 24.8001C94.3002 24.8001 92.5002 26.5001 92.5002 29.1001C92.5002 31.5001 94.3002 33.4001 96.7002 33.4001C98.7002 33.4001 99.8002 32.2001 100.2 31.5001L98.7002 30.5001C98.2002 31.2001 97.6002 31.7001 96.6002 31.7001C95.6002 31.7001 95.0002 31.3001 94.5002 30.4001L100.2 28.0001L100.1 27.5001ZM94.3002 28.9001C94.3002 27.3001 95.6002 26.4001 96.5002 26.4001C97.2002 26.4001 97.9002 26.8001 98.1002 27.3001L94.3002 28.9001ZM89.7002 33.0001H91.6002V20.5001H89.7002V33.0001ZM86.6002 25.7001C86.1002 25.2001 85.3002 24.7001 84.3002 24.7001C82.2002 24.7001 80.2002 26.6001 80.2002 29.0001C80.2002 31.4001 82.2002 33.2001 84.3002 33.2001C85.3002 33.2001 86.1002 32.7001 86.5002 32.2001H86.6002V32.8001C86.6002 34.4001 85.7002 35.3001 84.3002 35.3001C83.2002 35.3001 82.4002 34.5001 82.2002 33.8001L80.6002 34.5001C81.1002 35.6001 82.3002 37.0001 84.4002 37.0001C86.6002 37.0001 88.4002 35.7001 88.4002 32.6001V25.0001H86.6002V25.7001V25.7001ZM84.5002 31.6001C83.2002 31.6001 82.1002 30.5001 82.1002 29.0001C82.1002 27.5001 83.2002 26.4001 84.5002 26.4001C85.8002 26.4001 86.8002 27.5001 86.8002 29.0001C86.7002 30.5001 85.7002 31.6001 84.5002 31.6001ZM108.9 20.5001H104.4V33.0001H106.3V28.3001H108.9C111 28.3001 113 26.8001 113 24.4001C113 22.0001 110.9 20.5001 108.9 20.5001ZM108.9 26.5001H106.2V22.2001H108.9C110.3 22.2001 111.1 23.4001 111.1 24.3001C111.1 25.4001 110.3 26.5001 108.9 26.5001ZM120.5 24.7001C119.1 24.7001 117.7 25.3001 117.2 26.6001L118.9 27.3001C119.3 26.6001 119.9 26.4001 120.6 26.4001C121.6 26.4001 122.5 27.0001 122.6 28.0001V28.1001C122.3 27.9001 121.5 27.6001 120.7 27.6001C118.9 27.6001 117.1 28.6001 117.1 30.4001C117.1 32.1001 118.6 33.2001 120.2 33.2001C121.5 33.2001 122.1 32.6001 122.6 32.0001H122.7V33.0001H124.5V28.2001C124.3 26.0001 122.6 24.7001 120.5 24.7001ZM120.2 31.6001C119.6 31.6001 118.7 31.3001 118.7 30.5001C118.7 29.5001 119.8 29.2001 120.7 29.2001C121.5 29.2001 121.9 29.4001 122.4 29.6001C122.3 30.8001 121.3 31.6001 120.2 31.6001ZM130.8 25.0001L128.7 30.4001H128.6L126.4 25.0001H124.4L127.7 32.6001L125.8 36.8001H127.7L132.8 25.0001H130.8V25.0001ZM114 33.0001H115.9V20.5001H114V33.0001Z" fill="white"></path><path d="M17.4 10.5C17.2 10.9 17 11.3 17 11.9V34C17 34.6 17.2 35.1 17.5 35.4L17.6 35.5L30 23.1V23V22.9L17.4 10.5Z" fill="#22D5FD"></path><path d="M34.0004 27.2998L29.9004 23.1998V22.9998V22.8998L34.0004 18.7998L34.1004 18.8998L39.0004 21.6998C40.4004 22.4998 40.4004 23.7998 39.0004 24.5998L34.0004 27.2998Z" fill="#FEC929"></path><path d="M34.1004 27.2L29.9004 23L17.4004 35.5C17.9004 36 18.6004 36 19.5004 35.6L34.1004 27.2Z" fill="#F3304C"></path><path d="M34.1004 18.7996L19.5004 10.4996C18.6004 9.99962 17.9004 10.0996 17.4004 10.5996L29.9004 22.9996L34.1004 18.7996Z" fill="#21F07A"></path><path opacity="0.2" d="M34.0004 27.0996L19.5004 35.3996C18.7004 35.8996 18.0004 35.7996 17.5004 35.3996L17.4004 35.4996L17.5004 35.5996C18.0004 35.9996 18.7004 36.0996 19.5004 35.5996L34.0004 27.0996Z" fill="black"></path><path opacity="0.12" d="M17.4 35.2994C17.2 34.9994 17 34.5994 17 33.8994V33.9994C17 34.5994 17.2 35.0994 17.5 35.3994V35.2994H17.4Z" fill="black"></path><path opacity="0.12" d="M39 24.3L34 27.1L34.1 27.2L39 24.4C39.7 24 40 23.5 40 23C40 23.5 39.7 24 39 24.3Z" fill="black"></path><path opacity="0.25" d="M19.5 10.5998L39 21.6998C39.6 22.0998 40 22.4998 40 22.9998C40 22.4998 39.7 21.9998 39 21.5998L19.5 10.4998C18.1 9.69978 17 10.2998 17 11.8998V11.9998C17 10.4998 18.1 9.79978 19.5 10.5998Z" fill="white"></path></svg> 