<?xml version="1.0" encoding="UTF-8"?> <svg xmlns="http://www.w3.org/2000/svg" width="2200" height="400" viewBox="0 150 2200 400"><metadata><?xpacket begin="﻿" id="W5M0MpCehiHzreSzNTczkc9d"?><?xpacket end="w"?></metadata><defs><style> .cls-1 { fill: #f1f1f1; fill-rule: evenodd; } </style></defs><path id="Best_Sellers" data-name="Best Sellers" class="cls-1" d="M176.226,498.821q26.2,0,46.6-6.7t34.3-18.6a79.231,79.231,0,0,0,21.1-27.9,83.328,83.328,0,0,0,7.2-34.6q0-24.6-13.8-40.3t-42.6-22.7a99.3,99.3,0,0,0,22.6-11.3,65.7,65.7,0,0,0,15.4-14.5,55.654,55.654,0,0,0,8.8-17.1,63.949,63.949,0,0,0,2.8-18.9,83.833,83.833,0,0,0-6.1-32.6,59.924,59.924,0,0,0-19.5-24.8q-13.4-10.2-34.6-15.8t-51.4-5.6H59.826v291.4h116.4Zm-1.6-123.6q12.8,0,21.2,2.4a35.2,35.2,0,0,1,13.5,6.8,23.822,23.822,0,0,1,7.2,10.8,46.072,46.072,0,0,1,2.1,14.4,53.692,53.692,0,0,1-1.8,13.8,29.517,29.517,0,0,1-6.6,12.2,34.62,34.62,0,0,1-13.3,8.8q-8.5,3.4-21.9,3.4h-47.6v-72.6h47.2Zm-47.2-117.2h39.6a94.073,94.073,0,0,1,19.7,1.8,33.6,33.6,0,0,1,13.7,6,24.8,24.8,0,0,1,8,11.1q2.6,6.9,2.6,17.3,0,10.6-3.3,17.6a25.694,25.694,0,0,1-9.6,11,41.962,41.962,0,0,1-15.3,5.6,115.877,115.877,0,0,1-20.2,1.6h-35.2v-72Zm240.5,38.4a95.712,95.712,0,0,0-52.6,54.8,109.5,109.5,0,0,0-7.1,39.4q0,27.6,8.3,48.4t22.6,34.8a93.92,93.92,0,0,0,33.4,21.1,116.476,116.476,0,0,0,40.9,7.1,175.621,175.621,0,0,0,22.3-1.5,123.585,123.585,0,0,0,23.4-5.4,107.569,107.569,0,0,0,22.8-10.8,92.143,92.143,0,0,0,20.7-17.9l-18-22.2q-3.8-5.4-11.2-5.4a23.266,23.266,0,0,0-10.7,2.6q-5.1,2.6-11.2,5.8a93.724,93.724,0,0,1-13.9,5.8,59.051,59.051,0,0,1-18.6,2.6q-20.2,0-33-11.7t-15.8-37.7h119.6a20.108,20.108,0,0,0,6.9-1,8.378,8.378,0,0,0,4.3-3.6,18.061,18.061,0,0,0,2.2-7,87.5,87.5,0,0,0,.6-11.4q0-22.4-6.9-40.1a84.9,84.9,0,0,0-19.2-29.9,81.991,81.991,0,0,0-29.4-18.6,106.814,106.814,0,0,0-37.7-6.4Q386.823,288.221,367.926,296.421Zm60.9,38a31.6,31.6,0,0,1,11.3,8.9,34.992,34.992,0,0,1,6.2,12.5,54.811,54.811,0,0,1,1.9,14.4h-77.4q3.2-19,13.2-29.1t27.8-10.1Q421.823,331.021,428.826,334.421Zm251.8-19.4a80.945,80.945,0,0,0-13.4-10.7,94.555,94.555,0,0,0-16.8-8.5,110.992,110.992,0,0,0-19.7-5.6,115.866,115.866,0,0,0-21.7-2q-20.6,0-36,5.3t-25.6,14.3a58.287,58.287,0,0,0-15.3,20.9,63.056,63.056,0,0,0-5.1,25.1q0,14.2,4.2,24.2a52.928,52.928,0,0,0,11,16.9,60.85,60.85,0,0,0,15.5,11.4,141.976,141.976,0,0,0,17.7,7.7q9,3.2,17.7,5.7a134.725,134.725,0,0,1,15.5,5.4,36.647,36.647,0,0,1,11,6.9,13.476,13.476,0,0,1,4.2,10.2,16.071,16.071,0,0,1-5.8,12.4,21.505,21.505,0,0,1-8,4.1,42.936,42.936,0,0,1-12.2,1.5q-10.2,0-16.9-2.4a77.183,77.183,0,0,1-11.7-5.2q-5-2.8-9.3-5.2a19.566,19.566,0,0,0-9.7-2.4,17.225,17.225,0,0,0-9.4,2.3,20.715,20.715,0,0,0-6.2,6.3l-14.4,22.8a79.3,79.3,0,0,0,14.4,10.1,111.567,111.567,0,0,0,18.3,8.1,146.392,146.392,0,0,0,20.5,5.4,114.277,114.277,0,0,0,21.2,2q21.2,0,37.5-5.2t27.4-14.6a60.309,60.309,0,0,0,16.7-22.4,71.058,71.058,0,0,0,5.6-28.4q0-12.6-4.1-21.6a47.376,47.376,0,0,0-10.9-15.3,65.953,65.953,0,0,0-15.4-10.6,157.1,157.1,0,0,0-17.6-7.5q-9-3.2-17.6-5.8a149.518,149.518,0,0,1-15.4-5.5,37.521,37.521,0,0,1-10.9-6.7,12.517,12.517,0,0,1-4.1-9.6,14.505,14.505,0,0,1,6.3-12.5q6.3-4.5,18.1-4.5a51.381,51.381,0,0,1,14.6,1.9,104.038,104.038,0,0,1,11.5,4.1l9.5,4.1a22,22,0,0,0,8.8,1.9,13.367,13.367,0,0,0,6.9-1.6,16.024,16.024,0,0,0,5.1-5.4Zm139,182.5a85.561,85.561,0,0,0,27-13.5l-18.8-29.4a16.178,16.178,0,0,0-3.5-4.1,7.226,7.226,0,0,0-4.5-1.3,8.2,8.2,0,0,0-3.5.7q-1.5.7-3.2,1.6a22.77,22.77,0,0,1-4,1.6,19.816,19.816,0,0,1-5.7.7q-6.6,0-10.1-4.7t-3.5-11.9v-103h50.4v-42.4h-50.4v-60.6h-32.4q-11.2,0-13.6,9.6l-12.2,50.6-33,6.4v24.2q0,6,3.4,9.1a11.733,11.733,0,0,0,8.2,3.1h17.6v107.2a73.879,73.879,0,0,0,4,25,50.358,50.358,0,0,0,30.7,31.3q11.3,4.3,26.1,4.3A107.307,107.307,0,0,0,819.626,497.521Zm312.4-262.3a98.207,98.207,0,0,0-17.7-12.9,132.407,132.407,0,0,0-21.3-9.8,137.559,137.559,0,0,0-24.1-6.2,159.805,159.805,0,0,0-26.1-2.1q-24,0-42.6,7.3a95.42,95.42,0,0,0-31.4,19.5,82.6,82.6,0,0,0-19.4,27.8,81.391,81.391,0,0,0-6.6,32q0,20.4,5.6,34.3a70.1,70.1,0,0,0,14.7,23.2,75.063,75.063,0,0,0,20.7,15,173.762,173.762,0,0,0,23.8,9.6q12.2,3.9,23.8,7.1a135.769,135.769,0,0,1,20.7,7.4,43.4,43.4,0,0,1,14.7,10.6q5.6,6.4,5.6,16.6,0,17.6-10.2,25.7t-28.6,8.1q-13.605,0-23.6-3.8a111.883,111.883,0,0,1-17.7-8.4q-7.7-4.6-13.8-8.4a22.785,22.785,0,0,0-12.1-3.8,17.561,17.561,0,0,0-8.6,2.2,16.259,16.259,0,0,0-6.2,5.8l-20,31.6a105.2,105.2,0,0,0,20.2,15.6,158.1,158.1,0,0,0,24.8,12.1,164.373,164.373,0,0,0,27.3,7.9,142.1,142.1,0,0,0,27.7,2.8q24.8,0,44.3-7.5a94.246,94.246,0,0,0,32.8-20.6,88.626,88.626,0,0,0,20.3-30.7,101.461,101.461,0,0,0,7-37.8q0-18.2-5.6-31.1a69.3,69.3,0,0,0-14.7-21.9,79.788,79.788,0,0,0-20.8-14.8,214.377,214.377,0,0,0-23.9-10.1q-12.21-4.3-23.9-7.8a157.03,157.03,0,0,1-20.8-7.7,48.173,48.173,0,0,1-14.7-10,20.143,20.143,0,0,1-5.6-14.6q0-13.8,9.3-21.9t28.3-8.1a61.3,61.3,0,0,1,19.6,2.9,99.931,99.931,0,0,1,15.3,6.5q6.69,3.6,12,6.5a20.766,20.766,0,0,0,9.9,2.9,14.111,14.111,0,0,0,8.5-2.4,25.388,25.388,0,0,0,6.3-7.2Zm83.9,61.2a95.712,95.712,0,0,0-52.6,54.8,109.392,109.392,0,0,0-7.1,39.4q0,27.6,8.3,48.4t22.6,34.8a93.867,93.867,0,0,0,33.4,21.1,116.452,116.452,0,0,0,40.9,7.1,175.682,175.682,0,0,0,22.3-1.5,123.585,123.585,0,0,0,23.4-5.4,107.569,107.569,0,0,0,22.8-10.8,92.143,92.143,0,0,0,20.7-17.9l-18-22.2q-3.81-5.4-11.2-5.4a23.251,23.251,0,0,0-10.7,2.6q-5.1,2.6-11.2,5.8a93.769,93.769,0,0,1-13.9,5.8,59.051,59.051,0,0,1-18.6,2.6q-20.205,0-33-11.7-12.81-11.7-15.8-37.7h119.6a20.108,20.108,0,0,0,6.9-1,8.382,8.382,0,0,0,4.3-3.6,18.146,18.146,0,0,0,2.2-7,87.5,87.5,0,0,0,.6-11.4q0-22.4-6.9-40.1a84.9,84.9,0,0,0-19.2-29.9,81.991,81.991,0,0,0-29.4-18.6,106.818,106.818,0,0,0-37.7-6.4Q1234.825,288.221,1215.93,296.421Zm60.9,38a31.655,31.655,0,0,1,11.3,8.9,35.09,35.09,0,0,1,6.2,12.5,55.021,55.021,0,0,1,1.9,14.4h-77.4q3.2-19,13.2-29.1t27.8-10.1Q1269.82,331.021,1276.83,334.421Zm113-135v299.4h62v-299.4h-62Zm114,0v299.4h62v-299.4h-62Zm158.1,97a95.712,95.712,0,0,0-52.6,54.8,109.392,109.392,0,0,0-7.1,39.4q0,27.6,8.3,48.4t22.6,34.8a93.867,93.867,0,0,0,33.4,21.1,116.452,116.452,0,0,0,40.9,7.1,175.682,175.682,0,0,0,22.3-1.5,123.585,123.585,0,0,0,23.4-5.4,107.569,107.569,0,0,0,22.8-10.8,92.143,92.143,0,0,0,20.7-17.9l-18-22.2q-3.81-5.4-11.2-5.4a23.251,23.251,0,0,0-10.7,2.6q-5.1,2.6-11.2,5.8a93.769,93.769,0,0,1-13.9,5.8,59.051,59.051,0,0,1-18.6,2.6q-20.205,0-33-11.7-12.81-11.7-15.8-37.7h119.6a20.108,20.108,0,0,0,6.9-1,8.382,8.382,0,0,0,4.3-3.6,18.146,18.146,0,0,0,2.2-7,87.5,87.5,0,0,0,.6-11.4q0-22.4-6.9-40.1a84.9,84.9,0,0,0-19.2-29.9,81.991,81.991,0,0,0-29.4-18.6,106.818,106.818,0,0,0-37.7-6.4Q1680.825,288.221,1661.93,296.421Zm60.9,38a31.655,31.655,0,0,1,11.3,8.9,35.09,35.09,0,0,1,6.2,12.5,55.021,55.021,0,0,1,1.9,14.4h-77.4q3.2-19,13.2-29.1t27.8-10.1Q1715.82,331.021,1722.83,334.421Zm173,164.4v-127.2q14-26,38.4-26a62.09,62.09,0,0,1,11.6.9,42.361,42.361,0,0,0,8,.9,10.87,10.87,0,0,0,6.4-1.7c1.6-1.132,2.66-3.1,3.2-5.9l8-45.6q-8.61-6.8-22.8-6.8a52,52,0,0,0-31,10.2q-14.2,10.2-25.6,27.8l-3.4-19.4a41.611,41.611,0,0,0-1.9-6.8,10.736,10.736,0,0,0-3.2-4.5,13.581,13.581,0,0,0-5.2-2.5,31.5,31.5,0,0,0-7.7-.8h-36.8v207.4h62Zm243.8-183.8a81.2,81.2,0,0,0-13.4-10.7,94.623,94.623,0,0,0-16.8-8.5,111.113,111.113,0,0,0-19.7-5.6,115.9,115.9,0,0,0-21.7-2q-20.61,0-36,5.3-15.4,5.3-25.6,14.3a58.287,58.287,0,0,0-15.3,20.9,63.056,63.056,0,0,0-5.1,25.1q0,14.2,4.2,24.2a52.844,52.844,0,0,0,11,16.9,60.833,60.833,0,0,0,15.5,11.4,141.976,141.976,0,0,0,17.7,7.7q9,3.2,17.7,5.7a135.061,135.061,0,0,1,15.5,5.4,36.66,36.66,0,0,1,11,6.9,13.476,13.476,0,0,1,4.2,10.2,16.071,16.071,0,0,1-5.8,12.4,21.513,21.513,0,0,1-8,4.1,42.96,42.96,0,0,1-12.2,1.5q-10.2,0-16.9-2.4a77.094,77.094,0,0,1-11.7-5.2q-5.01-2.8-9.3-5.2a19.569,19.569,0,0,0-9.7-2.4,17.223,17.223,0,0,0-9.4,2.3,20.7,20.7,0,0,0-6.2,6.3l-14.4,22.8a79.3,79.3,0,0,0,14.4,10.1,111.567,111.567,0,0,0,18.3,8.1,146.355,146.355,0,0,0,20.5,5.4,114.229,114.229,0,0,0,21.2,2q21.2,0,37.5-5.2,16.29-5.2,27.4-14.6a60.363,60.363,0,0,0,16.7-22.4,71.075,71.075,0,0,0,5.6-28.4q0-12.6-4.1-21.6a47.466,47.466,0,0,0-10.9-15.3,66.079,66.079,0,0,0-15.4-10.6,157.5,157.5,0,0,0-17.6-7.5q-9-3.2-17.6-5.8a149.01,149.01,0,0,1-15.4-5.5,37.44,37.44,0,0,1-10.9-6.7,12.5,12.5,0,0,1-4.1-9.6,14.505,14.505,0,0,1,6.3-12.5q6.3-4.5,18.1-4.5a51.411,51.411,0,0,1,14.6,1.9,104.408,104.408,0,0,1,11.5,4.1q5.1,2.2,9.5,4.1a21.983,21.983,0,0,0,8.8,1.9,13.367,13.367,0,0,0,6.9-1.6,16.024,16.024,0,0,0,5.1-5.4Z"></path></svg> 