<?xml version="1.0" encoding="UTF-8"?> <svg xmlns="http://www.w3.org/2000/svg" width="220" height="60" viewBox="0 0 220 60" fill="none"><path d="M18.7045 22H0.000244141V12C0.000244141 9.23858 2.23882 7 5.00024 7H38.9999C41.7614 7 43.9999 9.23858 43.9999 12V22H25.296L23.784 19.0181C23.0434 17.5574 20.9571 17.5574 20.2164 19.0181L18.7045 22Z" fill="#106CD8"></path><path d="M43.9999 22H25.296L32.3944 36H43.9999V22Z" fill="#0058BF"></path><path d="M11.6059 36L18.7045 22H0.000244141V36H11.6059Z" fill="#0058BF"></path><path d="M43.9999 36H32.3944L39.3117 49.6426C39.7339 50.4753 40.5883 51 41.5219 51C42.8905 51 43.9999 49.8905 43.9999 48.5219V36Z" fill="#00489D"></path><path d="M2.47831 51C3.41193 51 4.2663 50.4753 4.68851 49.6426L11.6059 36H0.000244141V48.5219C0.000244141 49.8905 1.10971 51 2.47831 51Z" fill="#00489D"></path><path d="M43.9999 36.0001L23.5569 18.6638C23.6419 18.7704 23.7183 18.8886 23.784 19.0182L39.3116 49.6427C39.7338 50.4754 40.5882 51.0001 41.5218 51.0001C42.8904 51.0001 43.9999 49.8907 43.9999 48.5221V36.0001Z" fill="#00479B"></path><path d="M20 33C20 31.8954 20.8954 31 22 31C23.1046 31 24 31.8954 24 33V38C24 39.1046 23.1046 40 22 40C20.8954 40 20 39.1046 20 38V33Z" fill="#106CD8"></path><path d="M75.3919 31.848L69.0239 17.48L62.6559 31.816L58.5599 18.6H52.1279L61.8239 42.344L69.0239 28.84L76.2559 42.344L85.9519 18.6H79.5199L75.3919 31.848Z" fill="#101010"></path><path d="M89.5472 33.64C89.5472 32.5094 89.8778 31.6134 90.5392 30.952C91.2218 30.2694 92.0325 29.928 92.9712 29.928C93.9098 29.928 94.7098 30.2694 95.3712 30.952C96.0538 31.6134 96.3952 32.5094 96.3952 33.64C96.3952 34.7707 96.0538 35.6667 95.3712 36.328C94.7098 36.9894 93.9098 37.32 92.9712 37.32C92.0325 37.32 91.2218 36.9894 90.5392 36.328C89.8778 35.6667 89.5472 34.7707 89.5472 33.64ZM84.5552 33.64C84.5552 35.1974 84.9178 36.552 85.6432 37.704C86.3898 38.856 87.3925 39.752 88.6512 40.392C89.9312 41.0107 91.3712 41.32 92.9712 41.32C94.5712 41.32 96.0005 41.0107 97.2592 40.392C98.5392 39.752 99.5418 38.856 100.267 37.704C101.014 36.552 101.387 35.1974 101.387 33.64C101.387 32.0827 101.014 30.728 100.267 29.576C99.5418 28.424 98.5392 27.5387 97.2592 26.92C96.0005 26.28 94.5712 25.96 92.9712 25.96C91.3712 25.96 89.9312 26.28 88.6512 26.92C87.3925 27.5387 86.3898 28.424 85.6432 29.576C84.9178 30.728 84.5552 32.0827 84.5552 33.64Z" fill="#101010"></path><path d="M108.391 33.64C108.391 32.5094 108.722 31.6134 109.383 30.952C110.066 30.2694 110.876 29.928 111.815 29.928C112.754 29.928 113.554 30.2694 114.215 30.952C114.898 31.6134 115.239 32.5094 115.239 33.64C115.239 34.7707 114.898 35.6667 114.215 36.328C113.554 36.9894 112.754 37.32 111.815 37.32C110.876 37.32 110.066 36.9894 109.383 36.328C108.722 35.6667 108.391 34.7707 108.391 33.64ZM103.399 33.64C103.399 35.1974 103.762 36.552 104.487 37.704C105.234 38.856 106.236 39.752 107.495 40.392C108.775 41.0107 110.215 41.32 111.815 41.32C113.415 41.32 114.844 41.0107 116.103 40.392C117.383 39.752 118.386 38.856 119.111 37.704C119.858 36.552 120.231 35.1974 120.231 33.64C120.231 32.0827 119.858 30.728 119.111 29.576C118.386 28.424 117.383 27.5387 116.103 26.92C114.844 26.28 113.415 25.96 111.815 25.96C110.215 25.96 108.775 26.28 107.495 26.92C106.236 27.5387 105.234 28.424 104.487 29.576C103.762 30.728 103.399 32.0827 103.399 33.64Z" fill="#101010"></path><path d="M127.331 33.64C127.331 32.488 127.672 31.5707 128.355 30.888C129.059 30.2054 129.891 29.864 130.851 29.864C131.405 29.864 131.939 30.0134 132.451 30.312C132.984 30.6107 133.421 31.0374 133.763 31.592C134.104 32.1467 134.275 32.8294 134.275 33.64C134.275 34.4294 134.104 35.112 133.763 35.688C133.421 36.2427 132.984 36.6694 132.451 36.968C131.939 37.2667 131.405 37.416 130.851 37.416C129.891 37.416 129.059 37.0747 128.355 36.392C127.672 35.7094 127.331 34.792 127.331 33.64ZM122.243 33.64C122.243 35.304 122.573 36.712 123.235 37.864C123.896 38.9947 124.76 39.8587 125.827 40.456C126.893 41.032 128.024 41.32 129.219 41.32C131.395 41.32 133.08 40.424 134.275 38.632V41H139.139V16.04H134.275V28.648C133.08 26.856 131.395 25.96 129.219 25.96C128.024 25.96 126.893 26.2587 125.827 26.856C124.76 27.432 123.896 28.296 123.235 29.448C122.573 30.5787 122.243 31.976 122.243 33.64Z" fill="#101010"></path><path d="M165.321 31.528C165.321 29.736 164.969 28.36 164.265 27.4C163.583 26.44 162.377 25.96 160.649 25.96C159.668 25.96 158.772 26.1734 157.961 26.6C157.151 27.0267 156.479 27.6134 155.945 28.36C155.647 27.5494 155.156 26.952 154.473 26.568C153.812 26.1627 152.905 25.96 151.753 25.96C150.729 25.96 149.865 26.1947 149.161 26.664C148.457 27.112 147.903 27.7094 147.497 28.456V26.28H142.857V41H147.497V32.04C147.497 31.1654 147.689 30.504 148.073 30.056C148.457 29.5867 148.98 29.352 149.641 29.352C150.324 29.352 150.804 29.5867 151.081 30.056C151.38 30.504 151.529 31.1654 151.529 32.04V41H156.393V32.04C156.393 31.1654 156.585 30.504 156.969 30.056C157.353 29.5867 157.876 29.352 158.537 29.352C159.22 29.352 159.711 29.5867 160.009 30.056C160.308 30.504 160.457 31.1654 160.457 32.04V41H165.321V31.528Z" fill="#101010"></path><path d="M170.963 30.824C171.326 30.6107 171.934 30.344 172.787 30.024C173.641 29.704 174.59 29.544 175.635 29.544C176.446 29.544 177.075 29.736 177.523 30.12C177.993 30.4827 178.227 30.9734 178.227 31.592V32.936C177.737 32.7014 177.15 32.4987 176.467 32.328C175.785 32.1574 175.07 32.072 174.323 32.072C172.446 32.072 170.91 32.4987 169.715 33.352C168.542 34.2054 167.955 35.3894 167.955 36.904C167.955 38.2907 168.435 39.3787 169.395 40.168C170.377 40.936 171.678 41.32 173.299 41.32C174.409 41.32 175.401 41.1174 176.275 40.712C177.15 40.3067 177.801 39.7094 178.227 38.92V41H182.867V30.632C182.867 29.608 182.569 28.744 181.971 28.04C181.395 27.3147 180.585 26.7707 179.539 26.408C178.515 26.0454 177.342 25.864 176.019 25.864C174.697 25.864 173.459 26.0454 172.307 26.408C171.155 26.7707 170.153 27.1547 169.299 27.56L170.963 30.824ZM172.819 36.584C172.819 36.008 173.043 35.5494 173.491 35.208C173.961 34.8667 174.611 34.696 175.443 34.696C176.531 34.696 177.459 34.888 178.227 35.272C178.185 36.36 177.833 37.1174 177.171 37.544C176.531 37.9494 175.785 38.152 174.931 38.152C174.291 38.152 173.779 38.024 173.395 37.768C173.011 37.512 172.819 37.1174 172.819 36.584Z" fill="#101010"></path><path d="M195.506 31.304L197.618 27.144C197.362 26.7814 196.988 26.4934 196.498 26.28C196.007 26.0454 195.495 25.928 194.962 25.928C194.258 25.928 193.575 26.1307 192.914 26.536C192.274 26.92 191.719 27.4534 191.25 28.136V26.28H186.514V41H191.25V33.736C191.25 32.6694 191.463 31.8587 191.89 31.304C192.338 30.728 192.914 30.44 193.618 30.44C194.044 30.44 194.396 30.5254 194.674 30.696C194.972 30.8454 195.25 31.048 195.506 31.304Z" fill="#101010"></path><path d="M200.502 21.16V26.28H197.91V30.28H200.502V41H205.174V30.28H207.766V26.28H205.174V21.16H200.502Z" fill="#101010"></path><path d="M210.081 38.824C210.081 39.6134 210.359 40.3067 210.913 40.904C211.489 41.48 212.215 41.768 213.089 41.768C213.964 41.768 214.689 41.48 215.265 40.904C215.841 40.3067 216.129 39.6134 216.129 38.824C216.129 38.0134 215.841 37.32 215.265 36.744C214.689 36.168 213.964 35.88 213.089 35.88C212.215 35.88 211.489 36.168 210.913 36.744C210.359 37.32 210.081 38.0134 210.081 38.824Z" fill="#101010"></path></svg> 