<?xml version="1.0" encoding="UTF-8"?> <svg xmlns="http://www.w3.org/2000/svg" width="120" height="30" viewBox="0 0 120 30" fill="none"><path d="M0 15C0 6.71573 6.71573 0 15 0H28C29.1046 0 30 0.895431 30 2V15C30 23.2843 23.2843 30 15 30V30C6.71573 30 0 23.2843 0 15V15Z" fill="#2F9393"></path><path d="M45 15C45 6.71573 51.7157 0 60 0H73C74.1046 0 75 0.895431 75 2V15C75 23.2843 68.2843 30 60 30V30C51.7157 30 45 23.2843 45 15V15Z" fill="#CD4441"></path><path d="M90 15C90 6.71573 96.7157 0 105 0H118C119.105 0 120 0.895431 120 2V15C120 23.2843 113.284 30 105 30V30C96.7157 30 90 23.2843 90 15V15Z" fill="#ECA414"></path></svg> 