<?xml version="1.0" encoding="UTF-8"?> <!-- Generator: Adobe Illustrator 21.0.0, SVG Export Plug-In . SVG Version: 6.00 Build 0) --> <svg xmlns="http://www.w3.org/2000/svg" xmlns:xlink="http://www.w3.org/1999/xlink" version="1.1" id="w-camping-mountine-icon" x="0px" y="0px" viewBox="0 0 241.4 40" style="enable-background:new 0 0 241.4 40;" xml:space="preserve"> <g id="b5"> <path id="b4" style="fill:#979C6D;" d="M77.2,38.3l4.4-7.5l1.2-2.1l1.1,0.9l3.6-3.9l4.7-8.5l1.6-2.9l10.4-3.8h3.7l3.2-3.6h3.3 l4.6-3.2l2.8-3.7l2.6,2.6l6.4,2.2l2.9,2.7l3,4.4l1-2.3l8.5,7.1l6.7,8.1l1.5-4.8l4.9,7.5l3,4.1l1.5,5.2l1.6,3.2l-3.8-2.2l-1.2-3.7 l-2.5-3.8l-1.4,2.7l-2.2-6.2l-1.6-0.1l-2.3-2.3l-4.4-5.1l-1.6,2.1l-2.9-5.3c0,0-3.2-1.5-3.4-1c-0.3,0.5-4.4,5.5-4.4,5.5l-0.9,4 L130,13.3c0,0-1.1-4.9-1.9-4.9c-0.8,0-3.1-0.8-3.1-0.8s-1.4-2.2-1.5-2.7c-0.1-0.5-1-2.5-1-2.5l-5.2,4.8c0,0-1.5,3.2-1.5,3.3 c0,0.1-1.5,4-1.5,4s0.8,1.9,0.4,1.4c-0.4-0.5-2.5-2.9-2.2-3.3c0.3-0.4,2.1-2.9,2.1-2.9l-1.5-1c0,0-0.8-1.8-1.2-0.3 c-0.4,1.5-1.5,2.3-1.9,3.4c-0.4,1.1-2.3,4-2.3,4l1.6,2.4l-1,1.8l-2.5-4l-2.7-1.4v-2.5l-3.6,1.5l-7.7,9.7l-1.1,3.7 c0,0-1.2,1.3-1.2,2.4c0,1-0.3,4.5-0.3,4.5l-1.2,2.3l-3.4,2.3l0.8-2.2l1.2-2.3l0.4-3.7l-2.3-0.9l-0.5,3c0,0-0.5,2.5-0.3,1.2 c0.3-1.2-0.7-2.9-0.7-2.9l-3,4.5L77.2,38.3z"></path> <polygon id="b3" style="fill:#979C6D;" points="122.6,18.1 120,23.3 124.1,25.5 122,29.2 121.3,31.9 120,34.7 117.8,29.2 113.8,26.4 113.8,24.6 118.9,20 "></polygon> <polygon id="b2" style="fill:#979C6D;" points="144.2,26.4 146.1,29.6 154.3,36.5 149.3,38.4 148.2,36.1 144.9,33.6 142.8,31.7 143.5,29.3 142.8,25.4 "></polygon> <path id="b1" style="fill:#979C6D;" d="M99.4,26.4l-1.6,3.1l0.8,3l-2.1,2.2l-1.6,2.1l1-3.7l-0.1-2.5c0,0,0.4-1.8,0.8-2.2 C96.9,28,99.4,26.4,99.4,26.4z"></path> </g> <path id="b6" style="fill:#979C6D;" d="M191.3,19.6l3.8-1l3.8,1l3.8-1l4.2,1l4-1h8.9l6.3,1h15.2l-0.6,2l-5.1,1l-6.3-1h-5.1l-5.7-1 l-6.3,1l-8.2,1l-7.6-1l-2.6,1l-3.2-1L191.3,19.6z"></path> <path id="b7" style="fill:#979C6D;" d="M50.7,22l-3.2,1L45,22l-7.6,1l-8.2-1l-6.3-1l-5.7,1H12l-6.3,1l-5.1-1L0,20h15.2l6.3-1h8.9 l4,1l4.2-1l3.8,1l3.8-1l3.8,1L50.7,22z"></path> </svg> 