<?xml version="1.0" encoding="UTF-8"?> <svg xmlns="http://www.w3.org/2000/svg" width="1000" height="164" viewBox="0 0 1000 164" fill="none"><path d="M878 156V13.2H930.5C940.4 13.2 948.8 14.1 955.7 15.9C962.6 17.7 968.3 20.3 972.7 23.6C977.1 26.9 980.3 31 982.3 35.8C984.3 40.6 985.3 45.9 985.3 51.8C985.3 55 984.8 58.1 983.9 61.1C983 64.1 981.5 66.9 979.6 69.5C977.6 72.1 975.1 74.5 972.1 76.6C969 78.7 965.3 80.6 961 82.1C970.4 84.4 977.4 88.1 981.9 93.2C986.4 98.3 988.7 104.9 988.7 112.9C988.7 119 987.5 124.6 985.2 129.9C982.8 135.1 979.4 139.7 974.9 143.6C970.4 147.5 964.8 150.5 958.1 152.7C951.4 154.9 943.8 156 935.3 156H878V156ZM911.2 73.3H928.4C932.1 73.3 935.4 73 938.3 72.5C941.2 72 943.7 71.1 945.8 69.8C947.9 68.5 949.4 66.7 950.5 64.4C951.6 62.1 952.1 59.2 952.1 55.8C952.1 52.4 951.7 49.6 950.8 47.3C949.9 45 948.6 43.2 946.9 41.9C945.1 40.5 942.9 39.5 940.2 39C937.5 38.4 934.3 38.1 930.5 38.1H911.2V73.3ZM911.2 95.4V131H934.5C938.9 131 942.5 130.4 945.2 129.3C948 128.2 950.1 126.8 951.7 125C953.3 123.2 954.3 121.2 954.9 119C955.5 116.8 955.8 114.5 955.8 112.2C955.8 109.6 955.5 107.2 954.8 105.1C954.1 103 952.9 101.2 951.3 99.8C949.6 98.4 947.4 97.3 944.7 96.5C942 95.7 938.5 95.3 934.3 95.3H911.2V95.4Z" fill="#80BD35"></path><path d="M821.2 52.8C827.9 52.8 834.1 53.8 839.7 55.9C845.3 58 850.1 61 854.1 65C858.1 69 861.3 73.9 863.5 79.7C865.8 85.5 866.9 92 866.9 99.3C866.9 101.6 866.8 103.4 866.6 104.9C866.4 106.3 866 107.5 865.5 108.3C865 109.1 864.3 109.7 863.4 110.1C862.5 110.4 861.4 110.6 860 110.6H801.4C802.4 119.1 805 125.3 809.1 129.1C813.3 132.9 818.7 134.8 825.3 134.8C828.8 134.8 831.9 134.4 834.4 133.5C836.9 132.7 839.2 131.7 841.2 130.7C843.2 129.7 845 128.7 846.7 127.9C848.4 127.1 850.1 126.6 851.9 126.6C854.3 126.6 856.1 127.5 857.4 129.2L866.2 140.1C863.1 143.7 859.7 146.6 856.1 148.9C852.5 151.2 848.7 152.9 844.9 154.2C841.1 155.5 837.3 156.4 833.4 156.8C829.6 157.3 825.9 157.5 822.5 157.5C815.4 157.5 808.7 156.3 802.5 154C796.3 151.7 790.8 148.2 786.1 143.7C781.4 139.1 777.7 133.4 775 126.6C772.3 119.8 770.9 111.9 770.9 102.9C770.9 96.1 772.1 89.7 774.4 83.6C776.7 77.5 780 72.2 784.4 67.6C788.7 63 794 59.4 800.2 56.7C806.5 54.1 813.5 52.8 821.2 52.8ZM821.8 73.8C816 73.8 811.4 75.5 808.2 78.7C804.9 82 802.8 86.8 801.7 93H839.6C839.6 90.6 839.3 88.2 838.7 85.9C838.1 83.6 837.1 81.6 835.7 79.8C834.3 78 832.4 76.6 830.2 75.4C827.9 74.3 825.1 73.8 821.8 73.8Z" fill="#80BD35"></path><path d="M756.3 76.6C755.5 77.8 754.7 78.7 753.8 79.2C752.9 79.7 751.8 80 750.4 80C749 80 747.5 79.7 746.1 79.1C744.7 78.5 743.1 77.8 741.4 77.1C739.7 76.4 737.9 75.7 735.8 75.1C733.7 74.5 731.3 74.2 728.6 74.2C724.7 74.2 721.8 74.9 719.7 76.4C717.6 77.9 716.6 79.9 716.6 82.5C716.6 84.4 717.3 86 718.6 87.2C719.9 88.4 721.7 89.5 723.9 90.5C726.1 91.4 728.6 92.3 731.4 93.2C734.2 94 737.1 95 740 96C742.9 97 745.8 98.3 748.6 99.7C751.4 101.1 753.9 102.8 756.1 104.9C758.3 107 760.1 109.5 761.4 112.4C762.7 115.3 763.4 118.9 763.4 123C763.4 128 762.5 132.7 760.7 136.9C758.9 141.1 756.1 144.8 752.5 147.9C748.9 151 744.4 153.4 739.1 155.1C733.8 156.8 727.6 157.6 720.7 157.6C717.2 157.6 713.8 157.3 710.3 156.6C706.8 155.9 703.5 155.1 700.3 154C697.1 152.9 694.1 151.6 691.3 150C688.6 148.5 686.2 146.8 684.2 145.1L691.3 133.9C692.1 132.6 693.2 131.6 694.3 130.8C695.5 130 697 129.7 698.9 129.7C700.7 129.7 702.2 130.1 703.7 130.9C705.1 131.7 706.6 132.5 708.3 133.4C709.9 134.3 711.8 135.2 714 135.9C716.2 136.7 718.9 137.1 722.3 137.1C724.7 137.1 726.6 136.9 728.3 136.4C729.9 135.9 731.2 135.2 732.2 134.4C733.2 133.6 733.9 132.6 734.4 131.6C734.9 130.6 735.1 129.5 735.1 128.4C735.1 126.4 734.4 124.7 733 123.4C731.6 122.1 729.8 121 727.6 120C725.4 119.1 722.8 118.2 720 117.4C717.2 116.6 714.3 115.7 711.3 114.6C708.4 113.6 705.5 112.3 702.6 110.8C699.8 109.3 697.2 107.5 695 105.2C692.8 102.9 691 100.2 689.6 96.9C688.2 93.6 687.5 89.7 687.5 85C687.5 80.7 688.3 76.6 690 72.7C691.7 68.8 694.2 65.4 697.5 62.5C700.8 59.6 705 57.2 710 55.5C715 53.8 720.9 52.9 727.6 52.9C731.3 52.9 734.8 53.2 738.2 53.9C741.6 54.6 744.8 55.5 747.9 56.6C750.9 57.8 753.6 59.2 756.1 60.8C758.6 62.4 760.8 64.1 762.7 66L756.3 76.6Z" fill="#80BD35"></path><path d="M647.4 157.6C642.6 157.6 638.3 156.9 634.6 155.5C630.9 154.1 627.8 152.1 625.3 149.5C622.8 146.9 620.9 143.8 619.6 140.1C618.3 136.4 617.6 132.4 617.6 127.8V75.3H608.9C607.3 75.3 606 74.8 604.9 73.8C603.8 72.8 603.2 71.3 603.2 69.3V57.5L619.4 54.4L625.4 29.6C626.2 26.5 628.4 24.9 632.1 24.9H647.9V54.6H672.6V75.4H647.9V125.9C647.9 128.3 648.5 130.2 649.6 131.7C650.7 133.2 652.4 134 654.5 134C655.6 134 656.5 133.9 657.3 133.7C658.1 133.5 658.7 133.2 659.3 132.9C659.9 132.6 660.4 132.3 660.9 132.1C661.4 131.9 662 131.8 662.6 131.8C663.5 131.8 664.2 132 664.8 132.4C665.4 132.8 665.9 133.5 666.5 134.4L675.7 148.8C671.8 151.7 667.4 153.9 662.5 155.4C657.6 156.8 652.6 157.6 647.4 157.6Z" fill="#80BD35"></path><path d="M589.6 42.2C588.6 43.8 587.6 44.9 586.5 45.7C585.4 46.5 584 46.9 582.3 46.9C580.8 46.9 579.2 46.4 577.4 45.5C575.7 44.6 573.7 43.5 571.5 42.3C569.3 41.1 566.8 40.1 564 39.1C561.2 38.2 558 37.7 554.4 37.7C548.2 37.7 543.6 39 540.5 41.7C537.4 44.4 535.9 47.9 535.9 52.4C535.9 55.3 536.8 57.7 538.6 59.6C540.4 61.5 542.8 63.1 545.8 64.5C548.8 65.9 552.2 67.1 556 68.3C559.8 69.4 563.7 70.7 567.7 72.1C571.7 73.5 575.6 75.2 579.4 77C583.2 78.9 586.6 81.3 589.6 84.3C592.6 87.2 595 90.8 596.8 95C598.6 99.2 599.5 104.3 599.5 110.2C599.5 116.8 598.4 123 596.1 128.7C593.8 134.5 590.5 139.5 586.2 143.7C581.9 148 576.5 151.3 570.1 153.8C563.7 156.2 556.5 157.5 548.4 157.5C544 157.5 539.4 157 534.8 156.1C530.2 155.2 525.7 153.9 521.4 152.2C517.1 150.5 513 148.6 509.2 146.3C505.4 144 502.1 141.5 499.3 138.7L509.1 123.2C509.8 122 510.8 121.1 512.1 120.4C513.4 119.7 514.8 119.3 516.3 119.3C518.3 119.3 520.2 119.9 522.2 121.2C524.2 122.4 526.4 123.8 529 125.3C531.5 126.8 534.4 128.2 537.7 129.4C541 130.6 544.8 131.3 549.3 131.3C555.3 131.3 560 130 563.3 127.3C566.6 124.6 568.3 120.5 568.3 114.7C568.3 111.4 567.4 108.7 565.6 106.6C563.8 104.5 561.4 102.8 558.4 101.4C555.4 100 552 98.8 548.3 97.8C544.5 96.8 540.6 95.6 536.6 94.3C532.6 93 528.7 91.5 524.9 89.6C521.1 87.7 517.7 85.3 514.8 82.2C511.8 79.2 509.4 75.4 507.6 70.8C505.8 66.3 504.9 60.7 504.9 54C504.9 48.6 506 43.4 508.1 38.3C510.3 33.2 513.4 28.7 517.6 24.7C521.8 20.7 526.9 17.5 533 15.1C539.1 12.7 546 11.5 553.9 11.5C558.3 11.5 562.5 11.8 566.7 12.5C570.8 13.2 574.8 14.2 578.5 15.5C582.2 16.8 585.7 18.4 588.9 20.3C592.1 22.2 595 24.3 597.6 26.6L589.6 42.2Z" fill="#80BD35"></path><path d="M443.7 52.8C450.4 52.8 456.6 53.8 462.2 55.9C467.8 58 472.6 61 476.6 65C480.6 69 483.8 73.9 486 79.7C488.3 85.5 489.4 92 489.4 99.3C489.4 101.6 489.3 103.4 489.1 104.9C488.9 106.3 488.5 107.5 488 108.3C487.5 109.1 486.8 109.7 485.9 110.1C485 110.4 483.9 110.6 482.5 110.6H423.9C424.9 119.1 427.5 125.3 431.6 129.1C435.8 132.9 441.2 134.8 447.8 134.8C451.3 134.8 454.4 134.4 456.9 133.5C459.4 132.7 461.7 131.7 463.7 130.7C465.7 129.7 467.5 128.7 469.2 127.9C470.9 127.1 472.6 126.6 474.4 126.6C476.8 126.6 478.6 127.5 479.9 129.2L488.7 140.1C485.6 143.7 482.2 146.6 478.6 148.9C475 151.2 471.3 152.9 467.4 154.2C463.5 155.5 459.8 156.4 455.9 156.8C452.1 157.3 448.4 157.5 445 157.5C437.9 157.5 431.2 156.3 425 154C418.8 151.7 413.3 148.2 408.6 143.7C403.9 139.1 400.2 133.4 397.5 126.6C394.8 119.8 393.4 111.9 393.4 102.9C393.4 96.1 394.6 89.7 396.9 83.6C399.2 77.5 402.6 72.2 406.9 67.6C411.2 63 416.5 59.4 422.7 56.7C429 54.1 435.9 52.8 443.7 52.8ZM444.3 73.8C438.5 73.8 433.9 75.5 430.7 78.7C427.4 82 425.3 86.8 424.2 93H462.1C462.1 90.6 461.8 88.2 461.2 85.9C460.6 83.6 459.6 81.6 458.2 79.8C456.8 78 454.9 76.6 452.7 75.4C450.4 74.3 447.6 73.8 444.3 73.8Z" fill="#80BD35"></path><path d="M344.6 9.29999V156H375V9.29999H344.6Z" fill="#80BD35"></path><path d="M288.7 9.29999V156H319.1V9.29999H288.7Z" fill="#80BD35"></path><path d="M225.3 52.8C232 52.8 238.2 53.8 243.8 55.9C249.4 58 254.2 61 258.2 65C262.2 69 265.4 73.9 267.6 79.7C269.9 85.5 271 92 271 99.3C271 101.6 270.9 103.4 270.7 104.9C270.5 106.3 270.1 107.5 269.6 108.3C269.1 109.1 268.4 109.7 267.5 110.1C266.6 110.4 265.5 110.6 264.1 110.6H205.5C206.5 119.1 209.1 125.3 213.2 129.1C217.4 132.9 222.8 134.8 229.4 134.8C232.9 134.8 236 134.4 238.5 133.5C241 132.7 243.3 131.7 245.3 130.7C247.3 129.7 249.1 128.7 250.8 127.9C252.5 127.1 254.2 126.6 256 126.6C258.4 126.6 260.2 127.5 261.5 129.2L270.3 140.1C267.2 143.7 263.8 146.6 260.2 148.9C256.6 151.2 252.9 152.9 249 154.2C245.1 155.5 241.4 156.4 237.5 156.8C233.7 157.3 230 157.5 226.6 157.5C219.5 157.5 212.8 156.3 206.6 154C200.4 151.7 194.9 148.2 190.2 143.7C185.5 139.1 181.8 133.4 179.1 126.6C176.4 119.8 175 111.9 175 102.9C175 96.1 176.2 89.7 178.5 83.6C180.8 77.5 184.2 72.2 188.5 67.6C192.8 63 198.1 59.4 204.3 56.7C210.5 54.1 217.5 52.8 225.3 52.8ZM225.8 73.8C220 73.8 215.4 75.5 212.2 78.7C208.9 82 206.8 86.8 205.7 93H243.6C243.6 90.6 243.3 88.2 242.7 85.9C242.1 83.6 241.1 81.6 239.7 79.8C238.3 78 236.4 76.6 234.2 75.4C231.9 74.3 229.1 73.8 225.8 73.8Z" fill="#80BD35"></path><path d="M103.2 156V54.4H121.2C122.7 54.4 124 54.5 125 54.8C126 55.1 126.9 55.5 127.5 56C128.2 56.6 128.7 57.3 129.1 58.2C129.5 59.1 129.8 60.2 130 61.5L131.7 71C135.4 65.3 139.6 60.7 144.2 57.4C148.8 54.1 153.9 52.4 159.4 52.4C164 52.4 167.8 53.5 170.6 55.7L166.7 78C166.4 79.4 165.9 80.3 165.1 80.9C164.3 81.5 163.3 81.7 162 81.7C160.9 81.7 159.6 81.6 158.1 81.3C156.6 81 154.7 80.9 152.4 80.9C144.4 80.9 138.2 85.1 133.6 93.6V156H103.2Z" fill="#80BD35"></path><path d="M79.6 76.6C78.8 77.8 78 78.7 77.1 79.2C76.2 79.7 75.1 80 73.7 80C72.3 80 70.8 79.7 69.4 79.1C68 78.5 66.4 77.8 64.7 77.1C63 76.4 61.2 75.7 59.1 75.1C57 74.5 54.6 74.2 51.9 74.2C48 74.2 45.1 74.9 43 76.4C40.9 77.9 39.9 79.9 39.9 82.5C39.9 84.4 40.6 86 41.9 87.2C43.2 88.4 45 89.5 47.2 90.5C49.4 91.4 51.9 92.3 54.7 93.2C57.5 94 60.4 95 63.3 96C66.2 97 69.1 98.3 71.9 99.7C74.7 101.1 77.2 102.8 79.4 104.9C81.6 107 83.4 109.5 84.7 112.4C86 115.3 86.7 118.9 86.7 123C86.7 128 85.8 132.7 84 136.9C82.2 141.1 79.4 144.8 75.8 147.9C72.2 151 67.7 153.4 62.4 155.1C57.1 156.8 50.9 157.6 44 157.6C40.5 157.6 37.1 157.3 33.6 156.6C30.1 155.9 26.8 155.1 23.6 154C20.4 152.9 17.4 151.6 14.6 150C11.9 148.5 9.5 146.8 7.5 145.1L14.6 133.9C15.4 132.6 16.5 131.6 17.6 130.8C18.8 130 20.3 129.7 22.2 129.7C24 129.7 25.5 130.1 27 130.9C28.4 131.7 29.9 132.5 31.6 133.4C33.2 134.3 35.1 135.2 37.3 135.9C39.5 136.7 42.2 137.1 45.6 137.1C48 137.1 49.9 136.9 51.6 136.4C53.2 135.9 54.5 135.2 55.5 134.4C56.5 133.6 57.2 132.6 57.7 131.6C58.2 130.6 58.4 129.5 58.4 128.4C58.4 126.4 57.7 124.7 56.3 123.4C54.9 122.1 53.1 121 50.9 120C48.7 119.1 46.1 118.2 43.3 117.4C40.5 116.6 37.6 115.7 34.6 114.6C31.7 113.6 28.8 112.3 25.9 110.8C23.1 109.3 20.5 107.5 18.3 105.2C16.1 102.9 14.3 100.2 12.9 96.9C11.5 93.6 10.8 89.7 10.8 85C10.8 80.7 11.6 76.6 13.3 72.7C15 68.8 17.5 65.4 20.8 62.5C24.1 59.6 28.3 57.2 33.3 55.5C38.3 53.8 44.2 52.9 50.9 52.9C54.6 52.9 58.1 53.2 61.5 53.9C64.9 54.6 68.1 55.5 71.2 56.6C74.2 57.8 76.9 59.2 79.4 60.8C81.9 62.4 84.1 64.1 86 66L79.6 76.6Z" fill="#80BD35"></path></svg> 