<?xml version="1.0" encoding="UTF-8"?> <svg xmlns="http://www.w3.org/2000/svg" width="205" height="60" viewBox="0 0 205 60" fill="none"><g clip-path="url(#clip0)"><rect x="0.99707" y="1" width="38" height="58" rx="19" stroke="#1B1B1B" stroke-width="2"></rect><path d="M28.4806 29.8039C28.3723 29.2623 27.8454 28.9111 27.3039 29.0194C26.7623 29.1277 26.4111 29.6546 26.5194 30.1961L28.4806 29.8039ZM11.5 30.5L11.5701 29.5025C11.5379 29.5002 11.5056 29.4995 11.4733 29.5004L11.5 30.5ZM14.4405 29.3397C14.6281 28.8203 14.3591 28.2471 13.8397 28.0595C13.3203 27.8719 12.7471 28.1409 12.5595 28.6603L14.4405 29.3397ZM10.9249 26.3801C11.1349 25.8693 10.8909 25.285 10.3801 25.0751C9.86928 24.8651 9.28499 25.1091 9.07506 25.6199L10.9249 26.3801ZM20.9998 21.9779C20.9876 21.4258 20.5301 20.9881 19.9779 21.0002C19.4258 21.0124 18.9881 21.4699 19.0002 22.0221L20.9998 21.9779ZM28.9998 22.0221C29.0119 21.4699 28.5742 21.0124 28.0221 21.0002C27.4699 20.9881 27.0124 21.4258 27.0002 21.9779L28.9998 22.0221ZM26.5194 30.1961L26.604 30.6189L28.5651 30.2266L28.4806 29.8039L26.5194 30.1961ZM25.6742 32.688C24.266 33.4822 22.2514 34.5786 20.348 35.4738C19.3954 35.9218 18.4865 36.3118 17.7046 36.5878C16.893 36.8743 16.3205 37 16 37V39C16.6839 39 17.5302 38.7703 18.3703 38.4738C19.24 38.1668 20.2157 37.7462 21.1992 37.2836C23.1679 36.3578 25.2317 35.2337 26.6567 34.43L25.6742 32.688ZM16 37C15.7706 37 15.3978 36.8378 14.9042 36.21C14.4338 35.6118 13.9999 34.7709 13.6262 33.8677C13.2571 32.9755 12.9682 32.0755 12.7707 31.3938C12.6724 31.0542 12.5978 30.772 12.548 30.576C12.5231 30.4781 12.5045 30.4019 12.4923 30.351C12.4862 30.3255 12.4817 30.3065 12.4788 30.2942C12.4774 30.288 12.4763 30.2836 12.4757 30.2809C12.4754 30.2796 12.4752 30.2787 12.4751 30.2782C12.475 30.278 12.475 30.2779 12.475 30.2779C12.475 30.2779 12.475 30.278 12.475 30.278C12.4751 30.2781 12.4751 30.2782 11.5 30.5C10.5249 30.7218 10.5249 30.722 10.525 30.7222C10.525 30.7223 10.5251 30.7226 10.5251 30.7228C10.5252 30.7233 10.5254 30.7238 10.5255 30.7245C10.5258 30.7259 10.5263 30.7277 10.5268 30.73C10.5278 30.7345 10.5293 30.7408 10.5312 30.7489C10.5349 30.765 10.5403 30.788 10.5474 30.8175C10.5616 30.8765 10.5823 30.9614 10.6095 31.0685C10.664 31.2827 10.7444 31.5864 10.8497 31.95C11.0594 32.6745 11.3716 33.6495 11.7782 34.6323C12.1802 35.6041 12.6967 36.6382 13.332 37.4462C13.9441 38.2247 14.8324 39 16 39V37ZM11.5 30.5C11.4299 31.4975 11.4304 31.4976 11.431 31.4976C11.4312 31.4976 11.4318 31.4977 11.4322 31.4977C11.433 31.4978 11.4338 31.4978 11.4346 31.4979C11.4363 31.498 11.4381 31.4981 11.44 31.4982C11.4437 31.4984 11.4478 31.4987 11.4523 31.4989C11.4613 31.4994 11.4718 31.4998 11.4838 31.5002C11.5076 31.501 11.5372 31.5015 11.572 31.5011C11.6414 31.5004 11.7326 31.4965 11.8403 31.4847C12.0541 31.4612 12.3441 31.4056 12.6619 31.2755C13.326 31.0039 14.0466 30.4304 14.4405 29.3397L12.5595 28.6603C12.3755 29.1696 12.0962 29.3461 11.9046 29.4245C11.7947 29.4694 11.693 29.4888 11.6221 29.4966C11.5875 29.5004 11.5631 29.5011 11.5525 29.5012C11.5473 29.5013 11.5458 29.5012 11.5485 29.5013C11.5498 29.5013 11.5523 29.5014 11.5559 29.5016C11.5577 29.5017 11.5597 29.5018 11.5621 29.5019C11.5633 29.502 11.5646 29.5021 11.5659 29.5022C11.5666 29.5022 11.5673 29.5023 11.568 29.5023C11.5683 29.5023 11.5689 29.5024 11.569 29.5024C11.5696 29.5024 11.5701 29.5025 11.5 30.5ZM11.5 30.5C11.4733 29.5004 11.4735 29.5004 11.4737 29.5003C11.4738 29.5003 11.474 29.5003 11.4741 29.5003C11.4743 29.5003 11.4744 29.5003 11.4746 29.5003C11.4748 29.5003 11.4749 29.5003 11.4749 29.5003C11.4749 29.5003 11.4742 29.5003 11.473 29.5004C11.4707 29.5004 11.4661 29.5005 11.4595 29.5006C11.4462 29.5007 11.4248 29.5009 11.3964 29.5008C11.3394 29.5006 11.2555 29.4993 11.1538 29.4947C10.9463 29.4855 10.684 29.4637 10.4335 29.417C10.1662 29.3671 9.99402 29.3032 9.91345 29.2538C9.85191 29.2161 10 29.295 10 29.5H8C8 30.2383 8.46059 30.7089 8.8678 30.9587C9.25598 31.1968 9.70883 31.3163 10.0665 31.383C10.441 31.4529 10.8037 31.4811 11.065 31.4928C11.1977 31.4987 11.309 31.5005 11.3888 31.5008C11.4287 31.5009 11.461 31.5007 11.4844 31.5004C11.496 31.5003 11.5055 31.5001 11.5126 31.5C11.5162 31.4999 11.5191 31.4998 11.5215 31.4998C11.5226 31.4997 11.5237 31.4997 11.5245 31.4997C11.525 31.4997 11.5254 31.4997 11.5257 31.4997C11.5259 31.4997 11.5261 31.4997 11.5262 31.4997C11.5264 31.4997 11.5267 31.4996 11.5 30.5ZM10 29.5C10 29.3587 10.0379 29.1025 10.1269 28.7438C10.2116 28.4019 10.3275 28.0259 10.4476 27.6694C10.5671 27.3149 10.6872 26.9906 10.7776 26.7545C10.8227 26.6368 10.8601 26.5418 10.886 26.4768C10.8989 26.4443 10.909 26.4194 10.9156 26.403C10.919 26.3948 10.9214 26.3887 10.923 26.3848C10.9238 26.3829 10.9244 26.3815 10.9247 26.3808C10.9248 26.3804 10.9249 26.3801 10.925 26.38C10.925 26.3799 10.925 26.3799 10.925 26.3799C10.925 26.38 10.925 26.38 10.925 26.38C10.925 26.3801 10.9249 26.3801 10 26C9.07506 25.6199 9.07503 25.62 9.07499 25.6201C9.07497 25.6201 9.07493 25.6202 9.0749 25.6203C9.07483 25.6204 9.07475 25.6207 9.07465 25.6209C9.07445 25.6214 9.07419 25.622 9.07387 25.6228C9.07324 25.6243 9.07236 25.6265 9.07125 25.6292C9.06904 25.6346 9.06591 25.6423 9.06191 25.6522C9.05392 25.6719 9.04248 25.7003 9.02807 25.7365C8.99927 25.8087 8.95856 25.9122 8.90989 26.0392C8.81281 26.2927 8.68288 26.6435 8.55239 27.0306C8.42254 27.4158 8.28837 27.8481 8.18564 28.2625C8.08709 28.66 8 29.108 8 29.5H10ZM20 22C19.0002 22.0221 19.0003 22.0225 19.0003 22.0231C19.0003 22.0232 19.0003 22.0238 19.0003 22.0242C19.0003 22.0249 19.0003 22.0257 19.0004 22.0266C19.0004 22.0284 19.0005 22.0304 19.0005 22.0327C19.0007 22.0373 19.0008 22.0428 19.0011 22.0493C19.0016 22.0623 19.0023 22.0791 19.0034 22.0995C19.0057 22.1403 19.0094 22.1956 19.0156 22.2634C19.0281 22.3987 19.0506 22.5854 19.0916 22.807C19.1727 23.2454 19.3306 23.8444 19.6426 24.4551C19.9563 25.0688 20.4365 25.7144 21.1672 26.2052C21.9053 26.7009 22.8422 27 24 27V25C23.2019 25 22.6608 24.7991 22.2823 24.5448C21.8962 24.2856 21.6209 23.9312 21.4236 23.5449C21.2246 23.1556 21.1159 22.7546 21.0582 22.443C21.0298 22.2896 21.0149 22.1638 21.0072 22.0803C21.0034 22.0388 21.0014 22.0081 21.0005 21.9903C21 21.9815 20.9997 21.9758 20.9997 21.9737C20.9996 21.9726 20.9996 21.9724 20.9996 21.9731C20.9996 21.9734 20.9997 21.974 20.9997 21.9748C20.9997 21.9752 20.9997 21.9757 20.9997 21.9762C20.9997 21.9765 20.9997 21.9769 20.9997 21.977C20.9997 21.9775 20.9998 21.9779 20 22ZM24 27C25.1578 27 26.0947 26.7009 26.8328 26.2052C27.5635 25.7144 28.0437 25.0688 28.3574 24.4551C28.6694 23.8444 28.8273 23.2454 28.9084 22.807C28.9494 22.5854 28.9719 22.3987 28.9844 22.2634C28.9906 22.1956 28.9943 22.1403 28.9966 22.0995C28.9977 22.0791 28.9984 22.0623 28.9989 22.0493C28.9992 22.0428 28.9993 22.0373 28.9995 22.0327C28.9995 22.0304 28.9996 22.0284 28.9996 22.0266C28.9997 22.0257 28.9997 22.0249 28.9997 22.0242C28.9997 22.0238 28.9997 22.0232 28.9997 22.0231C28.9997 22.0225 28.9998 22.0221 28 22C27.0002 21.9779 27.0003 21.9775 27.0003 21.977C27.0003 21.9769 27.0003 21.9765 27.0003 21.9762C27.0003 21.9757 27.0003 21.9752 27.0003 21.9748C27.0003 21.974 27.0004 21.9734 27.0004 21.9731C27.0004 21.9724 27.0004 21.9726 27.0003 21.9737C27.0003 21.9758 27 21.9815 26.9995 21.9903C26.9986 22.0081 26.9966 22.0388 26.9928 22.0803C26.9851 22.1638 26.9702 22.2896 26.9418 22.443C26.8841 22.7546 26.7754 23.1556 26.5764 23.5449C26.3791 23.9312 26.1038 24.2856 25.7177 24.5448C25.3392 24.7991 24.7981 25 24 25V27ZM26.604 30.6189C26.7705 31.4517 26.3934 32.2823 25.6742 32.688L26.6567 34.43C28.1498 33.5879 28.8967 31.8844 28.5651 30.2266L26.604 30.6189Z" fill="#1B1B1B"></path><path d="M31 30C31 30 33.8494 20.7564 30 18.5C26.1507 16.2436 23.8993 19.7564 19.5 17.5C16.3945 15.9072 14.9327 12.3274 14.3415 10.3597C14.1437 9.70117 13.3879 9.3778 12.864 9.82307C11.9268 10.6195 10.6495 12.0013 10 14C8.90022 17.3846 10 20 10 20" stroke="#1B1B1B" stroke-width="2" stroke-linecap="round" stroke-linejoin="round"></path><path d="M18.3511 50.0637C18.8682 50.2576 19.1302 50.834 18.9363 51.3511C18.7424 51.8682 18.166 52.1302 17.6489 51.9363L18.3511 50.0637ZM16 49L16.4472 49.8944C16.0622 50.0869 15.5973 50.0115 15.2929 49.7071L16 49ZM16 42L15.5528 41.1056C15.9378 40.9131 16.4027 40.9885 16.7071 41.2929L16 42ZM7 48L6.23204 48.6405C5.90067 48.2432 5.92706 47.6587 6.29289 47.2929L7 48ZM7.5 36L6.58085 35.6061C6.71736 35.2876 7.00904 35.0624 7.35174 35.0111C7.69444 34.9597 8.03932 35.0894 8.26323 35.3539L7.5 36ZM13.0021 49.5L13.9303 49.1279L14.0667 49.4683L13.9508 49.8162L13.0021 49.5ZM16 49C15.5528 48.1056 15.5524 48.1057 15.5521 48.1059C15.552 48.106 15.5517 48.1061 15.5515 48.1062C15.5511 48.1064 15.5507 48.1066 15.5503 48.1068C15.5496 48.1072 15.5491 48.1074 15.5486 48.1077C15.5476 48.1082 15.5471 48.1084 15.5471 48.1084C15.547 48.1085 15.5486 48.1077 15.5519 48.1059C15.5584 48.1024 15.5713 48.0954 15.5898 48.0849C15.6268 48.0637 15.6852 48.0288 15.7578 47.9804C15.9046 47.8826 16.1001 47.7357 16.2929 47.5429C16.6839 47.1519 17 46.6412 17 46H19C19 47.3588 18.3161 48.3481 17.7071 48.9571C17.3999 49.2643 17.0954 49.4924 16.8672 49.6446C16.7523 49.7212 16.6544 49.78 16.5821 49.8214C16.5458 49.8421 16.5158 49.8585 16.493 49.8706C16.4817 49.8767 16.4721 49.8817 16.4644 49.8857C16.4605 49.8877 16.4572 49.8894 16.4543 49.8908C16.4529 49.8916 16.4516 49.8922 16.4504 49.8928C16.4498 49.8931 16.4492 49.8934 16.4487 49.8937C16.4484 49.8938 16.4481 49.894 16.4479 49.8941C16.4476 49.8942 16.4472 49.8944 16 49ZM17 46C17 45.3006 16.6347 44.5049 16.1679 43.8047C15.9454 43.4709 15.7214 43.1907 15.5532 42.9945C15.4696 42.897 15.401 42.8216 15.3549 42.7722C15.3319 42.7475 15.3145 42.7294 15.3039 42.7184C15.2985 42.7129 15.2949 42.7091 15.293 42.7072C15.2921 42.7063 15.2916 42.7058 15.2916 42.7058C15.2915 42.7058 15.2916 42.7059 15.2919 42.7061C15.292 42.7062 15.2921 42.7063 15.2923 42.7065C15.2924 42.7066 15.2925 42.7067 15.2926 42.7068C15.2927 42.7069 15.2929 42.7071 16 42C16.7071 41.2929 16.7073 41.2931 16.7075 41.2933C16.7075 41.2933 16.7077 41.2935 16.7079 41.2937C16.7082 41.294 16.7085 41.2943 16.7089 41.2946C16.7096 41.2954 16.7104 41.2962 16.7113 41.2972C16.7132 41.2991 16.7156 41.3015 16.7185 41.3044C16.7242 41.3102 16.7317 41.3179 16.7411 41.3275C16.7597 41.3468 16.7853 41.3736 16.817 41.4075C16.8802 41.4753 16.9679 41.5718 17.0718 41.693C17.2786 41.9343 17.5546 42.2791 17.8321 42.6953C18.3653 43.4951 19 44.6994 19 46H17ZM16 42C16.4472 42.8944 16.4476 42.8943 16.4479 42.8941C16.448 42.894 16.4483 42.8939 16.4485 42.8938C16.4489 42.8936 16.4493 42.8934 16.4497 42.8932C16.4504 42.8928 16.4509 42.8926 16.4514 42.8923C16.4524 42.8918 16.4529 42.8916 16.4529 42.8916C16.453 42.8915 16.4514 42.8923 16.4481 42.8941C16.4416 42.8976 16.4287 42.9046 16.4102 42.9151C16.3732 42.9363 16.3148 42.9712 16.2422 43.0196C16.0954 43.1174 15.8999 43.2643 15.7071 43.4571C15.3161 43.8481 15 44.3588 15 45H13C13 43.6412 13.6839 42.6519 14.2929 42.0429C14.6001 41.7357 14.9046 41.5076 15.1328 41.3554C15.2477 41.2788 15.3456 41.22 15.4179 41.1786C15.4542 41.1579 15.4842 41.1415 15.507 41.1294C15.5183 41.1233 15.5279 41.1183 15.5356 41.1143C15.5395 41.1123 15.5428 41.1106 15.5457 41.1092C15.5471 41.1084 15.5484 41.1078 15.5496 41.1072C15.5502 41.1069 15.5508 41.1066 15.5513 41.1063C15.5516 41.1062 15.5519 41.106 15.5521 41.1059C15.5524 41.1058 15.5528 41.1056 16 42ZM15 45C15 45.6994 15.3653 46.4951 15.8321 47.1953C16.0546 47.5291 16.2786 47.8093 16.4468 48.0055C16.5304 48.103 16.599 48.1784 16.6451 48.2278C16.6681 48.2525 16.6855 48.2706 16.6961 48.2816C16.7015 48.2871 16.7051 48.2909 16.707 48.2928C16.7079 48.2937 16.7084 48.2942 16.7084 48.2942C16.7085 48.2942 16.7084 48.2941 16.7081 48.2939C16.708 48.2938 16.7079 48.2937 16.7077 48.2935C16.7076 48.2934 16.7075 48.2933 16.7074 48.2932C16.7073 48.2931 16.7071 48.2929 16 49C15.2929 49.7071 15.2927 49.7069 15.2925 49.7067C15.2925 49.7067 15.2923 49.7065 15.2921 49.7063C15.2918 49.706 15.2915 49.7057 15.2911 49.7054C15.2904 49.7046 15.2896 49.7038 15.2887 49.7028C15.2868 49.7009 15.2844 49.6985 15.2815 49.6956C15.2758 49.6898 15.2683 49.6821 15.2589 49.6725C15.2403 49.6532 15.2147 49.6264 15.183 49.5925C15.1198 49.5247 15.0321 49.4282 14.9282 49.307C14.7214 49.0657 14.4454 48.7209 14.1679 48.3047C13.6347 47.5049 13 46.3006 13 45H15ZM11.0021 52C10.335 52 9.69703 51.6842 9.21011 51.3768C8.6928 51.0503 8.18935 50.6306 7.76049 50.235C7.32754 49.8356 6.94779 49.4394 6.67749 49.1448C6.54176 48.9968 6.43226 48.873 6.3559 48.7852C6.31769 48.7412 6.2877 48.7062 6.26679 48.6816C6.25633 48.6694 6.24813 48.6597 6.24231 48.6527C6.23939 48.6493 6.23707 48.6465 6.23536 48.6445C6.2345 48.6434 6.23379 48.6426 6.23324 48.6419C6.23296 48.6416 6.23272 48.6413 6.23252 48.6411C6.23242 48.641 6.2323 48.6408 6.23225 48.6408C6.23214 48.6406 6.23204 48.6405 7 48C7.76796 47.3595 7.76788 47.3594 7.7678 47.3593C7.76779 47.3593 7.76773 47.3592 7.7677 47.3592C7.76766 47.3591 7.76765 47.3591 7.76767 47.3592C7.76773 47.3592 7.76793 47.3595 7.76828 47.3599C7.76898 47.3607 7.77027 47.3623 7.77214 47.3645C7.77588 47.3689 7.78191 47.3761 7.79014 47.3857C7.80662 47.4051 7.83184 47.4346 7.86498 47.4727C7.93131 47.5489 8.029 47.6594 8.15129 47.7927C8.397 48.0606 8.73652 48.4144 9.11658 48.765C9.50075 49.1194 9.90407 49.4497 10.2778 49.6857C10.6819 49.9408 10.9191 50 11.0021 50V52ZM7 48C6.29289 47.2929 6.29324 47.2925 6.2936 47.2922C6.29372 47.2921 6.29408 47.2917 6.29432 47.2915C6.29482 47.291 6.29533 47.2905 6.29585 47.2899C6.29691 47.2889 6.29803 47.2878 6.29922 47.2866C6.30159 47.2843 6.30423 47.2817 6.30713 47.2789C6.31295 47.2733 6.31983 47.2667 6.32778 47.2592C6.34367 47.2443 6.36387 47.2259 6.38837 47.2045C6.43735 47.1616 6.5037 47.1066 6.5875 47.0438C6.75496 46.9182 6.99328 46.7603 7.30279 46.6056C7.92507 46.2944 8.82724 46 10 46V48C9.17276 48 8.57493 48.2056 8.19721 48.3944C8.00672 48.4897 7.87004 48.5818 7.7875 48.6437C7.7463 48.6747 7.7189 48.6978 7.70538 48.7096C7.69863 48.7155 7.69539 48.7186 7.69566 48.7183C7.6958 48.7182 7.69682 48.7172 7.69872 48.7154C7.69968 48.7144 7.70085 48.7133 7.70225 48.7119C7.70295 48.7112 7.7037 48.7105 7.70451 48.7097C7.70492 48.7093 7.70533 48.7089 7.70577 48.7084C7.70598 48.7082 7.70632 48.7079 7.70643 48.7078C7.70676 48.7074 7.70711 48.7071 7 48ZM9 43C8.75746 43.9701 8.75715 43.9701 8.75683 43.97C8.75671 43.97 8.75638 43.9699 8.75614 43.9698C8.75567 43.9697 8.75517 43.9696 8.75463 43.9694C8.75356 43.9692 8.75237 43.9689 8.75105 43.9685C8.74841 43.9678 8.74528 43.967 8.74167 43.9661C8.73444 43.9642 8.72528 43.9618 8.7143 43.9588C8.69235 43.9528 8.66304 43.9445 8.62728 43.9339C8.55588 43.9126 8.45801 43.8815 8.34097 43.8393C8.1087 43.7557 7.79144 43.6253 7.45186 43.4367C6.80018 43.0746 5.91731 42.4142 5.55132 41.3162L7.44868 40.6838C7.58269 41.0858 7.94982 41.4254 8.42314 41.6883C8.64606 41.8122 8.86005 41.9005 9.01841 41.9576C9.09668 41.9857 9.15896 42.0054 9.19889 42.0173C9.21879 42.0232 9.23295 42.0272 9.24053 42.0293C9.24432 42.0303 9.24645 42.0308 9.24683 42.0309C9.24701 42.031 9.24676 42.0309 9.24605 42.0307C9.24569 42.0307 9.24522 42.0305 9.24464 42.0304C9.24435 42.0303 9.24402 42.0302 9.24367 42.0301C9.2435 42.0301 9.24321 42.03 9.24313 42.03C9.24283 42.0299 9.24254 42.0299 9 43ZM5.55132 41.3162C5.35365 40.7232 5.37753 40.0406 5.45371 39.4566C5.5333 38.8464 5.68899 38.2134 5.85313 37.6553C6.01844 37.0933 6.19919 36.5843 6.33797 36.2169C6.4076 36.0326 6.46725 35.8824 6.50996 35.7772C6.53132 35.7246 6.54849 35.6831 6.56058 35.6541C6.56663 35.6397 6.57142 35.6283 6.57483 35.6202C6.57654 35.6162 6.5779 35.613 6.57891 35.6106C6.57942 35.6094 6.57983 35.6085 6.58016 35.6077C6.58032 35.6073 6.58046 35.607 6.58057 35.6067C6.58063 35.6066 6.5807 35.6064 6.58073 35.6064C6.5808 35.6062 6.58085 35.6061 7.5 36C8.41915 36.3939 8.41919 36.3938 8.41923 36.3937C8.41924 36.3937 8.41928 36.3936 8.41929 36.3936C8.41931 36.3935 8.41932 36.3935 8.4193 36.3936C8.41926 36.3937 8.41913 36.3939 8.41892 36.3945C8.41849 36.3955 8.41771 36.3973 8.41659 36.3999C8.41436 36.4052 8.41078 36.4137 8.40597 36.4252C8.39634 36.4483 8.38176 36.4835 8.36309 36.5295C8.32572 36.6215 8.27209 36.7565 8.20891 36.9237C8.08206 37.2595 7.91906 37.7192 7.77187 38.2197C7.62351 38.7241 7.49795 39.2473 7.43691 39.7153C7.37247 40.2094 7.39635 40.5268 7.44868 40.6838L5.55132 41.3162ZM7.5 36C8.26323 35.3539 8.2633 35.354 8.26338 35.354C8.26342 35.3541 8.26351 35.3542 8.26358 35.3543C8.26373 35.3545 8.26392 35.3547 8.26413 35.3549C8.26457 35.3555 8.26513 35.3561 8.26581 35.3569C8.26719 35.3586 8.26907 35.3608 8.27144 35.3636C8.27618 35.3692 8.28289 35.3772 8.29145 35.3875C8.30856 35.408 8.33308 35.4375 8.36407 35.4752C8.42601 35.5505 8.51395 35.6587 8.62026 35.7927C8.83239 36.0602 9.12016 36.434 9.4216 36.8583C9.99194 37.661 10.7259 38.7992 10.9706 39.751L9.03357 40.249C8.89264 39.7008 8.37555 38.839 7.79126 38.0167C7.51539 37.6285 7.24994 37.2835 7.05318 37.0354C6.95505 36.9117 6.87463 36.8128 6.81932 36.7455C6.79168 36.7119 6.77036 36.6863 6.75628 36.6694C6.74924 36.661 6.74402 36.6547 6.74073 36.6508C6.73908 36.6489 6.73792 36.6475 6.73726 36.6467C6.73693 36.6463 6.73672 36.6461 6.73664 36.646C6.7366 36.6459 6.73659 36.6459 6.73661 36.6459C6.73662 36.646 6.73666 36.646 6.73667 36.646C6.73672 36.6461 6.73677 36.6461 7.5 36ZM10.9706 39.751C11.2549 40.8571 10.8737 41.8821 10.5288 42.5315C10.3486 42.8709 10.1558 43.1505 10.0084 43.3454C9.93413 43.4436 9.86984 43.5223 9.8222 43.5786C9.79834 43.6068 9.77854 43.6295 9.7636 43.6464C9.75613 43.6548 9.74987 43.6617 9.74491 43.6672C9.74244 43.67 9.74028 43.6723 9.73847 43.6743C9.73756 43.6753 9.73674 43.6762 9.736 43.677C9.73563 43.6774 9.73529 43.6778 9.73496 43.6781C9.7348 43.6783 9.73457 43.6785 9.73449 43.6786C9.73427 43.6789 9.73405 43.6791 9 43C8.26595 42.3209 8.26574 42.3211 8.26554 42.3213C8.26548 42.3214 8.26528 42.3216 8.26516 42.3218C8.26492 42.322 8.2647 42.3223 8.2645 42.3225C8.2641 42.3229 8.26378 42.3233 8.26354 42.3235C8.26306 42.324 8.26289 42.3242 8.26302 42.3241C8.2633 42.3238 8.26478 42.3221 8.26738 42.3192C8.27258 42.3133 8.28222 42.3024 8.29555 42.2866C8.3223 42.255 8.36341 42.2048 8.4132 42.139C8.51395 42.0058 8.64399 41.8166 8.76246 41.5935C9.01499 41.1179 9.13483 40.6429 9.03357 40.249L10.9706 39.751ZM17.6489 51.9363C13.6052 50.42 9.15962 47.7616 8.02986 43.2425L9.97014 42.7575C10.8404 46.2384 14.3948 48.58 18.3511 50.0637L17.6489 51.9363ZM10 46C11.448 46 12.4551 46.905 13.0316 47.6249C13.3305 47.9981 13.5509 48.366 13.6963 48.6382C13.7697 48.7755 13.8256 48.8917 13.8643 48.9762C13.8837 49.0185 13.8989 49.0532 13.9098 49.0788C13.9153 49.0917 13.9198 49.1023 13.9232 49.1105C13.9249 49.1146 13.9263 49.1182 13.9275 49.1211C13.9281 49.1225 13.9286 49.1238 13.9291 49.125C13.9293 49.1255 13.9295 49.1261 13.9297 49.1266C13.9298 49.1268 13.93 49.1272 13.93 49.1273C13.9302 49.1276 13.9303 49.1279 13.0021 49.5C12.0739 49.8721 12.074 49.8724 12.0741 49.8727C12.0741 49.8727 12.0743 49.873 12.0743 49.8732C12.0745 49.8735 12.0746 49.8738 12.0747 49.8741C12.0749 49.8747 12.0751 49.8751 12.0752 49.8753C12.0754 49.8758 12.0754 49.8757 12.0751 49.8751C12.0746 49.8739 12.0732 49.8705 12.0708 49.865C12.0661 49.8541 12.0578 49.835 12.0459 49.809C12.022 49.7568 11.984 49.6776 11.9322 49.5805C11.8272 49.384 11.6721 49.1269 11.4705 48.8751C11.0459 48.345 10.552 48 10 48V46ZM13.0021 49.5C13.9508 49.8162 13.9506 49.8167 13.9505 49.8171C13.9504 49.8172 13.9503 49.8177 13.9502 49.818C13.95 49.8186 13.9498 49.8192 13.9495 49.8199C13.9491 49.8212 13.9486 49.8226 13.9481 49.8241C13.9471 49.8271 13.9459 49.8304 13.9446 49.8342C13.942 49.8417 13.9388 49.8507 13.935 49.8611C13.9274 49.8819 13.9173 49.9083 13.9046 49.9396C13.8793 50.0021 13.8432 50.085 13.7949 50.1816C13.6995 50.3725 13.5502 50.6293 13.3328 50.8902C12.8918 51.4193 12.1332 52 11.0021 52V50C11.371 50 11.6123 49.8307 11.7964 49.6098C11.8915 49.4957 11.9609 49.3775 12.0061 49.2872C12.0281 49.2431 12.0428 49.2088 12.0507 49.1893C12.0546 49.1796 12.0568 49.1738 12.0572 49.1726C12.0574 49.172 12.0572 49.1726 12.0566 49.1744C12.0563 49.1753 12.0558 49.1766 12.0553 49.1781C12.055 49.1789 12.0547 49.1797 12.0544 49.1807C12.0543 49.1812 12.0541 49.1817 12.0539 49.1822C12.0538 49.1824 12.0537 49.1828 12.0537 49.183C12.0535 49.1834 12.0534 49.1838 13.0021 49.5Z" fill="#1B1B1B"></path><path d="M22.0468 50.0637C21.5297 50.2576 21.2677 50.834 21.4616 51.3511C21.6555 51.8682 22.232 52.1302 22.7491 51.9363L22.0468 50.0637ZM24.3979 49L23.9507 49.8944C24.3357 50.0869 24.8007 50.0115 25.1051 49.7071L24.3979 49ZM24.3979 42L24.8452 41.1056C24.4602 40.9131 23.9952 40.9885 23.6908 41.2929L24.3979 42ZM33.3979 48L34.1659 48.6405C34.4973 48.2432 34.4709 47.6587 34.1051 47.2929L33.3979 48ZM32.8979 36L33.8171 35.6061C33.6806 35.2876 33.3889 35.0624 33.0462 35.0111C32.7035 34.9597 32.3586 35.0894 32.1347 35.3539L32.8979 36ZM27.3959 49.5L26.4677 49.1279L26.3312 49.4683L26.4472 49.8162L27.3959 49.5ZM24.3979 49C24.8452 48.1056 24.8455 48.1057 24.8458 48.1059C24.8459 48.106 24.8463 48.1061 24.8465 48.1062C24.8469 48.1064 24.8473 48.1066 24.8476 48.1068C24.8483 48.1072 24.8489 48.1074 24.8494 48.1077C24.8503 48.1082 24.8508 48.1084 24.8509 48.1084C24.851 48.1085 24.8493 48.1077 24.8461 48.1059C24.8396 48.1024 24.8266 48.0954 24.8082 48.0849C24.7711 48.0637 24.7127 48.0288 24.6401 47.9804C24.4933 47.8826 24.2978 47.7357 24.1051 47.5429C23.7141 47.1519 23.3979 46.6412 23.3979 46H21.3979C21.3979 47.3588 22.0818 48.3481 22.6908 48.9571C22.9981 49.2643 23.3026 49.4924 23.5307 49.6446C23.6457 49.7212 23.7435 49.78 23.8159 49.8214C23.8521 49.8421 23.8821 49.8585 23.9049 49.8706C23.9163 49.8767 23.9259 49.8817 23.9336 49.8857C23.9374 49.8877 23.9408 49.8894 23.9436 49.8908C23.9451 49.8916 23.9464 49.8922 23.9476 49.8928C23.9482 49.8931 23.9487 49.8934 23.9492 49.8937C23.9495 49.8938 23.9499 49.894 23.95 49.8941C23.9504 49.8942 23.9507 49.8944 24.3979 49ZM23.3979 46C23.3979 45.3006 23.7632 44.5049 24.23 43.8047C24.4526 43.4709 24.6766 43.1907 24.8447 42.9945C24.9283 42.897 24.9969 42.8216 25.0431 42.7722C25.0661 42.7475 25.0834 42.7294 25.0941 42.7184C25.0994 42.7129 25.1031 42.7091 25.105 42.7072C25.1059 42.7063 25.1064 42.7058 25.1064 42.7058C25.1064 42.7058 25.1063 42.7059 25.1061 42.7061C25.106 42.7062 25.1058 42.7063 25.1057 42.7065C25.1056 42.7066 25.1054 42.7067 25.1054 42.7068C25.1052 42.7069 25.1051 42.7071 24.3979 42C23.6908 41.2929 23.6907 41.2931 23.6905 41.2933C23.6904 41.2933 23.6902 41.2935 23.6901 41.2937C23.6898 41.294 23.6894 41.2943 23.6891 41.2946C23.6884 41.2954 23.6876 41.2962 23.6866 41.2972C23.6847 41.2991 23.6823 41.3015 23.6795 41.3044C23.6738 41.3102 23.6662 41.3179 23.6569 41.3275C23.6383 41.3468 23.6126 41.3736 23.581 41.4075C23.5177 41.4753 23.4301 41.5718 23.3262 41.693C23.1193 41.9343 22.8433 42.2791 22.5659 42.6953C22.0327 43.4951 21.3979 44.6994 21.3979 46H23.3979ZM24.3979 42C23.9507 42.8944 23.9504 42.8943 23.9501 42.8941C23.95 42.894 23.9496 42.8939 23.9494 42.8938C23.949 42.8936 23.9486 42.8934 23.9483 42.8932C23.9476 42.8928 23.947 42.8926 23.9465 42.8923C23.9456 42.8918 23.9451 42.8916 23.945 42.8916C23.9449 42.8915 23.9466 42.8923 23.9498 42.8941C23.9563 42.8976 23.9693 42.9046 23.9877 42.9151C24.0248 42.9363 24.0832 42.9712 24.1557 43.0196C24.3026 43.1174 24.4981 43.2643 24.6908 43.4571C25.0818 43.8481 25.3979 44.3588 25.3979 45H27.3979C27.3979 43.6412 26.7141 42.6519 26.1051 42.0429C25.7978 41.7357 25.4933 41.5076 25.2651 41.3554C25.1502 41.2788 25.0524 41.22 24.98 41.1786C24.9438 41.1579 24.9138 41.1415 24.891 41.1294C24.8796 41.1233 24.87 41.1183 24.8623 41.1143C24.8585 41.1123 24.8551 41.1106 24.8523 41.1092C24.8508 41.1084 24.8495 41.1078 24.8483 41.1072C24.8477 41.1069 24.8472 41.1066 24.8467 41.1063C24.8464 41.1062 24.846 41.106 24.8459 41.1059C24.8455 41.1058 24.8452 41.1056 24.3979 42ZM25.3979 45C25.3979 45.6994 25.0327 46.4951 24.5659 47.1953C24.3433 47.5291 24.1193 47.8093 23.9512 48.0055C23.8676 48.103 23.799 48.1784 23.7528 48.2278C23.7298 48.2525 23.7125 48.2706 23.7018 48.2816C23.6965 48.2871 23.6928 48.2909 23.6909 48.2928C23.69 48.2937 23.6895 48.2942 23.6895 48.2942C23.6895 48.2942 23.6896 48.2941 23.6898 48.2939C23.6899 48.2938 23.6901 48.2937 23.6902 48.2935C23.6903 48.2934 23.6905 48.2933 23.6905 48.2932C23.6907 48.2931 23.6908 48.2929 24.3979 49C25.1051 49.7071 25.1052 49.7069 25.1054 49.7067C25.1055 49.7067 25.1057 49.7065 25.1058 49.7063C25.1061 49.706 25.1065 49.7057 25.1068 49.7054C25.1075 49.7046 25.1083 49.7038 25.1093 49.7028C25.1112 49.7009 25.1136 49.6985 25.1164 49.6956C25.1221 49.6898 25.1297 49.6821 25.139 49.6725C25.1576 49.6532 25.1833 49.6264 25.2149 49.5925C25.2782 49.5247 25.3658 49.4282 25.4697 49.307C25.6766 49.0657 25.9526 48.7209 26.23 48.3047C26.7632 47.5049 27.3979 46.3006 27.3979 45H25.3979ZM29.3959 52C30.0629 52 30.7009 51.6842 31.1878 51.3768C31.7052 51.0503 32.2086 50.6306 32.6375 50.235C33.0704 49.8356 33.4502 49.4394 33.7205 49.1448C33.8562 48.9968 33.9657 48.873 34.042 48.7852C34.0803 48.7412 34.1102 48.7062 34.1312 48.6816C34.1416 48.6694 34.1498 48.6597 34.1556 48.6527C34.1586 48.6493 34.1609 48.6465 34.1626 48.6445C34.1634 48.6434 34.1642 48.6426 34.1647 48.6419C34.165 48.6416 34.1652 48.6413 34.1654 48.6411C34.1655 48.641 34.1656 48.6408 34.1657 48.6408C34.1658 48.6406 34.1659 48.6405 33.3979 48C32.63 47.3595 32.6301 47.3594 32.6301 47.3593C32.6302 47.3593 32.6302 47.3592 32.6302 47.3592C32.6303 47.3591 32.6303 47.3591 32.6303 47.3592C32.6302 47.3592 32.63 47.3595 32.6297 47.3599C32.629 47.3607 32.6277 47.3623 32.6258 47.3645C32.6221 47.3689 32.616 47.3761 32.6078 47.3857C32.5913 47.4051 32.5661 47.4346 32.533 47.4727C32.4666 47.5489 32.3689 47.6594 32.2467 47.7927C32.001 48.0606 31.6614 48.4144 31.2814 48.765C30.8972 49.1194 30.4939 49.4497 30.1202 49.6857C29.7161 49.9408 29.4788 50 29.3959 50V52ZM33.3979 48C34.1051 47.2929 34.1047 47.2925 34.1044 47.2922C34.1042 47.2921 34.1039 47.2917 34.1036 47.2915C34.1031 47.291 34.1026 47.2905 34.1021 47.2899C34.101 47.2889 34.0999 47.2878 34.0987 47.2866C34.0964 47.2843 34.0937 47.2817 34.0908 47.2789C34.085 47.2733 34.0781 47.2667 34.0702 47.2592C34.0543 47.2443 34.0341 47.2259 34.0096 47.2045C33.9606 47.1616 33.8942 47.1066 33.8104 47.0438C33.643 46.9182 33.4047 46.7603 33.0952 46.6056C32.4729 46.2944 31.5707 46 30.3979 46V48C31.2252 48 31.823 48.2056 32.2007 48.3944C32.3912 48.4897 32.5279 48.5818 32.6104 48.6437C32.6516 48.6747 32.679 48.6978 32.6926 48.7096C32.6993 48.7155 32.7026 48.7186 32.7023 48.7183C32.7022 48.7182 32.7011 48.7172 32.6992 48.7154C32.6983 48.7144 32.6971 48.7133 32.6957 48.7119C32.695 48.7112 32.6942 48.7105 32.6934 48.7097C32.693 48.7093 32.6926 48.7089 32.6922 48.7084C32.692 48.7082 32.6916 48.7079 32.6915 48.7078C32.6912 48.7074 32.6908 48.7071 33.3979 48ZM31.3979 43C31.6405 43.9701 31.6408 43.9701 31.6411 43.97C31.6412 43.97 31.6416 43.9699 31.6418 43.9698C31.6423 43.9697 31.6428 43.9696 31.6433 43.9694C31.6444 43.9692 31.6456 43.9689 31.6469 43.9685C31.6495 43.9678 31.6527 43.967 31.6563 43.9661C31.6635 43.9642 31.6727 43.9618 31.6836 43.9588C31.7056 43.9528 31.7349 43.9445 31.7707 43.9339C31.8421 43.9126 31.9399 43.8815 32.057 43.8393C32.2893 43.7557 32.6065 43.6253 32.9461 43.4367C33.5978 43.0746 34.4806 42.4142 34.8466 41.3162L32.9493 40.6838C32.8153 41.0858 32.4481 41.4254 31.9748 41.6883C31.7519 41.8122 31.5379 41.9005 31.3795 41.9576C31.3013 41.9857 31.239 42.0054 31.1991 42.0173C31.1792 42.0232 31.165 42.0272 31.1574 42.0293C31.1536 42.0303 31.1515 42.0308 31.1511 42.0309C31.1509 42.031 31.1512 42.0309 31.1519 42.0307C31.1523 42.0307 31.1527 42.0305 31.1533 42.0304C31.1536 42.0303 31.1539 42.0302 31.1543 42.0301C31.1545 42.0301 31.1547 42.03 31.1548 42.03C31.1551 42.0299 31.1554 42.0299 31.3979 43ZM34.8466 41.3162C35.0443 40.7232 35.0204 40.0406 34.9442 39.4566C34.8646 38.8464 34.709 38.2134 34.5448 37.6553C34.3795 37.0933 34.1988 36.5843 34.06 36.2169C33.9904 36.0326 33.9307 35.8824 33.888 35.7772C33.8666 35.7246 33.8495 35.6831 33.8374 35.6541C33.8313 35.6397 33.8265 35.6283 33.8231 35.6202C33.8214 35.6162 33.82 35.613 33.819 35.6106C33.8185 35.6094 33.8181 35.6085 33.8178 35.6077C33.8176 35.6073 33.8175 35.607 33.8174 35.6067C33.8173 35.6066 33.8172 35.6064 33.8172 35.6064C33.8172 35.6062 33.8171 35.6061 32.8979 36C31.9788 36.3939 31.9788 36.3938 31.9787 36.3937C31.9787 36.3937 31.9787 36.3936 31.9787 36.3936C31.9786 36.3935 31.9786 36.3935 31.9787 36.3936C31.9787 36.3937 31.9788 36.3939 31.979 36.3945C31.9795 36.3955 31.9802 36.3973 31.9814 36.3999C31.9836 36.4052 31.9872 36.4137 31.992 36.4252C32.0016 36.4483 32.0162 36.4835 32.0349 36.5295C32.0722 36.6215 32.1259 36.7565 32.189 36.9237C32.3159 37.2595 32.4789 37.7192 32.6261 38.2197C32.7744 38.7241 32.9 39.2473 32.961 39.7153C33.0255 40.2094 33.0016 40.5268 32.9493 40.6838L34.8466 41.3162ZM32.8979 36C32.1347 35.3539 32.1347 35.354 32.1346 35.354C32.1345 35.3541 32.1344 35.3542 32.1344 35.3543C32.1342 35.3545 32.134 35.3547 32.1338 35.3549C32.1334 35.3555 32.1328 35.3561 32.1321 35.3569C32.1308 35.3586 32.1289 35.3608 32.1265 35.3636C32.1218 35.3692 32.1151 35.3772 32.1065 35.3875C32.0894 35.408 32.0649 35.4375 32.0339 35.4752C31.9719 35.5505 31.884 35.6587 31.7777 35.7927C31.5656 36.0602 31.2778 36.434 30.9763 36.8583C30.406 37.661 29.6721 38.7992 29.4274 39.751L31.3644 40.249C31.5053 39.7008 32.0224 38.839 32.6067 38.0167C32.8826 37.6285 33.148 37.2835 33.3448 37.0354C33.4429 36.9117 33.5233 36.8128 33.5786 36.7455C33.6063 36.7119 33.6276 36.6863 33.6417 36.6694C33.6487 36.661 33.6539 36.6547 33.6572 36.6508C33.6589 36.6489 33.66 36.6475 33.6607 36.6467C33.661 36.6463 33.6612 36.6461 33.6613 36.646C33.6614 36.6459 33.6614 36.6459 33.6613 36.6459C33.6613 36.646 33.6613 36.646 33.6613 36.646C33.6612 36.6461 33.6612 36.6461 32.8979 36ZM29.4274 39.751C29.143 40.8571 29.5242 41.8821 29.8691 42.5315C30.0494 42.8709 30.2421 43.1505 30.3895 43.3454C30.4638 43.4436 30.5281 43.5223 30.5757 43.5786C30.5996 43.6068 30.6194 43.6295 30.6343 43.6464C30.6418 43.6548 30.6481 43.6617 30.653 43.6672C30.6555 43.67 30.6577 43.6723 30.6595 43.6743C30.6604 43.6753 30.6612 43.6762 30.6619 43.677C30.6623 43.6774 30.6627 43.6778 30.663 43.6781C30.6631 43.6783 30.6634 43.6785 30.6635 43.6786C30.6637 43.6789 30.6639 43.6791 31.3979 43C32.132 42.3209 32.1322 42.3211 32.1324 42.3213C32.1325 42.3214 32.1327 42.3216 32.1328 42.3218C32.133 42.322 32.1332 42.3223 32.1334 42.3225C32.1338 42.3229 32.1342 42.3233 32.1344 42.3235C32.1349 42.324 32.1351 42.3242 32.1349 42.3241C32.1347 42.3238 32.1332 42.3221 32.1306 42.3192C32.1254 42.3133 32.1157 42.3024 32.1024 42.2866C32.0757 42.255 32.0345 42.2048 31.9848 42.139C31.884 42.0058 31.754 41.8166 31.6355 41.5935C31.383 41.1179 31.2631 40.6429 31.3644 40.249L29.4274 39.751ZM22.7491 51.9363C26.7927 50.42 31.2383 47.7616 32.3681 43.2425L30.4278 42.7575C29.5576 46.2384 26.0032 48.58 22.0468 50.0637L22.7491 51.9363ZM30.3979 46C28.9499 46 27.9429 46.905 27.3664 47.6249C27.0675 47.9981 26.8471 48.366 26.7016 48.6382C26.6283 48.7755 26.5724 48.8917 26.5336 48.9762C26.5143 49.0185 26.4991 49.0532 26.4881 49.0788C26.4826 49.0917 26.4782 49.1023 26.4748 49.1105C26.4731 49.1146 26.4716 49.1182 26.4704 49.1211C26.4698 49.1225 26.4693 49.1238 26.4689 49.125C26.4686 49.1255 26.4684 49.1261 26.4682 49.1266C26.4681 49.1268 26.468 49.1272 26.4679 49.1273C26.4678 49.1276 26.4677 49.1279 27.3959 49.5C28.3241 49.8721 28.324 49.8724 28.3238 49.8727C28.3238 49.8727 28.3237 49.873 28.3236 49.8732C28.3235 49.8735 28.3234 49.8738 28.3233 49.8741C28.323 49.8747 28.3229 49.8751 28.3228 49.8753C28.3226 49.8758 28.3226 49.8757 28.3228 49.8751C28.3234 49.8739 28.3248 49.8705 28.3271 49.865C28.3318 49.8541 28.3401 49.835 28.352 49.809C28.3759 49.7568 28.4139 49.6776 28.4657 49.5805C28.5707 49.384 28.7258 49.1269 28.9275 48.8751C29.352 48.345 29.846 48 30.3979 48V46ZM27.3959 49.5C26.4472 49.8162 26.4473 49.8167 26.4475 49.8171C26.4475 49.8172 26.4477 49.8177 26.4478 49.818C26.448 49.8186 26.4482 49.8192 26.4484 49.8199C26.4488 49.8212 26.4493 49.8226 26.4498 49.8241C26.4509 49.8271 26.452 49.8304 26.4533 49.8342C26.456 49.8417 26.4592 49.8507 26.463 49.8611C26.4706 49.8819 26.4807 49.9083 26.4933 49.9396C26.5186 50.0021 26.5547 50.085 26.603 50.1816C26.6985 50.3725 26.8478 50.6293 27.0652 50.8902C27.5061 51.4193 28.2648 52 29.3959 52V50C29.027 50 28.7856 49.8307 28.6016 49.6098C28.5065 49.4957 28.437 49.3775 28.3919 49.2872C28.3698 49.2431 28.3552 49.2088 28.3472 49.1893C28.3433 49.1796 28.3412 49.1738 28.3407 49.1726C28.3405 49.172 28.3407 49.1726 28.3414 49.1744C28.3417 49.1753 28.3421 49.1766 28.3426 49.1781C28.3429 49.1789 28.3432 49.1797 28.3435 49.1807C28.3437 49.1812 28.3438 49.1817 28.344 49.1822C28.3441 49.1824 28.3442 49.1828 28.3443 49.183C28.3444 49.1834 28.3446 49.1838 27.3959 49.5Z" fill="#1B1B1B"></path><path d="M17.8586 5.01001C17.3118 5.08812 16.9319 5.59465 17.0101 6.14138C17.0882 6.68812 17.5947 7.06802 18.1414 6.98991L17.8586 5.01001ZM33.0385 16.2747C33.1902 16.8057 33.7437 17.1132 34.2747 16.9615C34.8058 16.8098 35.1132 16.2563 34.9615 15.7252L33.0385 16.2747ZM18.1414 6.98991C24.6974 6.05334 31.1894 9.8029 33.0385 16.2747L34.9615 15.7252C32.8106 8.19704 25.3026 3.94659 17.8586 5.01001L18.1414 6.98991Z" fill="#1B1B1B"></path><path d="M18 10C18 9.44772 18.4477 9 19 9C19.5523 9 20 9.44772 20 10H18ZM30.8321 14.4453C31.1384 14.9048 31.0142 15.5257 30.5547 15.8321C30.0952 16.1384 29.4743 16.0142 29.1679 15.5547L30.8321 14.4453ZM20 10C20 10.7171 20.2505 11.1502 20.6507 11.4413C21.1003 11.7683 21.86 12 23 12V14C21.64 14 20.3997 13.7317 19.4743 13.0587C18.4995 12.3498 18 11.2829 18 10H20ZM23 12C23.5753 12 24.1415 11.9429 24.7915 11.8935C25.4152 11.8461 26.1019 11.8078 26.7922 11.8805C28.2612 12.0351 29.6593 12.6861 30.8321 14.4453L29.1679 15.5547C28.3407 14.3139 27.4888 13.9649 26.5828 13.8695C26.0856 13.8172 25.5536 13.8414 24.9429 13.8878C24.3585 13.9321 23.6747 14 23 14V12Z" fill="#1B1B1B"></path></g><g opacity="0.5"><path d="M55.616 15.458C56.32 15.6286 56.8587 15.9593 57.232 16.45C57.6053 16.93 57.792 17.5646 57.792 18.354C57.792 19.346 57.472 20.13 56.832 20.706C56.2027 21.2713 55.3333 21.554 54.224 21.554H50V10.354H53.536C54.56 10.354 55.3493 10.5833 55.904 11.042C56.4693 11.5006 56.752 12.1833 56.752 13.09C56.752 13.6233 56.656 14.098 56.464 14.514C56.272 14.93 55.9893 15.2446 55.616 15.458ZM51.52 15.01H53.344C53.9413 15.01 54.3947 14.8926 54.704 14.658C55.024 14.4126 55.184 13.9806 55.184 13.362C55.184 12.7433 55.024 12.3166 54.704 12.082C54.3947 11.8366 53.9413 11.714 53.344 11.714H51.52V15.01ZM54.096 20.178C54.7253 20.178 55.2213 20.0233 55.584 19.714C55.9467 19.394 56.128 18.9246 56.128 18.306C56.128 17.026 55.4507 16.386 54.096 16.386H51.52V20.178H54.096Z" fill="#1B1B1B"></path><path d="M63.0029 21.714C62.1069 21.714 61.3389 21.5326 60.6989 21.17C60.0695 20.7966 59.5895 20.2953 59.2589 19.666C58.9282 19.0366 58.7629 18.338 58.7629 17.57C58.7629 16.834 58.9122 16.162 59.2109 15.554C59.5202 14.9353 59.9629 14.45 60.5389 14.098C61.1255 13.7353 61.8135 13.554 62.6029 13.554C63.6055 13.554 64.4162 13.8473 65.0349 14.434C65.6642 15.0206 65.9789 15.8313 65.9789 16.866C65.9789 17.1326 65.9575 17.3886 65.9149 17.634H60.2349C60.3309 18.6473 60.6402 19.3673 61.1629 19.794C61.6855 20.2206 62.3575 20.434 63.1789 20.434C64.0002 20.434 64.7522 20.2793 65.4349 19.97L65.6269 21.106C64.7202 21.5113 63.8455 21.714 63.0029 21.714ZM64.4909 16.642C64.4909 16.0766 64.3309 15.634 64.0109 15.314C63.6909 14.994 63.2109 14.834 62.5709 14.834C61.9522 14.834 61.4669 14.9886 61.1149 15.298C60.7629 15.5966 60.5122 16.0446 60.3629 16.642H64.4909Z" fill="#1B1B1B"></path><path d="M69.2544 21.714C68.529 21.714 67.9424 21.5006 67.4944 21.074C67.057 20.6473 66.8384 20.1033 66.8384 19.442C66.8384 18.45 67.3077 17.7406 68.2464 17.314C69.185 16.8873 70.2784 16.6633 71.5264 16.642C71.5264 15.938 71.3877 15.4633 71.1104 15.218C70.8437 14.962 70.4117 14.834 69.8144 14.834C69.4837 14.834 69.153 14.8873 68.8224 14.994C68.4917 15.09 68.1344 15.2713 67.7504 15.538L67.5424 14.37C67.8624 14.1246 68.257 13.9273 68.7264 13.778C69.1957 13.6286 69.6864 13.554 70.1984 13.554C70.8704 13.554 71.4037 13.6713 71.7984 13.906C72.2037 14.1406 72.497 14.53 72.6784 15.074C72.8704 15.618 72.9664 16.3646 72.9664 17.314V18.914C72.9664 19.3406 72.9824 19.666 73.0144 19.89C73.057 20.1033 73.1424 20.2686 73.2704 20.386C73.3984 20.5033 73.5957 20.562 73.8624 20.562H74.0064L73.7824 21.714H73.6704C73.2224 21.714 72.8704 21.6713 72.6144 21.586C72.3584 21.5006 72.161 21.378 72.0224 21.218C71.8944 21.058 71.7717 20.8393 71.6544 20.562C70.993 21.33 70.193 21.714 69.2544 21.714ZM69.5264 20.562C69.9104 20.562 70.2784 20.466 70.6304 20.274C70.993 20.082 71.2917 19.826 71.5264 19.506V17.634C70.3744 17.6766 69.5477 17.8313 69.0464 18.098C68.5557 18.354 68.3104 18.7753 68.3104 19.362C68.3104 19.7673 68.417 20.0713 68.6304 20.274C68.8544 20.466 69.153 20.562 69.5264 20.562Z" fill="#1B1B1B"></path><path d="M81.5499 13.714V21.554H80.2699L80.1099 20.69C79.8539 21.042 79.5499 21.3033 79.1979 21.474C78.8565 21.634 78.4352 21.714 77.9339 21.714C76.9952 21.714 76.2752 21.4313 75.7739 20.866C75.2832 20.29 75.0379 19.426 75.0379 18.274V13.714H76.4779V17.874C76.4779 18.7273 76.6219 19.3673 76.9099 19.794C77.2085 20.2206 77.6725 20.434 78.3019 20.434C78.6752 20.434 79.0219 20.3593 79.3419 20.21C79.6725 20.0606 79.9285 19.842 80.1099 19.554V13.714H81.5499Z" fill="#1B1B1B"></path><path d="M86.2125 21.714C85.5192 21.714 85.0018 21.5326 84.6605 21.17C84.3298 20.8073 84.1645 20.3646 84.1645 19.842V14.834H82.8205L82.9485 13.714H84.1645V11.778L85.6045 11.634V13.714H87.6685V14.834H85.6045V18.962C85.6045 19.506 85.6365 19.8793 85.7005 20.082C85.7645 20.2846 85.8978 20.418 86.1005 20.482C86.3138 20.5353 86.6978 20.562 87.2525 20.562H87.6205L87.5085 21.714H86.2125Z" fill="#1B1B1B"></path><path d="M91.2991 21.202L88.0351 13.714H89.6351L92.0831 19.538L94.2911 13.714H95.8911L91.0911 25.426H89.4911L91.2991 21.202Z" fill="#1B1B1B"></path><path d="M102.795 21.714C102.176 21.714 101.632 21.6446 101.163 21.506C100.704 21.3566 100.352 21.1966 100.107 21.026L100.283 19.634C100.496 19.826 100.822 20.0073 101.259 20.178C101.707 20.3486 102.198 20.434 102.731 20.434C103.232 20.434 103.616 20.3486 103.883 20.178C104.16 20.0073 104.299 19.7673 104.299 19.458C104.299 19.0953 104.15 18.8233 103.851 18.642C103.552 18.45 103.179 18.29 102.731 18.162C102.24 18.034 101.824 17.9006 101.483 17.762C101.152 17.6126 100.864 17.3886 100.619 17.09C100.384 16.7913 100.267 16.3966 100.267 15.906C100.267 15.234 100.507 14.674 100.987 14.226C101.467 13.778 102.208 13.554 103.211 13.554C103.67 13.554 104.059 13.602 104.379 13.698C104.699 13.7833 105.019 13.906 105.339 14.066L105.163 15.378C104.907 15.1646 104.624 14.9993 104.315 14.882C104.006 14.754 103.648 14.69 103.243 14.69C102.774 14.69 102.4 14.7806 102.123 14.962C101.856 15.1326 101.723 15.394 101.723 15.746C101.723 15.9806 101.787 16.1726 101.915 16.322C102.043 16.4606 102.224 16.578 102.459 16.674C102.694 16.77 103.056 16.8926 103.547 17.042C104.155 17.2233 104.678 17.4793 105.115 17.81C105.563 18.1406 105.787 18.6633 105.787 19.378C105.787 20.018 105.558 20.5673 105.099 21.026C104.651 21.4846 103.883 21.714 102.795 21.714Z" fill="#1B1B1B"></path><path d="M109.9 21.714C109.207 21.714 108.689 21.5326 108.348 21.17C108.017 20.8073 107.852 20.3646 107.852 19.842V14.834H106.508L106.636 13.714H107.852V11.778L109.292 11.634V13.714H111.356V14.834H109.292V18.962C109.292 19.506 109.324 19.8793 109.388 20.082C109.452 20.2846 109.585 20.418 109.788 20.482C110.001 20.5353 110.385 20.562 110.94 20.562H111.308L111.196 21.714H109.9Z" fill="#1B1B1B"></path><path d="M119.019 13.714V21.554H117.739L117.579 20.69C117.323 21.042 117.019 21.3033 116.667 21.474C116.325 21.634 115.904 21.714 115.403 21.714C114.464 21.714 113.744 21.4313 113.243 20.866C112.752 20.29 112.507 19.426 112.507 18.274V13.714H113.947V17.874C113.947 18.7273 114.091 19.3673 114.379 19.794C114.677 20.2206 115.141 20.434 115.771 20.434C116.144 20.434 116.491 20.3593 116.811 20.21C117.141 20.0606 117.397 19.842 117.579 19.554V13.714H119.019Z" fill="#1B1B1B"></path><path d="M127.921 9.55396V21.554H126.641L126.481 20.594C126.215 20.9566 125.868 21.234 125.441 21.426C125.015 21.618 124.561 21.714 124.081 21.714C123.42 21.714 122.817 21.5326 122.273 21.17C121.729 20.8073 121.297 20.3166 120.977 19.698C120.668 19.0793 120.513 18.3966 120.513 17.65C120.513 16.9246 120.657 16.2473 120.945 15.618C121.244 14.9886 121.665 14.4873 122.209 14.114C122.753 13.7406 123.377 13.554 124.081 13.554C124.551 13.554 124.993 13.6393 125.409 13.81C125.825 13.9806 126.183 14.242 126.481 14.594V9.55396H127.921ZM124.337 20.434C124.721 20.434 125.089 20.338 125.441 20.146C125.793 19.9433 126.081 19.634 126.305 19.218C126.529 18.802 126.641 18.2793 126.641 17.65C126.641 17.0633 126.529 16.5566 126.305 16.13C126.081 15.7033 125.788 15.3833 125.425 15.17C125.073 14.946 124.711 14.834 124.337 14.834C123.612 14.834 123.036 15.1006 122.609 15.634C122.193 16.1566 121.985 16.8286 121.985 17.65C121.985 18.4393 122.199 19.1006 122.625 19.634C123.052 20.1673 123.623 20.434 124.337 20.434Z" fill="#1B1B1B"></path><path d="M129.852 10.354H131.292V11.954H129.852V10.354ZM129.852 13.714H131.292V21.554H129.852V13.714Z" fill="#1B1B1B"></path><path d="M136.667 21.714C135.867 21.714 135.174 21.538 134.587 21.186C134 20.8233 133.552 20.3326 133.243 19.714C132.934 19.0953 132.779 18.402 132.779 17.634C132.779 16.866 132.934 16.1726 133.243 15.554C133.552 14.9353 134 14.45 134.587 14.098C135.174 13.7353 135.867 13.554 136.667 13.554C137.456 13.554 138.144 13.7353 138.731 14.098C139.328 14.45 139.782 14.9353 140.091 15.554C140.4 16.1726 140.555 16.866 140.555 17.634C140.555 18.402 140.4 19.0953 140.091 19.714C139.782 20.3326 139.328 20.8233 138.731 21.186C138.144 21.538 137.456 21.714 136.667 21.714ZM136.667 20.434C137.435 20.434 138.027 20.1886 138.443 19.698C138.87 19.2073 139.083 18.5193 139.083 17.634C139.083 16.7486 138.87 16.0606 138.443 15.57C138.027 15.0793 137.435 14.834 136.667 14.834C135.899 14.834 135.302 15.0793 134.875 15.57C134.459 16.0606 134.251 16.7486 134.251 17.634C134.251 18.5193 134.459 19.2073 134.875 19.698C135.302 20.1886 135.899 20.434 136.667 20.434Z" fill="#1B1B1B"></path></g><path d="M51.54 31.126L50 30.846V30.426H53.36C54.3493 30.426 55.1613 30.65 55.796 31.098C56.4307 31.546 56.8787 32.1154 57.14 32.806L61.368 43.586L63.832 36.362L61.76 31.126L60.22 30.846V30.426H63.58C64.5693 30.426 65.372 30.65 65.988 31.098C66.604 31.5274 67.0613 32.0967 67.36 32.806L71.588 43.586L75.62 31.686L73.52 30.846V30.426H78.7V30.846L76.46 31.686L70.16 50.306H69.32L64.28 37.51L59.94 50.306H59.1L51.54 31.126Z" fill="#1B1B1B"></path><path d="M85.2953 50.446C82.9806 50.446 81.1606 49.7927 79.8353 48.486C78.5286 47.1607 77.8753 45.3407 77.8753 43.026C77.8753 40.7114 78.5286 38.9007 79.8353 37.594C81.1606 36.2687 82.9806 35.606 85.2953 35.606C87.61 35.606 89.4206 36.2687 90.7273 37.594C92.0526 38.9007 92.7153 40.7114 92.7153 43.026C92.7153 45.3407 92.0526 47.1607 90.7273 48.486C89.4206 49.7927 87.61 50.446 85.2953 50.446ZM85.2953 49.886C86.042 49.886 86.6673 49.3634 87.1713 48.318C87.694 47.2727 87.9553 45.5087 87.9553 43.026C87.9553 40.5434 87.694 38.7794 87.1713 37.734C86.6673 36.6887 86.042 36.166 85.2953 36.166C84.5486 36.166 83.914 36.6887 83.3913 37.734C82.8873 38.7794 82.6353 40.5434 82.6353 43.026C82.6353 45.5087 82.8873 47.2727 83.3913 48.318C83.914 49.3634 84.5486 49.886 85.2953 49.886Z" fill="#1B1B1B"></path><path d="M102.385 50.446C100.07 50.446 98.2505 49.7927 96.9252 48.486C95.6185 47.1607 94.9652 45.3407 94.9652 43.026C94.9652 40.7114 95.6185 38.9007 96.9252 37.594C98.2505 36.2687 100.07 35.606 102.385 35.606C104.7 35.606 106.51 36.2687 107.817 37.594C109.142 38.9007 109.805 40.7114 109.805 43.026C109.805 45.3407 109.142 47.1607 107.817 48.486C106.51 49.7927 104.7 50.446 102.385 50.446ZM102.385 49.886C103.132 49.886 103.757 49.3634 104.261 48.318C104.784 47.2727 105.045 45.5087 105.045 43.026C105.045 40.5434 104.784 38.7794 104.261 37.734C103.757 36.6887 103.132 36.166 102.385 36.166C101.638 36.166 101.004 36.6887 100.481 37.734C99.9772 38.7794 99.7252 40.5434 99.7252 43.026C99.7252 45.5087 99.9772 47.2727 100.481 48.318C101.004 49.3634 101.638 49.886 102.385 49.886Z" fill="#1B1B1B"></path><path d="M117.795 50.446C116.694 50.446 115.714 50.166 114.855 49.606C113.996 49.0274 113.315 48.1874 112.811 47.086C112.307 45.966 112.055 44.6127 112.055 43.026C112.055 40.6367 112.606 38.8074 113.707 37.538C114.827 36.25 116.33 35.606 118.215 35.606C119.111 35.606 119.895 35.7927 120.567 36.166C120.847 36.2967 121.136 36.4834 121.435 36.726V31.266L119.755 30.846V30.426H123.395C125.075 30.426 125.915 31.266 125.915 32.946V49.186L127.595 49.606V50.026H125.075C123.955 50.026 123.087 49.6807 122.471 48.99C122.21 48.71 122.004 48.3554 121.855 47.926C121.612 48.3927 121.304 48.8127 120.931 49.186C120.091 50.026 119.046 50.446 117.795 50.446ZM118.915 49.466C119.606 49.466 120.231 49.0927 120.791 48.346C120.996 48.066 121.211 47.6927 121.435 47.226V37.566C121.23 37.3607 121.015 37.174 120.791 37.006C120.287 36.6327 119.802 36.446 119.335 36.446C118.532 36.446 117.907 36.9127 117.459 37.846C117.03 38.7794 116.815 40.506 116.815 43.026C116.815 45.434 117.011 47.114 117.403 48.066C117.814 48.9994 118.318 49.466 118.915 49.466Z" fill="#1B1B1B"></path><path d="M129.418 49.606L131.098 49.186V36.866L129.418 36.446V36.026H131.938C133.04 36.026 133.908 36.3807 134.542 37.09C134.785 37.37 134.99 37.7154 135.158 38.126C135.438 37.6034 135.737 37.1834 136.054 36.866C136.894 36.026 137.856 35.606 138.938 35.606C140.021 35.606 140.973 35.8487 141.794 36.334C142.616 36.8007 143.25 37.4447 143.698 38.266C143.978 37.7247 144.277 37.286 144.594 36.95C145.453 36.054 146.414 35.606 147.478 35.606C148.468 35.606 149.354 35.8114 150.138 36.222C150.941 36.6327 151.557 37.1927 151.986 37.902C152.434 38.6114 152.658 39.386 152.658 40.226V49.186L154.338 49.606V50.026H150.698C149.018 50.026 148.178 49.186 148.178 47.506V40.226C148.178 39.0127 147.992 38.1074 147.618 37.51C147.245 36.894 146.825 36.586 146.358 36.586C145.817 36.586 145.266 36.9594 144.706 37.706C144.482 38.0607 144.286 38.434 144.118 38.826V49.186L145.798 49.606V50.026H137.958V49.606L139.638 49.186V40.226C139.638 39.0127 139.452 38.1074 139.078 37.51C138.705 36.894 138.285 36.586 137.818 36.586C137.277 36.586 136.726 36.9594 136.166 37.706C135.942 38.0607 135.746 38.434 135.578 38.826V49.186L137.258 49.606V50.026H129.418V49.606Z" fill="#1B1B1B"></path><path d="M161.484 50.446C159.822 50.446 158.544 50.0914 157.648 49.382C156.752 48.6727 156.304 47.7674 156.304 46.666C156.304 45.938 156.462 45.2194 156.78 44.51C156.91 44.174 157.078 43.866 157.284 43.586C158.049 43.3994 158.88 43.2314 159.776 43.082C161.792 42.746 163.574 42.5407 165.124 42.466V41.626C165.124 39.554 164.872 38.126 164.368 37.342C163.864 36.558 163.089 36.166 162.044 36.166C161.652 36.166 161.316 36.2127 161.036 36.306L160.644 36.446V40.646L160.28 40.73C159.981 40.7674 159.729 40.786 159.524 40.786C158.889 40.786 158.376 40.5994 157.984 40.226C157.61 39.834 157.424 39.3207 157.424 38.686C157.424 37.8274 157.853 37.0994 158.712 36.502C159.589 35.9047 160.886 35.606 162.604 35.606C164.06 35.606 165.31 35.8674 166.356 36.39C167.42 36.894 168.222 37.6034 168.764 38.518C169.324 39.414 169.604 40.45 169.604 41.626V49.186L171.284 49.606V50.026H168.764C167.644 50.026 166.776 49.6807 166.16 48.99C165.898 48.71 165.693 48.3554 165.544 47.926C165.282 48.3927 164.974 48.8127 164.62 49.186C163.78 50.026 162.734 50.446 161.484 50.446ZM162.604 49.466C163.294 49.466 163.92 49.0927 164.48 48.346C164.685 48.066 164.9 47.6927 165.124 47.226V43.166C164.265 43.166 163.444 43.2127 162.66 43.306C162.081 43.3807 161.689 43.4274 161.484 43.446C161.39 43.6514 161.297 43.9314 161.204 44.286C161.017 44.9954 160.924 45.6954 160.924 46.386C160.924 47.4314 161.082 48.206 161.4 48.71C161.717 49.214 162.118 49.466 162.604 49.466Z" fill="#1B1B1B"></path><path d="M172.977 49.606L174.657 49.186V36.866L172.977 36.446V36.026H175.497C176.598 36.026 177.466 36.3807 178.101 37.09C178.344 37.37 178.549 37.7154 178.717 38.126C178.997 37.7154 179.342 37.342 179.753 37.006C180.686 36.2594 181.732 35.886 182.889 35.886C183.878 35.886 184.616 36.1194 185.101 36.586C185.605 37.034 185.857 37.6874 185.857 38.546C185.857 39.1807 185.661 39.694 185.269 40.086C184.896 40.4594 184.392 40.646 183.757 40.646C183.496 40.646 183.234 40.6274 182.973 40.59L182.637 40.506V36.586C181.685 36.586 180.817 36.9594 180.033 37.706C179.66 38.0794 179.361 38.4527 179.137 38.826V49.186L180.817 49.606V50.026H172.977V49.606Z" fill="#1B1B1B"></path><path d="M194.667 50.446C193.435 50.446 192.362 50.222 191.447 49.774C190.551 49.326 189.86 48.71 189.375 47.926C188.89 47.142 188.647 46.2554 188.647 45.266V36.726H186.687V36.026H188.647V34.626C188.647 32.946 189.487 32.106 191.167 32.106H193.127V36.026H197.047V36.726H193.127V45.266C193.127 46.9834 193.304 48.1594 193.659 48.794C194.014 49.4287 194.536 49.746 195.227 49.746C195.899 49.746 196.487 49.4194 196.991 48.766C197.495 48.1127 197.747 47.226 197.747 46.106H198.447C198.447 47.4874 198.102 48.5607 197.411 49.326C196.72 50.0727 195.806 50.446 194.667 50.446Z" fill="#1B1B1B"></path><path d="M202.232 50.306C201.672 50.306 201.178 50.1007 200.749 49.69C200.338 49.2607 200.133 48.766 200.133 48.206C200.133 47.646 200.338 47.1607 200.749 46.75C201.178 46.3207 201.672 46.106 202.232 46.106C202.792 46.106 203.278 46.3207 203.689 46.75C204.118 47.1607 204.333 47.646 204.333 48.206C204.333 48.766 204.118 49.2607 203.689 49.69C203.278 50.1007 202.792 50.306 202.232 50.306Z" fill="#1B1B1B"></path><defs><clipPath id="clip0"><rect width="40" height="60" fill="white"></rect></clipPath></defs></svg> 