<?xml version="1.0" encoding="UTF-8"?> <svg xmlns="http://www.w3.org/2000/svg" width="26" height="26" viewBox="0 0 26 26" fill="none"><rect width="26" height="26" rx="13" fill="#0044CC"></rect><path d="M18.7695 7.64062C18.9961 7.64062 19.1797 7.45699 19.1797 7.23047C19.1797 7.00395 18.9961 6.82031 18.7695 6.82031C18.543 6.82031 18.3594 7.00395 18.3594 7.23047C18.3594 7.45699 18.543 7.64062 18.7695 7.64062Z" fill="white"></path><path d="M19.5898 10.9492C19.8164 10.9492 20 10.7656 20 10.5391C20 10.3125 19.8164 10.1289 19.5898 10.1289C19.3633 10.1289 19.1797 10.3125 19.1797 10.5391C19.1797 10.7656 19.3633 10.9492 19.5898 10.9492Z" fill="white"></path><path d="M13.0273 20C16.017 20 18.6698 18.0677 19.6287 15.2326C19.6872 15.06 19.6243 14.8693 19.4749 14.7648C19.3259 14.6611 19.1252 14.6674 18.9826 14.782C18.0986 15.4946 17.032 15.8711 15.8984 15.8711C13.1844 15.8711 10.9492 13.6633 10.9492 10.9492C10.9492 9.25213 11.8381 7.66827 13.2817 6.75862C13.4363 6.66128 13.49 6.47264 13.4391 6.2972C13.3886 6.12176 13.21 6 13.0273 6C9.18254 6 6 9.1552 6 13C6 16.8448 9.18254 20 13.0273 20Z" fill="white"></path><path d="M13.8477 9.30859C14.5262 9.30859 15.0781 9.86055 15.0781 10.5391C15.0781 10.7658 15.2616 10.9492 15.4883 10.9492C15.715 10.9492 15.8984 10.7658 15.8984 10.5391C15.8984 9.86055 16.4504 9.30859 17.1289 9.30859C17.3556 9.30859 17.5391 9.12514 17.5391 8.89844C17.5391 8.67173 17.3556 8.48828 17.1289 8.48828C16.4504 8.48828 15.8984 7.90898 15.8984 7.23047C15.8984 7.00376 15.715 6.82031 15.4883 6.82031C15.2616 6.82031 15.0781 7.00376 15.0781 7.23047C15.0781 7.90898 14.5262 8.48828 13.8477 8.48828C13.6209 8.48828 13.4375 8.67173 13.4375 8.89844C13.4375 9.12514 13.6209 9.30859 13.8477 9.30859Z" fill="white"></path></svg> 