<?xml version="1.0" encoding="UTF-8"?> <svg xmlns="http://www.w3.org/2000/svg" width="26" height="26" viewBox="0 0 26 26" fill="none"><rect width="26" height="26" rx="13" fill="#95BD53"></rect><g clip-path="url(#clip0)"><path d="M19.7212 12.0665L18.25 10.6933V7.16708C18.25 6.84508 17.9887 6.58375 17.6667 6.58375H15.9167C15.5947 6.58375 15.3333 6.84508 15.3333 7.16708V7.96508L13.3984 6.15733C13.1738 5.9485 12.8262 5.94792 12.6022 6.15733L6.26425 12.0805C6.09392 12.2508 6 12.4743 6 12.7088C6 13.1912 6.39258 13.5838 6.875 13.5838H7.75V18.5421C7.75 19.3459 8.4045 20.0004 9.20833 20.0004H16.7917C17.5955 20.0004 18.25 19.3459 18.25 18.5421V13.5838H19.125C19.6074 13.5838 20 13.1912 20 12.7088C20 12.4743 19.9061 12.2508 19.7212 12.0665Z" fill="white"></path></g><defs><clipPath id="clip0"><rect width="14" height="14" fill="white" transform="translate(6 6)"></rect></clipPath></defs></svg> 