<?xml version="1.0" encoding="UTF-8"?> <svg xmlns="http://www.w3.org/2000/svg" width="26" height="26" viewBox="0 0 26 26" fill="none"><rect width="26" height="26" rx="13" fill="#F2661D"></rect><path fill-rule="evenodd" clip-rule="evenodd" d="M13.75 7.5C13.75 7.08579 13.4142 6.75 13 6.75C12.5858 6.75 12.25 7.08579 12.25 7.5V8.5C12.25 8.91421 12.5858 9.25 13 9.25C13.4142 9.25 13.75 8.91421 13.75 8.5V7.5ZM8.93414 8.87348C8.64125 8.58059 8.16637 8.58059 7.87348 8.87348C7.58059 9.16637 7.58059 9.64125 7.87348 9.93414L8.58059 10.6412C8.87348 10.9341 9.34835 10.9341 9.64125 10.6412C9.93414 10.3484 9.93414 9.87348 9.64125 9.58059L8.93414 8.87348ZM18.1265 9.93414C18.4194 9.64125 18.4194 9.16637 18.1265 8.87348C17.8336 8.58059 17.3588 8.58059 17.0659 8.87348L16.3588 9.58059C16.0659 9.87348 16.0659 10.3484 16.3588 10.6412C16.6516 10.9341 17.1265 10.9341 17.4194 10.6412L18.1265 9.93414ZM9 14C9 11.7909 10.7909 9.99999 13 9.99999C15.2091 9.99999 17 11.7909 17 14L20.75 14C21.1642 14 21.5 14.3358 21.5 14.75C21.5 15.1642 21.1642 15.5 20.75 15.5H4.75C4.33579 15.5 4 15.1642 4 14.75C4 14.3358 4.33579 14 4.75 14L9 14ZM6.5 17.25C6.5 16.8358 6.83579 16.5 7.25 16.5H18.75C19.1642 16.5 19.5 16.8358 19.5 17.25C19.5 17.6642 19.1642 18 18.75 18H7.25C6.83579 18 6.5 17.6642 6.5 17.25Z" fill="white"></path></svg> 