<?xml version="1.0" encoding="UTF-8"?> <svg xmlns="http://www.w3.org/2000/svg" width="26" height="26" viewBox="0 0 26 26" fill="none"><path fill-rule="evenodd" clip-rule="evenodd" d="M13 0C5.8203 0 0 5.8203 0 13C0 20.1797 5.8203 26 13 26C20.1797 26 26 20.1797 26 13C26 5.8203 20.1797 0 13 0ZM14 7.5C14 6.94772 13.5523 6.5 13 6.5C12.4477 6.5 12 6.94772 12 7.5V12H7.5C6.94772 12 6.5 12.4477 6.5 13C6.5 13.5523 6.94772 14 7.5 14H12V18.5C12 19.0523 12.4477 19.5 13 19.5C13.5523 19.5 14 19.0523 14 18.5V14H18.5C19.0523 14 19.5 13.5523 19.5 13C19.5 12.4477 19.0523 12 18.5 12H14V7.5Z" fill="white" fill-opacity="0.2"></path></svg> 