<?xml version="1.0" encoding="UTF-8"?> <svg xmlns="http://www.w3.org/2000/svg" width="233" height="60" viewBox="0 0 233 60" fill="none"><rect width="60" height="60" rx="16" fill="url(#paint0_linear)"></rect><path d="M31.8397 18.2498L43.1091 30.4992C43.8597 31.3149 43.9834 32.5275 43.413 33.478L42.4999 35H44.9999L47.3241 31.5137C48.9005 29.1491 48.6831 26.0186 46.7951 23.8946L34.6712 10.2552C32.185 7.45823 27.8148 7.45823 25.3286 10.2552L13.2047 23.8946C11.3166 26.0186 11.0993 29.1491 12.6757 31.5137L14.9999 35H17.4999L16.5867 33.478C16.0164 32.5275 16.1401 31.3149 16.8906 30.4992L28.1601 18.2498C29.1504 17.1733 30.8494 17.1733 31.8397 18.2498Z" fill="url(#paint1_linear)"></path><path d="M13.125 28.0273H10V39.8628C10 41.2055 10.4803 42.504 11.3542 43.5235L14.2014 46.8452C14.712 47.441 15.5396 47.6558 16.2755 47.3835C17.0114 47.1113 17.5 46.4096 17.5 45.625V35.4526C17.5 34.7215 17.2437 34.0136 16.7757 33.452L13.125 28.0273Z" fill="url(#paint2_linear)"></path><path d="M48.6458 43.5235C49.5197 42.504 50 41.2055 50 39.8628V28.125H46.875L43.2243 33.452C42.7563 34.0136 42.5 34.7215 42.5 35.4526V45.625C42.5 46.4096 42.9886 47.1113 43.7245 47.3835C44.4604 47.6558 45.288 47.441 45.7986 46.8452L48.6458 43.5235Z" fill="url(#paint3_linear)"></path><path d="M35.0109 10.0956C32.2956 7.20512 27.7045 7.20512 24.9892 10.0956L11.5253 24.4209C9.67558 26.3899 9.48693 29.3958 11.0759 31.5806L14.1087 36.1028C14.7177 36.9403 15.8904 37.1255 16.7279 36.5164C17.5653 35.9073 17.7505 34.7347 17.1414 33.8972L14.1087 29.375C13.579 28.6467 13.6419 27.6448 14.2584 26.9884L27.7224 12.6631C28.9566 11.3493 31.0435 11.3493 32.2777 12.6631L45.7416 26.9884C46.3582 27.6448 46.4211 28.6467 45.8914 29.375L42.8587 33.8972C42.2496 34.7347 42.4348 35.9073 43.2722 36.5164C44.1097 37.1255 45.2824 36.9403 45.8914 36.1028L48.9242 31.5806C50.5132 29.3958 50.3245 26.3899 48.4748 24.4209L35.0109 10.0956Z" fill="url(#paint4_linear)"></path><rect x="27.5" y="41.25" width="5" height="5" rx="2.5" fill="url(#paint5_linear)"></rect><path d="M23.2501 40.875C24.073 41.4921 25.238 41.3307 25.8625 40.5167C26.8273 39.3224 28.5146 38.75 30.0001 38.75C31.4854 38.75 33.1733 39.3223 34.1377 40.5167C34.7623 41.3307 35.9273 41.4921 36.7501 40.875C37.5785 40.2537 37.7464 39.0784 37.1251 38.25C35.5162 36.1048 32.5988 35 30.0001 35C27.4014 35 24.4841 36.1047 22.8751 38.25C22.2538 39.0784 22.4217 40.2537 23.2501 40.875Z" fill="url(#paint6_linear)"></path><path d="M22.6831 34.9591C22.0188 35.7466 20.8423 35.8509 20.0497 35.1904C19.2542 34.5275 19.1467 33.3452 19.8096 32.5497C22.2218 29.6551 26.3259 28.125 30 28.125C33.9599 28.125 37.4412 29.8004 40.1905 32.5497C40.8534 33.3452 40.7459 34.5275 39.9504 35.1904C39.1578 35.8509 37.9813 35.7466 37.317 34.9591C35.5462 32.9334 32.6283 31.875 30 31.875C27.3717 31.875 24.4539 32.9334 22.6831 34.9591Z" fill="url(#paint7_linear)"></path><path d="M75.13 20.993C73.966 20.993 72.964 20.783 72.124 20.363C71.296 19.931 70.588 19.313 70 18.509L71.638 16.655C72.226 17.471 72.808 18.029 73.384 18.329C73.96 18.617 74.596 18.761 75.292 18.761C75.856 18.761 76.33 18.641 76.714 18.401C77.11 18.161 77.308 17.837 77.308 17.429C77.308 16.937 77.056 16.553 76.552 16.277C76.06 15.989 75.424 15.767 74.644 15.611C73.288 15.323 72.28 14.861 71.62 14.225C70.96 13.589 70.63 12.743 70.63 11.687C70.63 10.955 70.84 10.313 71.26 9.761C71.68 9.197 72.232 8.759 72.916 8.447C73.612 8.135 74.38 7.979 75.22 7.979C76.336 7.979 77.26 8.171 77.992 8.555C78.736 8.927 79.324 9.461 79.756 10.157L78.082 11.795C77.338 10.739 76.39 10.211 75.238 10.211C74.638 10.211 74.152 10.337 73.78 10.589C73.42 10.829 73.24 11.159 73.24 11.579C73.24 12.023 73.45 12.371 73.87 12.623C74.302 12.875 74.878 13.073 75.598 13.217C76.918 13.493 77.962 13.937 78.73 14.549C79.51 15.149 79.9 15.959 79.9 16.979C79.9 17.819 79.696 18.539 79.288 19.139C78.892 19.739 78.334 20.201 77.614 20.525C76.906 20.837 76.078 20.993 75.13 20.993Z" fill="#5F56C6"></path><path d="M82.0039 20.813V11.309H84.3799L84.4159 12.659C84.7519 12.203 85.1719 11.837 85.6759 11.561C86.1799 11.273 86.7079 11.129 87.2599 11.129C87.9439 11.129 88.5139 11.279 88.9699 11.579C89.4259 11.867 89.7979 12.329 90.0859 12.965C90.4339 12.401 90.9019 11.957 91.4899 11.633C92.0899 11.297 92.7079 11.129 93.3439 11.129C95.5159 11.129 96.6019 12.437 96.6019 15.053V20.813H94.1359V15.233C94.1359 13.913 93.5959 13.253 92.5159 13.253C91.9399 13.253 91.4599 13.433 91.0759 13.793C90.7039 14.153 90.5179 14.603 90.5179 15.143V20.813H88.0519V15.197C88.0519 14.573 87.9139 14.093 87.6379 13.757C87.3619 13.421 86.9659 13.253 86.4499 13.253C85.8859 13.253 85.4119 13.433 85.0279 13.793C84.6559 14.153 84.4699 14.591 84.4699 15.107V20.813H82.0039Z" fill="#5F56C6"></path><path d="M102.62 20.993C101.828 20.993 101.114 20.777 100.478 20.345C99.8415 19.913 99.3315 19.325 98.9475 18.581C98.5755 17.837 98.3895 16.991 98.3895 16.043C98.3895 15.071 98.5755 14.219 98.9475 13.487C99.3315 12.743 99.8475 12.161 100.496 11.741C101.156 11.321 101.9 11.111 102.728 11.111C103.4 11.111 103.988 11.249 104.492 11.525C104.996 11.789 105.398 12.137 105.698 12.569V11.309H108.146V20.813H105.68V19.535C105.344 19.955 104.906 20.303 104.366 20.579C103.838 20.855 103.256 20.993 102.62 20.993ZM103.286 18.851C104.018 18.851 104.612 18.593 105.068 18.077C105.524 17.561 105.752 16.883 105.752 16.043C105.752 15.203 105.524 14.525 105.068 14.009C104.612 13.493 104.018 13.235 103.286 13.235C102.566 13.235 101.978 13.493 101.522 14.009C101.078 14.525 100.856 15.203 100.856 16.043C100.856 16.883 101.078 17.561 101.522 18.077C101.978 18.593 102.566 18.851 103.286 18.851Z" fill="#5F56C6"></path><path d="M110.709 20.813V11.309H113.085L113.121 12.875C113.433 12.359 113.841 11.939 114.345 11.615C114.861 11.279 115.401 11.111 115.965 11.111C116.181 11.111 116.379 11.129 116.559 11.165C116.751 11.189 116.913 11.225 117.045 11.273L116.379 13.973C116.247 13.901 116.079 13.841 115.875 13.793C115.671 13.745 115.467 13.721 115.263 13.721C114.675 13.721 114.177 13.925 113.769 14.333C113.373 14.729 113.175 15.233 113.175 15.845V20.813H110.709Z" fill="#5F56C6"></path><path d="M119.802 20.813V13.523H118.002V11.309H119.802V8.879H122.25V11.309H124.248V13.523H122.25V20.813H119.802Z" fill="#5F56C6"></path><path d="M131.724 20.813V8.213H134.316V13.343H139.716V8.213H142.308V20.813H139.716V15.719H134.316V20.813H131.724Z" fill="#5F56C6"></path><path d="M149.66 20.993C148.688 20.993 147.824 20.783 147.068 20.363C146.312 19.931 145.718 19.343 145.286 18.599C144.854 17.855 144.638 17.003 144.638 16.043C144.638 15.095 144.854 14.249 145.286 13.505C145.718 12.761 146.312 12.179 147.068 11.759C147.824 11.327 148.688 11.111 149.66 11.111C150.608 11.111 151.46 11.327 152.216 11.759C152.972 12.179 153.566 12.761 153.998 13.505C154.43 14.249 154.646 15.095 154.646 16.043C154.646 17.003 154.43 17.855 153.998 18.599C153.566 19.343 152.972 19.931 152.216 20.363C151.46 20.783 150.608 20.993 149.66 20.993ZM149.66 18.851C150.14 18.851 150.572 18.731 150.956 18.491C151.34 18.239 151.634 17.903 151.838 17.483C152.054 17.063 152.162 16.583 152.162 16.043C152.162 15.503 152.054 15.023 151.838 14.603C151.634 14.183 151.34 13.853 150.956 13.613C150.572 13.373 150.14 13.253 149.66 13.253C149.168 13.253 148.73 13.373 148.346 13.613C147.962 13.853 147.662 14.183 147.446 14.603C147.23 15.023 147.122 15.503 147.122 16.043C147.122 16.583 147.23 17.063 147.446 17.483C147.662 17.903 147.962 18.239 148.346 18.491C148.73 18.731 149.168 18.851 149.66 18.851Z" fill="#5F56C6"></path><path d="M156.57 20.813V11.309H158.946L158.982 12.659C159.318 12.203 159.738 11.837 160.242 11.561C160.746 11.273 161.274 11.129 161.826 11.129C162.51 11.129 163.08 11.279 163.536 11.579C163.992 11.867 164.364 12.329 164.652 12.965C165 12.401 165.468 11.957 166.056 11.633C166.656 11.297 167.274 11.129 167.91 11.129C170.082 11.129 171.168 12.437 171.168 15.053V20.813H168.702V15.233C168.702 13.913 168.162 13.253 167.082 13.253C166.506 13.253 166.026 13.433 165.642 13.793C165.27 14.153 165.084 14.603 165.084 15.143V20.813H162.618V15.197C162.618 14.573 162.48 14.093 162.204 13.757C161.928 13.421 161.532 13.253 161.016 13.253C160.452 13.253 159.978 13.433 159.594 13.793C159.222 14.153 159.036 14.591 159.036 15.107V20.813H156.57Z" fill="#5F56C6"></path><path d="M178.104 20.993C177.084 20.993 176.19 20.783 175.422 20.363C174.654 19.943 174.054 19.367 173.622 18.635C173.202 17.903 172.992 17.063 172.992 16.115C172.992 15.131 173.196 14.267 173.604 13.523C174.024 12.767 174.594 12.173 175.314 11.741C176.046 11.309 176.886 11.093 177.834 11.093C178.686 11.093 179.448 11.303 180.12 11.723C180.804 12.131 181.332 12.689 181.704 13.397C182.088 14.105 182.268 14.915 182.244 15.827L182.226 16.601H175.386C175.518 17.285 175.842 17.825 176.358 18.221C176.886 18.617 177.552 18.815 178.356 18.815C178.788 18.815 179.178 18.749 179.526 18.617C179.886 18.485 180.27 18.251 180.678 17.915L181.866 19.571C181.35 20.027 180.756 20.381 180.084 20.633C179.424 20.873 178.764 20.993 178.104 20.993ZM177.852 13.217C176.496 13.217 175.68 13.829 175.404 15.053H179.904V14.981C179.868 14.465 179.652 14.045 179.256 13.721C178.872 13.385 178.404 13.217 177.852 13.217Z" fill="#5F56C6"></path><path d="M75.796 51.713L70 32.113H75.124L77.896 42.109C78.0267 42.5757 78.1387 43.0424 78.232 43.509C78.3253 43.9757 78.4093 44.4144 78.484 44.825C78.5587 44.377 78.6427 43.9384 78.736 43.509C78.848 43.061 78.988 42.585 79.156 42.081L81.956 34.521H85.932L88.704 42.081C88.872 42.5664 89.012 43.0237 89.124 43.453C89.2547 43.8637 89.3667 44.265 89.46 44.657C89.4973 44.3024 89.5533 43.9197 89.628 43.509C89.7027 43.0984 89.8147 42.6224 89.964 42.081L92.736 32.113H97.72L91.868 51.713H88.004L83.748 41.353L79.856 51.713H75.796Z" fill="#1A273A"></path><path d="M106.086 51.993C104.537 51.993 103.146 51.657 101.914 50.985C100.701 50.313 99.7396 49.3984 99.0303 48.241C98.321 47.0837 97.9663 45.7584 97.9663 44.265C97.9663 42.7717 98.321 41.4464 99.0303 40.289C99.7396 39.113 100.701 38.189 101.914 37.517C103.146 36.845 104.537 36.509 106.086 36.509C107.636 36.509 109.017 36.845 110.23 37.517C111.462 38.189 112.424 39.113 113.114 40.289C113.824 41.4464 114.178 42.7717 114.178 44.265C114.178 45.7584 113.824 47.0837 113.114 48.241C112.424 49.3984 111.462 50.313 110.23 50.985C109.017 51.657 107.636 51.993 106.086 51.993ZM106.086 47.933C107.038 47.933 107.822 47.5877 108.438 46.897C109.054 46.2064 109.362 45.329 109.362 44.265C109.362 43.1824 109.054 42.2957 108.438 41.605C107.822 40.8957 107.038 40.541 106.086 40.541C105.134 40.541 104.341 40.8957 103.706 41.605C103.09 42.2957 102.782 43.1824 102.782 44.265C102.782 45.329 103.09 46.2064 103.706 46.897C104.341 47.5877 105.134 47.933 106.086 47.933Z" fill="#1A273A"></path><path d="M124.133 51.993C122.584 51.993 121.193 51.657 119.961 50.985C118.748 50.313 117.787 49.3984 117.077 48.241C116.368 47.0837 116.013 45.7584 116.013 44.265C116.013 42.7717 116.368 41.4464 117.077 40.289C117.787 39.113 118.748 38.189 119.961 37.517C121.193 36.845 122.584 36.509 124.133 36.509C125.683 36.509 127.064 36.845 128.277 37.517C129.509 38.189 130.471 39.113 131.161 40.289C131.871 41.4464 132.225 42.7717 132.225 44.265C132.225 45.7584 131.871 47.0837 131.161 48.241C130.471 49.3984 129.509 50.313 128.277 50.985C127.064 51.657 125.683 51.993 124.133 51.993ZM124.133 47.933C125.085 47.933 125.869 47.5877 126.485 46.897C127.101 46.2064 127.409 45.329 127.409 44.265C127.409 43.1824 127.101 42.2957 126.485 41.605C125.869 40.8957 125.085 40.541 124.133 40.541C123.181 40.541 122.388 40.8957 121.753 41.605C121.137 42.2957 120.829 43.1824 120.829 44.265C120.829 45.329 121.137 46.2064 121.753 46.897C122.388 47.5877 123.181 47.933 124.133 47.933Z" fill="#1A273A"></path><path d="M140.668 52.021C139.399 52.021 138.269 51.6944 137.28 51.041C136.291 50.369 135.507 49.4544 134.928 48.297C134.349 47.121 134.06 45.777 134.06 44.265C134.06 42.7717 134.349 41.4464 134.928 40.289C135.507 39.113 136.291 38.189 137.28 37.517C138.288 36.845 139.436 36.509 140.724 36.509C141.564 36.509 142.357 36.6677 143.104 36.985C143.869 37.3024 144.504 37.713 145.008 38.217V30.993H149.768V51.713H145.4L145.26 50.145C144.775 50.6864 144.121 51.1344 143.3 51.489C142.497 51.8437 141.62 52.021 140.668 52.021ZM141.928 48.101C142.917 48.101 143.692 47.7557 144.252 47.065C144.831 46.3744 145.12 45.441 145.12 44.265C145.12 43.1077 144.831 42.1837 144.252 41.493C143.692 40.8024 142.917 40.457 141.928 40.457C140.957 40.457 140.183 40.8024 139.604 41.493C139.044 42.1837 138.764 43.1077 138.764 44.265C138.764 45.441 139.044 46.3744 139.604 47.065C140.183 47.7557 140.957 48.101 141.928 48.101Z" fill="#1A273A"></path><path d="M153.498 51.713V36.817H157.978L158.09 38.665C159.304 37.2464 160.713 36.537 162.318 36.537C163.289 36.537 164.11 36.733 164.782 37.125C165.473 37.517 166.08 38.2077 166.602 39.197C167.256 38.2824 168.021 37.6104 168.898 37.181C169.794 36.7517 170.728 36.537 171.698 36.537C173.397 36.537 174.694 37.0597 175.59 38.105C176.486 39.1317 176.934 40.6344 176.934 42.613V51.713H172.174V42.977C172.174 41.3344 171.474 40.513 170.074 40.513C169.346 40.513 168.749 40.737 168.282 41.185C167.816 41.633 167.582 42.1837 167.582 42.837V51.713H162.822V42.977C162.822 42.1744 162.636 41.5677 162.262 41.157C161.908 40.7277 161.404 40.513 160.75 40.513C160.022 40.513 159.425 40.737 158.958 41.185C158.492 41.6144 158.258 42.165 158.258 42.837V51.713H153.498Z" fill="#1A273A"></path><path d="M186.083 51.965C184.851 51.965 183.741 51.6384 182.751 50.985C181.781 50.313 181.006 49.3984 180.427 48.241C179.867 47.065 179.587 45.7304 179.587 44.237C179.587 42.725 179.867 41.3904 180.427 40.233C181.006 39.0757 181.79 38.1704 182.779 37.517C183.787 36.845 184.935 36.509 186.223 36.509C187.194 36.509 188.043 36.6957 188.771 37.069C189.499 37.4424 190.106 37.9277 190.591 38.525V36.817H195.267V51.713H190.479V50.005C189.975 50.5837 189.35 51.0597 188.603 51.433C187.857 51.7877 187.017 51.965 186.083 51.965ZM187.427 48.017C188.417 48.017 189.191 47.681 189.751 47.009C190.33 46.3184 190.619 45.3944 190.619 44.237C190.619 43.0984 190.33 42.193 189.751 41.521C189.191 40.8304 188.417 40.485 187.427 40.485C186.457 40.485 185.682 40.8304 185.103 41.521C184.543 42.193 184.263 43.0984 184.263 44.237C184.263 45.3944 184.543 46.3184 185.103 47.009C185.682 47.681 186.457 48.017 187.427 48.017Z" fill="#1A273A"></path><path d="M199.245 51.713V36.817H203.725L203.809 39.029C204.313 38.2824 204.948 37.6757 205.713 37.209C206.497 36.7424 207.328 36.509 208.205 36.509C208.522 36.509 208.83 36.537 209.129 36.593C209.428 36.649 209.699 36.7144 209.941 36.789L208.653 42.025C208.448 41.913 208.168 41.8104 207.813 41.717C207.458 41.605 207.076 41.549 206.665 41.549C205.881 41.549 205.237 41.8104 204.733 42.333C204.248 42.8557 204.005 43.537 204.005 44.377V51.713H199.245Z" fill="#1A273A"></path><path d="M213.873 51.713V40.933H211.297V36.817H213.873V33.065H218.633V36.817H221.405V40.933H218.633V51.713H213.873Z" fill="#1A273A"></path><path d="M225.671 52.021C224.869 52.021 224.253 51.797 223.823 51.349C223.394 50.901 223.179 50.2664 223.179 49.445C223.179 48.6984 223.403 48.0917 223.851 47.625C224.318 47.1397 224.925 46.897 225.671 46.897C226.455 46.897 227.062 47.121 227.491 47.569C227.939 47.9984 228.163 48.6237 228.163 49.445C228.163 50.2104 227.93 50.8357 227.463 51.321C226.997 51.7877 226.399 52.021 225.671 52.021Z" fill="#1A273A"></path><defs><linearGradient id="paint0_linear" x1="0" y1="0" x2="60" y2="60" gradientUnits="userSpaceOnUse"><stop offset="0.09375" stop-color="#FAF5FF"></stop><stop offset="0.776042" stop-color="#E4D5F2"></stop><stop offset="1" stop-color="#FBF8FE"></stop></linearGradient><linearGradient id="paint1_linear" x1="29.9999" y1="4.99997" x2="29.9999" y2="47.5" gradientUnits="userSpaceOnUse"><stop offset="0.215074" stop-color="#362BB4"></stop><stop offset="0.650735" stop-color="#5F56C6"></stop></linearGradient><linearGradient id="paint2_linear" x1="30" y1="29.375" x2="30" y2="48.2881" gradientUnits="userSpaceOnUse"><stop stop-color="#6E65D3"></stop><stop offset="1" stop-color="#9F98EE"></stop></linearGradient><linearGradient id="paint3_linear" x1="30" y1="29.375" x2="30" y2="48.2881" gradientUnits="userSpaceOnUse"><stop stop-color="#6E65D3"></stop><stop offset="1" stop-color="#9F98EE"></stop></linearGradient><linearGradient id="paint4_linear" x1="30" y1="7.92773" x2="30" y2="36.8751" gradientUnits="userSpaceOnUse"><stop stop-color="#6E65D3"></stop><stop offset="1" stop-color="#9F98EE"></stop></linearGradient><linearGradient id="paint5_linear" x1="30" y1="41.25" x2="30" y2="46.25" gradientUnits="userSpaceOnUse"><stop stop-color="#9F98EE"></stop><stop offset="1" stop-color="#5F56C6"></stop></linearGradient><linearGradient id="paint6_linear" x1="30.0001" y1="30.3124" x2="30.0001" y2="45.9377" gradientUnits="userSpaceOnUse"><stop stop-color="#9F98EE"></stop><stop offset="1" stop-color="#5F56C6"></stop></linearGradient><linearGradient id="paint7_linear" x1="30" y1="23.625" x2="30" y2="35.625" gradientUnits="userSpaceOnUse"><stop stop-color="#9F98EE"></stop><stop offset="1" stop-color="#5F56C6"></stop></linearGradient></defs></svg> 