<?xml version="1.0" encoding="UTF-8"?> <svg xmlns="http://www.w3.org/2000/svg" width="107" height="40" viewBox="0 0 107 40" fill="none"><path d="M37 28.1989L38.2855 25.3487C39.6748 26.3384 41.5201 26.853 43.3448 26.853C44.6925 26.853 45.5427 26.3582 45.5427 25.606C45.5219 23.508 37.4769 25.1508 37.4147 19.886C37.394 17.2139 39.8821 15.1555 43.407 15.1555C45.5012 15.1555 47.5954 15.6503 49.0883 16.7785L47.8857 19.688C46.5172 18.8567 44.8169 18.263 43.1996 18.263C42.1007 18.263 41.375 18.7578 41.375 19.3911C41.3957 21.4496 49.503 20.3214 49.5859 25.3487C49.5859 28.0801 47.16 30 43.6765 30C41.1262 30 38.7832 29.426 37 28.1989ZM86.3276 24.3195C85.6848 25.3883 84.4822 26.1206 83.093 26.1206C81.0403 26.1206 79.3815 24.5372 79.3815 22.5778C79.3815 20.6183 81.0403 19.0349 83.093 19.0349C84.4822 19.0349 85.6848 19.7672 86.3276 20.836L89.8732 18.9557C88.5462 16.6993 85.9958 15.1555 83.093 15.1555C78.8009 15.1555 75.3175 18.4807 75.3175 22.5778C75.3175 26.6748 78.8009 30 83.093 30C86.0166 30 88.5462 28.476 89.8732 26.1998L86.3276 24.3195V24.3195ZM51.3691 9H55.8063V29.7229H51.3691V9ZM91.6149 9V29.7229H96.0521V23.508L101.319 29.7229H107L100.303 22.3402L106.502 15.4524H101.07L96.0521 21.1725V9H91.6149ZM68.9935 24.3591C68.3507 25.3685 67.0237 26.1206 65.5308 26.1206C63.4781 26.1206 61.8193 24.5372 61.8193 22.5778C61.8193 20.6183 63.4781 19.0349 65.5308 19.0349C67.0237 19.0349 68.3507 19.8266 68.9935 20.8558V24.3591ZM68.9935 15.4524V17.1348C68.2678 15.967 66.4639 15.1555 64.577 15.1555C60.6789 15.1555 57.6102 18.4411 57.6102 22.558C57.6102 26.6748 60.6789 30 64.577 30C66.4639 30 68.2678 29.1885 68.9935 28.0207V29.7031H73.4307V15.4524H68.9935Z" fill="white"></path><path d="M6.11383 24.3327C6.11383 26.0182 4.75265 27.3805 3.06848 27.3805C1.38431 27.3805 0.0231323 26.0182 0.0231323 24.3327C0.0231323 22.6472 1.38431 21.2849 3.06848 21.2849H6.11383V24.3327ZM7.63651 24.3327C7.63651 22.6472 8.99769 21.2849 10.6819 21.2849C12.366 21.2849 13.7272 22.6472 13.7272 24.3327V31.9522C13.7272 33.6377 12.366 35 10.6819 35C8.99769 35 7.63651 33.6377 7.63651 31.9522V24.3327Z" fill="#E01E5A"></path><path d="M10.6818 12.0956C8.99763 12.0956 7.63645 10.7333 7.63645 9.0478C7.63645 7.36227 8.99763 6 10.6818 6C12.366 6 13.7272 7.36227 13.7272 9.0478V12.0956H10.6818ZM10.6818 13.6426C12.366 13.6426 13.7272 15.0049 13.7272 16.6904C13.7272 18.3759 12.366 19.7382 10.6818 19.7382H3.04535C1.36118 19.7382 0 18.3759 0 16.6904C0 15.0049 1.36118 13.6426 3.04535 13.6426H10.6818Z" fill="#36C5F0"></path><path d="M22.8863 16.6904C22.8863 15.0049 24.2474 13.6426 25.9316 13.6426C27.6158 13.6426 28.977 15.0049 28.977 16.6904C28.977 18.3759 27.6158 19.7382 25.9316 19.7382H22.8863V16.6904ZM21.3636 16.6904C21.3636 18.3759 20.0024 19.7382 18.3182 19.7382C16.6341 19.7382 15.2729 18.3759 15.2729 16.6904V9.0478C15.2729 7.36227 16.6341 6 18.3182 6C20.0024 6 21.3636 7.36227 21.3636 9.0478V16.6904V16.6904Z" fill="#2EB67D"></path><path d="M18.3182 28.9044C20.0024 28.9044 21.3636 30.2667 21.3636 31.9522C21.3636 33.6377 20.0024 35 18.3182 35C16.6341 35 15.2729 33.6377 15.2729 31.9522V28.9044H18.3182ZM18.3182 27.3805C16.6341 27.3805 15.2729 26.0182 15.2729 24.3327C15.2729 22.6472 16.6341 21.2849 18.3182 21.2849H25.9547C27.6389 21.2849 29 22.6472 29 24.3327C29 26.0182 27.6389 27.3805 25.9547 27.3805H18.3182Z" fill="#ECB22E"></path></svg> 