<?xml version="1.0" encoding="UTF-8"?> <svg xmlns="http://www.w3.org/2000/svg" width="122" height="40" viewBox="0 0 122 40" fill="none"><path fill-rule="evenodd" clip-rule="evenodd" d="M36.8083 24.2305L36.7832 23.9071H34L34.0155 24.2708C34.1866 28.3182 37.0021 31 42.0085 31C46.7838 31 50.0312 28.5949 50.0312 24.9542C50.0312 22.986 49.3267 21.5928 47.9842 20.6421C46.951 19.9102 45.717 19.4972 43.6694 19.0673L43.2193 18.974L42.7731 18.8832C39.0536 18.1286 37.8745 17.471 37.8745 15.5167C37.8745 13.4949 39.5792 12.2076 42.4399 12.2076C45.223 12.2076 46.9814 13.8549 47.0634 16.4485L47.0744 16.787H49.8375L49.8291 16.4302C49.7329 12.3873 46.9349 9.66636 42.4121 9.66636C37.9791 9.66636 35.0519 12.2524 35.0519 15.5999C35.0519 17.5631 35.7558 18.9299 37.1002 19.8427C38.1244 20.5387 39.3112 20.9081 41.4047 21.3179C41.6185 21.3599 41.8325 21.4011 42.0466 21.4415C44.0271 21.821 44.9008 22.0555 45.6983 22.505C46.6882 23.0629 47.179 23.8598 47.179 25.0942C47.179 27.2376 45.3205 28.4588 42.066 28.4588C38.9509 28.4588 37.0176 26.9445 36.8083 24.2305V24.2305ZM55.8474 9.34926V9H53.1011V30.6665H55.8474V26.5782L58.7391 23.827L63.9024 30.5272L64.0096 30.6659H67.4263L66.9904 30.1054L60.6847 21.9899L66.5003 16.335L67.1137 15.7374H63.3813L63.2761 15.8408L55.8474 23.1506V9.34926V9.34926ZM81.703 24.093H82.042L82.0633 23.764C82.0747 23.5863 82.0833 23.4085 82.0892 23.2306C82.0918 23.1398 82.093 23.0573 82.093 22.9841C82.093 18.5787 79.0936 15.3333 74.6612 15.3333C70.2372 15.3333 67.0853 18.788 67.0853 23.1524C67.0853 27.6436 70.0945 31 74.6902 31C78.165 31 80.85 28.994 81.8173 25.9515L81.962 25.497H79.0819L78.9967 25.7303C78.3897 27.3959 76.745 28.501 74.7187 28.501C72.0711 28.501 70.2243 26.7314 69.8917 24.093H81.7037H81.703ZM69.8136 22C70.2772 19.5956 72.0459 18 74.4539 18C76.9355 18 78.6487 19.5433 79.0232 22H69.8142H69.8136ZM90.9449 18.0838H91.302V15.7122H87.9551V11.6667H85.2088V15.7122H82.434V18.0838H85.2088V26.4395C85.2088 29.1806 86.6669 30.6665 89.3428 30.6665C89.8097 30.6665 90.2126 30.6394 90.5503 30.5934C90.7596 30.565 90.9036 30.5354 90.983 30.5139L91.2452 30.4433V27.9601L90.8112 28.0515C90.684 28.0767 90.5561 28.0985 90.4277 28.1171C90.1538 28.1576 89.8774 28.1798 89.6005 28.1833C88.4278 28.1833 87.9551 27.6461 87.9551 26.3002V18.0838H90.9449V18.0838ZM99.4635 31C103.235 31 105.898 28.6391 106.567 25.2984L106.651 24.8792H103.902L103.833 25.1402C103.26 27.2717 101.705 28.5004 99.4635 28.5004C96.6675 28.5004 94.738 26.3191 94.738 23.1808C94.738 20.018 96.6636 17.8323 99.4635 17.8323C101.705 17.8323 103.26 19.0616 103.833 21.1931L103.902 21.4541H106.651L106.567 21.0348C105.898 17.6936 103.235 15.3333 99.4635 15.3333C95.0822 15.3333 91.9845 18.8126 91.9845 23.1808C91.9845 27.5245 95.0867 31 99.4635 31V31ZM111.779 9.34863V9H109.039V30.6665H111.779V21.9017C111.779 19.3384 113.373 17.8342 115.791 17.8342C118.1 17.8342 119.259 19.1436 119.259 21.6224V30.6665H122V21.2303C122 17.7283 119.786 15.4014 116.133 15.4014C114.254 15.4014 112.744 16.0759 111.779 17.043V9.34926V9.34863Z" fill="white"></path><path fill-rule="evenodd" clip-rule="evenodd" d="M6.3267 7.85131L14.4989 7L22.6716 7.85131L28.9988 16.2206L14.4994 32.8584L0 16.2206L6.3267 7.85131Z" fill="#FDB300"></path><path fill-rule="evenodd" clip-rule="evenodd" d="M5.8732 16.3213L14.4994 32.8585L0 16.3213H5.8732Z" fill="#EA6C00"></path><path fill-rule="evenodd" clip-rule="evenodd" d="M23.1274 16.3213L14.5006 32.8585L29 16.3213H23.1274Z" fill="#EA6C00"></path><path fill-rule="evenodd" clip-rule="evenodd" d="M5.74162 16.3213H22.9597L14.3507 32.8585L5.74162 16.3213Z" fill="#FDAD00"></path><path fill-rule="evenodd" clip-rule="evenodd" d="M14.1997 7L6.18654 7.86041L5.74162 16.3212L14.1997 7Z" fill="#FDD231"></path><path fill-rule="evenodd" clip-rule="evenodd" d="M14.4971 7L22.5103 7.86041L22.9552 16.3212L14.4971 7Z" fill="#FDD231"></path><path fill-rule="evenodd" clip-rule="evenodd" d="M29 16.3212L22.6562 7.90189L23.1114 16.3212H29Z" fill="#FDAD00"></path><path fill-rule="evenodd" clip-rule="evenodd" d="M0 16.3212L6.34328 7.90189L5.88807 16.3212H0Z" fill="#FDAD00"></path><path fill-rule="evenodd" clip-rule="evenodd" d="M14.3507 7L5.74162 16.3212H22.9597L14.3507 7Z" fill="#FEEEB7"></path></svg> 