<?xml version="1.0" encoding="UTF-8"?> <svg xmlns="http://www.w3.org/2000/svg" width="200" height="46" viewBox="0 0 200 46" fill="none"><path d="M3 15.1407C3 14.3123 3.67157 13.6407 4.5 13.6407H18V35.9252L16 35.1252V15.6407H13V37.1563L19.5 39.7563L26 37.1563V15.6407H23V35.1252L21 35.9252V13.6407H34.5C35.3284 13.6407 36 14.3123 36 15.1407V15.6407C36 16.193 35.5523 16.6407 35 16.6407C34.4477 16.6407 34 16.193 34 15.6407H31C31 17.8499 32.7909 19.6407 35 19.6407C37.2091 19.6407 39 17.8499 39 15.6407V15.1407C39 12.6555 36.9853 10.6407 34.5 10.6407H4.5C2.01472 10.6407 0 12.6555 0 15.1407V15.6407C0 17.8499 1.79086 19.6407 4 19.6407C6.20914 19.6407 8 17.8499 8 15.6407H5C5 16.193 4.55228 16.6407 4 16.6407C3.44772 16.6407 3 16.193 3 15.6407V15.1407Z" fill="#1A3D97"></path><path d="M19.5 42.0252L11 38.6252V19.6407H8V40.6563L19.5 45.2563L31 40.6563V19.6407H28V38.6252L19.5 42.0252Z" fill="#1A3D97"></path><path d="M18 3.64075H21V0.640747H18V3.64075Z" fill="#1A3D97"></path><path d="M10 8.64075H29V5.64075H10V8.64075Z" fill="#1A3D97"></path><path d="M50.3906 7.547V13.422C50.3906 13.9324 50.4375 14.3491 50.5312 14.672C50.5833 14.8074 50.9375 14.8751 51.5938 14.8751H52.1719C52.9844 14.8751 53.6042 14.7657 54.0312 14.547C54.1979 14.4637 54.3854 14.2814 54.5938 14.0001C54.8021 13.7189 54.9635 13.4012 55.0781 13.047C55.0885 12.9845 55.1615 12.9532 55.2969 12.9532C55.526 12.9532 55.6719 12.9845 55.7344 13.047C55.7031 13.1407 55.625 13.3543 55.5 13.6876C55.3854 14.021 55.2969 14.2762 55.2344 14.4532C55.1719 14.6199 55.1042 14.8282 55.0312 15.0782C54.9583 15.3282 54.9115 15.5314 54.8906 15.6876C54.474 15.6876 53.6094 15.672 52.2969 15.6407C50.9948 15.6095 50.0781 15.6043 49.5469 15.6251L47.4688 15.6876C47.4375 15.6564 47.4219 15.573 47.4219 15.4376C47.4219 15.2605 47.4375 15.172 47.4688 15.172C47.6042 15.172 47.8021 15.1407 48.0625 15.0782C48.3229 15.0053 48.474 14.922 48.5156 14.8282C48.5885 14.6095 48.625 14.1355 48.625 13.4064V7.50012C48.625 6.86471 48.5833 6.422 48.5 6.172C48.4583 6.08866 48.3125 6.01054 48.0625 5.93762C47.8125 5.85429 47.625 5.81262 47.5 5.81262C47.4583 5.81262 47.4375 5.7345 47.4375 5.57825C47.4375 5.41158 47.4479 5.31783 47.4688 5.297C47.5208 5.297 47.8073 5.31262 48.3281 5.34387C48.8594 5.37512 49.2656 5.39075 49.5469 5.39075C49.6302 5.39075 50.2969 5.3595 51.5469 5.297C51.5781 5.39075 51.5938 5.47408 51.5938 5.547C51.5938 5.72408 51.5729 5.81262 51.5312 5.81262C51.4375 5.81262 51.25 5.85429 50.9688 5.93762C50.6875 6.02096 50.5365 6.09908 50.5156 6.172C50.4323 6.49491 50.3906 6.95325 50.3906 7.547ZM59.125 14.7345C59.4062 14.7345 59.6458 14.6616 59.8438 14.5157C60.0521 14.3699 60.1562 14.2032 60.1562 14.0157V12.422C60.0833 12.4532 59.9271 12.5053 59.6875 12.5782C59.4583 12.6512 59.2812 12.7137 59.1562 12.7657C59.0312 12.8178 58.8854 12.8907 58.7188 12.9845C58.5521 13.0782 58.4271 13.1928 58.3438 13.3282C58.2708 13.4637 58.2344 13.6095 58.2344 13.7657C58.2344 14.0991 58.3177 14.3439 58.4844 14.5001C58.651 14.6564 58.8646 14.7345 59.125 14.7345ZM59.8281 8.7345C60.474 8.7345 60.9583 8.90637 61.2812 9.25012C61.6042 9.58346 61.7656 10.1616 61.7656 10.9845V14.0626C61.7656 14.271 61.8125 14.4324 61.9062 14.547C62 14.6512 62.125 14.7032 62.2812 14.7032C62.4375 14.7032 62.6146 14.6355 62.8125 14.5001C62.875 14.521 62.9062 14.5782 62.9062 14.672C62.9062 14.8803 62.875 15.0366 62.8125 15.1407C62.6562 15.2657 62.4479 15.396 62.1875 15.5314C61.9271 15.6668 61.6771 15.7345 61.4375 15.7345C61.1979 15.7345 60.9635 15.646 60.7344 15.4689C60.5052 15.2918 60.3542 15.0991 60.2812 14.8907C60.2708 14.9012 60.2292 14.9376 60.1562 15.0001C60.0938 15.0522 60 15.1199 59.875 15.2032C59.7604 15.2866 59.625 15.3699 59.4688 15.4532C59.3229 15.5366 59.1458 15.6043 58.9375 15.6564C58.7396 15.7189 58.5365 15.7501 58.3281 15.7501C57.8073 15.7501 57.3802 15.6095 57.0469 15.3282C56.724 15.0366 56.5625 14.6407 56.5625 14.1407C56.5625 13.8907 56.6198 13.6564 56.7344 13.4376C56.8594 13.2189 57.0052 13.0418 57.1719 12.9064C57.3385 12.7605 57.5625 12.6199 57.8438 12.4845C58.125 12.3491 58.3646 12.2501 58.5625 12.1876C58.7708 12.1147 59.0312 12.0314 59.3438 11.9376C59.6667 11.8439 59.8906 11.7762 60.0156 11.7345C60.1094 11.6928 60.1562 11.6095 60.1562 11.4845V10.6251C60.1562 10.2605 60.0729 9.97408 59.9062 9.76575C59.7396 9.55741 59.5156 9.45325 59.2344 9.45325C58.9219 9.45325 58.6771 9.55221 58.5 9.75012C58.3229 9.93762 58.2344 10.2085 58.2344 10.5626C58.2344 10.771 58.1562 10.9272 58 11.0314C57.8438 11.1251 57.6667 11.172 57.4688 11.172C57.0833 11.172 56.8125 11.047 56.6562 10.797C56.6562 10.297 56.9948 9.82825 57.6719 9.39075C58.3594 8.95325 59.0781 8.7345 59.8281 8.7345ZM73.4062 9.922C73.4062 9.797 73.3646 9.69283 73.2812 9.6095C73.1979 9.51575 73.0885 9.45325 72.9531 9.422C72.8281 9.38033 72.7083 9.35429 72.5938 9.34387C72.4896 9.32304 72.3854 9.31262 72.2812 9.31262H72.2188C72.1771 9.31262 72.151 9.2345 72.1406 9.07825C72.1406 8.922 72.1562 8.82825 72.1875 8.797C72.3229 8.797 72.599 8.81262 73.0156 8.84387C73.4323 8.87512 73.7656 8.89075 74.0156 8.89075C74.2344 8.89075 74.5104 8.87512 74.8438 8.84387C75.1875 8.81262 75.4375 8.797 75.5938 8.797C75.6146 8.86991 75.625 8.95846 75.625 9.06262C75.625 9.21887 75.6042 9.297 75.5625 9.297C75.4375 9.297 75.2292 9.36471 74.9375 9.50012C74.6562 9.62512 74.4792 9.78137 74.4062 9.96887L72.0938 15.4845C72.0521 15.5678 71.9792 15.6407 71.875 15.7032C71.7812 15.7762 71.6823 15.8126 71.5781 15.8126C71.474 15.8126 71.4062 15.7762 71.375 15.7032L69.4688 11.3907L67.7969 15.4689C67.7656 15.5314 67.7031 15.6043 67.6094 15.6876C67.526 15.771 67.4167 15.8126 67.2812 15.8126C67.1771 15.8126 67.1042 15.7762 67.0625 15.7032C66.8229 15.1616 66.5365 14.5053 66.2031 13.7345C65.8802 12.9532 65.5833 12.2657 65.3125 11.672C65.0417 11.0782 64.7292 10.4324 64.375 9.7345C64.3021 9.59908 64.1667 9.49491 63.9688 9.422C63.7708 9.34908 63.6042 9.31262 63.4688 9.31262C63.4271 9.31262 63.4062 9.22929 63.4062 9.06262C63.4062 8.91679 63.4271 8.82825 63.4688 8.797C63.5729 8.797 63.8333 8.81262 64.25 8.84387C64.6771 8.87512 65.0104 8.89075 65.25 8.89075C65.4896 8.89075 65.8438 8.87512 66.3125 8.84387C66.7812 8.81262 67.0521 8.797 67.125 8.797C67.1458 8.84908 67.1562 8.94283 67.1562 9.07825C67.1562 9.21366 67.1406 9.28658 67.1094 9.297C66.974 9.297 66.7917 9.33346 66.5625 9.40637C66.3438 9.47929 66.2344 9.58866 66.2344 9.7345C66.2344 9.75533 66.7552 10.9532 67.7969 13.3282C67.9115 13.0366 68.0417 12.7085 68.1875 12.3439C68.3438 11.9689 68.4583 11.6876 68.5312 11.5001C68.6146 11.3022 68.6927 11.1043 68.7656 10.9064C68.849 10.7085 68.9062 10.5626 68.9375 10.4689C68.9688 10.3647 68.9844 10.297 68.9844 10.2657C68.9844 10.0574 68.9167 9.84908 68.7812 9.64075C68.7083 9.53658 68.5938 9.45325 68.4375 9.39075C68.3229 9.32825 68.1354 9.297 67.875 9.297C67.8333 9.297 67.8125 9.22408 67.8125 9.07825C67.8125 8.922 67.8333 8.82825 67.875 8.797C67.9896 8.797 68.2448 8.81262 68.6406 8.84387C69.0469 8.87512 69.375 8.89075 69.625 8.89075C69.8542 8.89075 70.1927 8.87512 70.6406 8.84387C71.0885 8.81262 71.3542 8.797 71.4375 8.797C71.4583 8.83866 71.4635 8.93762 71.4531 9.09387C71.4531 9.23971 71.4375 9.31262 71.4062 9.31262C70.875 9.31262 70.6094 9.49491 70.6094 9.8595C70.6094 10.0574 71.099 11.2137 72.0781 13.3282C72.2448 12.8907 72.4479 12.3803 72.6875 11.797C72.9375 11.2032 73.1198 10.7657 73.2344 10.4845C73.349 10.1928 73.4062 10.0053 73.4062 9.922ZM78.0156 8.89075C78.2448 8.89075 78.5729 8.87512 79 8.84387C79.4271 8.81262 79.6927 8.797 79.7969 8.797C79.8177 8.86991 79.8281 8.96366 79.8281 9.07825C79.8281 9.22408 79.8073 9.297 79.7656 9.297C79.6615 9.297 79.4948 9.33866 79.2656 9.422C79.0469 9.49491 78.9323 9.57825 78.9219 9.672V9.76575C78.9427 9.93241 79.4271 11.1199 80.375 13.3282C80.4583 13.1407 80.6615 12.6303 80.9844 11.797C81.3073 10.9532 81.4948 10.4689 81.5469 10.3439C81.6094 10.1668 81.6406 10.0053 81.6406 9.8595C81.6406 9.72408 81.5573 9.59908 81.3906 9.4845C81.224 9.3595 80.974 9.297 80.6406 9.297C80.599 9.297 80.5781 9.21887 80.5781 9.06262C80.5781 8.92721 80.599 8.83866 80.6406 8.797C80.7656 8.797 81.0208 8.81262 81.4062 8.84387C81.7917 8.87512 82.1094 8.89075 82.3594 8.89075C82.5781 8.89075 82.8438 8.87512 83.1562 8.84387C83.4792 8.81262 83.7135 8.797 83.8594 8.797C83.901 8.8595 83.9219 8.94283 83.9219 9.047C83.9219 9.21366 83.901 9.297 83.8594 9.297C83.7135 9.297 83.5 9.34908 83.2188 9.45325C82.9479 9.55741 82.7708 9.71366 82.6875 9.922L79.8281 16.8282C79.1823 18.3491 78.4062 19.1095 77.5 19.1095C77.2292 19.1095 77.0208 19.0366 76.875 18.8907C76.7292 18.7449 76.6562 18.5782 76.6562 18.3907C76.6562 18.1199 76.7552 17.9168 76.9531 17.7814C78.0365 17.7814 78.75 17.3543 79.0938 16.5001C79.3438 15.8751 79.4844 15.521 79.5156 15.4376L77.2344 10.1251C77.151 9.93762 77.0885 9.81783 77.0469 9.76575C76.9427 9.6095 76.7865 9.49491 76.5781 9.422C76.3802 9.33866 76.2135 9.297 76.0781 9.297C76.0365 9.297 76.0156 9.22408 76.0156 9.07825C76.0156 8.91158 76.0312 8.81783 76.0625 8.797C76.125 8.797 76.401 8.81262 76.8906 8.84387C77.3906 8.87512 77.7656 8.89075 78.0156 8.89075ZM87.625 9.45325C87.375 9.45325 87.151 9.52616 86.9531 9.672C86.7552 9.81783 86.6042 9.99491 86.5 10.2032C86.3958 10.4116 86.3177 10.6095 86.2656 10.797C86.224 10.9741 86.2031 11.1251 86.2031 11.2501C86.2031 11.323 86.2344 11.3595 86.2969 11.3595H88.8281C88.9219 11.3595 88.9688 11.2814 88.9688 11.1251C88.9688 10.7605 88.8438 10.3907 88.5938 10.0157C88.3542 9.64075 88.0312 9.45325 87.625 9.45325ZM87.7344 8.7345C88.224 8.7345 88.6615 8.83346 89.0469 9.03137C89.4323 9.21887 89.7344 9.46366 89.9531 9.76575C90.1719 10.0574 90.3385 10.3647 90.4531 10.6876C90.5677 11.0001 90.625 11.3022 90.625 11.5939C90.625 11.823 90.5833 11.9689 90.5 12.0314C90.4271 12.0835 90.2708 12.1095 90.0312 12.1095H86.2969C86.224 12.1095 86.1875 12.1407 86.1875 12.2032C86.1875 12.5782 86.2552 12.9428 86.3906 13.297C86.526 13.6512 86.7552 13.9585 87.0781 14.2189C87.4115 14.4793 87.8073 14.6095 88.2656 14.6095C88.4219 14.6095 88.5729 14.6043 88.7188 14.5939C88.8646 14.573 89 14.547 89.125 14.5157C89.25 14.4741 89.3594 14.4376 89.4531 14.4064C89.5469 14.3751 89.6406 14.3282 89.7344 14.2657C89.8385 14.2032 89.9115 14.1616 89.9531 14.1407C89.9948 14.1095 90.0573 14.0678 90.1406 14.0157C90.224 13.9532 90.2656 13.922 90.2656 13.922C90.2865 13.9324 90.3125 13.9637 90.3438 14.0157C90.375 14.0678 90.3906 14.1199 90.3906 14.172C90.3906 14.2866 90.3594 14.3855 90.2969 14.4689C90.1406 14.7501 89.8333 15.0314 89.375 15.3126C88.9167 15.5939 88.401 15.7345 87.8281 15.7345C86.9219 15.7345 86.1406 15.4012 85.4844 14.7345C84.8281 14.0574 84.5 13.2397 84.5 12.2814C84.5 11.2293 84.8021 10.3751 85.4062 9.71887C86.0208 9.06262 86.7969 8.7345 87.7344 8.7345ZM95.9219 8.7345C96.4948 8.7345 96.9219 8.90637 97.2031 9.25012C97.2031 10.1355 96.9531 10.5782 96.4531 10.5782C96.2656 10.5782 96.0625 10.4741 95.8438 10.2657C95.625 10.0574 95.401 9.95325 95.1719 9.95325C94.849 9.95325 94.5938 10.1199 94.4062 10.4532C94.2292 10.7762 94.1406 11.1147 94.1406 11.4689V13.422C94.1406 14.0574 94.1771 14.5262 94.25 14.8282C94.2708 14.9012 94.4062 14.9793 94.6562 15.0626C94.9167 15.1355 95.0938 15.172 95.1875 15.172C95.2188 15.172 95.2344 15.2501 95.2344 15.4064C95.2448 15.5522 95.2448 15.6512 95.2344 15.7032C95.151 15.6928 94.875 15.672 94.4062 15.6407C93.9375 15.6095 93.5833 15.5939 93.3438 15.5939C93.0938 15.5939 92.7292 15.6095 92.25 15.6407C91.7812 15.672 91.5052 15.6928 91.4219 15.7032C91.3802 15.6616 91.3594 15.5626 91.3594 15.4064C91.3594 15.2501 91.3802 15.172 91.4219 15.172C91.5469 15.172 91.7344 15.1355 91.9844 15.0626C92.2448 14.9793 92.3854 14.9012 92.4062 14.8282C92.4792 14.5157 92.5156 14.1355 92.5156 13.6876V11.1407C92.5156 10.6512 92.4323 10.3178 92.2656 10.1407C92.1823 10.0366 92.0625 9.95846 91.9062 9.90637C91.7604 9.85429 91.6354 9.82304 91.5312 9.81262C91.4375 9.80221 91.3906 9.78658 91.3906 9.76575C91.3906 9.46366 91.4167 9.30741 91.4688 9.297C91.9479 9.25533 92.7865 9.09908 93.9844 8.82825C93.9844 8.82825 94 8.82304 94.0312 8.81262C94.0729 8.80221 94.099 8.797 94.1094 8.797C94.151 8.797 94.1875 8.83346 94.2188 8.90637C94.25 8.97929 94.2604 9.04179 94.25 9.09387C94.25 9.13554 94.2448 9.20846 94.2344 9.31262C94.224 9.40637 94.2083 9.51054 94.1875 9.62512C94.1771 9.72929 94.1719 9.797 94.1719 9.82825C94.3594 9.547 94.6146 9.297 94.9375 9.07825C95.2604 8.84908 95.5885 8.7345 95.9219 8.7345Z" fill="#101010" fill-opacity="0.4"></path><path d="M51.2773 23.422C51.5898 23.422 52.918 23.3634 55.2617 23.2462C55.3008 23.3634 55.3203 23.5685 55.3203 23.8615C55.3398 24.1544 55.3203 24.3107 55.2617 24.3302C54.3633 24.3302 53.9141 24.6622 53.9141 25.3263L54.2656 26.2345L59.6562 36.9279C59.7539 37.1427 59.9004 37.0939 60.0957 36.7814L61.9121 33.5587L58.6895 27.2013C58.084 26.0099 57.6641 25.297 57.4297 25.0626C56.9414 24.5743 56.375 24.3302 55.7305 24.3302C55.6523 24.3302 55.6133 24.1447 55.6133 23.7736C55.6133 23.4611 55.6328 23.2853 55.6719 23.2462C58.3672 23.3634 59.7246 23.422 59.7441 23.422C59.9785 23.422 61.2676 23.3634 63.6113 23.2462C63.6504 23.3634 63.6699 23.5685 63.6699 23.8615C63.6895 24.1544 63.6699 24.3107 63.6113 24.3302C63.2988 24.3302 62.9961 24.4083 62.7031 24.5646C62.4102 24.7013 62.2637 24.9357 62.2637 25.2677L62.6152 26.1759L64.3145 29.545L65.7207 26.7618C66.1113 25.9611 66.3066 25.4532 66.3066 25.2384C66.3066 24.9845 66.1309 24.7892 65.7793 24.6525C65.4473 24.4962 65.1348 24.3986 64.8418 24.3595C64.5684 24.3204 64.334 24.3009 64.1387 24.3009C64.0605 24.3009 64.0117 24.1447 63.9922 23.8322C63.9922 23.5197 64.0312 23.3243 64.1094 23.2462C65.9844 23.3634 67.1465 23.422 67.5957 23.422C67.6934 23.422 68.9141 23.3634 71.2578 23.2462C71.2969 23.3634 71.3164 23.5685 71.3164 23.8615C71.3359 24.1349 71.3164 24.2814 71.2578 24.3009C70.9648 24.3009 70.584 24.3986 70.1152 24.5939C69.6465 24.7697 69.3145 24.965 69.1191 25.1798C68.5918 25.7462 68.0449 26.5861 67.4785 27.6993L65.4277 31.7423L67.9766 36.7521C68.0742 36.9474 68.2012 36.9083 68.3574 36.6349L73.3672 26.7032C73.7188 26.0001 73.8945 25.5118 73.8945 25.2384C73.8945 24.9064 73.6309 24.672 73.1035 24.5353C72.5957 24.379 72.166 24.3009 71.8145 24.3009C71.7363 24.3009 71.6875 24.1447 71.668 23.8322C71.668 23.5197 71.707 23.3243 71.7852 23.2462C73.6602 23.3634 74.8223 23.422 75.2715 23.422C75.3691 23.422 76.5898 23.3634 78.9336 23.2462C78.9922 23.4025 79.0215 23.6466 79.0215 23.9786C79.0215 24.1935 78.9922 24.3009 78.9336 24.3009C78.6406 24.3009 78.2695 24.3888 77.8203 24.5646C77.3711 24.7404 77.0488 24.9259 76.8535 25.1212C76.3066 25.7072 75.7402 26.5665 75.1543 27.6993L67.918 42.0841C67.6055 42.7091 67.2734 43.0216 66.9219 43.0216C66.7656 43.0216 66.6582 42.9728 66.5996 42.8751L62.9961 35.8146L59.4805 42.0841C59.1289 42.7091 58.7969 43.0216 58.4844 43.0216C58.3672 43.0216 58.2793 42.9728 58.2207 42.8751L50.2812 27.2013C49.7539 26.1661 49.3047 25.4142 48.9336 24.9454C48.7773 24.7501 48.5039 24.6036 48.1133 24.506C47.7422 24.3888 47.4297 24.3302 47.1758 24.3302C47.0977 24.3302 47.0586 24.1447 47.0586 23.7736C47.0586 23.4611 47.0781 23.2853 47.1172 23.2462C49.8125 23.3634 51.1992 23.422 51.2773 23.422ZM81.4871 31.1564C80.9207 31.1564 80.452 31.381 80.0809 31.8302C79.7098 32.2794 79.4656 32.797 79.3484 33.3829C79.2313 33.9493 79.1727 34.5841 79.1727 35.2872C79.1727 39.2521 80.1785 41.2345 82.1902 41.2345C83.0105 41.2345 83.6063 40.8341 83.9773 40.0333C84.368 39.2325 84.5633 38.295 84.5633 37.2208C84.5633 33.1779 83.5379 31.1564 81.4871 31.1564ZM77.0047 31.4786C78.3523 30.1896 79.9832 29.545 81.8973 29.545C83.8113 29.545 85.4324 30.1896 86.7605 31.4786C88.1082 32.7677 88.782 34.34 88.782 36.1954C88.782 38.0509 88.118 39.6232 86.7898 40.9122C85.4617 42.2013 83.8309 42.8458 81.8973 42.8458C79.9832 42.8458 78.3523 42.2013 77.0047 40.9122C75.6766 39.6232 75.0125 38.0509 75.0125 36.1954C75.0125 34.34 75.6766 32.7677 77.0047 31.4786ZM96.8094 31.1564C96.243 31.1564 95.7742 31.381 95.4031 31.8302C95.032 32.2794 94.7879 32.797 94.6707 33.3829C94.5535 33.9493 94.4949 34.5841 94.4949 35.2872C94.4949 39.2521 95.5008 41.2345 97.5125 41.2345C98.3328 41.2345 98.9285 40.8341 99.2996 40.0333C99.6902 39.2325 99.8855 38.295 99.8855 37.2208C99.8855 33.1779 98.8602 31.1564 96.8094 31.1564ZM92.327 31.4786C93.6746 30.1896 95.3055 29.545 97.2195 29.545C99.1336 29.545 100.755 30.1896 102.083 31.4786C103.43 32.7677 104.104 34.34 104.104 36.1954C104.104 38.0509 103.44 39.6232 102.112 40.9122C100.784 42.2013 99.1531 42.8458 97.2195 42.8458C95.3055 42.8458 93.6746 42.2013 92.327 40.9122C90.9988 39.6232 90.3348 38.0509 90.3348 36.1954C90.3348 34.34 90.9988 32.7677 92.327 31.4786ZM112.278 31.1271C111.36 31.1271 110.686 31.4982 110.257 32.2404C109.846 32.963 109.641 34.1251 109.641 35.7267C109.641 39.2618 110.52 41.0294 112.278 41.0294C112.942 41.0294 113.489 40.8439 113.919 40.4728C114.368 40.0822 114.593 39.6134 114.593 39.0665V33.7345C114.593 33.5001 114.573 33.2755 114.534 33.0607C114.495 32.8458 114.407 32.5724 114.27 32.2404C114.134 31.9083 113.889 31.6447 113.538 31.4493C113.206 31.2345 112.786 31.1271 112.278 31.1271ZM112.454 29.545C113.255 29.545 113.938 29.6329 114.505 29.8087C114.563 29.8087 114.593 29.672 114.593 29.3986V27.0841C114.593 26.2638 114.534 25.5607 114.417 24.9747C114.319 24.6622 113.811 24.506 112.893 24.506H112.63C112.513 24.506 112.454 24.3107 112.454 23.92C112.454 23.588 112.513 23.422 112.63 23.422C113.235 23.3634 113.841 23.2853 114.446 23.1876C115.071 23.09 115.598 22.9923 116.028 22.8947C116.458 22.797 116.839 22.6993 117.171 22.6017C117.522 22.504 117.796 22.4259 117.991 22.3673L118.284 22.2794H118.343C118.421 22.2794 118.499 22.338 118.577 22.4552C118.655 22.5724 118.704 22.6798 118.723 22.7775C118.509 23.6564 118.401 24.6427 118.401 25.7365V38.3341C118.401 39.174 118.46 39.8771 118.577 40.4435C118.616 40.5802 118.723 40.6876 118.899 40.7657C119.075 40.8439 119.261 40.8927 119.456 40.9122C119.651 40.9318 119.837 40.9415 120.013 40.9415L120.305 40.9708C120.364 40.9904 120.393 41.1075 120.393 41.3224C120.393 41.8107 120.335 42.0548 120.218 42.0548C119.925 42.0743 119.534 42.1134 119.046 42.172C118.577 42.2306 118.098 42.299 117.61 42.3771C117.141 42.4357 116.692 42.504 116.263 42.5822C115.833 42.6407 115.481 42.6993 115.208 42.7579L114.768 42.8165C114.651 42.8165 114.593 42.6505 114.593 42.3185V41.7032C114.593 41.6251 114.583 41.5763 114.563 41.5568C114.544 41.5372 114.514 41.547 114.475 41.5861C113.655 42.4064 112.669 42.8165 111.516 42.8165C109.934 42.8165 108.518 42.2306 107.268 41.0587C106.038 39.8673 105.423 38.3243 105.423 36.4298C105.423 34.4767 106.087 32.8458 107.415 31.5372C108.763 30.2091 110.442 29.545 112.454 29.545ZM132.464 29.5743C133.87 29.5743 134.905 30.2482 135.569 31.5958C136.78 30.2677 138.538 29.5939 140.843 29.5743C141.975 29.5743 142.893 30.0529 143.596 31.0099C144.319 31.9669 144.68 33.422 144.68 35.3751V38.2755C144.68 39.5255 144.749 40.4142 144.886 40.9415C144.925 41.0782 145.188 41.2345 145.677 41.4103C146.165 41.5861 146.497 41.674 146.673 41.674C146.731 41.674 146.761 41.84 146.761 42.172C146.78 42.4845 146.77 42.6798 146.731 42.7579C146.516 42.7384 145.911 42.6993 144.915 42.6407C143.938 42.5626 143.225 42.5236 142.776 42.5236C142.307 42.5236 141.585 42.5626 140.608 42.6407C139.651 42.6993 139.055 42.7384 138.821 42.7579C138.743 42.6798 138.704 42.4845 138.704 42.172C138.704 41.84 138.743 41.674 138.821 41.674C139.036 41.674 139.387 41.5861 139.876 41.4103C140.364 41.2345 140.628 41.0782 140.667 40.9415C140.804 40.3556 140.872 39.6134 140.872 38.715V36.0782C140.872 34.7306 140.667 33.7247 140.257 33.0607C139.866 32.3966 139.231 32.0646 138.352 32.0646C137.259 32.0646 136.575 32.4357 136.302 33.1779C136.243 33.3341 136.223 33.5392 136.243 33.7931C136.282 34.1447 136.302 34.672 136.302 35.3751V38.2755C136.302 39.5255 136.37 40.4142 136.507 40.9415C136.546 41.0782 136.809 41.2345 137.298 41.4103C137.786 41.5861 138.118 41.674 138.294 41.674C138.352 41.674 138.382 41.84 138.382 42.172C138.401 42.4845 138.391 42.6798 138.352 42.7579C138.137 42.7384 137.532 42.6993 136.536 42.6407C135.559 42.5626 134.846 42.5236 134.397 42.5236C133.929 42.5236 133.206 42.5626 132.229 42.6407C131.272 42.6993 130.677 42.7384 130.442 42.7579C130.364 42.6798 130.325 42.4845 130.325 42.172C130.325 41.84 130.364 41.674 130.442 41.674C130.657 41.674 131.009 41.5861 131.497 41.4103C131.985 41.2345 132.249 41.0782 132.288 40.9415C132.425 40.3556 132.493 39.6134 132.493 38.715V36.0782C132.493 34.6329 132.288 33.6075 131.878 33.0021C131.487 32.3771 130.852 32.0646 129.973 32.0646C129.368 32.0646 128.88 32.1818 128.509 32.4161C128.137 32.631 127.952 32.9435 127.952 33.3536V38.2755C127.952 39.5255 128.02 40.4142 128.157 40.9415C128.196 41.0782 128.45 41.2345 128.919 41.4103C129.407 41.5861 129.729 41.674 129.886 41.674C129.944 41.674 129.973 41.84 129.973 42.172C129.993 42.4845 129.983 42.6798 129.944 42.7579C129.71 42.7384 129.114 42.6993 128.157 42.6407C127.2 42.5626 126.497 42.5236 126.048 42.5236C125.579 42.5236 124.846 42.5626 123.85 42.6407C122.854 42.6993 122.249 42.7384 122.034 42.7579C121.956 42.6798 121.917 42.4845 121.917 42.172C121.917 41.84 121.956 41.674 122.034 41.674C122.249 41.674 122.61 41.5861 123.118 41.4103C123.626 41.2345 123.899 41.0782 123.938 40.9415C124.075 40.3556 124.143 39.6134 124.143 38.715V34.7013C124.143 33.6075 123.968 32.8751 123.616 32.504C123.479 32.3478 123.274 32.2208 123.001 32.1232C122.727 32.0255 122.493 31.9572 122.298 31.9181C122.102 31.879 122.005 31.8497 122.005 31.8302C122.005 31.1466 122.054 30.8048 122.151 30.8048C122.386 30.8048 122.776 30.756 123.323 30.6583C123.87 30.5411 124.583 30.3849 125.462 30.1896C126.341 29.9943 127.024 29.8478 127.512 29.7501C127.552 29.7501 127.591 29.7404 127.63 29.7208C127.688 29.7013 127.737 29.6915 127.776 29.6915L127.835 29.6622C127.932 29.6622 128.03 29.7306 128.128 29.8673C128.225 29.9845 128.274 30.0822 128.274 30.1603C128.196 30.7072 128.157 31.0099 128.157 31.0685C128.157 31.1661 128.167 31.2247 128.186 31.2443C128.225 31.2443 128.294 31.1954 128.391 31.0978C129.485 30.0822 130.843 29.5743 132.464 29.5743ZM153.323 40.7365C153.831 40.7365 154.221 40.6193 154.495 40.3849C154.788 40.131 154.934 39.8282 154.934 39.4767V36.5177C154.895 36.5372 154.7 36.6056 154.348 36.7228C154.016 36.8204 153.802 36.8888 153.704 36.9279C153.606 36.9669 153.421 37.045 153.147 37.1622C152.874 37.2599 152.679 37.3575 152.561 37.4552C152.464 37.5333 152.337 37.6407 152.18 37.7775C152.024 37.9142 151.917 38.0607 151.858 38.2169C151.8 38.3732 151.77 38.549 151.77 38.7443C151.77 39.4474 151.917 39.9552 152.21 40.2677C152.522 40.5802 152.893 40.7365 153.323 40.7365ZM154.495 29.4865C155.862 29.4865 156.907 29.8673 157.63 30.629C158.372 31.3712 158.743 32.7286 158.743 34.7013V39.4474C158.743 40.1115 158.977 40.4435 159.446 40.4435C159.778 40.4435 160.11 40.3165 160.442 40.0626C160.579 40.1407 160.647 40.2872 160.647 40.5021C160.647 40.9904 160.579 41.3517 160.442 41.5861C160.169 41.84 159.72 42.1134 159.095 42.4064C158.489 42.6798 157.913 42.8165 157.366 42.8165C156.897 42.8165 156.448 42.6798 156.018 42.4064C155.589 42.1134 155.305 41.7814 155.169 41.4103C155.149 41.4103 155.071 41.4689 154.934 41.5861C154.798 41.6837 154.622 41.8009 154.407 41.9376C154.192 42.0743 153.938 42.2111 153.645 42.3478C153.372 42.4845 153.04 42.6017 152.649 42.6993C152.259 42.797 151.868 42.8458 151.477 42.8458C150.403 42.8458 149.544 42.5529 148.899 41.9669C148.274 41.3615 147.962 40.6095 147.962 39.7111C147.962 39.1837 148.079 38.7052 148.313 38.2755C148.567 37.8263 148.85 37.465 149.163 37.1915C149.495 36.8986 149.934 36.6349 150.481 36.4005C151.028 36.1466 151.497 35.9611 151.887 35.8439C152.278 35.7072 152.776 35.5607 153.382 35.4044C154.007 35.2286 154.436 35.1017 154.671 35.0236C154.846 34.965 154.934 34.8185 154.934 34.5841V33.5294C154.934 31.9279 154.446 31.1271 153.47 31.1271C152.337 31.1271 151.77 31.7814 151.77 33.09C151.77 33.5197 151.595 33.8419 151.243 34.0568C150.891 34.2521 150.501 34.3497 150.071 34.3497C149.173 34.3497 148.557 34.0568 148.225 33.4708C148.225 32.4747 148.88 31.5665 150.188 30.7462C151.516 29.9064 152.952 29.4865 154.495 29.4865ZM171.692 29.545C172.552 29.545 173.391 29.9064 174.212 30.629C174.212 31.6447 174.085 32.3966 173.831 32.8849C173.596 33.3732 173.157 33.6173 172.512 33.6173C172.122 33.6173 171.673 33.3927 171.165 32.9435C170.657 32.4943 170.208 32.2697 169.817 32.2697C169.231 32.2697 168.811 32.6017 168.557 33.2657C168.323 33.9103 168.206 34.6036 168.206 35.3458V38.3048C168.206 39.5353 168.274 40.4142 168.411 40.9415C168.45 41.0782 168.704 41.2345 169.173 41.4103C169.661 41.5861 169.983 41.674 170.139 41.674C170.198 41.674 170.227 41.84 170.227 42.172C170.247 42.4845 170.237 42.6798 170.198 42.7579C169.964 42.7384 169.368 42.6993 168.411 42.6407C167.454 42.5626 166.751 42.5236 166.302 42.5236C165.833 42.5236 165.1 42.5626 164.104 42.6407C163.108 42.6993 162.503 42.7384 162.288 42.7579C162.21 42.6798 162.171 42.4845 162.171 42.172C162.171 41.84 162.21 41.674 162.288 41.674C162.503 41.674 162.864 41.5861 163.372 41.4103C163.88 41.2345 164.153 41.0782 164.192 40.9415C164.329 40.3556 164.397 39.6134 164.397 38.715V34.7013C164.397 33.6075 164.221 32.8751 163.87 32.504C163.733 32.3478 163.528 32.2208 163.255 32.1232C162.981 32.0255 162.747 31.9572 162.552 31.9181C162.356 31.879 162.259 31.8497 162.259 31.8302C162.259 31.1466 162.307 30.8048 162.405 30.8048C162.639 30.8048 163.03 30.756 163.577 30.6583C164.124 30.5411 164.837 30.3849 165.716 30.1896C166.595 29.9943 167.278 29.8478 167.766 29.7501C167.962 29.6915 168.069 29.6622 168.089 29.6622C168.186 29.6622 168.284 29.7306 168.382 29.8673C168.479 29.9845 168.528 30.0822 168.528 30.1603C168.489 30.3947 168.46 30.6486 168.44 30.922C168.421 31.1954 168.401 31.3712 168.382 31.4493C169.339 30.1798 170.442 29.545 171.692 29.545ZM177.845 31.8009H175.94C175.784 31.8009 175.706 31.4982 175.706 30.8927C175.706 30.7365 175.725 30.629 175.764 30.5704C176.858 30.0236 177.737 29.4962 178.401 28.9884C178.694 28.7736 179.036 28.5001 179.427 28.1681C179.817 27.8165 180.149 27.5236 180.423 27.2892C180.716 27.0353 180.872 26.8986 180.891 26.879C181.048 26.879 181.214 26.9181 181.389 26.9962C181.565 27.0548 181.653 27.1232 181.653 27.2013V30.0724H184.817C184.973 30.0724 185.052 30.17 185.052 30.3654C185.052 30.9318 184.954 31.4103 184.759 31.8009H181.653V38.7443C181.653 40.2286 182.18 40.9708 183.235 40.9708C183.528 40.9708 183.792 40.9415 184.026 40.8829C184.28 40.8048 184.475 40.7267 184.612 40.6486C184.749 40.5704 184.827 40.5314 184.846 40.5314C184.925 40.5314 185.003 40.629 185.081 40.8243C185.179 41.0197 185.227 41.1661 185.227 41.2638C185.227 41.4982 184.827 41.8204 184.026 42.2306C183.225 42.6407 182.473 42.8458 181.77 42.8458C180.696 42.8458 179.768 42.5138 178.987 41.8497C178.225 41.1661 177.845 40.0724 177.845 38.5685V31.8009ZM191.116 40.7072C191.116 41.3126 190.911 41.84 190.501 42.2892C190.11 42.7384 189.622 42.963 189.036 42.963C188.43 42.963 187.903 42.7384 187.454 42.2892C187.024 41.8204 186.809 41.2931 186.809 40.7072C186.809 40.1212 187.014 39.6232 187.425 39.213C187.854 38.7833 188.372 38.5685 188.977 38.5685C189.563 38.5685 190.061 38.7833 190.471 39.213C190.901 39.6232 191.116 40.1212 191.116 40.7072Z" fill="#1A3D97"></path></svg> 