<?xml version="1.0" encoding="UTF-8"?> <svg xmlns="http://www.w3.org/2000/svg" width="80" height="80" viewBox="0 0 80 80" fill="none"><circle cx="40" cy="40" r="40" fill="#114639"></circle><path fill-rule="evenodd" clip-rule="evenodd" d="M40 50.6176C37.9289 50.6176 36.25 52.3163 36.25 54.4118C36.25 56.5072 37.9289 58.2059 40 58.2059C42.0711 58.2059 43.75 56.5072 43.75 54.4118C43.75 52.3163 42.0711 50.6176 40 50.6176ZM38.75 54.4118C38.75 53.7133 39.3096 53.1471 40 53.1471C40.6904 53.1471 41.25 53.7133 41.25 54.4118C41.25 55.1102 40.6904 55.6765 40 55.6765C39.3096 55.6765 38.75 55.1102 38.75 54.4118Z" fill="white"></path><path fill-rule="evenodd" clip-rule="evenodd" d="M50 44.1676C52.8528 43.5817 55 41.0299 55 37.9706V34.1765H45V31.6471H57.5V21.5294H60V19H52.5V21.5294H55V29.1176H45V24.0588H35V34.1765H25V37.9706C25 41.0299 27.1472 43.5817 30 44.1676V46.8235H20V49.3529H22.5V59.4706H20V62H60V59.4706H57.5V49.3529H60V46.8235H50V44.1676ZM31.25 41.7647C29.1789 41.7647 27.5 40.066 27.5 37.9706V36.7059H52.5V37.9706C52.5 40.066 50.8211 41.7647 48.75 41.7647H31.25ZM42.5 34.1765H37.5V26.5882H42.5V34.1765ZM32.5 46.8235V44.2941H47.5V46.8235H32.5ZM25 59.4706V49.3529H55V59.4706H25Z" fill="white"></path></svg> 