<?xml version="1.0" encoding="UTF-8"?> <svg xmlns="http://www.w3.org/2000/svg" width="122" height="40" viewBox="0 0 122 40" fill="none"><path d="M122 18.608V16.2128H119.129V12.4892L119.032 12.52L116.335 13.3748L116.282 13.3915V16.213H112.025V14.6412C112.025 13.9093 112.183 13.3492 112.494 12.9757C112.803 12.6067 113.246 12.4191 113.81 12.4191C114.215 12.4191 114.635 12.518 115.058 12.7131L115.163 12.7621V10.2397L115.114 10.2207C114.719 10.0739 114.183 10 113.519 10C112.681 10 111.92 10.1888 111.257 10.563C110.593 10.9377 110.07 11.4726 109.704 12.1527C109.34 12.832 109.155 13.6166 109.155 14.4848V16.2128H107.155V18.608H109.155V28.6987H112.025V18.608H116.282V25.0205C116.282 27.6614 117.484 28.9997 119.856 28.9997C120.246 28.9997 120.656 28.9524 121.075 28.8598C121.501 28.7647 121.791 28.6697 121.962 28.5683L122 28.5451V26.1277L121.883 26.2077C121.727 26.3152 121.533 26.4031 121.306 26.4684C121.078 26.5349 120.887 26.5683 120.739 26.5683C120.184 26.5683 119.772 26.4132 119.517 26.1072C119.26 25.7983 119.129 25.2583 119.129 24.5028V18.608H122ZM100.746 26.5687C99.7039 26.5687 98.8825 26.2108 98.3037 25.506C97.7213 24.7976 97.4263 23.7876 97.4263 22.5043C97.4263 21.1803 97.7213 20.1441 98.304 19.4232C98.8832 18.707 99.6966 18.3435 100.722 18.3435C101.718 18.3435 102.51 18.6907 103.077 19.3759C103.648 20.0647 103.937 21.0926 103.937 22.432C103.937 23.7878 103.665 24.8293 103.128 25.526C102.595 26.2174 101.794 26.5687 100.746 26.5687ZM100.873 15.912C98.8857 15.912 97.3071 16.5153 96.1815 17.7052C95.0567 18.8951 94.4863 20.5419 94.4863 22.6001C94.4863 24.555 95.043 26.1274 96.1412 27.273C97.2393 28.419 98.7337 28.9995 100.583 28.9995C102.509 28.9995 104.056 28.3878 105.182 27.1814C106.307 25.9765 106.876 24.3453 106.876 22.3351C106.876 20.3497 106.342 18.7655 105.286 17.6276C104.231 16.4891 102.746 15.912 100.873 15.912ZM89.8587 15.912C88.5067 15.912 87.3883 16.2703 86.534 16.9766C85.6745 17.6871 85.2385 18.619 85.2385 19.7466C85.2385 20.3328 85.3326 20.8535 85.5178 21.2951C85.7041 21.7382 85.9925 22.1283 86.3756 22.4557C86.7557 22.7805 87.3426 23.1206 88.1202 23.4667C88.7739 23.7454 89.2614 23.9811 89.5711 24.1669C89.8738 24.3489 90.0886 24.5319 90.21 24.7102C90.3279 24.8846 90.3876 25.1234 90.3876 25.418C90.3876 26.2568 89.7812 26.665 88.5334 26.665C88.0706 26.665 87.5426 26.5649 86.9643 26.3675C86.3901 26.1731 85.8481 25.8885 85.3574 25.5235L85.2383 25.435V28.2975L85.282 28.3186C85.6881 28.5128 86.2002 28.6766 86.8037 28.8054C87.406 28.9344 87.9533 29 88.4287 29C89.8958 29 91.0773 28.6401 91.9393 27.9295C92.8069 27.2141 93.2465 26.2602 93.2465 25.0936C93.2465 24.252 93.0098 23.5302 92.5433 22.9482C92.08 22.3708 91.2758 21.8408 90.1541 21.3723C89.2605 21.0008 88.6881 20.6923 88.4519 20.4556C88.2242 20.2269 88.1086 19.9034 88.1086 19.4938C88.1086 19.1307 88.2513 18.8398 88.5442 18.6042C88.8394 18.3675 89.2503 18.2471 89.7657 18.2471C90.2439 18.2471 90.7332 18.3253 91.2198 18.4787C91.7061 18.632 92.1331 18.8374 92.4896 19.0887L92.6069 19.1717V16.4563L92.5619 16.4363C92.233 16.2902 91.7993 16.1651 91.2725 16.0637C90.7481 15.9629 90.2724 15.912 89.8587 15.912ZM77.756 26.5687C76.7145 26.5687 75.8929 26.2108 75.3142 25.506C74.7317 24.7976 74.4371 23.7878 74.4371 22.5043C74.4371 21.1803 74.7321 20.1441 75.3148 19.4232C75.8935 18.707 76.7069 18.3435 77.733 18.3435C78.7279 18.3435 79.5201 18.6907 80.0877 19.3759C80.6582 20.0647 80.9475 21.0926 80.9475 22.432C80.9475 23.7878 80.6752 24.8293 80.1385 25.526C79.6054 26.2174 78.8043 26.5687 77.756 26.5687ZM77.884 15.912C75.8959 15.912 74.3172 16.5153 73.1922 17.7052C72.0674 18.8951 71.4967 20.5419 71.4967 22.6001C71.4967 24.5558 72.0538 26.1274 73.1519 27.273C74.25 28.419 75.7443 28.9995 77.5932 28.9995C79.5196 28.9995 81.0672 28.3878 82.1923 27.1814C83.317 25.9765 83.8872 24.3453 83.8872 22.3351C83.8872 20.3497 83.3522 18.7655 82.2967 17.6276C81.2407 16.4891 79.7559 15.912 77.884 15.912ZM67.1398 18.3751V16.2128H64.3046V28.6984H67.1398V22.3116C67.1398 21.2255 67.3775 20.3333 67.8466 19.6594C68.3097 18.9936 68.9268 18.6561 69.6802 18.6561C69.9356 18.6561 70.2223 18.6997 70.5328 18.786C70.84 18.8718 71.0626 18.965 71.1939 19.063L71.313 19.1524V16.1915L71.2671 16.1711C71.0031 16.0549 70.6295 15.9962 70.1569 15.9962C69.4444 15.9962 68.8068 16.2334 68.2607 16.7003C67.7813 17.1107 67.4349 17.6734 67.17 18.3751H67.1398ZM59.2272 15.912C57.9264 15.912 56.7663 16.201 55.7794 16.7705C54.7905 17.3414 54.0258 18.1564 53.5055 19.1928C52.9874 20.2266 52.7244 21.4342 52.7244 22.781C52.7244 23.9607 52.9794 25.0433 53.4835 25.9974C53.9877 26.9531 54.7015 27.7008 55.605 28.2194C56.5073 28.7373 57.5501 28.9999 58.7047 28.9999C60.0521 28.9999 61.2025 28.7208 62.1249 28.1705L62.1621 28.1484V25.4576L62.043 25.5477C61.6251 25.863 61.1582 26.1147 60.6559 26.296C60.1547 26.4771 59.6979 26.5687 59.2973 26.5687C58.1848 26.5687 57.2917 26.2081 56.6434 25.4971C55.9937 24.7853 55.6643 23.7857 55.6643 22.5279C55.6643 21.2622 56.0078 20.2369 56.6849 19.4804C57.3598 18.7261 58.2546 18.3435 59.3441 18.3435C60.276 18.3435 61.1841 18.6704 62.0432 19.3159L62.1621 19.4054V16.5703L62.1237 16.5479C61.8004 16.3604 61.3594 16.2056 60.812 16.0882C60.2669 15.9711 59.7338 15.912 59.2272 15.912ZM50.7717 16.213H47.9365V28.6984H50.7717V16.213ZM49.3831 10.8941C48.9165 10.8941 48.5095 11.0586 48.1751 11.3847C47.8393 11.7117 47.669 12.1234 47.669 12.6093C47.669 13.0876 47.8373 13.4918 48.1699 13.8101C48.5003 14.1275 48.9086 14.2883 49.3832 14.2883C49.8578 14.2883 50.2676 14.1275 50.6019 13.8106C50.9385 13.4918 51.1091 13.0877 51.1091 12.6093C51.1091 12.1404 50.943 11.7329 50.6158 11.3979C50.2888 11.0635 49.8739 10.8941 49.3831 10.8941ZM42.309 15.2918V28.6984H45.2025V11.2763H41.1978L36.1075 24.2169L31.1678 11.2763H27V28.6983H29.7191V15.2904H29.8125L35.0288 28.6984H37.0808L42.2157 15.2918H42.309Z" fill="white"></path><path d="M10.4557 19.4542H0V9.00043H10.4557V19.4542Z" fill="#F1511B"></path><path d="M22 19.4538H11.5445V9H22V19.4538Z" fill="#80CC28"></path><path d="M10.4554 31H0V20.5463H10.4554V31Z" fill="#00ADEF"></path><path d="M22 31H11.5445V20.5463H22V31Z" fill="#FBBC09"></path></svg> 