<?xml version="1.0" encoding="UTF-8"?> <svg xmlns="http://www.w3.org/2000/svg" width="112" height="40" viewBox="0 0 112 40" fill="none"><g clip-path="url(#clip0)"><path d="M57.2964 12.0813H60.7747V30.6112H57.5336V17.901L52.1976 27.0143H50.5573L45.2213 17.8605V30.6112H42V12.0813H45.4387L51.3478 22.2051L57.2964 12.0813ZM100.419 28.7926C99.0356 27.3579 98.2648 25.3978 98.3241 23.3771C98.2648 21.3362 99.0356 19.3761 100.419 17.9616C101.822 16.5067 103.719 15.7186 105.696 15.759C108.285 15.6984 110.696 17.1331 111.941 19.4973L109.352 21.0533C108.68 19.6186 107.237 18.7092 105.676 18.7901C104.51 18.7497 103.383 19.2346 102.553 20.0833C101.743 20.9522 101.308 22.1242 101.328 23.3164C101.308 24.5289 101.743 25.7009 102.553 26.5698C103.383 27.4185 104.51 27.8832 105.676 27.863C107.237 27.9035 108.68 27.0346 109.391 25.5999L112 27.1356C110.735 29.4998 108.324 30.9547 105.715 30.9143C103.739 30.9547 101.842 30.2071 100.419 28.7926ZM92.5731 30.6314V16.1227H95.5968V30.6112L92.5731 30.6314ZM92.7115 13.3948C92.336 13.0311 92.1383 12.5259 92.1383 12.0005C92.1383 11.4751 92.336 10.9699 92.7115 10.6062C93.0672 10.2223 93.5613 10 94.0751 10C94.5889 10 95.083 10.2223 95.4387 10.6062C96.1897 11.3943 96.1897 12.6471 95.419 13.4352C94.6878 14.1829 93.4625 14.1829 92.7115 13.3948ZM89.8261 19.1336H86.3478V26.0848C86.3478 27.9237 87.5138 27.9035 89.8261 27.7822V30.6112C85.2016 31.1972 83.3439 29.8837 83.3439 26.0848V19.1336H80.7549V16.1227H83.3439V12.0813H86.3676V16.1227H89.8459L89.8261 19.1336ZM70.7154 28.0045C71.9012 28.0247 73.0277 27.5599 73.8775 26.7112C74.7273 25.8221 75.1818 24.6097 75.1423 23.3771C75.1621 22.1444 74.7075 20.9522 73.8775 20.0833C72.1186 18.3051 69.3123 18.3051 67.5534 20.0833C66.7036 20.9522 66.249 22.1444 66.2885 23.3771C66.249 24.6299 66.7036 25.8221 67.5534 26.7112C68.3834 27.5599 69.4901 28.0247 70.6561 28.0045H70.7154ZM75.083 16.1227H78.1067V30.6112H75.083V28.5299C73.9565 30.1464 72.1186 31.076 70.2016 30.9951C68.3241 31.0153 66.5455 30.2273 65.2806 28.7926C63.9368 27.3377 63.2055 25.3776 63.2451 23.3771C63.1858 21.3564 63.917 19.4165 65.2609 17.9616C66.5257 16.5269 68.3241 15.7388 70.2016 15.7792C72.1383 15.6782 73.9763 16.5875 75.1028 18.2041L75.083 16.1227Z" fill="white"></path><path d="M12.4143 18.1299L16 26.1585L21.3252 23.0499H21.3349V16.8303L12.4143 18.1299Z" fill="#2BBDF7"></path><path d="M28.2135 12.1637L24.8892 10.9014L21.335 10.6082V16.8303V29.9926L26.6675 33.1037L30.9209 24.342L28.2232 15.9084L28.2135 12.1637Z" fill="#2891F9"></path><path d="M27.9038 10.6082L26.6675 13.7192V33.0564L32 29.9429V10.6082H27.9038Z" fill="#2BBDF7"></path><path d="M26.6675 7.49951L21.335 10.6081L26.6675 13.7191L32 10.6081L26.6675 7.49951Z" fill="#2B6DEF"></path><path d="M16 19.9388L10.6675 13.8956L0 10.6082V29.9429L5.33252 33.0564L6.85921 22.3541L10.6675 23.0499L16 26.1585V19.9388Z" fill="#2891F9"></path><path d="M5.33253 7.49951L0 10.6081L16 19.9388L18.4171 18.5323L21.3349 16.8302L5.33253 7.49951Z" fill="#2B6DEF"></path><path d="M5.33258 19.9387V33.0563L10.6675 29.9428V23.0498L5.33258 19.9387Z" fill="#2BBDF7"></path></g><defs><clipPath id="clip0"><rect width="112" height="40" fill="white"></rect></clipPath></defs></svg> 