<?xml version="1.0" encoding="UTF-8"?> <svg xmlns="http://www.w3.org/2000/svg" width="122" height="40" viewBox="0 0 122 40" fill="none"><path d="M47.6471 16.54H51.5286V28.6224H47.6471V16.54Z" fill="white"></path><path d="M52.3391 16.54H56.0777V18.1919H56.149C57.054 16.8939 58.2208 16.1861 59.9115 16.1861C62.5785 16.1861 64.1501 18.0739 64.1501 20.7641V28.6224H60.2687V21.5429C60.2687 20.2685 59.6258 19.3953 58.3637 19.3953C57.0779 19.3953 56.2205 20.4573 56.2205 21.944V28.6224H52.3391V16.54Z" fill="white"></path><path d="M51.9161 13.3074C51.9161 12.033 50.8736 11 49.5878 11C48.302 11 47.2595 12.033 47.2595 13.3074C47.2595 14.5817 48.302 15.6146 49.5878 15.6146C50.8736 15.6146 51.9161 14.5817 51.9161 13.3074Z" fill="white"></path><path d="M91.449 16.3655C91.3383 16.3556 91.2113 16.3512 91.0627 16.3512C89.5863 16.3512 88.5863 16.9883 87.7289 18.4278H87.6575V16.54H83.9427V28.6223H87.8242V23.1947C87.8242 20.6798 89.2295 19.5145 91.449 19.7178V16.3655Z" fill="white"></path><path d="M110.497 21C108.949 20.7169 107.568 20.599 107.568 19.7494C107.568 18.9942 108.306 18.6403 109.259 18.6403C110.33 18.6403 111.068 18.9706 111.211 20.0562H114.783C114.593 17.6728 112.735 16.186 109.283 16.186C106.401 16.186 104.02 17.5075 104.02 20.0562C104.02 22.8879 106.282 23.4543 108.401 23.8083C110.021 24.0916 111.497 24.2095 111.497 25.295C111.497 26.0738 110.759 26.4986 109.592 26.4986C108.421 26.4986 107.647 26.0077 107.41 25.0119H103.711C103.983 27.4957 106.183 29 109.616 29C112.807 29 115.164 27.6313 115.164 24.9883C115.164 21.8968 112.64 21.3541 110.497 21Z" fill="white"></path><path d="M97.4702 18.9233C98.7322 18.9233 99.637 19.8437 99.78 21.2833H94.9699C95.2318 19.8437 95.9938 18.9233 97.4702 18.9233ZM97.6845 26.2152C96.089 26.2152 95.1842 25.2006 94.946 23.5723H103.709C103.733 21.1181 103.019 19.0177 101.566 17.6963C100.518 16.7524 99.1371 16.186 97.3986 16.186C93.6839 16.186 91.1361 18.9469 91.1361 22.5576C91.1361 26.2152 93.6126 28.9764 97.6368 28.9764C99.1845 28.9764 100.423 28.5752 101.447 27.8673C102.518 27.1357 103.233 26.0974 103.495 25.0119H99.7085C99.375 25.767 98.7084 26.2152 97.6845 26.2152Z" fill="white"></path><path d="M122 25.7732C121.82 25.7803 121.579 25.7906 121.357 25.7906C120.523 25.7906 120 25.5545 120 24.6106V18.9469H122V16.5399H120V12.717H116.213V16.5399H115.022V18.9469H116.213V25.4366C116.213 28.0325 117.833 28.7639 120.095 28.7639C120.958 28.7639 121.61 28.6999 122 28.6245V25.7732Z" fill="white"></path><path d="M71.0817 25.7787C70.9269 25.7847 70.7482 25.7906 70.5812 25.7906C69.7479 25.7906 69.2239 25.5545 69.2239 24.6106V18.9469H71.0817V16.5399H69.2239V12.717H65.4377V16.5399H64.1752V18.9469H65.4377V25.4366C65.4377 28.0325 67.0569 28.7639 69.3191 28.7639C70.0846 28.7639 70.6839 28.7135 71.0817 28.6495V25.7787Z" fill="white"></path><path d="M79.5363 21.2833C79.3935 19.8438 78.4885 18.9233 77.2264 18.9233C75.75 18.9233 74.9881 19.8438 74.7261 21.2833H79.5363ZM70.8923 22.5576C70.8923 18.947 73.4402 16.186 77.155 16.186C78.8933 16.186 80.2745 16.7523 81.3223 17.6963C82.7749 19.0178 83.4892 21.1181 83.4654 23.5723H74.7024C74.9404 25.2006 75.8453 26.2153 77.4408 26.2153C78.4647 26.2153 79.1315 25.767 79.4647 25.0119H83.2511C82.9891 26.0973 82.2748 27.1357 81.2031 27.8673C80.1793 28.5752 78.941 28.9764 77.3931 28.9764C73.3687 28.9764 70.8923 26.2153 70.8923 22.5576Z" fill="white"></path><path d="M40.9064 19.6786C42.4304 19.6786 43.2876 18.7818 43.2876 17.4366C43.2876 16.0916 42.4065 15.2657 40.9064 15.2657H37.9296V19.6786H40.9064ZM34 11.7495H40.7403C42.8119 11.7495 44.336 12.3158 45.3837 13.307C46.4792 14.3216 47.0983 15.7612 47.0983 17.4603C47.0983 20.6933 44.8361 22.9824 41.3356 22.9824H37.9296V28.6224H34V11.7495Z" fill="white"></path><path d="M27 20.5001C27 27.9559 20.9559 34 13.5001 34C6.04435 34 0.000209808 27.9559 0.000209808 20.5001C0.000209808 13.0442 6.04435 7.00021 13.5001 7.00021C20.9559 7.00021 27 13.0442 27 20.5001Z" fill="white"></path><path d="M13.4999 7C6.04414 7 0 13.0441 0 20.4999C0 26.2191 3.55834 31.1083 8.58019 33.0753C8.46222 32.0072 8.35554 30.3645 8.627 29.1985C8.87234 28.1449 10.21 22.4882 10.21 22.4882C10.21 22.4882 9.80621 21.6794 9.80621 20.4838C9.80621 18.6067 10.8942 17.2053 12.249 17.2053C13.4007 17.2053 13.957 18.07 13.957 19.1069C13.957 20.2652 13.2196 21.9969 12.839 23.6018C12.521 24.9454 13.5128 26.0412 14.8381 26.0412C17.2375 26.0412 19.0819 23.5112 19.0819 19.8593C19.0819 16.6269 16.7593 14.367 13.4429 14.367C9.60171 14.367 7.34708 17.2481 7.34708 20.2256C7.34708 21.3859 7.79404 22.63 8.35178 23.3064C8.46211 23.4401 8.47827 23.5572 8.4454 23.6936C8.34293 24.12 8.11519 25.0369 8.07048 25.2246C8.01161 25.4717 7.87483 25.5242 7.61898 25.4051C5.93293 24.6203 4.87876 22.1552 4.87876 20.1752C4.87876 15.9167 7.97287 12.0058 13.7987 12.0058C18.4818 12.0058 22.1211 15.3429 22.1211 19.8027C22.1211 24.4553 19.1876 28.1997 15.1159 28.1997C13.7479 28.1997 12.4619 27.489 12.0217 26.6495C12.0217 26.6495 11.3448 29.227 11.1806 29.8587C10.8759 31.0313 10.0531 32.5011 9.50278 33.3978C10.7659 33.7889 12.1082 33.9998 13.4999 33.9998C20.9558 33.9998 26.9999 27.9556 26.9999 20.4999C26.9999 13.0441 20.9558 7 13.4999 7Z" fill="#E60023"></path></svg> 