<?xml version="1.0" encoding="UTF-8"?> <svg xmlns="http://www.w3.org/2000/svg" width="233" height="44" viewBox="0 0 233 44" fill="none"><path d="M70.568 11.32H76.648L70.024 35H61.864L57.128 17.976L52.2 35H44.04L37.432 11.32H43.896L48.6 29.192L53.688 11.32H60.728L65.672 29.512L70.568 11.32ZM86.0463 35.336C84.0943 35.336 82.3983 34.9893 80.9583 34.296C79.5289 33.592 78.4249 32.5573 77.6463 31.192C76.8783 29.8267 76.4943 28.1787 76.4943 26.248C76.4943 24.296 76.8676 22.6427 77.6143 21.288C78.3609 19.9333 79.4489 18.9093 80.8783 18.216C82.3076 17.512 84.0303 17.16 86.0463 17.16C88.0623 17.16 89.7849 17.512 91.2143 18.216C92.6436 18.9093 93.7316 19.9333 94.4783 21.288C95.2356 22.6427 95.6143 24.2907 95.6143 26.232C95.6143 28.1627 95.2249 29.8107 94.4463 31.176C93.6676 32.5413 92.5583 33.576 91.1183 34.28C89.6889 34.984 87.9983 35.336 86.0463 35.336ZM86.0463 30.632C87.1556 30.632 87.9823 30.296 88.5263 29.624C89.0809 28.952 89.3583 27.832 89.3583 26.264C89.3583 24.6853 89.0809 23.56 88.5263 22.888C87.9823 22.216 87.1556 21.88 86.0463 21.88C84.9476 21.88 84.1209 22.216 83.5663 22.888C83.0223 23.5493 82.7503 24.664 82.7503 26.232C82.7503 27.8107 83.0223 28.9413 83.5663 29.624C84.1103 30.296 84.9369 30.632 86.0463 30.632ZM107.703 35.336C105.751 35.336 104.055 34.9893 102.615 34.296C101.185 33.592 100.081 32.5573 99.3025 31.192C98.5345 29.8267 98.1505 28.1787 98.1505 26.248C98.1505 24.296 98.5238 22.6427 99.2705 21.288C100.017 19.9333 101.105 18.9093 102.535 18.216C103.964 17.512 105.687 17.16 107.703 17.16C109.719 17.16 111.441 17.512 112.871 18.216C114.3 18.9093 115.388 19.9333 116.135 21.288C116.892 22.6427 117.271 24.2907 117.271 26.232C117.271 28.1627 116.881 29.8107 116.103 31.176C115.324 32.5413 114.215 33.576 112.775 34.28C111.345 34.984 109.655 35.336 107.703 35.336ZM107.703 30.632C108.812 30.632 109.639 30.296 110.183 29.624C110.737 28.952 111.015 27.832 111.015 26.264C111.015 24.6853 110.737 23.56 110.183 22.888C109.639 22.216 108.812 21.88 107.703 21.88C106.604 21.88 105.777 22.216 105.223 22.888C104.679 23.5493 104.407 24.664 104.407 26.232C104.407 27.8107 104.679 28.9413 105.223 29.624C105.767 30.296 106.593 30.632 107.703 30.632ZM127.663 35.304C126.18 35.304 124.847 34.9947 123.663 34.376C122.479 33.7573 121.54 32.7973 120.847 31.496C120.153 30.1947 119.807 28.5627 119.807 26.6C119.807 24.5947 120.201 22.888 120.991 21.48C121.791 20.0613 122.953 18.984 124.479 18.248C126.004 17.5013 127.849 17.128 130.015 17.128C130.655 17.128 131.423 17.1707 132.319 17.256V9.144H138.591V35H133.343L132.991 33.192H132.703C132.116 33.8533 131.396 34.3707 130.543 34.744C129.689 35.1173 128.729 35.304 127.663 35.304ZM129.487 30.28C130.02 30.28 130.532 30.2053 131.023 30.056C131.524 29.896 131.956 29.6613 132.319 29.352V22.024C131.604 21.8853 130.905 21.816 130.223 21.816C128.804 21.816 127.753 22.1627 127.071 22.856C126.399 23.5387 126.063 24.632 126.063 26.136C126.063 27.6187 126.356 28.68 126.943 29.32C127.529 29.96 128.377 30.28 129.487 30.28ZM163.637 17.16C165.631 17.16 167.205 17.7733 168.357 19C169.509 20.216 170.085 22.1093 170.085 24.68V35H163.845V25.032C163.845 24.104 163.658 23.4427 163.285 23.048C162.922 22.6533 162.405 22.456 161.733 22.456C160.751 22.456 159.951 22.7493 159.333 23.336C159.365 23.6987 159.381 24.0933 159.381 24.52V35H153.237V25.032C153.237 24.0933 153.071 23.432 152.741 23.048C152.41 22.6533 151.909 22.456 151.237 22.456C150.703 22.456 150.207 22.5627 149.749 22.776C149.29 22.9787 148.911 23.2667 148.613 23.64V35H142.341V17.448H147.477L147.893 19.128H148.165C148.794 18.488 149.541 18.0027 150.405 17.672C151.279 17.3307 152.245 17.16 153.301 17.16C154.325 17.16 155.237 17.3467 156.037 17.72C156.847 18.0827 157.519 18.6373 158.053 19.384C158.842 18.6267 159.711 18.0667 160.661 17.704C161.621 17.3413 162.613 17.16 163.637 17.16ZM180.644 17.16C182.83 17.16 184.58 17.416 185.892 17.928C187.214 18.4293 188.19 19.2613 188.82 20.424C189.449 21.5867 189.764 23.1707 189.764 25.176V35H184.596L184.164 33.384H183.892C183.337 34.0453 182.644 34.536 181.812 34.856C180.99 35.176 180.073 35.336 179.06 35.336C177.737 35.336 176.606 35.1173 175.668 34.68C174.729 34.232 174.02 33.6187 173.54 32.84C173.06 32.0507 172.82 31.144 172.82 30.12C172.82 28.4027 173.465 27.0747 174.756 26.136C176.046 25.1973 178.084 24.648 180.868 24.488L183.62 24.296C183.577 23.6667 183.412 23.1707 183.124 22.808C182.846 22.4347 182.414 22.168 181.828 22.008C181.252 21.848 180.478 21.768 179.508 21.768C178.74 21.768 177.897 21.832 176.98 21.96C176.062 22.0773 175.209 22.2533 174.42 22.488V17.944C175.358 17.688 176.382 17.496 177.492 17.368C178.601 17.2293 179.652 17.16 180.644 17.16ZM181.124 31.16C182.116 31.16 182.953 30.92 183.636 30.44V27.624L181.508 27.768C180.622 27.8427 179.982 28.0293 179.588 28.328C179.193 28.616 178.996 29.0267 178.996 29.56C178.996 30.0613 179.177 30.456 179.54 30.744C179.902 31.0213 180.43 31.16 181.124 31.16ZM193.372 17.448H198.476L198.972 19.592H199.244C199.724 18.7813 200.369 18.1787 201.18 17.784C201.991 17.3787 202.924 17.176 203.98 17.176C204.439 17.176 204.956 17.2187 205.532 17.304V22.888C205.009 22.792 204.364 22.744 203.596 22.744C202.839 22.744 202.092 22.8667 201.356 23.112C200.631 23.3467 200.06 23.6773 199.644 24.104V35H193.372V17.448ZM218.649 30.28C219.129 30.28 219.747 30.216 220.505 30.088V34.92C219.961 35.0373 219.363 35.1333 218.713 35.208C218.062 35.2933 217.443 35.336 216.857 35.336C212.025 35.336 209.609 33.016 209.609 28.376V22.328H206.761V17.448H209.609L210.761 11.32H215.881V17.448H220.457V22.328H215.881V27.304C215.881 28.0613 215.971 28.6587 216.153 29.096C216.345 29.5227 216.638 29.8267 217.033 30.008C217.427 30.1893 217.966 30.28 218.649 30.28ZM226.727 35.304C225.5 35.304 224.529 34.9787 223.815 34.328C223.1 33.6773 222.743 32.792 222.743 31.672C222.743 30.5413 223.095 29.656 223.799 29.016C224.503 28.3653 225.479 28.04 226.727 28.04C227.964 28.04 228.935 28.3707 229.639 29.032C230.353 29.6827 230.711 30.5627 230.711 31.672C230.711 32.3973 230.545 33.0373 230.215 33.592C229.895 34.136 229.436 34.5573 228.839 34.856C228.241 35.1547 227.537 35.304 226.727 35.304Z" fill="white"></path><path fill-rule="evenodd" clip-rule="evenodd" d="M35.9834 34.8822L37.0001 36.8398H35.256C34.9796 36.7014 34.7084 36.5503 34.4787 36.4223L34.4787 36.4223C34.2721 36.3071 34.099 36.2107 33.986 36.1591C33.4443 35.9117 32.9378 35.6834 32.8604 35.6515C32.4164 35.4687 30.4686 34.072 29.6278 33.3334C28.7481 32.561 28.4238 32.2315 27.5432 31.2152C27.0233 30.6152 26.4379 29.3971 25.6234 27.2209C24.7566 24.9045 24.3526 24.2656 23.4551 23.7916C22.8443 23.4692 22.5682 23.453 21.6617 23.6873C20.2676 24.0475 12.57 28.0549 9.29369 30.126C8.06548 30.9025 4.28523 33.4809 0.871347 35.8094L0.870171 35.8102L0.868545 35.8113L4.22784e-05 36.4036L1.46766 33.5777C3.04754 32.5371 4.68193 31.4946 6.42446 30.4137C7.87138 29.5161 10.6126 27.7997 12.5161 26.5994C20.5596 21.5277 20.6334 21.4876 22.1569 21.3714C23.3739 21.2786 23.7231 21.4276 24.6631 22.4413C25.1367 22.9519 25.6556 23.8396 26.5163 25.6113C27.7267 28.1029 28.4885 29.2585 30.2155 31.2222C31.7733 32.9935 33.6905 34.2102 35.9834 34.8822ZM34.836 32.6729L33.3334 29.7797C32.554 29.2066 31.8294 28.5553 31.0945 27.7922C29.706 26.3505 28.664 24.7498 27.2113 21.8278C26.5516 20.5009 25.9115 19.3021 25.7887 19.1639C25.153 18.4477 24.3346 18.0365 23.3887 18.1306C21.8747 18.2809 20.2204 19.0324 17.1727 20.9535C16.4376 21.417 14.8547 22.3393 13.6553 23.0031C10.428 24.7895 8.48073 26.0003 3.75664 29.1703L2.65727 31.2871C5.1905 29.6453 7.8996 27.9947 11.0524 26.1582C12.2905 25.437 14.5698 24.0024 16.1175 22.9702C16.4093 22.7756 16.6854 22.5911 16.9471 22.4162C20.5792 19.9886 21.4273 19.4217 22.989 19.5523C24.6631 19.6924 25.3393 20.784 26.039 22.1874C28.9865 28.1002 31.3818 31.0393 34.836 32.6729ZM4.57581 27.593C5.56348 26.9542 6.84178 26.1248 8.64212 24.9559C14.9292 20.8739 19.7178 18.1241 21.7334 17.4384C22.1136 17.3089 22.905 17.1699 23.4921 17.1293C24.496 17.0599 24.6032 17.0816 25.2991 17.4939C26.2561 18.0608 26.7851 18.801 28.0928 21.4021C29.4625 24.1264 30.1299 25.1334 31.406 26.4006C31.5222 26.5159 31.6377 26.628 31.7533 26.7372L27.682 18.8979C27.3116 18.3065 26.9464 17.7791 26.6404 17.4006C26.5018 17.2292 26.0121 16.8619 25.5525 16.5846C24.7895 16.1242 24.6226 16.0802 23.6411 16.0802C21.4844 16.0802 19.0599 17.2587 12.7624 21.368C9.58865 23.4389 7.63299 24.6738 5.42459 25.9587L4.57581 27.593ZM6.30297 24.2674C8.14976 23.212 9.7863 22.2293 11.4041 21.2081C19.0648 16.3723 20.9707 15.4653 23.5041 15.4499C24.7138 15.4423 24.9185 15.4814 25.6607 15.8603C25.8825 15.9736 26.1016 16.1111 26.3197 16.2748L25.8028 15.2794C25.6942 15.2362 25.5827 15.1952 25.4675 15.1557C23.7711 14.5737 21.9737 14.7461 19.3825 15.7392C18.0497 16.2501 14.835 17.9473 12.6001 19.3199C11.4071 20.0524 9.65809 21.1004 7.18861 22.5621L6.30297 24.2674ZM7.91128 21.1706C8.8213 20.6626 9.67368 20.1837 10.3489 19.8003C16.1085 16.5297 19.5741 14.869 21.3929 14.508C21.8814 14.411 22.8853 14.3678 23.7808 14.4049C24.6366 14.4405 25.0393 14.4663 25.4455 14.5915L24.9265 13.5922C23.2513 13.2811 21.2865 13.6735 18.4009 14.6899C17.1785 15.1203 15.7217 15.8344 9.57509 19.0162C9.34302 19.1363 9.09343 19.2646 8.83174 19.3982L7.91128 21.1706ZM9.41594 18.2733C11.2339 17.3236 16.988 14.691 18.2983 14.22C20.7222 13.3488 21.5473 13.1813 23.4337 13.1775C23.9305 13.1765 24.3512 13.1841 24.7311 13.216L24.4323 12.6407C22.3007 12.3004 19.9793 12.8686 15.2733 14.8362C13.8804 15.4186 12.0443 16.1665 11.1931 16.4983C10.8856 16.6182 10.5199 16.7679 10.1073 16.9422L9.41594 18.2733ZM10.6751 15.8489C10.8451 15.7895 11.0176 15.7298 11.1931 15.6696C11.8895 15.4306 13.3774 14.8768 14.4995 14.4391C17.4219 13.2993 20.0548 12.4309 21.1122 12.2582C22.1973 12.0809 23.1952 12.0473 24.1925 12.1789L23.9122 11.6392C21.9232 11.4121 19.9762 11.7718 17.4315 12.6855C15.6152 13.3376 13.4967 14.062 11.2135 14.8121L10.6751 15.8489ZM11.7109 13.8544C13.5647 13.2818 15.0821 12.7953 16.7506 12.2419C19.6504 11.28 21.5863 10.8773 23.6127 11.0625L23.3432 10.5435C22.9398 10.517 22.5065 10.5085 21.9564 10.5081C19.593 10.5063 18.6258 10.7076 15.245 11.9057C13.982 12.3532 13.036 12.6774 12.1844 12.9427L11.7109 13.8544ZM12.6286 12.0873C13.2775 11.8781 14.0127 11.6054 14.9919 11.2245C18.0234 10.0452 19.1633 9.79384 21.464 9.79753C22.0601 9.79851 22.5326 9.80921 22.9778 9.83986L22.4831 8.88739C21.0849 8.78284 19.8547 8.85953 18.7907 9.11747C18.1717 9.26747 16.6008 9.77964 15.3 10.2555C14.4505 10.5663 13.7933 10.7976 13.2049 10.9777L12.6286 12.0873ZM13.872 9.69331C14.7265 9.42952 15.6526 9.11423 16.7506 8.72904C18.6609 8.05891 19.9537 7.78725 21.971 7.90138L21.3246 6.65674C18.8549 6.49925 17.3504 6.89022 14.8926 7.90424C14.8537 7.9203 14.8149 7.93626 14.7762 7.95212L13.872 9.69331ZM15.7059 6.16209C16.9987 5.7427 18.0108 5.5316 19.1281 5.41803C19.6063 5.36944 20.1135 5.34719 20.6465 5.35105L19.9205 3.95318C18.7284 4.01898 17.7342 4.13311 16.644 4.35583L15.7059 6.16209ZM17.5389 2.63257C17.8223 2.62136 18.1071 2.6157 18.3932 2.6157C18.6749 2.6157 18.9553 2.62119 19.2344 2.63206L18.3868 1L17.5389 2.63257ZM2.1687 36.8398C2.4039 36.6724 2.63379 36.5088 2.85867 36.3487L2.8639 36.345L2.86832 36.3419C8.11037 32.6107 10.6259 30.8202 14.0983 29.3408C15.1315 28.9007 17.0848 28.0062 18.439 27.3533C22.0214 25.6257 22.4583 25.5561 23.4783 26.5482C23.911 26.9688 24.1625 27.4459 24.6932 28.8526C25.8743 31.9828 26.623 33.4088 27.536 34.2664C28.1258 34.8204 29.8367 35.9546 31.3645 36.8398H26.7207C26.665 36.7865 26.6141 36.7341 26.568 36.6828C26.0368 36.0897 25.1487 34.6393 24.9784 34.087C24.921 33.9009 24.6595 33.3164 24.3971 32.7882C24.1347 32.2598 23.7908 31.4935 23.6328 31.0852C23.101 29.7106 21.822 28.8588 20.7415 29.1598C20.1634 29.3208 18.1611 30.11 17.9465 30.2614C17.7539 30.3974 16.2524 30.9649 13.6553 31.8833C10.2795 33.0773 8.07945 34.1746 4.17407 36.8398H2.1687ZM7.64673 36.8398C7.86368 36.7139 8.03935 36.6173 8.16812 36.5539C9.77375 35.7632 11.9894 34.974 13.6553 34.5996C15.3988 34.2078 16.5885 33.8106 18.439 33.0029C21.3084 31.7507 21.6802 31.9405 23.5146 35.5963C23.7468 36.0589 23.9615 36.4712 24.1634 36.8398H21.1272C21.1109 36.8265 21.0942 36.8132 21.0771 36.7997C20.1069 36.0365 18.2234 36.1677 17.193 36.5539C16.9356 36.6504 16.715 36.7462 16.5175 36.8398H7.64673ZM16.5645 39.6809V43.1557C16.7876 43.0399 16.9979 42.91 17.2049 42.7821C17.8215 42.4012 18.4081 42.0388 19.2101 42.1254C19.6211 42.1699 20.0017 42.4156 20.3392 42.7529V39.1812C19.985 38.8236 19.7668 38.8265 19.3701 38.8316H19.3699H19.3697C19.3195 38.8323 19.2666 38.833 19.2101 38.833C18.387 38.833 17.717 39.1017 17.193 39.3338C16.9758 39.43 16.7677 39.5485 16.5645 39.6809Z" fill="white"></path></svg> 