<?xml version="1.0" encoding="UTF-8"?> <svg xmlns="http://www.w3.org/2000/svg" width="95" height="40" viewBox="0 0 95 40" fill="none"><path d="M5.17037 35C8.02105 35 10.3352 32.6859 10.3352 29.8352V24.6703H5.17037C2.31968 24.6703 0.00552368 26.9845 0.00552368 29.8352C0.00552368 32.6859 2.31968 35 5.17037 35Z" fill="#0ACF83"></path><path d="M0 19.4999C0 16.6492 2.31415 14.3351 5.16484 14.3351H10.3297V24.6702H5.16484C2.31415 24.6702 0 22.356 0 19.5053V19.4999Z" fill="#A259FF"></path><path d="M0 9.16484C0 6.31415 2.31415 4 5.16484 4H10.3297V14.3351H5.16484C2.31415 14.3351 0 12.021 0 9.17026V9.16484Z" fill="#F24E1E"></path><path d="M10.2866 4H15.4514C18.3021 4 20.6163 6.31415 20.6163 9.16484C20.6163 12.0155 18.3021 14.3297 15.4514 14.3297H10.2866V4Z" fill="#FF7262"></path><path d="M20.6705 19.4999C20.6705 22.3506 18.3563 24.6647 15.5056 24.6647C12.6549 24.6647 10.2866 22.3506 10.2866 19.4999C10.2866 16.6492 12.6007 14.3351 15.4514 14.3351C18.3021 14.3351 20.6163 16.6492 20.6163 19.4999H20.6705Z" fill="#1ABCFE"></path><path d="M29 9V26.9656H31.38V18.3874H37.1031V16.1575H31.38V11.2479H38.8163V9H29ZM43.1226 12.6507C43.9838 12.6507 44.6784 11.9763 44.6784 11.14C44.6784 10.3038 43.9746 9.71934 43.1226 9.71934C42.2706 9.71934 41.5668 10.3937 41.5668 11.23C41.5668 11.6346 41.7335 12.0123 42.0298 12.309C42.3261 12.6057 42.7151 12.7586 43.1411 12.7586L43.1226 12.6507ZM41.9187 14.9166V26.9656H44.2061V14.9166H41.8446H41.9187ZM53.1426 14.5569C49.9755 14.5569 47.7714 17.2545 47.7714 20.2397C47.7714 23.225 49.994 25.9046 53.1426 25.9046C53.7978 25.9157 54.4482 25.7944 55.0524 25.5482C55.6567 25.3021 56.2016 24.9366 56.6524 24.4749V26.0754C56.6458 27.0371 56.2616 27.96 55.5782 28.6561C55.233 28.9981 54.8208 29.2697 54.366 29.455C53.9112 29.6403 53.4229 29.7355 52.9296 29.7351C52.1723 29.7118 51.4384 29.4743 50.8182 29.0517L49.6143 31.0569C50.5388 31.6342 51.6066 31.9587 52.7051 31.9963C53.8037 32.0339 54.8923 31.7832 55.8564 31.2705C56.8205 30.7578 57.6244 30.0021 58.1833 29.0831C58.7422 28.1641 59.0356 27.1157 59.0324 26.0484V14.8986H56.6524V15.9776C56.2016 15.516 55.6567 15.1504 55.0524 14.9043C54.4482 14.6582 53.7978 14.5368 53.1426 14.5479V14.5569ZM50.1607 20.2397C50.1065 19.6552 50.2217 19.0675 50.4933 18.5431C50.765 18.0188 51.1822 17.5787 51.698 17.2724C52.7537 16.643 54.078 16.643 55.1244 17.2724C56.1709 17.9019 56.7636 19.0528 56.6617 20.2397C56.7159 20.8243 56.6007 21.412 56.3291 21.9363C56.0574 22.4607 55.6402 22.9008 55.1244 23.207C54.0687 23.8365 52.7444 23.8365 51.698 23.207C50.6515 22.5776 50.0588 21.4267 50.1607 20.2397Z" fill="white"></path><path d="M67.6161 16.9128C66.9316 16.9152 66.2758 17.1802 65.7918 17.6502C65.3078 18.1201 65.0348 18.7569 65.0324 19.4215V27.0465H62.6524V14.9975H65.0324V16.0136C65.7547 15.0785 66.903 14.5389 68.1069 14.5569C69.6257 14.521 71.0426 15.3122 71.7927 16.5981C72.7187 15.3392 74.0523 14.5749 75.497 14.5569C78.2103 14.5569 79.8958 16.679 79.9051 19.3046V26.9746H77.5251V19.3316C77.5948 18.8555 77.5227 18.3699 77.3172 17.9324C77.1117 17.4948 76.7814 17.1236 76.3655 16.8625C75.9495 16.6015 75.4653 16.4616 74.97 16.4593C74.4747 16.4571 73.9892 16.5926 73.5707 16.8498C73.1546 17.1133 72.8252 17.4872 72.6216 17.9271C72.418 18.3671 72.3489 18.8546 72.4224 19.3316V26.9566H70.135V19.3406C70.1326 18.6759 69.8596 18.0392 69.3755 17.5693C68.8915 17.0993 68.2358 16.8342 67.5513 16.8319L67.6161 16.9128ZM92.62 16.2834C92.0783 15.7345 91.4267 15.299 90.7053 15.0037C89.9838 14.7083 89.2078 14.5593 88.4249 14.5659C84.8781 14.5659 82.4054 17.4793 82.4054 20.8602C82.4054 24.2411 84.9058 27.1544 88.4249 27.1544C89.2078 27.161 89.9838 27.012 90.7053 26.7167C91.4267 26.4214 92.0783 25.9859 92.62 25.437V26.8038H95V14.7548H92.62V16.2834ZM84.7484 20.9591C84.628 19.5204 85.3503 18.1357 86.6191 17.3804C87.8878 16.625 89.3973 16.625 90.7493 17.3804C91.3686 17.7535 91.8705 18.2846 92.2003 18.9156C92.5302 19.5466 92.6753 20.2535 92.62 20.9591C92.7404 22.3978 92.0181 23.7825 90.7493 24.5378C89.4806 25.2931 87.9711 25.2931 86.6191 24.5378C85.9998 24.1646 85.4979 23.6336 85.1681 23.0026C84.8382 22.3715 84.6931 21.6647 84.7484 20.9591Z" fill="white"></path></svg> 