<?xml version="1.0" encoding="UTF-8"?> <svg xmlns="http://www.w3.org/2000/svg" width="1920" height="720" viewBox="0 0 1920 720" fill="none"><rect width="1920" height="720" fill="white"></rect><path d="M796.338 662.423C821.543 656.954 839.901 661.287 857.582 654.864C875.263 648.44 893.241 624.236 877.369 602.78C861.497 581.323 830.653 598.439 826.872 596.923C823.092 595.407 826.449 571.117 795.668 568.617C764.886 566.118 760.865 591.429 756.93 592.484C752.995 593.538 739.995 584.377 720.902 594.973C701.808 605.568 696.318 626.005 700.35 642.626C704.381 659.247 713.719 679.925 741.377 679.257C769.036 678.59 771.567 667.798 796.338 662.423Z" fill="#8BCEED"></path><path d="M776.512 574.827C776.908 574.612 777.402 574.758 777.617 575.153C777.832 575.548 777.686 576.042 777.29 576.257C776.782 576.534 776.308 576.832 775.809 577.161C775.434 577.409 774.928 577.306 774.681 576.931C774.433 576.555 774.536 576.05 774.912 575.802C775.428 575.462 775.945 575.135 776.512 574.827Z" fill="white" fill-opacity="0.5"></path><path d="M786.508 574.336C786.068 574.428 785.636 574.146 785.545 573.705C785.453 573.265 785.736 572.834 786.176 572.742C787.219 572.525 788.237 572.375 789.264 572.236C789.71 572.176 790.12 572.488 790.18 572.934C790.241 573.38 789.928 573.79 789.482 573.85C788.464 573.988 787.493 574.131 786.508 574.336Z" fill="white" fill-opacity="0.5"></path><path d="M728.892 596.277C728.452 596.373 728.018 596.095 727.922 595.655C727.826 595.216 728.105 594.782 728.544 594.686L728.792 594.632C729.222 594.538 729.634 594.449 730.045 594.343C730.481 594.231 730.925 594.493 731.037 594.928C731.15 595.364 730.887 595.808 730.451 595.92C730.008 596.034 729.561 596.131 729.131 596.225L728.892 596.277Z" fill="white" fill-opacity="0.5"></path><path d="M794.539 578.629C794.098 578.539 793.814 578.109 793.904 577.669C793.995 577.228 794.425 576.944 794.866 577.034L797.543 577.581C797.984 577.671 798.268 578.101 798.178 578.542C798.088 578.982 797.657 579.267 797.216 579.176L794.539 578.629Z" fill="white" fill-opacity="0.5"></path><path d="M769.967 584.127C770.304 583.829 770.819 583.86 771.117 584.196C771.416 584.532 771.385 585.047 771.048 585.345L769.684 586.554C769.348 586.852 768.833 586.821 768.534 586.485C768.236 586.148 768.267 585.634 768.604 585.335L769.967 584.127Z" fill="white" fill-opacity="0.5"></path><path d="M784.44 581.664C784.83 581.439 785.328 581.573 785.553 581.963C785.777 582.352 785.643 582.85 785.253 583.075C784.484 583.517 783.733 583.881 782.954 584.234C782.545 584.421 782.062 584.24 781.875 583.831C781.689 583.421 781.87 582.939 782.28 582.752C783.036 582.408 783.735 582.069 784.44 581.664Z" fill="white" fill-opacity="0.5"></path><path d="M807.497 577.5C807.08 577.331 806.879 576.856 807.048 576.439C807.217 576.023 807.692 575.821 808.109 575.99C809.04 576.367 809.957 576.759 810.871 577.164C811.282 577.346 811.467 577.827 811.285 578.238C811.102 578.649 810.621 578.835 810.21 578.652C809.309 578.253 808.409 577.868 807.497 577.5Z" fill="white" fill-opacity="0.5"></path><path d="M735.559 597.883C735.109 597.872 734.754 597.498 734.765 597.049C734.776 596.599 735.15 596.244 735.599 596.255C736.197 596.269 736.791 596.294 737.384 596.324C737.833 596.347 738.179 596.73 738.156 597.179C738.133 597.628 737.75 597.973 737.3 597.95C736.717 597.921 736.139 597.897 735.559 597.883Z" fill="white" fill-opacity="0.5"></path><path d="M747.511 596.944C747.077 596.825 746.821 596.378 746.94 595.944C747.058 595.51 747.506 595.254 747.94 595.372L749.498 595.797C749.932 595.915 750.187 596.362 750.069 596.796C749.95 597.23 749.503 597.486 749.068 597.368L747.511 596.944Z" fill="white" fill-opacity="0.5"></path><path d="M728.889 600.393C729.323 600.277 729.77 600.535 729.886 600.969C730.003 601.403 729.745 601.85 729.31 601.966L728.609 602.154C728.174 602.271 727.728 602.013 727.611 601.579C727.495 601.144 727.753 600.698 728.188 600.581L728.889 600.393Z" fill="white" fill-opacity="0.5"></path><path d="M776.624 590.105C776.958 589.804 777.474 589.83 777.775 590.164C778.076 590.498 778.049 591.013 777.715 591.314C777.323 591.667 776.964 592.029 776.599 592.42C776.292 592.749 775.776 592.767 775.447 592.461C775.118 592.154 775.1 591.639 775.407 591.31C775.795 590.894 776.188 590.498 776.624 590.105Z" fill="white" fill-opacity="0.5"></path><path d="M765.714 593.322C766.072 593.05 766.584 593.12 766.856 593.478C767.128 593.836 767.057 594.347 766.699 594.619L766.644 594.661C766.23 594.974 765.966 595.175 765.757 595.465C765.495 595.83 764.986 595.913 764.62 595.651C764.255 595.388 764.172 594.879 764.434 594.514C764.793 594.016 765.246 593.675 765.617 593.396C765.625 593.389 765.633 593.383 765.641 593.377C765.666 593.358 765.69 593.34 765.714 593.322Z" fill="white" fill-opacity="0.5"></path><path d="M721.48 605.387C721.812 605.084 722.328 605.107 722.631 605.438C722.935 605.77 722.912 606.285 722.58 606.589C721.991 607.127 721.382 607.679 720.728 608.193C720.374 608.472 719.862 608.411 719.584 608.057C719.306 607.704 719.367 607.192 719.721 606.914C720.322 606.441 720.89 605.927 721.48 605.387Z" fill="white" fill-opacity="0.5"></path><path d="M712.639 607.892C713.042 607.693 713.531 607.858 713.73 608.261C713.929 608.664 713.764 609.152 713.361 609.352L712.808 609.625C712.404 609.824 711.916 609.659 711.716 609.256C711.517 608.853 711.682 608.365 712.086 608.165L712.639 607.892Z" fill="white" fill-opacity="0.5"></path><path d="M789.297 589.047C788.859 588.945 788.586 588.508 788.688 588.07C788.79 587.632 789.227 587.359 789.666 587.461L791.352 587.852C791.791 587.953 792.063 588.391 791.961 588.829C791.86 589.267 791.422 589.54 790.983 589.438L789.297 589.047Z" fill="white" fill-opacity="0.5"></path><path d="M741.845 601.962C741.407 601.86 741.135 601.422 741.238 600.984C741.341 600.546 741.779 600.274 742.217 600.377C742.613 600.469 743.012 600.545 743.433 600.625L743.456 600.63C743.898 600.714 744.188 601.14 744.104 601.582C744.02 602.023 743.594 602.314 743.152 602.23L743.12 602.224C742.707 602.145 742.277 602.064 741.845 601.962Z" fill="white" fill-opacity="0.5"></path><path d="M805.75 585.328C805.362 585.1 805.233 584.6 805.462 584.213C805.691 583.826 806.19 583.697 806.578 583.925C806.661 583.974 806.746 584.024 806.834 584.075C806.847 584.082 806.859 584.089 806.872 584.097C807.472 584.445 808.16 584.845 808.75 585.363C809.088 585.659 809.121 586.174 808.824 586.512C808.527 586.85 808.012 586.883 807.674 586.586C807.214 586.182 806.681 585.872 806.076 585.519L806.075 585.518C805.969 585.456 805.86 585.393 805.75 585.328Z" fill="white" fill-opacity="0.5"></path><path d="M799.458 587.986C799.038 587.825 798.829 587.354 798.99 586.934C799.152 586.515 799.623 586.305 800.043 586.466C800.755 586.74 801.269 587.091 801.781 587.441L801.781 587.442C801.821 587.469 801.861 587.496 801.901 587.523C801.911 587.53 801.922 587.538 801.933 587.545C801.94 587.55 801.948 587.555 801.955 587.56C802.327 587.813 802.424 588.319 802.171 588.691C801.918 589.063 801.411 589.16 801.039 588.907C801.032 588.902 801.024 588.897 801.017 588.892C800.986 588.871 800.955 588.85 800.924 588.829L800.87 588.792C800.345 588.434 799.984 588.188 799.458 587.986Z" fill="white" fill-opacity="0.5"></path><path d="M733.795 606.887C733.395 606.682 733.236 606.192 733.441 605.791C733.646 605.391 734.137 605.232 734.537 605.437C734.914 605.629 735.268 605.844 735.598 606.044L735.727 606.122C736.111 606.354 736.235 606.855 736.002 607.24C735.769 607.625 735.268 607.748 734.883 607.515L734.751 607.436C734.416 607.233 734.115 607.05 733.795 606.887Z" fill="white" fill-opacity="0.5"></path><path d="M757.727 601.951C757.384 601.661 757.342 601.147 757.633 600.804C757.924 600.461 758.438 600.418 758.781 600.709L759.482 601.303C759.825 601.594 759.867 602.108 759.576 602.451C759.285 602.794 758.77 602.836 758.427 602.545L757.727 601.951Z" fill="white" fill-opacity="0.5"></path><path d="M812.532 588.414C812.323 588.016 812.475 587.523 812.873 587.313C813.271 587.104 813.764 587.256 813.974 587.654L815.261 590.093C815.471 590.491 815.318 590.983 814.92 591.193C814.522 591.403 814.029 591.251 813.819 590.853L812.532 588.414Z" fill="white" fill-opacity="0.5"></path><path d="M749.197 605.857C748.785 605.677 748.596 605.197 748.776 604.785C748.956 604.373 749.436 604.184 749.848 604.364C750.228 604.529 750.586 604.704 750.945 604.896C751.341 605.108 751.491 605.601 751.278 605.998C751.066 606.394 750.572 606.544 750.175 606.332C749.852 606.159 749.533 606.003 749.197 605.857Z" fill="white" fill-opacity="0.5"></path><path d="M707.101 616.92C707.213 616.484 707.657 616.222 708.093 616.334C708.529 616.446 708.791 616.89 708.679 617.326C708.54 617.863 708.389 618.398 708.241 618.923L708.241 618.925L708.24 618.927C708.205 619.053 708.169 619.177 708.135 619.301C708.013 619.734 707.563 619.987 707.13 619.866C706.697 619.745 706.444 619.295 706.566 618.862C706.602 618.732 706.638 618.604 706.674 618.475L706.675 618.474C706.822 617.951 706.967 617.437 707.101 616.92Z" fill="white" fill-opacity="0.5"></path><path d="M716.479 614.814C716.687 614.416 717.18 614.261 717.578 614.469C717.977 614.677 718.132 615.168 717.924 615.567C717.63 616.13 717.3 616.63 716.861 617.116C716.559 617.45 716.044 617.476 715.71 617.174C715.376 616.873 715.35 616.358 715.652 616.024C715.983 615.658 716.238 615.277 716.479 614.814Z" fill="white" fill-opacity="0.5"></path><path d="M786.249 597.921C785.468 597.906 784.836 597.911 784.206 598.08C783.771 598.196 783.324 597.939 783.208 597.504C783.092 597.07 783.35 596.624 783.784 596.507C784.661 596.272 785.506 596.278 786.28 596.293C786.73 596.301 787.088 596.672 787.079 597.122C787.071 597.572 786.699 597.929 786.249 597.921Z" fill="white" fill-opacity="0.5"></path><path d="M818.909 589.507C818.691 589.114 818.833 588.618 819.226 588.4C819.62 588.181 820.116 588.323 820.334 588.716C820.835 589.617 821.205 590.49 821.576 591.391C821.747 591.807 821.548 592.283 821.132 592.454C820.716 592.625 820.24 592.426 820.069 592.011C819.7 591.116 819.36 590.319 818.909 589.507Z" fill="white" fill-opacity="0.5"></path><path d="M799.881 594.401C799.764 593.967 800.022 593.52 800.457 593.404C800.892 593.287 801.338 593.545 801.455 593.979L802.193 596.734C802.309 597.168 802.051 597.615 801.616 597.731C801.182 597.848 800.735 597.59 800.619 597.156L799.881 594.401Z" fill="white" fill-opacity="0.5"></path><path d="M771.833 601.823C772.045 601.426 772.539 601.276 772.936 601.487C773.333 601.699 773.483 602.192 773.271 602.589C773.044 603.015 772.814 603.438 772.584 603.86C772.368 604.255 771.873 604.401 771.478 604.186C771.083 603.971 770.938 603.476 771.153 603.081C771.382 602.662 771.609 602.243 771.833 601.823Z" fill="white" fill-opacity="0.5"></path><path d="M743.777 610.777C743.581 610.373 743.75 609.886 744.155 609.689C744.56 609.493 745.047 609.662 745.244 610.067C745.449 610.491 745.644 610.921 745.834 611.34C745.846 611.366 745.858 611.392 745.869 611.417C745.889 611.46 745.908 611.503 745.928 611.546L745.968 611.636C746.155 612.045 745.974 612.528 745.564 612.714C745.154 612.9 744.671 612.72 744.485 612.31C744.438 612.207 744.392 612.105 744.346 612.004C744.157 611.586 743.973 611.18 743.777 610.777Z" fill="white" fill-opacity="0.5"></path><path d="M806.798 595.496C806.653 595.07 806.88 594.608 807.306 594.462C807.732 594.317 808.195 594.545 808.34 594.97L808.933 596.71C809.078 597.136 808.85 597.598 808.424 597.743C807.998 597.889 807.536 597.661 807.39 597.235L806.798 595.496Z" fill="white" fill-opacity="0.5"></path><path d="M729.375 615.455C729.742 615.195 730.251 615.281 730.511 615.648C730.772 616.014 730.685 616.522 730.318 616.783C729.811 617.143 729.307 617.506 728.805 617.872C728.442 618.138 727.932 618.059 727.667 617.696C727.401 617.333 727.481 616.823 727.844 616.558C728.352 616.187 728.862 615.82 729.375 615.455Z" fill="white" fill-opacity="0.5"></path><path d="M764.882 607.434C764.793 606.993 765.079 606.564 765.52 606.475C765.962 606.387 766.391 606.672 766.48 607.113C766.558 607.503 766.636 607.934 766.713 608.356L766.713 608.357C766.777 608.704 766.839 609.044 766.898 609.349C766.984 609.791 766.696 610.219 766.254 610.305C765.813 610.391 765.385 610.103 765.299 609.662C765.225 609.286 765.164 608.945 765.103 608.611L765.103 608.609C765.033 608.225 764.965 607.848 764.882 607.434Z" fill="white" fill-opacity="0.5"></path><path d="M793.032 599.59C793.124 599.15 793.556 598.868 793.996 598.96C794.437 599.053 794.719 599.484 794.626 599.924C794.582 600.136 794.62 600.323 794.714 600.711L794.718 600.729C794.804 601.084 794.935 601.625 794.764 602.249C794.646 602.683 794.198 602.939 793.763 602.821C793.329 602.703 793.074 602.255 793.192 601.821C793.243 601.634 793.219 601.462 793.13 601.094L793.116 601.037C793.033 600.699 792.907 600.183 793.032 599.59Z" fill="white" fill-opacity="0.5"></path><path d="M757.148 610.874C756.916 610.488 757.042 609.988 757.428 609.756C757.814 609.525 758.314 609.65 758.545 610.036L759.198 611.123C759.429 611.509 759.304 612.009 758.918 612.24C758.532 612.472 758.031 612.347 757.8 611.961L757.148 610.874Z" fill="white" fill-opacity="0.5"></path><path d="M719.035 623.913C719.189 623.49 719.657 623.272 720.08 623.426C720.503 623.58 720.721 624.047 720.567 624.469L720.062 625.856C719.908 626.278 719.44 626.496 719.017 626.343C718.594 626.189 718.376 625.722 718.53 625.299L719.035 623.913Z" fill="white" fill-opacity="0.5"></path><path d="M814.191 599.836C814.147 599.389 814.475 598.991 814.923 598.947C815.371 598.904 815.769 599.231 815.813 599.679L816.099 602.64C816.143 603.087 815.815 603.485 815.367 603.529C814.919 603.572 814.521 603.245 814.477 602.797L814.191 599.836Z" fill="white" fill-opacity="0.5"></path><path d="M738.1 621.836C737.839 621.47 737.924 620.961 738.29 620.7C738.656 620.438 739.165 620.523 739.426 620.889C739.874 621.514 740.187 622.142 740.44 622.845C740.592 623.268 740.372 623.735 739.948 623.887C739.525 624.039 739.058 623.819 738.906 623.396C738.697 622.816 738.45 622.325 738.1 621.836Z" fill="white" fill-opacity="0.5"></path><path d="M753.456 617.913C753.366 617.472 753.651 617.042 754.092 616.952C754.533 616.862 754.963 617.147 755.053 617.587C755.142 618.028 755.214 618.461 755.279 618.895C755.344 619.339 755.037 619.753 754.592 619.819C754.147 619.885 753.732 619.578 753.667 619.133C753.605 618.718 753.538 618.316 753.456 617.913Z" fill="white" fill-opacity="0.5"></path><path d="M708.808 629.994C708.735 629.55 709.036 629.131 709.48 629.058C709.924 628.985 710.343 629.285 710.416 629.729C710.478 630.1 710.541 630.471 710.604 630.844L710.604 630.847L710.627 630.982C710.703 631.425 710.404 631.846 709.96 631.921C709.517 631.997 709.096 631.698 709.021 631.255L708.998 631.12C708.934 630.747 708.87 630.371 708.808 629.994Z" fill="white" fill-opacity="0.5"></path><path d="M798.246 606.991C798.288 606.543 798.686 606.215 799.134 606.257C799.581 606.299 799.91 606.696 799.868 607.144L799.72 608.707C799.677 609.155 799.28 609.483 798.832 609.441C798.384 609.399 798.055 609.002 798.097 608.554L798.246 606.991Z" fill="white" fill-opacity="0.5"></path><path d="M822.943 601.288C822.913 600.84 823.252 600.451 823.701 600.42C824.15 600.389 824.538 600.728 824.569 601.177C824.645 602.293 824.633 603.367 824.531 604.48C824.49 604.928 824.094 605.258 823.646 605.217C823.197 605.176 822.868 604.78 822.909 604.332C823.003 603.306 823.014 602.319 822.943 601.288Z" fill="white" fill-opacity="0.5"></path><path d="M786.279 611.19C786.681 610.986 787.171 611.146 787.374 611.547C787.578 611.948 787.417 612.438 787.016 612.642C786.171 613.07 785.342 613.414 784.496 613.751C784.078 613.917 783.604 613.713 783.438 613.296C783.272 612.878 783.476 612.404 783.894 612.238C784.728 611.906 785.502 611.584 786.279 611.19Z" fill="white" fill-opacity="0.5"></path><path d="M701.723 636.253C701.66 635.808 701.97 635.396 702.415 635.332C702.861 635.269 703.273 635.579 703.336 636.024C703.412 636.556 703.452 637.088 703.49 637.588L703.49 637.597C703.492 637.618 703.494 637.638 703.495 637.659C703.5 637.72 703.504 637.78 703.509 637.84C703.555 638.425 703.605 638.971 703.71 639.509C703.797 639.95 703.509 640.378 703.067 640.464C702.625 640.55 702.197 640.262 702.111 639.821C701.987 639.184 701.93 638.558 701.884 637.967C701.877 637.878 701.871 637.79 701.864 637.703C701.826 637.201 701.79 636.728 701.723 636.253Z" fill="white" fill-opacity="0.5"></path><path d="M807.222 607.861C807.249 607.412 807.635 607.07 808.085 607.097C808.534 607.124 808.876 607.51 808.849 607.959C808.781 609.095 808.609 610.064 808.377 611.117C808.281 611.557 807.846 611.834 807.406 611.738C806.967 611.641 806.689 611.207 806.786 610.768C807.008 609.76 807.161 608.882 807.222 607.861Z" fill="white" fill-opacity="0.5"></path><path d="M717.034 632.288C717.139 631.851 717.579 631.581 718.017 631.686C718.454 631.791 718.724 632.23 718.619 632.667C718.496 633.178 718.395 633.684 718.304 634.206C718.226 634.649 717.804 634.946 717.361 634.868C716.917 634.791 716.621 634.369 716.698 633.926C716.794 633.379 716.902 632.838 717.034 632.288Z" fill="white" fill-opacity="0.5"></path><path d="M729.607 628.725C729.832 628.335 730.33 628.202 730.72 628.427C731.11 628.651 731.243 629.149 731.018 629.539L730.291 630.797C730.066 631.187 729.568 631.32 729.178 631.096C728.788 630.871 728.655 630.373 728.88 629.983L729.607 628.725Z" fill="white" fill-opacity="0.5"></path><path d="M747.826 624.27C747.861 623.822 748.252 623.486 748.701 623.52C749.15 623.555 749.486 623.946 749.451 624.394C749.397 625.102 749.301 625.802 749.209 626.478L749.195 626.582C749.18 626.696 749.164 626.81 749.149 626.923C749.09 627.369 748.681 627.682 748.234 627.623C747.788 627.564 747.475 627.155 747.534 626.709C747.555 626.553 747.576 626.399 747.596 626.247L747.597 626.242C747.689 625.569 747.776 624.926 747.826 624.27Z" fill="white" fill-opacity="0.5"></path><path d="M763.869 620.213C764.008 619.785 764.468 619.551 764.896 619.69C765.324 619.829 765.558 620.288 765.419 620.716C765.186 621.43 764.963 622.147 764.74 622.87C764.607 623.3 764.151 623.541 763.721 623.409C763.291 623.276 763.05 622.821 763.183 622.391C763.406 621.666 763.633 620.939 763.869 620.213Z" fill="white" fill-opacity="0.5"></path><path d="M840.3 601.319C839.851 601.356 839.458 601.023 839.421 600.575C839.384 600.127 839.717 599.734 840.166 599.696C841.535 599.583 842.872 599.573 844.2 599.564L844.498 599.562C844.948 599.558 845.315 599.92 845.319 600.37C845.322 600.819 844.96 601.187 844.51 601.19L844.224 601.192C842.883 601.202 841.605 601.211 840.3 601.319Z" fill="white" fill-opacity="0.5"></path><path d="M793.979 614.917C794.291 614.593 794.807 614.584 795.131 614.896C795.455 615.208 795.464 615.723 795.152 616.047C794.59 616.63 794.146 617.245 793.646 617.936C793.545 618.076 793.442 618.22 793.334 618.366C793.069 618.73 792.559 618.809 792.196 618.544C791.832 618.279 791.753 617.77 792.018 617.407C792.114 617.275 792.21 617.142 792.307 617.008C792.807 616.314 793.329 615.591 793.979 614.917Z" fill="white" fill-opacity="0.5"></path><path d="M854.802 600.012C854.395 599.82 854.221 599.335 854.413 598.928C854.605 598.521 855.09 598.347 855.497 598.539L857.381 599.426C857.788 599.617 857.963 600.103 857.771 600.509C857.579 600.916 857.093 601.091 856.686 600.899L854.802 600.012Z" fill="white" fill-opacity="0.5"></path><path d="M711.615 637.465C711.664 637.018 712.066 636.695 712.513 636.744C712.961 636.793 713.284 637.194 713.235 637.641C713.119 638.706 713.349 639.723 713.667 640.912C713.784 641.346 713.526 641.792 713.091 641.909C712.656 642.025 712.21 641.768 712.093 641.333C711.775 640.146 711.462 638.863 711.615 637.465Z" fill="white" fill-opacity="0.5"></path><path d="M817.005 611.65C817.171 611.232 817.645 611.028 818.063 611.194C818.482 611.36 818.686 611.834 818.519 612.252C818.135 613.218 817.701 614.145 817.275 615.058L817.156 615.313C816.966 615.72 816.481 615.897 816.073 615.707C815.666 615.517 815.489 615.033 815.679 614.625L815.796 614.375C816.226 613.455 816.639 612.57 817.005 611.65Z" fill="white" fill-opacity="0.5"></path><path d="M756.859 629.906C757.123 629.542 757.633 629.46 757.997 629.724C758.361 629.988 758.443 630.497 758.179 630.861L757.285 632.094C757.021 632.459 756.512 632.54 756.147 632.276C755.783 632.013 755.702 631.504 755.966 631.139L756.859 629.906Z" fill="white" fill-opacity="0.5"></path><path d="M836.054 610.244C835.605 610.227 835.254 609.848 835.271 609.399C835.288 608.95 835.667 608.599 836.116 608.616C837.246 608.659 838.324 608.762 839.421 608.892C839.868 608.946 840.187 609.351 840.133 609.797C840.08 610.244 839.675 610.563 839.228 610.51C838.154 610.382 837.124 610.284 836.054 610.244Z" fill="white" fill-opacity="0.5"></path><path d="M866.395 601.792C866.057 601.495 866.023 600.981 866.321 600.643C866.618 600.305 867.133 600.272 867.471 600.569L868.796 601.732C869.134 602.029 869.167 602.544 868.87 602.881C868.572 603.219 868.058 603.252 867.72 602.956L866.395 601.792Z" fill="white" fill-opacity="0.5"></path><path d="M724.115 640.154C724.044 639.71 724.346 639.292 724.79 639.22C725.234 639.148 725.652 639.45 725.724 639.893C725.84 640.613 725.965 641.242 726.19 641.862C726.344 642.285 726.126 642.752 725.703 642.906C725.28 643.059 724.812 642.841 724.659 642.419C724.379 641.65 724.236 640.897 724.115 640.154Z" fill="white" fill-opacity="0.5"></path><path d="M744.01 634.445C744.207 634.04 744.695 633.872 745.099 634.068C745.504 634.265 745.673 634.752 745.476 635.156L744.835 636.475C744.638 636.879 744.15 637.048 743.746 636.852C743.341 636.655 743.172 636.168 743.369 635.764L744.01 634.445Z" fill="white" fill-opacity="0.5"></path><path d="M808.152 617.266C808.517 617.002 809.026 617.083 809.29 617.447C809.555 617.811 809.473 618.32 809.109 618.584C808.798 618.81 808.457 619.063 808.111 619.32L808.11 619.321C807.707 619.62 807.297 619.925 806.919 620.197C806.554 620.459 806.045 620.376 805.782 620.012C805.519 619.647 805.602 619.138 805.968 618.875C806.373 618.584 806.739 618.311 807.111 618.035C807.443 617.787 807.78 617.537 808.152 617.266Z" fill="white" fill-opacity="0.5"></path><path d="M847.855 608.377C847.509 608.09 847.461 607.576 847.748 607.23C848.036 606.884 848.549 606.836 848.896 607.123C849.594 607.702 850.201 608.338 850.783 608.949C850.897 609.069 851.011 609.188 851.124 609.305C851.436 609.629 851.426 610.144 851.101 610.456C850.777 610.768 850.261 610.758 849.949 610.434C849.825 610.305 849.704 610.179 849.586 610.054C849.004 609.445 848.474 608.889 847.855 608.377Z" fill="white" fill-opacity="0.5"></path><path d="M734.987 638.368C734.973 637.919 735.327 637.543 735.777 637.529C736.227 637.516 736.602 637.869 736.616 638.318L736.655 639.607C736.669 640.057 736.316 640.432 735.866 640.446C735.416 640.46 735.04 640.107 735.027 639.658L734.987 638.368Z" fill="white" fill-opacity="0.5"></path><path d="M780.002 627.689C779.56 627.602 779.274 627.173 779.362 626.732C779.45 626.291 779.879 626.005 780.321 626.092L782.66 626.558C783.101 626.646 783.387 627.075 783.299 627.516C783.211 627.957 782.782 628.243 782.341 628.155L780.002 627.689Z" fill="white" fill-opacity="0.5"></path><path d="M794.171 624.423C794.549 624.18 795.053 624.289 795.297 624.668C795.54 625.046 795.43 625.55 795.052 625.793L792.803 627.238C792.425 627.482 791.92 627.372 791.677 626.994C791.434 626.616 791.543 626.112 791.922 625.869L794.171 624.423Z" fill="white" fill-opacity="0.5"></path><path d="M859.403 608.446C859.081 608.132 859.074 607.616 859.389 607.294C859.703 606.972 860.219 606.966 860.541 607.279L862.871 609.549C863.193 609.863 863.2 610.378 862.886 610.7C862.572 611.023 862.056 611.029 861.733 610.715L859.403 608.446Z" fill="white" fill-opacity="0.5"></path><path d="M707.343 649.019C707.116 648.631 707.247 648.132 707.636 647.906C708.025 647.679 708.524 647.81 708.75 648.198L709.175 648.926C709.401 649.314 709.27 649.813 708.881 650.039C708.493 650.266 707.994 650.135 707.767 649.746L707.343 649.019Z" fill="white" fill-opacity="0.5"></path><path d="M823.187 618.403C823.417 618.017 823.917 617.89 824.304 618.119C824.691 618.349 824.818 618.849 824.588 619.235C824.055 620.13 823.445 620.935 822.854 621.715L822.852 621.718C822.738 621.868 822.625 622.017 822.513 622.165C822.243 622.525 821.732 622.598 821.373 622.328C821.013 622.058 820.94 621.547 821.21 621.188C821.331 621.026 821.451 620.869 821.569 620.713C822.159 619.934 822.706 619.213 823.187 618.403Z" fill="white" fill-opacity="0.5"></path><path d="M716.945 648.546C716.703 648.167 716.814 647.664 717.193 647.421C717.572 647.179 718.076 647.29 718.318 647.668C718.697 648.26 719.081 648.849 719.467 649.441L719.489 649.475C719.735 649.852 719.628 650.356 719.251 650.602C718.874 650.847 718.369 650.741 718.123 650.364L718.101 650.33C717.716 649.739 717.328 649.144 716.945 648.546Z" fill="white" fill-opacity="0.5"></path><path d="M872.656 607.175C872.446 606.777 872.598 606.285 872.996 606.074C873.394 605.864 873.887 606.016 874.097 606.414C874.682 607.521 875.275 608.624 875.87 609.728C876.084 610.124 875.935 610.618 875.539 610.832C875.143 611.045 874.649 610.897 874.436 610.501C873.839 609.396 873.244 608.288 872.656 607.175Z" fill="white" fill-opacity="0.5"></path><path d="M772.718 635.503C772.306 635.322 772.118 634.842 772.299 634.43C772.479 634.018 772.96 633.831 773.372 634.011L775.105 634.77C775.518 634.95 775.705 635.43 775.525 635.842C775.344 636.254 774.863 636.442 774.451 636.261L772.718 635.503Z" fill="white" fill-opacity="0.5"></path><path d="M810.237 624.77C810.543 624.441 811.059 624.422 811.388 624.728C811.718 625.035 811.736 625.55 811.429 625.879C810.271 627.122 809.079 628.128 807.629 629.016C807.245 629.251 806.743 629.131 806.508 628.748C806.273 628.364 806.394 627.863 806.777 627.628C808.089 626.825 809.168 625.917 810.237 624.77Z" fill="white" fill-opacity="0.5"></path><path d="M750.537 642.153C750.402 641.724 750.641 641.267 751.07 641.131C751.499 640.996 751.957 641.234 752.092 641.663L752.603 643.285C752.738 643.713 752.499 644.171 752.07 644.306C751.641 644.441 751.183 644.203 751.048 643.774L750.537 642.153Z" fill="white" fill-opacity="0.5"></path><path d="M724.93 649.666C724.814 649.231 725.072 648.785 725.506 648.668C725.941 648.552 726.388 648.81 726.504 649.244L726.906 650.742C727.022 651.176 726.764 651.623 726.329 651.739C725.895 651.856 725.448 651.598 725.331 651.164L724.93 649.666Z" fill="white" fill-opacity="0.5"></path><path d="M837.205 619.524C837.414 619.126 837.907 618.973 838.305 619.182C838.704 619.391 838.857 619.884 838.647 620.282L837.801 621.889C837.592 622.287 837.099 622.441 836.701 622.231C836.302 622.022 836.149 621.53 836.359 621.132L837.205 619.524Z" fill="white" fill-opacity="0.5"></path><path d="M857.549 615.354C857.382 614.936 857.587 614.462 858.005 614.296C858.423 614.129 858.897 614.333 859.063 614.751C859.437 615.691 859.759 616.627 860.074 617.563C860.217 617.99 859.988 618.451 859.561 618.595C859.134 618.738 858.672 618.509 858.529 618.083C858.216 617.15 857.906 616.249 857.549 615.354Z" fill="white" fill-opacity="0.5"></path><path d="M762.89 641.93C762.449 641.84 762.165 641.41 762.255 640.969C762.345 640.529 762.776 640.245 763.217 640.335L764.674 640.632C765.114 640.723 765.399 641.153 765.308 641.593C765.218 642.034 764.787 642.318 764.347 642.228L762.89 641.93Z" fill="white" fill-opacity="0.5"></path><path d="M868.401 613.226C868.218 612.815 868.404 612.334 868.816 612.151C869.227 611.969 869.708 612.154 869.891 612.565C870.324 613.542 870.56 614.516 870.76 615.485C870.851 615.925 870.567 616.356 870.126 616.447C869.685 616.537 869.254 616.254 869.164 615.813C868.971 614.876 868.762 614.039 868.401 613.226Z" fill="white" fill-opacity="0.5"></path><path d="M736.467 649.305C736.176 648.962 736.218 648.449 736.561 648.157C736.904 647.866 737.418 647.908 737.71 648.251C738.349 649.003 739.027 649.659 739.771 650.378C740.094 650.69 740.103 651.206 739.79 651.529C739.477 651.852 738.961 651.861 738.638 651.549L738.628 651.539C737.896 650.832 737.164 650.124 736.467 649.305Z" fill="white" fill-opacity="0.5"></path><path d="M848.915 619.865C848.923 619.415 849.294 619.057 849.744 619.065C850.194 619.073 850.552 619.443 850.544 619.893C850.525 620.965 850.449 621.997 850.355 623.039C850.315 623.487 849.919 623.818 849.471 623.777C849.022 623.737 848.692 623.342 848.732 622.894C848.825 621.867 848.897 620.88 848.915 619.865Z" fill="white" fill-opacity="0.5"></path><path d="M790.564 636.868C790.126 636.97 789.688 636.698 789.586 636.26C789.484 635.822 789.757 635.384 790.195 635.282C791.058 635.081 791.922 634.884 792.788 634.693C793.228 634.596 793.663 634.873 793.759 635.312C793.856 635.751 793.579 636.186 793.139 636.283C792.28 636.473 791.422 636.669 790.564 636.868Z" fill="white" fill-opacity="0.5"></path><path d="M714.983 658.594C714.652 658.29 714.63 657.775 714.934 657.443C715.238 657.112 715.754 657.089 716.085 657.393L717.505 658.695C717.836 658.999 717.859 659.514 717.554 659.845C717.25 660.177 716.735 660.199 716.403 659.895L714.983 658.594Z" fill="white" fill-opacity="0.5"></path><path d="M746.221 650.982C745.892 650.676 745.874 650.16 746.181 649.831C746.488 649.502 747.004 649.484 747.333 649.791L748.862 651.216C749.191 651.522 749.209 652.038 748.902 652.367C748.596 652.696 748.08 652.714 747.751 652.407L746.221 650.982Z" fill="white" fill-opacity="0.5"></path><path d="M820.01 631.163C820.374 630.898 820.884 630.978 821.148 631.342C821.413 631.705 821.333 632.215 820.969 632.479L819.563 633.502C819.199 633.766 818.689 633.686 818.424 633.322C818.16 632.959 818.24 632.45 818.604 632.185L820.01 631.163Z" fill="white" fill-opacity="0.5"></path><path d="M781.382 643.122C780.951 642.991 780.709 642.536 780.841 642.106C780.973 641.676 781.428 641.434 781.858 641.565L783.696 642.126C784.126 642.258 784.368 642.713 784.237 643.143C784.105 643.573 783.649 643.815 783.219 643.684L781.382 643.122Z" fill="white" fill-opacity="0.5"></path><path d="M723.876 658.956C723.616 658.589 723.703 658.08 724.07 657.821C724.438 657.561 724.946 657.648 725.206 658.015C725.427 658.326 725.657 658.629 725.9 658.941C726.175 659.296 726.111 659.807 725.756 660.083C725.4 660.359 724.888 660.295 724.612 659.94C724.365 659.622 724.117 659.296 723.876 658.956Z" fill="white" fill-opacity="0.5"></path><path d="M756.545 650.913C756.207 650.616 756.174 650.101 756.471 649.763C756.768 649.426 757.283 649.392 757.621 649.689C758.037 650.054 758.465 650.313 758.984 650.626C759.109 650.702 759.24 650.781 759.378 650.866C759.761 651.101 759.88 651.603 759.644 651.986C759.408 652.369 758.906 652.488 758.522 652.252C758.414 652.185 758.301 652.118 758.187 652.049C757.658 651.731 757.08 651.383 756.545 650.913Z" fill="white" fill-opacity="0.5"></path><path d="M734.257 657.545C733.899 657.273 733.829 656.762 734.101 656.404C734.373 656.046 734.885 655.976 735.243 656.248C735.646 656.554 736.045 656.863 736.441 657.169L736.502 657.217C736.858 657.492 736.922 658.003 736.647 658.359C736.371 658.715 735.859 658.78 735.504 658.504L735.442 658.457C735.046 658.15 734.652 657.845 734.257 657.545Z" fill="white" fill-opacity="0.5"></path><path d="M863.259 622.477C863.436 622.063 863.915 621.871 864.329 622.048C864.743 622.224 864.935 622.703 864.758 623.116C864.21 624.396 863.607 625.625 862.979 626.846C862.773 627.246 862.282 627.403 861.881 627.198C861.481 626.992 861.324 626.501 861.529 626.101C862.149 624.897 862.733 623.707 863.259 622.477Z" fill="white" fill-opacity="0.5"></path><path d="M802.661 640.668C802.221 640.764 801.787 640.485 801.692 640.046C801.596 639.606 801.875 639.173 802.315 639.077L804.879 638.519C805.319 638.423 805.753 638.702 805.848 639.141C805.944 639.581 805.665 640.014 805.225 640.11L802.661 640.668Z" fill="white" fill-opacity="0.5"></path><path d="M874.862 620.828C874.951 620.387 875.381 620.102 875.822 620.192C876.263 620.281 876.548 620.711 876.459 621.151C876.199 622.432 875.955 623.714 875.725 625C875.646 625.443 875.223 625.738 874.78 625.659C874.337 625.58 874.042 625.157 874.121 624.715C874.353 623.416 874.599 622.123 874.862 620.828Z" fill="white" fill-opacity="0.5"></path><path d="M844.052 628.994C844.362 628.667 844.878 628.653 845.204 628.962C845.531 629.272 845.545 629.787 845.235 630.114C845.076 630.281 844.914 630.458 844.747 630.64C843.976 631.478 843.107 632.423 842.033 633.086C841.65 633.322 841.148 633.203 840.912 632.821C840.675 632.438 840.794 631.937 841.177 631.7C842.041 631.167 842.724 630.427 843.488 629.6C843.67 629.402 843.857 629.2 844.052 628.994Z" fill="white" fill-opacity="0.5"></path><path d="M773.619 650.8C773.172 650.852 772.768 650.532 772.716 650.085C772.665 649.638 772.986 649.234 773.433 649.183L775.436 648.951C775.883 648.9 776.288 649.22 776.339 649.667C776.39 650.114 776.07 650.518 775.623 650.569L773.619 650.8Z" fill="white" fill-opacity="0.5"></path><path d="M796.838 645.478C797.262 645.327 797.728 645.548 797.879 645.971C798.03 646.395 797.809 646.86 797.385 647.012C796.447 647.346 795.509 647.666 794.568 647.979C794.141 648.12 793.679 647.889 793.538 647.463C793.396 647.036 793.627 646.575 794.054 646.433C794.988 646.123 795.914 645.808 796.838 645.478Z" fill="white" fill-opacity="0.5"></path><path d="M851.764 631.11C852.045 630.759 852.558 630.701 852.909 630.982C853.261 631.263 853.318 631.775 853.037 632.126C852.224 633.143 851.379 634.115 850.464 635.052C850.149 635.374 849.633 635.38 849.311 635.066C848.989 634.752 848.983 634.237 849.298 633.915C850.169 633.022 850.979 632.092 851.764 631.11Z" fill="white" fill-opacity="0.5"></path><path d="M720.458 667.492C720.108 667.21 720.053 666.697 720.335 666.347C720.618 665.997 721.131 665.942 721.481 666.224C721.883 666.547 722.298 666.818 722.766 667.124L722.922 667.226C723.298 667.472 723.403 667.977 723.156 668.353C722.91 668.729 722.405 668.834 722.028 668.588L721.87 668.485C721.411 668.185 720.927 667.869 720.458 667.492Z" fill="white" fill-opacity="0.5"></path><path d="M828.098 639.508C827.653 639.579 827.236 639.276 827.166 638.831C827.095 638.387 827.399 637.97 827.843 637.9L830.152 637.534C830.596 637.464 831.013 637.767 831.084 638.211C831.154 638.655 830.851 639.072 830.406 639.143L828.098 639.508Z" fill="white" fill-opacity="0.5"></path><path d="M746.072 661.781C745.622 661.77 745.267 661.396 745.278 660.946C745.29 660.497 745.664 660.142 746.114 660.153C746.212 660.156 746.311 660.158 746.41 660.16C747.034 660.174 747.689 660.189 748.355 660.264C748.802 660.315 749.124 660.718 749.073 661.165C749.023 661.612 748.619 661.933 748.172 661.883C747.584 661.816 747.009 661.803 746.381 661.788C746.28 661.786 746.177 661.784 746.072 661.781Z" fill="white" fill-opacity="0.5"></path><path d="M732.55 665.854C732.17 665.612 732.058 665.109 732.3 664.73C732.542 664.35 733.045 664.238 733.425 664.48C734.412 665.107 735.356 665.673 736.377 666.126C736.788 666.309 736.973 666.79 736.789 667.201C736.606 667.612 736.125 667.797 735.714 667.614C734.58 667.11 733.553 666.492 732.55 665.854Z" fill="white" fill-opacity="0.5"></path><path d="M763.543 656.753C763.963 656.591 764.435 656.801 764.596 657.221C764.757 657.64 764.547 658.111 764.127 658.273C763.443 658.535 762.797 658.674 762.168 658.81L762.009 658.844C761.569 658.939 761.135 658.66 761.04 658.22C760.945 657.781 761.224 657.348 761.664 657.252L761.803 657.222C762.453 657.082 762.981 656.968 763.543 656.753Z" fill="white" fill-opacity="0.5"></path><path d="M816.06 645.055C815.61 645.053 815.247 644.687 815.249 644.237C815.251 643.787 815.617 643.424 816.067 643.426C816.921 643.43 817.754 643.461 818.621 643.539C819.069 643.579 819.4 643.974 819.36 644.422C819.319 644.87 818.923 645.201 818.475 645.161C817.663 645.088 816.877 645.058 816.06 645.055Z" fill="white" fill-opacity="0.5"></path><path d="M868.79 630.163C869.034 629.785 869.538 629.676 869.916 629.919C870.294 630.163 870.403 630.666 870.16 631.045C869.648 631.838 869.117 632.565 868.553 633.293C868.278 633.649 867.766 633.715 867.41 633.44C867.054 633.165 866.989 632.653 867.264 632.298C867.81 631.592 868.312 630.905 868.79 630.163Z" fill="white" fill-opacity="0.5"></path><path d="M858.198 633.204C858.436 632.822 858.938 632.705 859.32 632.942C859.702 633.18 859.82 633.682 859.582 634.064C859.048 634.921 858.429 635.625 857.765 636.303C857.451 636.625 856.935 636.631 856.613 636.316C856.291 636.002 856.285 635.487 856.6 635.165C857.225 634.526 857.753 633.919 858.198 633.204Z" fill="white" fill-opacity="0.5"></path><path d="M789.775 654.536C789.656 654.567 789.475 654.622 789.248 654.69C789.086 654.738 788.901 654.794 788.699 654.853C788.263 654.98 787.733 655.127 787.369 655.173C786.923 655.23 786.515 654.915 786.458 654.469C786.401 654.022 786.717 653.615 787.164 653.558C787.378 653.531 787.781 653.425 788.243 653.29C788.399 653.244 788.564 653.195 788.721 653.148C788.982 653.069 789.222 652.997 789.368 652.959C789.804 652.847 790.248 653.109 790.361 653.544C790.473 653.98 790.211 654.424 789.775 654.536Z" fill="white" fill-opacity="0.5"></path><path d="M841.136 639.184C841.513 638.939 842.018 639.045 842.264 639.422C842.509 639.799 842.403 640.303 842.026 640.549C841.252 641.052 840.481 641.51 839.685 641.952C839.291 642.17 838.795 642.028 838.577 641.635C838.358 641.242 838.5 640.746 838.894 640.528C839.663 640.101 840.4 639.664 841.136 639.184Z" fill="white" fill-opacity="0.5"></path><path d="M779.209 657.902C779.639 657.769 780.096 658.01 780.228 658.44C780.361 658.869 780.12 659.325 779.69 659.458C778.811 659.729 777.931 659.987 777.054 660.241C776.622 660.366 776.17 660.118 776.045 659.686C775.92 659.254 776.169 658.802 776.601 658.677C777.476 658.423 778.345 658.169 779.209 657.902Z" fill="white" fill-opacity="0.5"></path><path d="M805.046 653.068C804.603 653.147 804.18 652.851 804.102 652.408C804.024 651.966 804.319 651.543 804.763 651.465L807.6 650.963C808.043 650.884 808.466 651.18 808.544 651.622C808.623 652.065 808.327 652.488 807.884 652.566L805.046 653.068Z" fill="white" fill-opacity="0.5"></path><path d="M834.037 647.392C833.587 647.409 833.209 647.058 833.193 646.609C833.176 646.16 833.527 645.782 833.977 645.765C834.118 645.76 834.255 645.755 834.388 645.751L834.392 645.751C835.226 645.723 835.909 645.701 836.672 645.528C837.111 645.429 837.547 645.705 837.646 646.143C837.745 646.582 837.469 647.018 837.03 647.117C836.105 647.326 835.256 647.353 834.428 647.379C834.297 647.383 834.167 647.387 834.037 647.392Z" fill="white" fill-opacity="0.5"></path><path d="M750.564 670.231C750.115 670.266 749.723 669.931 749.687 669.483C749.652 669.035 749.987 668.643 750.436 668.607L750.897 668.571C751.568 668.518 752.231 668.466 752.895 668.405C753.343 668.363 753.74 668.692 753.781 669.14C753.823 669.588 753.493 669.985 753.045 670.026C752.367 670.089 751.688 670.142 751.016 670.195L750.564 670.231Z" fill="white" fill-opacity="0.5"></path><path d="M765.85 665.011C766.186 664.712 766.701 664.743 767 665.079C767.298 665.416 767.267 665.93 766.931 666.229C766.351 666.742 766.105 666.935 765.855 667.125L765.812 667.158C765.6 667.319 765.372 667.492 764.852 667.939C764.51 668.232 763.996 668.192 763.703 667.851C763.41 667.51 763.449 666.996 763.79 666.703C764.346 666.226 764.599 666.034 764.827 665.861L764.868 665.83C765.084 665.665 765.299 665.498 765.85 665.011Z" fill="white" fill-opacity="0.5"></path><path d="M735.846 674.762C735.396 674.746 735.045 674.368 735.062 673.919C735.079 673.47 735.457 673.119 735.906 673.135C737.054 673.177 738.191 673.202 739.336 673.201C739.786 673.201 740.151 673.565 740.152 674.014C740.152 674.464 739.788 674.829 739.338 674.83C738.167 674.831 737.009 674.805 735.846 674.762Z" fill="white" fill-opacity="0.5"></path><path d="M851.845 645.321C852.204 645.05 852.715 645.121 852.986 645.479C853.257 645.838 853.186 646.349 852.827 646.62C852.148 647.133 851.466 647.613 850.761 648.078C850.385 648.326 849.88 648.223 849.632 647.847C849.384 647.472 849.488 646.967 849.863 646.719C850.541 646.272 851.195 645.812 851.845 645.321Z" fill="white" fill-opacity="0.5"></path><path d="M863.435 642.788C863.757 642.474 864.273 642.48 864.587 642.802C864.901 643.123 864.895 643.639 864.573 643.953C864.142 644.374 863.719 644.8 863.291 645.231L863.165 645.358C863.102 645.421 863.039 645.485 862.976 645.548C862.659 645.867 862.143 645.869 861.824 645.552C861.505 645.235 861.503 644.719 861.821 644.4C861.924 644.297 862.027 644.193 862.13 644.089C862.559 643.656 862.994 643.218 863.435 642.788Z" fill="white" fill-opacity="0.5"></path><path d="M826.148 654.626C825.698 654.64 825.323 654.286 825.309 653.837C825.295 653.387 825.649 653.012 826.098 652.998C826.211 652.994 826.321 652.991 826.428 652.988L826.429 652.988C827.319 652.963 828.029 652.943 828.844 652.757C829.283 652.657 829.72 652.931 829.82 653.369C829.92 653.808 829.645 654.244 829.207 654.344C828.226 654.568 827.353 654.592 826.477 654.616C826.367 654.619 826.258 654.622 826.148 654.626Z" fill="white" fill-opacity="0.5"></path><path d="M843.949 652.069C844.358 651.882 844.842 652.061 845.03 652.469C845.217 652.878 845.038 653.361 844.629 653.549C843.952 653.86 843.286 654.108 842.622 654.349C842.199 654.503 841.731 654.285 841.578 653.862C841.424 653.439 841.642 652.972 842.065 652.818C842.727 652.578 843.338 652.35 843.949 652.069Z" fill="white" fill-opacity="0.5"></path><path d="M1076.64 52.2261C1075.89 52.7671 1073.87 54.3266 1072.15 56.1751M1072.15 56.1751C1071.22 57.1827 1070.37 58.2762 1069.86 59.3375M1072.15 56.1751C1075.52 53.8551 1081.23 53.6033 1080.11 58.1144C1079.18 61.8692 1075.63 65.7509 1071.44 63.8766C1069.12 62.8383 1069 61.1342 1069.86 59.3375M1072.15 56.1751C1070.95 57.0054 1070.04 58.1008 1069.86 59.3375M1069.86 59.3375C1069.7 60.4194 1070.09 61.6095 1071.31 62.8251M1029.01 80.9947C1028.02 83.2471 1022.29 92.6281 1028.85 91.846C1031.82 91.4909 1034.5 88.415 1034.94 85.5371C1035.68 80.6619 1028.84 82.853 1027.49 85.5371M985.615 45.4125C983.835 47.5614 977.846 53.3453 981.554 56.4321C984.804 59.1378 988.049 55.8819 989.295 52.9411C992.096 46.3249 984.875 43.0771 982.569 49.9549M986.376 99.9214C984.871 102.981 980.042 111.597 987.137 111.698C991.034 111.753 992.89 107.97 992.89 104.548C992.89 102.07 990.327 100.254 987.899 100.847C985.1 101.529 984.608 105.182 984.092 107.492M1074.7 105.978C1073.69 107.177 1067.58 112.769 1071.74 113.801C1074.93 114.595 1076.59 112.247 1076.9 109.385C1077.12 107.318 1077.05 104.824 1074.7 104.043C1071.05 102.833 1070.36 106.641 1069.37 109.006M1029.78 135.301C1028.68 137.336 1024.06 144.492 1029.78 144.176C1033.32 143.98 1034.97 140.66 1035.4 137.573C1035.76 134.98 1034.84 132.345 1032.23 131.264C1028.49 129.713 1027.62 134.509 1026.73 136.816M1115.05 38.3969C1113.95 40.4319 1109.34 47.587 1115.05 47.2714C1118.6 47.0757 1120.25 43.7553 1120.68 40.6681C1121.04 38.0759 1120.12 35.4408 1117.51 34.3592C1113.76 32.8088 1112.9 37.6048 1112.01 39.911M1121.89 135.172C1121.7 134.975 1121.5 134.775 1121.3 134.573M1121.3 134.573C1118.3 131.606 1114.45 128.397 1112.59 134.162C1111.22 138.406 1112.03 143.722 1117.66 142.574C1119.85 142.129 1124 138.745 1122.78 136.055C1122.43 135.271 1121.91 134.807 1121.3 134.573ZM1121.3 134.573C1119.11 133.736 1115.72 135.829 1114.28 136.686M1042.71 32.2108C1042.51 32.0142 1042.31 31.8137 1042.11 31.6121M1042.11 31.6121C1039.12 28.6449 1035.26 25.4355 1033.4 31.2013C1032.03 35.4452 1032.85 40.7611 1038.48 39.6132C1040.66 39.1677 1044.81 35.7839 1043.6 33.094C1043.24 32.3099 1042.72 31.8463 1042.11 31.6121ZM1042.11 31.6121C1039.92 30.7747 1036.53 32.868 1035.09 33.7249M982.562 159.449C980.328 161.707 975.216 166.664 979.939 169.417C983.075 171.245 985.953 168.432 987.046 165.716C988.203 162.84 989.046 158.413 986.2 156.168C982.417 153.185 980.482 157.725 978.755 160.206M1112.47 83.261C1111.23 84.1324 1103.72 88.2054 1106.55 90.7055C1108.4 92.3453 1111.87 91.4259 1113.15 89.5278C1116.02 85.236 1113.66 79.1553 1109.42 84.7751M1069.37 158.443C1069.73 160.221 1070.07 167.727 1073.6 166.603C1076.47 165.688 1077.78 161.984 1077.62 159.243C1077.5 157.295 1075.95 154.523 1073.51 155.331C1071.2 156.099 1071.13 159.543 1070.89 161.472" stroke="#FFA53A" stroke-width="20" stroke-linecap="round" stroke-linejoin="round"></path><path d="M463.43 264.432L463.43 264.433C463.612 265.568 463.794 266.703 463.973 267.84C464.068 268.445 464.182 269.06 464.296 269.678C464.558 271.1 464.825 272.546 464.889 273.965C465.902 273.954 466.913 274.024 467.916 274.174C468.819 274.198 469.714 274.363 470.57 274.664C470.632 274.703 470.681 274.76 470.712 274.828C470.743 274.896 470.755 274.972 470.745 275.046C470.736 275.121 470.706 275.191 470.659 275.248C470.613 275.305 470.551 275.347 470.482 275.367C469.58 275.426 468.675 275.344 467.796 275.122C467.079 275.032 466.367 274.901 465.664 274.731C467.066 275.183 468.45 275.696 469.812 276.267C469.91 276.328 469.986 276.421 470.029 276.532C470.071 276.642 470.078 276.765 470.048 276.88C470.018 276.995 469.952 277.097 469.862 277.169C469.771 277.241 469.661 277.281 469.547 277.281C469.295 277.224 469.048 277.144 468.809 277.041C468.74 277.041 468.674 277.012 468.626 276.961C468.587 276.92 468.561 276.867 468.553 276.811C468.283 276.693 468.013 276.578 467.741 276.462C466.755 276.04 465.764 275.618 464.829 275.098C465.098 275.386 465.339 275.731 465.566 276.057C465.686 276.229 465.802 276.395 465.916 276.545C466.503 277.265 467.054 278.017 467.568 278.796C467.843 279.249 467.199 279.788 466.851 279.374C466.246 278.596 465.679 277.787 465.152 276.948C465.052 276.799 464.942 276.648 464.829 276.493C464.425 275.94 463.992 275.346 463.911 274.686C463.911 274.631 463.936 274.592 463.972 274.57C463.968 274.562 463.965 274.553 463.963 274.544C463.621 273.112 463.43 271.583 463.241 270.066C463.142 269.274 463.043 268.485 462.924 267.714C462.576 265.469 462.274 263.354 462.056 261.146C462.009 260.661 462.794 260.546 462.872 261.031L462.887 261.026C463.066 262.162 463.248 263.297 463.43 264.432Z" fill="#161A36"></path><path d="M454.726 268.082C454.87 266.001 455.014 263.92 455.059 261.838L455.064 261.849C455.074 261.304 454.279 261.304 454.233 261.849C454.067 263.763 453.911 265.713 453.758 267.605L453.713 268.167C453.667 268.74 453.607 269.322 453.546 269.908C453.387 271.432 453.225 272.984 453.308 274.484C453.309 274.509 453.312 274.533 453.316 274.556C453.273 274.583 453.241 274.633 453.241 274.686C453.241 275.344 453.541 275.988 453.824 276.593C453.888 276.73 453.951 276.865 454.009 276.997C454.119 277.248 454.225 277.501 454.33 277.755C454.62 278.451 454.912 279.149 455.292 279.805C455.542 280.257 456.326 279.941 456.124 279.434C455.834 278.689 455.471 277.985 455.11 277.285C455.011 277.093 454.912 276.901 454.815 276.708C454.746 276.57 454.679 276.429 454.612 276.287C454.452 275.947 454.289 275.601 454.092 275.285C454.924 275.966 455.82 276.575 456.712 277.182C456.973 277.36 457.234 277.537 457.492 277.716C457.496 277.741 457.504 277.764 457.514 277.787C457.536 277.835 457.571 277.875 457.615 277.902C457.849 278.093 458.115 278.237 458.399 278.327C458.51 278.34 458.623 278.315 458.72 278.255C458.816 278.195 458.892 278.104 458.935 277.996C458.978 277.887 458.987 277.767 458.96 277.653C458.932 277.539 458.87 277.437 458.783 277.363C457.654 276.6 456.498 275.883 455.318 275.211C455.746 275.395 456.181 275.562 456.622 275.711C456.844 275.793 457.07 275.887 457.3 275.983C458.025 276.285 458.783 276.599 459.537 276.599C459.616 276.597 459.692 276.568 459.754 276.517C459.816 276.466 459.861 276.395 459.882 276.315C459.903 276.235 459.899 276.15 459.871 276.073C459.842 275.995 459.79 275.93 459.724 275.885C459.116 275.416 458.295 275.193 457.519 274.982C457.294 274.92 457.073 274.86 456.861 274.795C456.031 274.509 455.182 274.288 454.321 274.133C454.492 272.882 454.548 271.598 454.605 270.322C454.633 269.671 454.662 269.021 454.705 268.379L454.726 268.082Z" fill="#161A36"></path><path d="M487.573 214.017C489.829 214.775 492.172 215.209 494.539 215.309C494.95 215.309 495.453 215.276 495.625 214.884C495.859 214.339 495.272 213.859 494.768 213.63C493.374 213.089 491.933 212.691 490.466 212.442C491.682 211.417 494.653 209.596 493.812 208.506C492.97 207.416 488.918 210.763 487.396 213.02" fill="#161A36"></path><path d="M468.976 205.11C460.879 207.535 456.201 213.966 451.76 220.072C448.513 224.536 445.393 228.825 441.157 231.248C436.702 233.797 433.597 233.806 431.121 233.606C425.516 223.793 416.56 211.442 414.487 212.273C413.025 212.863 414.581 215.848 415.655 217.906C415.901 218.378 416.121 218.801 416.274 219.136C415.988 218.831 415.671 218.477 415.335 218.101C413.605 216.165 411.37 213.663 410.191 214.589C408.783 215.696 409.978 219.495 411.329 221.403C409.89 219.67 406.555 217.473 405.578 218.465C404.746 219.311 406.038 222.009 407.029 224.08C407.201 224.439 407.364 224.779 407.505 225.088C405.947 223.218 402.342 220.978 401.137 222.499C399.465 224.611 413.43 238.191 425.186 245.058C427.529 249.704 431.973 254.834 437.905 258.459C448.747 265.082 464.233 264.989 476.383 257.003C487.157 249.922 494.165 237.369 492.508 223.333C490.53 206.67 479.08 203.787 473.453 204.243C473.589 202.933 473.597 201.611 473.474 200.297C473.412 199.616 472.903 198.711 472.352 199.071C472.174 199.219 472.05 199.427 471.999 199.659L470.877 203.153C470.042 201.862 469.114 200.64 468.103 199.496C467.625 198.951 466.866 198.406 466.285 198.814C465.703 199.223 465.885 200.052 466.124 200.679C466.766 202.358 467.74 203.867 468.976 205.11Z" fill="#54C4A6"></path><path d="M467.121 208.975C466.518 209.313 465.952 209.738 465.318 210.016C465.069 210.125 464.913 209.7 465.137 209.569C465.718 209.22 466.378 209.024 466.986 208.735C467.137 208.664 467.272 208.888 467.116 208.975H467.121Z" fill="white"></path><path d="M465.433 212.42C465.179 212.606 464.955 212.832 464.768 213.09C464.607 213.39 464.248 212.927 464.56 212.807C464.828 212.666 465.073 212.482 465.287 212.262C465.391 212.18 465.537 212.322 465.433 212.415V212.42Z" fill="white"></path><path d="M462.95 212.66C462.704 212.692 462.477 212.816 462.311 213.009C462.15 213.183 462.108 213.423 461.957 213.592C461.933 213.616 461.904 213.633 461.871 213.641C461.839 213.65 461.806 213.65 461.774 213.641C461.741 213.632 461.712 213.615 461.688 213.591C461.664 213.568 461.646 213.538 461.635 213.505C461.531 213.183 461.801 212.796 462.025 212.6C462.283 212.375 462.615 212.266 462.95 212.295C462.996 212.295 463.04 212.314 463.073 212.348C463.105 212.382 463.124 212.429 463.124 212.477C463.124 212.526 463.105 212.572 463.073 212.606C463.04 212.641 462.996 212.66 462.95 212.66Z" fill="white"></path><path d="M427.552 235.717C425.994 233.886 424.565 231.934 423.043 230.07C421.521 228.206 419.848 226.445 418.404 224.521C418.362 224.477 418.338 224.417 418.338 224.355C418.338 224.292 418.362 224.233 418.404 224.189C418.446 224.144 418.503 224.12 418.563 224.12C418.622 224.12 418.679 224.144 418.721 224.189C420.461 225.97 422.092 227.866 423.604 229.863C425.108 231.665 426.521 233.548 427.838 235.505C427.947 235.668 427.698 235.87 427.573 235.717H427.552Z" fill="white"></path><path d="M426.368 237.701C424.752 236.132 423.209 234.485 421.651 232.856C420.092 231.226 418.451 229.65 417.048 227.89C417.018 227.858 417.001 227.815 417.001 227.77C417.001 227.725 417.018 227.682 417.048 227.65C417.079 227.618 417.12 227.6 417.162 227.6C417.205 227.6 417.246 227.618 417.277 227.65C418.944 229.143 420.425 230.92 421.952 232.556C423.479 234.191 425.043 235.826 426.518 237.56C426.529 237.57 426.537 237.583 426.542 237.597C426.548 237.611 426.551 237.626 426.551 237.641C426.551 237.657 426.548 237.672 426.542 237.686C426.537 237.7 426.529 237.713 426.518 237.723C426.508 237.734 426.496 237.743 426.483 237.748C426.469 237.754 426.455 237.757 426.44 237.757C426.426 237.757 426.412 237.754 426.398 237.748C426.385 237.743 426.373 237.734 426.362 237.723L426.368 237.701Z" fill="white"></path><path d="M425.427 239.555C421.007 236.698 416.3 233.918 412.44 230.223C412.274 230.065 412.498 229.749 412.685 229.89C414.82 231.471 416.84 233.226 418.986 234.796C421.131 236.366 423.329 237.87 425.542 239.337C425.672 239.424 425.542 239.642 425.422 239.555H425.427Z" fill="white"></path><path d="M490.326 219.948C490.97 221.196 491.459 222.706 490.986 224.096C490.982 224.125 490.968 224.151 490.946 224.169C490.924 224.187 490.897 224.195 490.869 224.191C490.841 224.188 490.816 224.173 490.799 224.15C490.782 224.127 490.775 224.098 490.778 224.069C490.711 222.668 490.742 221.343 490.092 220.089C490.014 219.931 490.238 219.79 490.321 219.948H490.326Z" fill="white"></path><path d="M488.685 222.744C488.643 223.36 488.721 223.987 488.627 224.603C488.586 224.859 488.186 224.799 488.196 224.543C488.196 223.938 488.409 223.349 488.482 222.75C488.482 222.619 488.695 222.613 488.685 222.75V222.744Z" fill="white"></path><path d="M490.446 226.118C490.742 226.663 491.038 227.601 490.617 228.146C490.513 228.282 490.3 228.146 490.3 228.01C490.331 227.758 490.377 227.508 490.44 227.263C490.485 226.907 490.419 226.546 490.253 226.233C490.191 226.102 490.373 225.987 490.44 226.118H490.446Z" fill="white"></path><path d="M429.563 245.093C430.435 245.529 431.459 245.758 432.238 246.385C432.275 246.411 432.302 246.449 432.315 246.494C432.328 246.539 432.325 246.587 432.308 246.63C432.291 246.673 432.26 246.709 432.221 246.731C432.181 246.753 432.136 246.759 432.092 246.75C431.126 246.494 430.316 245.785 429.433 245.327C429.282 245.251 429.433 245.017 429.563 245.087V245.093Z" fill="white"></path><path d="M428.799 241.811C429.052 241.913 429.288 242.058 429.495 242.242C429.516 242.268 429.53 242.3 429.533 242.335C429.536 242.369 429.528 242.403 429.511 242.433C429.495 242.462 429.47 242.486 429.44 242.499C429.41 242.513 429.376 242.516 429.344 242.509C429.096 242.394 428.867 242.236 428.669 242.04C428.655 242.031 428.642 242.02 428.632 242.006C428.622 241.992 428.615 241.976 428.611 241.959C428.607 241.942 428.606 241.924 428.608 241.907C428.611 241.889 428.616 241.873 428.625 241.858C428.633 241.843 428.645 241.83 428.658 241.819C428.671 241.809 428.687 241.801 428.703 241.797C428.719 241.793 428.736 241.792 428.752 241.794C428.769 241.797 428.785 241.803 428.799 241.811Z" fill="white"></path><path d="M427.173 244.542C427.432 244.638 427.672 244.784 427.879 244.973C427.91 245.004 427.929 245.046 427.935 245.09C427.941 245.134 427.932 245.179 427.911 245.218C427.889 245.257 427.856 245.287 427.817 245.304C427.777 245.321 427.733 245.323 427.692 245.311C427.438 245.198 427.207 245.035 427.012 244.831C426.994 244.82 426.979 244.806 426.966 244.788C426.954 244.771 426.945 244.751 426.94 244.73C426.935 244.709 426.934 244.687 426.937 244.666C426.94 244.644 426.947 244.624 426.957 244.605C426.968 244.586 426.982 244.57 426.998 244.557C427.015 244.544 427.034 244.535 427.054 244.53C427.094 244.519 427.137 244.525 427.173 244.548V244.542Z" fill="white"></path><path d="M481.4 214.104C481.247 213.534 481.438 212.98 481.827 212.865C482.215 212.751 482.654 213.119 482.806 213.689C482.959 214.259 482.768 214.813 482.379 214.928C481.991 215.042 481.553 214.674 481.4 214.104Z" fill="#161A36"></path><path d="M425.519 245.696C427.937 250.168 432.243 254.999 437.905 258.459C448.747 265.082 464.233 264.989 476.383 257.003C485.084 251.285 491.328 241.999 492.537 231.245C490.058 230.465 487.176 230.67 484.721 231.64C481.25 233.012 478.368 235.549 475.504 238.07C474.965 238.544 474.426 239.018 473.885 239.484C468.254 244.308 461.895 248.369 454.867 250.315C447.838 252.261 439.282 252.615 432.493 249.922C429.732 248.828 427.359 247.063 425.533 245.706C425.528 245.703 425.524 245.699 425.519 245.696Z" fill="#F2DDCB"></path><path d="M474.288 217.544C474.104 219.498 475.465 221.237 477.326 221.43C479.188 221.623 480.846 220.195 481.029 218.242C481.213 216.288 479.852 214.549 477.991 214.356C476.129 214.164 474.471 215.591 474.288 217.544Z" fill="#F2DDCB"></path><path d="M442.965 256.186C442.342 256.256 441.345 255.978 441.157 255.248C441.151 255.216 441.155 255.183 441.167 255.153C441.18 255.123 441.201 255.098 441.228 255.081C441.255 255.064 441.286 255.057 441.317 255.059C441.348 255.062 441.378 255.074 441.402 255.095C441.604 255.316 441.821 255.522 442.051 255.711C442.328 255.881 442.645 255.964 442.965 255.951C443.106 255.951 443.1 256.164 442.965 256.18V256.186Z" fill="#161A36"></path><path d="M436.799 254.937C435.714 254.499 434.721 253.843 433.874 253.008C433.713 252.85 433.957 252.599 434.113 252.757C434.927 253.569 435.869 254.226 436.898 254.697C437.028 254.757 436.934 254.992 436.799 254.937Z" fill="#161A36"></path><path d="M483.298 243.234C483.048 244.27 482.716 245.627 481.667 246.118C481.506 246.194 481.261 246.02 481.391 245.829C481.651 245.436 482.025 245.137 482.306 244.739C482.685 244.28 482.982 243.754 483.184 243.185C483.191 243.174 483.201 243.165 483.214 243.16C483.226 243.155 483.239 243.154 483.252 243.158C483.265 243.162 483.276 243.169 483.284 243.18C483.292 243.191 483.297 243.204 483.298 243.218V243.234Z" fill="#161A36"></path><path d="M480.83 251.007C480.358 251.59 479.687 252.299 478.908 252.337C478.747 252.337 478.716 252.119 478.83 252.037C479.111 251.836 479.464 251.716 479.765 251.541C480.098 251.353 480.406 251.118 480.68 250.844C480.778 250.74 480.924 250.893 480.835 251.007H480.83Z" fill="#161A36"></path><path d="M474.924 251.847C474.16 252.937 472.846 254.152 471.49 254.147C471.334 254.147 471.246 253.891 471.407 253.814C472.007 253.601 472.597 253.356 473.173 253.079C473.779 252.729 474.319 252.268 474.768 251.716C474.841 251.623 474.996 251.749 474.929 251.847H474.924Z" fill="#161A36"></path><path d="M469.454 257.407C469.106 257.559 468.738 257.654 468.363 257.69C468.331 257.69 468.3 257.678 468.276 257.658C468.251 257.638 468.233 257.609 468.224 257.577C468.216 257.545 468.218 257.511 468.23 257.48C468.242 257.45 468.263 257.424 468.29 257.407C468.643 257.266 469.014 257.184 469.391 257.161C469.42 257.157 469.449 257.164 469.473 257.181C469.498 257.198 469.515 257.223 469.523 257.253C469.53 257.282 469.528 257.313 469.515 257.34C469.502 257.368 469.48 257.389 469.454 257.401V257.407Z" fill="#161A36"></path><path d="M464.529 258.344C462.97 258.72 461.199 259.047 459.62 258.709C459.454 258.677 459.506 258.426 459.656 258.415C461.277 258.301 462.846 258.415 464.467 258.115C464.607 258.115 464.669 258.306 464.529 258.344Z" fill="#161A36"></path><path d="M459.765 261.206C458.981 261.135 458.072 261.277 457.319 261.031C457.272 261.02 457.231 260.991 457.204 260.949C457.177 260.908 457.165 260.857 457.172 260.808C457.178 260.758 457.202 260.712 457.239 260.68C457.276 260.648 457.323 260.631 457.37 260.634C458.145 260.546 458.991 260.873 459.765 260.961C459.911 260.961 459.916 261.222 459.765 261.206Z" fill="#161A36"></path><path d="M453.776 258.753C452.332 258.704 450.916 258.332 449.62 257.663C449.391 257.559 449.62 257.15 449.822 257.303C451.026 258.025 452.375 258.436 453.76 258.502C453.79 258.502 453.819 258.515 453.841 258.537C453.862 258.56 453.874 258.59 453.874 258.622C453.874 258.654 453.862 258.684 453.841 258.707C453.819 258.729 453.79 258.742 453.76 258.742L453.776 258.753Z" fill="#161A36"></path><path d="M447.854 259.571C447.054 259.712 445.932 259.707 445.313 259.064C445.29 259.037 445.276 259.003 445.273 258.968C445.269 258.932 445.277 258.896 445.294 258.865C445.311 258.834 445.338 258.809 445.369 258.795C445.401 258.781 445.436 258.778 445.469 258.786C445.843 258.895 446.176 259.113 446.555 259.216C446.968 259.328 447.398 259.361 447.822 259.314C447.957 259.314 447.994 259.543 447.854 259.565V259.571Z" fill="#161A36"></path><path d="M488.913 235.45C488.799 237.576 488.15 240.013 486.586 241.484C486.409 241.653 486.098 241.435 486.243 241.206C487.386 239.342 488.378 237.723 488.638 235.45C488.638 235.27 488.924 235.259 488.919 235.45H488.913Z" fill="#161A36"></path><path d="M484.628 236.824C484.561 238.035 484.107 239.187 483.339 240.094C483.152 240.307 482.783 240.018 482.955 239.784C483.636 238.894 484.138 237.869 484.43 236.769C484.456 236.655 484.643 236.677 484.633 236.797L484.628 236.824Z" fill="#161A36"></path><path d="M496.69 209.149C498.248 209.989 500.43 207.678 501.116 204.99C502.186 200.815 499.677 197.904 504.643 192.524C506.633 190.371 510.96 189.711 513.589 190.889C514.889 191.512 516.029 192.453 516.913 193.633C517.796 194.812 518.399 196.196 518.669 197.67C518.979 199.022 519.014 200.427 518.773 201.795C518.531 203.162 518.018 204.461 517.267 205.606C516.435 206.915 515.516 208.245 514.254 209.089C509.407 212.327 503.578 212.147 496.591 209.264" fill="#F2DDCB"></path><path fill-rule="evenodd" clip-rule="evenodd" d="M505.194 197.97C506.317 197.691 507.391 197.226 508.374 196.59C508.434 196.578 508.494 196.567 508.555 196.556C508.557 196.575 508.56 196.594 508.565 196.612C508.584 196.685 508.602 196.758 508.62 196.83C508.465 199.12 509.096 201.559 509.781 203.682C509.801 203.746 509.837 203.798 509.88 203.838C510.739 205.067 512.692 205.304 513.698 204.2C514.716 203.083 514.253 200.886 512.84 200.428C511.961 200.143 511.022 200.729 510.594 201.548C510.339 200.452 510.044 199.36 509.751 198.275C509.609 197.747 509.467 197.221 509.33 196.697C509.306 196.601 509.281 196.506 509.256 196.411C509.231 196.314 509.17 196.233 509.087 196.184C509.041 196.157 508.991 196.141 508.94 196.136C508.933 196.101 508.926 196.065 508.918 196.029V196.051C508.908 195.994 508.851 195.966 508.798 195.967C508.719 195.845 508.582 195.762 508.409 195.795C507.158 196.021 505.967 196.527 504.918 197.277C504.847 197.326 504.795 197.399 504.77 197.485C504.745 197.57 504.75 197.661 504.782 197.743C504.815 197.826 504.874 197.893 504.949 197.934C505.024 197.976 505.111 197.988 505.194 197.97ZM510.534 203.412L510.612 204.053C510.58 203.981 510.534 203.917 510.478 203.865C510.456 203.845 510.433 203.826 510.408 203.81C510.45 203.754 510.473 203.678 510.466 203.584L510.458 203.472L510.477 203.47C510.468 203.445 510.46 203.421 510.451 203.396L510.451 203.389C510.478 203.401 510.506 203.408 510.534 203.412Z" fill="#161A36"></path><path d="M472.705 221.387C480.638 224.957 481.573 235.859 478.243 242.853C474.913 249.846 467.464 254.185 459.9 255.728C453.999 256.932 444.638 254.883 438.217 249.225C434.269 245.742 430.835 238.982 430.835 238.982C430.835 238.982 439.24 241.937 448.446 232.872C454.212 227.203 461.209 216.236 472.705 221.387Z" fill="#161A36"></path><path d="M476.716 233.103C476.685 234.058 476.47 234.997 476.084 235.862C475.699 236.728 475.15 237.502 474.472 238.14C474.435 238.178 474.39 238.205 474.34 238.219C474.29 238.233 474.238 238.234 474.188 238.22C474.138 238.206 474.092 238.179 474.056 238.141C474.019 238.103 473.992 238.056 473.978 238.004C473.765 236.757 473.614 235.5 473.526 234.237C473.526 233.888 474.046 233.801 474.113 234.155C474.323 235.404 474.47 236.663 474.555 237.927L474.035 237.709C475.374 236.561 476.233 234.911 476.43 233.109C476.43 232.934 476.7 232.923 476.695 233.109L476.716 233.103Z" fill="#54C4A6"></path><path d="M467.89 236.041C467.37 236.734 466.773 237.377 466.186 238.015C466.129 238.074 466.051 238.108 465.97 238.108C465.89 238.108 465.812 238.074 465.755 238.015C465.476 237.742 465.288 237.384 465.217 236.992C465.146 236.6 465.196 236.194 465.36 235.834C465.511 235.523 466.02 235.741 465.879 236.074C465.774 236.326 465.745 236.605 465.795 236.875C465.845 237.145 465.972 237.392 466.16 237.584H465.729C466.321 236.957 466.929 236.33 467.578 235.763C467.597 235.744 467.618 235.729 467.643 235.718C467.667 235.708 467.692 235.702 467.718 235.702C467.744 235.702 467.77 235.708 467.794 235.718C467.818 235.729 467.84 235.744 467.859 235.763C467.877 235.783 467.892 235.806 467.902 235.831C467.912 235.856 467.917 235.883 467.917 235.91C467.917 235.938 467.912 235.965 467.902 235.99C467.892 236.015 467.877 236.038 467.859 236.058L467.89 236.041Z" fill="#54C4A6"></path><path d="M465.968 225.205C465.079 225.701 464.16 226.11 463.24 226.529C463.199 226.553 463.153 226.564 463.106 226.564C463.059 226.563 463.013 226.55 462.973 226.525C462.932 226.5 462.898 226.465 462.874 226.423C462.85 226.381 462.837 226.333 462.835 226.284C462.803 225.37 462.981 224.461 463.355 223.635C463.5 223.27 464.082 223.597 463.874 223.951C463.483 224.657 463.302 225.469 463.355 226.284L463.012 226.012C463.942 225.608 464.861 225.205 465.822 224.889C465.859 224.883 465.896 224.891 465.927 224.91C465.959 224.929 465.984 224.958 465.998 224.994C466.013 225.029 466.015 225.069 466.006 225.106C465.997 225.143 465.976 225.176 465.947 225.199L465.968 225.205Z" fill="#54C4A6"></path><path d="M455.422 241.481C453.23 241.85 451.004 241.956 448.789 241.797C448.731 241.792 448.676 241.77 448.629 241.734C448.582 241.699 448.546 241.65 448.523 241.594C448.5 241.539 448.492 241.478 448.499 241.417C448.507 241.357 448.529 241.3 448.565 241.252C449.453 240.075 450.544 238.75 451.864 238.102C452.113 237.976 452.383 238.298 452.176 238.521C451.137 239.612 449.963 240.489 449.017 241.721L448.794 241.176C450.996 241.334 453.183 241.236 455.386 241.22C455.552 241.22 455.599 241.498 455.427 241.53L455.422 241.481Z" fill="#54C4A6"></path><path d="M465.417 248.589C463.695 249.601 461.759 250.143 459.786 250.165C459.74 250.163 459.695 250.149 459.655 250.124C459.615 250.099 459.583 250.064 459.56 250.022C459.537 249.98 459.524 249.932 459.524 249.884C459.524 249.835 459.535 249.787 459.557 249.745C459.784 249.181 460.115 248.671 460.533 248.244C460.95 247.817 461.445 247.482 461.989 247.259C462.269 247.156 462.425 247.597 462.186 247.75C461.256 248.254 460.498 249.048 460.015 250.023L459.786 249.603C461.686 249.525 463.557 249.085 465.308 248.306C465.464 248.24 465.557 248.497 465.422 248.584L465.417 248.589Z" fill="#54C4A6"></path><path d="M447.807 248.731C446.301 248.87 444.784 248.651 443.37 248.088C443.326 248.074 443.285 248.049 443.253 248.014C443.22 247.979 443.197 247.936 443.185 247.889C443.173 247.842 443.172 247.792 443.184 247.745C443.196 247.698 443.219 247.654 443.251 247.619C444.056 246.845 445.464 246.185 446.498 246.845C446.54 246.869 446.573 246.907 446.592 246.954C446.611 247 446.614 247.052 446.601 247.1C446.589 247.149 446.561 247.191 446.522 247.221C446.484 247.251 446.436 247.267 446.389 247.265C445.35 247.352 444.503 247.227 443.63 248.017L443.511 247.548C444.896 248.051 446.343 248.342 447.807 248.415C447.847 248.415 447.885 248.432 447.913 248.461C447.941 248.491 447.957 248.531 447.957 248.573C447.957 248.615 447.941 248.655 447.913 248.685C447.885 248.714 447.847 248.731 447.807 248.731Z" fill="#54C4A6"></path><path d="M438.02 242.675C437.28 242.707 436.547 242.518 435.905 242.13C435.724 242.005 435.833 241.634 436.066 241.732C436.686 242.043 437.343 242.265 438.02 242.392C438.191 242.392 438.202 242.686 438.02 242.681V242.675Z" fill="#54C4A6"></path><path d="M453.038 252.143C452.518 252.307 451.666 252.269 451.511 251.598C451.502 251.568 451.502 251.535 451.512 251.504C451.521 251.474 451.539 251.447 451.563 251.428C451.587 251.408 451.617 251.397 451.647 251.395C451.678 251.393 451.708 251.402 451.734 251.418C451.921 251.511 452.077 251.669 452.253 251.773C452.471 251.89 452.721 251.923 452.96 251.865C452.991 251.863 453.022 251.872 453.048 251.89C453.073 251.909 453.092 251.936 453.1 251.968C453.109 251.999 453.107 252.033 453.095 252.063C453.082 252.093 453.06 252.117 453.033 252.132L453.038 252.143Z" fill="#54C4A6"></path><path d="M458.082 232.705C457.864 233.103 457.708 233.534 457.485 233.926C457.261 234.319 457.157 234.684 456.83 234.848C456.803 234.865 456.771 234.874 456.739 234.875C456.707 234.875 456.675 234.867 456.647 234.85C456.619 234.833 456.596 234.809 456.58 234.78C456.563 234.751 456.555 234.718 456.555 234.684C456.555 234.297 456.861 233.975 457.074 233.67C457.287 233.365 457.625 232.951 457.879 232.58C457.898 232.555 457.925 232.539 457.954 232.533C457.984 232.527 458.014 232.533 458.04 232.549C458.066 232.564 458.085 232.59 458.095 232.619C458.105 232.649 458.104 232.682 458.092 232.711L458.082 232.705Z" fill="#54C4A6"></path><path d="M473.105 244.779C472.783 244.997 472.456 245.188 472.113 245.368C471.84 245.553 471.532 245.674 471.209 245.722C471.172 245.722 471.135 245.711 471.104 245.689C471.073 245.667 471.049 245.636 471.035 245.599C471.021 245.563 471.018 245.523 471.026 245.485C471.034 245.446 471.052 245.411 471.079 245.384C471.341 245.136 471.652 244.95 471.989 244.839C472.311 244.692 472.638 244.561 472.976 244.441C473.163 244.376 473.261 244.659 473.105 244.768V244.779Z" fill="#54C4A6"></path><path d="M472.487 226.666C472.248 226.905 471.999 227.287 471.661 227.363C471.626 227.372 471.59 227.37 471.556 227.357C471.522 227.345 471.492 227.322 471.47 227.292C471.448 227.262 471.435 227.226 471.432 227.189C471.429 227.151 471.437 227.113 471.453 227.08C471.604 226.758 472.02 226.584 472.295 226.399C472.328 226.382 472.366 226.378 472.402 226.387C472.438 226.396 472.469 226.417 472.492 226.448C472.514 226.479 472.526 226.516 472.525 226.555C472.524 226.594 472.511 226.631 472.487 226.66V226.666Z" fill="#54C4A6"></path><path fill-rule="evenodd" clip-rule="evenodd" d="M490.888 173.343C488.795 172.913 486.78 172.137 484.921 171.046C484.839 171.034 484.757 171.022 484.675 171.01C484.633 171.005 484.594 170.996 484.557 170.985C484.554 171.025 484.549 171.065 484.54 171.107L484.506 171.267C485.044 175.44 484.021 180.028 482.887 183.954C482.862 184.038 482.823 184.115 482.77 184.182C481.293 186.488 477.685 187.016 475.748 185.116C473.798 183.202 474.46 179.11 477.035 178.254C478.591 177.737 480.31 178.663 481.188 180.042C481.559 178.111 482.002 176.186 482.443 174.268C482.718 173.071 482.992 171.876 483.249 170.684L483.271 170.69C483.351 170.397 483.565 170.262 483.795 170.249C483.808 170.172 483.821 170.095 483.834 170.018C483.847 169.974 483.873 169.936 483.908 169.91C483.944 169.883 483.988 169.869 484.032 169.87C484.056 169.871 484.081 169.876 484.103 169.886C484.201 169.688 484.397 169.556 484.691 169.6C487.072 169.921 489.362 170.77 491.402 172.09C491.534 172.181 491.63 172.316 491.676 172.471C491.722 172.627 491.713 172.793 491.652 172.942C491.591 173.091 491.481 173.212 491.342 173.285C491.202 173.358 491.041 173.379 490.888 173.343ZM481.513 183.509C481.548 183.5 481.582 183.486 481.614 183.469L481.595 183.531L481.629 183.537C481.627 183.608 481.624 183.679 481.622 183.75C481.622 183.91 481.677 184.065 481.779 184.187C481.781 184.19 481.783 184.193 481.785 184.195C481.737 184.229 481.691 184.266 481.648 184.308C481.548 184.406 481.469 184.525 481.416 184.656L481.513 183.509Z" fill="#A5B7C6"></path><path fill-rule="evenodd" clip-rule="evenodd" d="M544.462 210.99C548.588 211.722 552.54 213.263 556.129 215.539L556.276 215.575L556.257 215.621C556.304 215.651 556.351 215.681 556.398 215.712C556.527 215.806 556.621 215.947 556.663 216.11C556.705 216.273 556.694 216.448 556.631 216.605C556.568 216.762 556.456 216.892 556.316 216.971C556.176 217.051 556.016 217.076 555.864 217.042C555.73 217.009 555.596 216.977 555.462 216.943L555.476 217.039C555.657 217.193 555.767 217.446 555.695 217.763C555.665 217.89 555.635 218.018 555.606 218.145C555.983 222.509 554.881 227.246 553.679 231.356C553.632 231.518 553.544 231.639 553.436 231.721C551.866 234.059 548.316 234.641 546.447 232.628C544.539 230.574 545.302 226.287 547.906 225.371C549.511 224.807 551.239 225.821 552.063 227.316C552.532 225.011 553.088 222.72 553.643 220.431C553.889 219.415 554.135 218.399 554.374 217.383L554.423 217.397L554.425 217.389C554.501 217.053 554.723 216.893 554.962 216.871L554.971 216.818C551.341 215.866 547.841 214.424 544.553 212.524C544.446 212.504 544.338 212.484 544.231 212.465C544.227 212.495 544.222 212.527 544.214 212.558C544.185 212.686 544.155 212.813 544.125 212.94C544.503 217.304 543.401 222.041 542.198 226.151C542.152 226.313 542.064 226.434 541.955 226.516C540.386 228.854 536.836 229.436 534.966 227.424C533.058 225.37 533.821 221.082 536.425 220.166C538.03 219.602 539.758 220.616 540.583 222.111C541.052 219.806 541.607 217.515 542.162 215.226C542.409 214.21 542.655 213.194 542.893 212.178L542.943 212.192L542.945 212.184C543.021 211.848 543.243 211.688 543.482 211.666C543.493 211.601 543.504 211.536 543.516 211.471L543.551 211.492C543.564 211.446 543.59 211.405 543.626 211.376C543.66 211.348 543.701 211.332 543.743 211.331C543.895 211.1 544.148 210.939 544.462 210.99ZM552.248 230.964C552.306 230.95 552.361 230.927 552.413 230.896L552.388 230.977L552.426 230.983L552.415 231.175C552.403 231.364 552.456 231.516 552.545 231.628C552.484 231.668 552.427 231.716 552.374 231.769C552.272 231.873 552.19 231.998 552.133 232.136L552.248 230.964ZM540.768 225.759C540.825 225.745 540.881 225.722 540.933 225.691L540.908 225.772L540.946 225.778L540.934 225.97C540.923 226.16 540.975 226.311 541.065 226.423C541.003 226.463 540.946 226.511 540.894 226.564C540.792 226.668 540.709 226.793 540.652 226.931L540.768 225.759Z" fill="#A5B7C6"></path><path fill-rule="evenodd" clip-rule="evenodd" d="M541.753 167.919C539.121 168.386 536.599 169.37 534.31 170.822L534.216 170.845L534.227 170.874C534.197 170.894 534.168 170.913 534.138 170.932C534.055 170.993 533.996 171.082 533.969 171.186C533.942 171.29 533.949 171.402 533.989 171.502C534.03 171.603 534.1 171.685 534.19 171.736C534.279 171.787 534.381 171.803 534.479 171.781C534.564 171.76 534.65 171.74 534.735 171.718L534.726 171.779C534.61 171.878 534.54 172.039 534.586 172.241C534.605 172.323 534.624 172.404 534.643 172.485C534.402 175.27 535.105 178.292 535.872 180.914C535.901 181.018 535.957 181.095 536.027 181.147C537.028 182.639 539.293 183.01 540.486 181.726C541.703 180.415 541.217 177.679 539.555 177.095C538.531 176.736 537.429 177.382 536.903 178.337C536.604 176.866 536.249 175.404 535.895 173.944C535.738 173.295 535.581 172.647 535.429 171.998L535.398 172.008L535.396 172.002C535.348 171.788 535.206 171.686 535.054 171.672L535.048 171.638C537.364 171.03 539.597 170.11 541.695 168.898C541.763 168.885 541.832 168.872 541.901 168.86C541.903 168.879 541.906 168.899 541.911 168.92C541.93 169.001 541.949 169.082 541.968 169.163C541.727 171.948 542.43 174.97 543.197 177.593C543.226 177.696 543.282 177.773 543.351 177.825C544.353 179.317 546.617 179.688 547.81 178.404C549.028 177.093 548.541 174.357 546.88 173.774C545.856 173.414 544.753 174.061 544.227 175.015C543.928 173.544 543.574 172.082 543.22 170.622C543.063 169.973 542.906 169.325 542.754 168.677L542.722 168.686L542.721 168.681C542.673 168.467 542.531 168.365 542.379 168.35C542.371 168.309 542.364 168.267 542.357 168.225L542.334 168.239C542.326 168.21 542.309 168.184 542.286 168.165C542.265 168.147 542.239 168.137 542.212 168.136C542.115 167.989 541.954 167.887 541.753 167.919ZM536.785 180.664C536.748 180.655 536.712 180.64 536.679 180.621L536.695 180.673L536.671 180.676L536.678 180.799C536.685 180.92 536.652 181.016 536.595 181.088C536.634 181.113 536.671 181.144 536.704 181.178C536.769 181.244 536.822 181.324 536.858 181.412L536.785 180.664ZM544.109 177.342C544.073 177.333 544.037 177.319 544.004 177.299L544.02 177.351L543.996 177.354L544.003 177.477C544.01 177.598 543.977 177.695 543.92 177.766C543.959 177.792 543.995 177.822 544.029 177.856C544.094 177.922 544.146 178.002 544.183 178.09L544.109 177.342Z" fill="#A5B7C6"></path></svg> 