<?xml version="1.0" encoding="UTF-8"?> <svg xmlns="http://www.w3.org/2000/svg" width="340" height="200" viewBox="0 0 340 200" fill="none"><path d="M34 120C34 64.7715 78.7715 20 134 20H184C239.228 20 284 64.7715 284 120V160C284 171.046 275.046 180 264 180H54C42.9543 180 34 171.046 34 160V120Z" fill="white" fill-opacity="0.2"></path><g clip-path="url(#clip0)"><path d="M161.397 199.966C204.774 199.966 239.937 196.354 239.937 191.899C239.937 187.444 204.774 183.833 161.397 183.833C118.02 183.833 82.8563 187.444 82.8563 191.899C82.8563 196.354 118.02 199.966 161.397 199.966Z" fill="#101010" fill-opacity="0.2"></path><path d="M232.377 146.528C235.08 145.848 237.714 144.656 239.698 142.682C243.769 138.7 244.453 132.437 244.282 126.719C244.111 121.035 243.324 115.112 245.376 109.803C247.531 104.118 253.005 99.8298 259.025 99.0129C259.538 100.749 260.051 102.485 260.564 104.221C256.049 103.88 252.32 108.135 251.294 112.526C250.268 116.916 251.157 121.511 251.397 126.004C251.807 134.343 249.721 142.954 244.658 149.592C238.74 157.318 228.82 161.845 219.037 161.266C215.753 161.062 212.332 160.211 210.04 157.897C207.406 155.242 206.79 150.817 208.603 147.549C209.664 145.677 211.511 144.214 213.563 143.567C216.095 142.784 216.232 143.431 217.976 144.622C222.184 147.447 227.212 147.822 232.377 146.528Z" fill="#F0A23B"></path><path d="M95.3421 150.613C92.195 155.208 90.4504 160.654 86.9954 165.044C86.1403 166.168 85.114 167.189 83.8483 167.801C80.7697 169.231 77.2463 167.631 73.9624 166.678C70.7127 165.759 66.2315 166.134 65.171 169.333C64.3843 171.784 66.1631 174.234 67.8734 176.14C75.2623 184.445 84.6693 192.41 95.821 192.41C99.1049 192.41 102.355 191.695 105.536 190.98C116.653 188.462 127.839 185.569 139.23 185.398C143.54 185.33 147.919 185.671 152.161 184.888C153.255 184.684 154.384 184.377 155.137 183.56C156.368 182.199 155.958 180.055 155.445 178.319C150.861 163.479 141.112 150.272 128.25 141.525C125.65 139.755 122.879 138.121 119.8 137.373C110.701 135.16 100.165 143.635 95.3421 150.613Z" fill="#FDC35C"></path><path d="M107.007 155.037C106.631 160.041 106.699 165.282 108.615 169.843C110.941 175.391 115.832 179.374 121.1 181.552C126.368 183.73 132.115 184.343 137.759 184.786C157.052 186.215 176.551 185.602 195.502 181.416C199.264 180.599 203.062 179.578 206.345 177.434C212.469 173.451 216.026 165.861 217.018 158.203C218.01 150.545 216.745 142.784 215.068 135.262C213.187 126.719 210.792 118.312 207.885 110.075C204.669 100.919 200.599 91.6609 193.62 85.3982C183.563 76.3104 169.333 75.051 156.231 75.7317C150.006 76.0721 143.711 76.7528 137.896 79.2375C133.483 81.1436 128.763 84.8876 127.531 90.0953C126.539 94.3839 127.258 98.0939 125.137 102.178C119.561 113.002 113.917 123.247 110.564 135.228C108.751 141.695 107.486 148.332 107.007 155.037Z" fill="#EFC16F"></path><path d="M110.222 17.0524C107.109 19.9455 102.286 19.4349 98.0445 19.7413C93.8027 20.0476 89.5268 21.4431 86.5507 24.4043C83.5747 27.3655 82.1722 32.1307 83.9168 35.9428C84.4299 37.1 85.2509 38.1892 85.4219 39.4486C85.5929 40.7079 85.1482 41.9332 84.7035 43.1245C82.5827 48.7406 80.2908 54.4247 80.0855 60.4492C79.8803 66.4397 82.138 72.9067 87.3033 76.0381C88.3979 76.6848 89.5952 77.1953 90.4846 78.1483C92.5371 80.3267 91.9555 83.7304 91.6477 86.6916C90.9635 93.601 92.6397 100.749 96.4025 106.637C99.7548 111.913 106.152 116.474 112.035 114.261C115.182 113.07 118.364 110.075 121.408 111.538C122.948 112.287 123.769 113.989 124.624 115.487C130.507 125.664 145.627 129.135 155.41 122.532C156.916 121.511 158.352 120.286 160.131 119.809C163.757 118.856 167.281 121.341 170.735 122.805C175.764 124.915 181.75 124.745 186.539 122.158C191.328 119.571 194.783 114.534 195.194 109.122C202.035 109.7 209.185 107.896 214.453 103.506C219.721 99.115 222.834 92.0694 221.739 85.3301C221.465 83.6963 220.986 82.0285 221.26 80.3607C221.876 77.0251 225.399 75.2212 227.588 72.6344C230.428 69.2647 230.975 64.3975 229.914 60.1089C228.854 55.8202 226.357 52.0422 223.654 48.5704C222.936 47.6514 222.149 46.6984 221.876 45.5411C221.534 44.2137 221.842 42.8522 222.184 41.5248C223.347 36.9639 224.681 32.3349 224.304 27.6378C223.962 22.9407 221.499 18.0735 217.121 16.3036C215.582 15.6909 213.803 15.4186 212.64 14.2273C211.887 13.4785 211.545 12.4234 211.1 11.4703C207.645 3.60785 198.101 -0.919041 189.857 1.32738C184.076 2.89308 178.637 7.35189 172.822 5.95638C169.128 5.03739 166.357 1.90601 162.765 0.612613C160.063 -0.374453 156.95 -0.204269 154.35 1.08913C150.827 2.825 148.603 6.29675 145.251 8.27088C141.043 10.7215 137.246 9.05373 132.765 8.30492C128.934 7.62418 125.308 7.72629 121.511 8.64529C115.696 10.0408 114.225 13.3083 110.222 17.0524Z" fill="#F18736"></path><path d="M184.761 19.2307C189.515 17.0524 195.604 18.3458 199.094 22.1919C202.583 26.0381 203.267 32.1306 200.804 36.7256C200.188 37.8629 199.382 38.9019 198.437 39.795C199.888 41.7924 201.038 43.9963 201.796 46.3921C203.677 52.2804 203.027 58.6793 201.967 64.8059C201.009 70.388 199.709 75.936 197.246 81.0415C191.602 92.7842 179.903 101.123 167.109 103.846C154.316 106.569 140.701 103.914 129.242 97.6174C121.785 93.533 115.046 87.8148 111.146 80.2927C107.989 74.2339 106.958 67.2402 107.851 60.4799C107.501 60.3604 107.145 60.2309 106.781 60.0983C106.324 59.9318 105.854 59.7605 105.365 59.5983C104.684 59.3601 104.025 59.1588 103.388 58.9645C100.568 58.1038 98.1949 57.3797 96.4367 54.1865C93.9396 49.6255 94.8632 43.4989 98.5234 39.7889C102.184 36.0789 108.238 35.0238 112.993 37.2021C114.717 37.9963 116.248 39.1983 117.435 40.6627C131.836 26.2856 160.482 23.3384 178.859 27.5996C179.085 27.0369 179.287 26.4898 179.482 25.9602L179.482 25.9593C180.531 23.1177 181.395 20.7786 184.761 19.2307Z" fill="#FDC35C"></path><path d="M143.643 58.9516C142.104 67.4268 140.77 76.855 145.422 84.1388C146.517 85.8407 147.885 87.3383 149.629 88.3254C151.032 89.1422 152.64 89.5507 154.213 89.9251C159.481 91.1164 165.536 91.4227 169.675 87.951C172.343 85.7045 173.712 82.1987 174.122 78.727C174.84 72.9067 173.301 66.9843 170.599 61.7767C167.931 56.5691 164.168 51.9741 160.268 47.6174C157.668 44.7243 153.119 40.1633 149.116 43.3968C145.08 46.7324 144.533 54.1865 143.643 58.9516Z" fill="#FFE1CA"></path><path d="M190.644 24.1661C193.244 24.7107 195.262 27.2294 195.228 29.8842C195.194 31.0755 194.818 32.1987 194.304 33.2879C193.894 34.2069 193.381 35.0919 192.765 35.9087C192.868 33.6964 191.26 31.6542 189.276 30.7352C187.326 29.8502 185.376 30.1565 183.358 30.0885C183.769 26.5827 186.847 23.3492 190.644 24.1661Z" fill="#FFE1CA"></path><path d="M101.021 48.0258C101.397 45.405 103.826 43.2267 106.494 43.1245C107.691 43.0905 108.854 43.3968 109.949 43.8053C110.907 44.1797 111.796 44.6222 112.651 45.1667C110.428 45.2008 108.478 46.9026 107.691 48.9789C106.904 50.987 107.349 52.8931 107.417 54.9013C103.894 54.697 100.473 51.838 101.021 48.0258Z" fill="#FFE1CA"></path><path d="M177.303 53.0634C178.159 53.8462 179.39 54.1866 180.485 53.9143C181.579 53.608 182.503 52.6209 182.605 51.4977C182.674 50.7489 182.4 50.0001 182.127 49.3193C181.716 48.3323 181.237 47.2771 180.382 46.6645C176.619 43.9756 174.806 50.7829 177.303 53.0634Z" fill="#54413F"></path><path d="M177.782 48.4683C177.303 48.8768 177.064 49.5235 177.166 50.1361C177.235 50.4425 177.372 50.7488 177.68 50.8849C177.953 51.0211 178.33 50.8849 178.569 50.6807C178.808 50.4765 178.945 50.1702 179.082 49.8979C179.356 49.2852 179.527 48.5024 179.014 48.0599C178.569 47.6855 177.748 47.9578 177.645 48.5364L177.782 48.4683Z" fill="white"></path><path d="M126.642 60.1429C127.497 60.9257 128.729 61.2661 129.823 60.9938C130.918 60.6875 131.841 59.7004 131.944 58.5772C132.013 57.8284 131.739 57.0796 131.465 56.3988C131.055 55.4118 130.576 54.3566 129.721 53.744C125.958 51.021 124.145 57.8284 126.642 60.1429Z" fill="#54413F"></path><path d="M127.121 55.5477C126.642 55.9561 126.402 56.6028 126.505 57.2155C126.573 57.5218 126.71 57.8281 127.018 57.9643C127.292 58.1004 127.668 57.9643 127.908 57.7601C128.147 57.5558 128.284 57.2495 128.421 56.9772C128.694 56.3646 128.865 55.5817 128.352 55.1392C127.908 54.7648 127.087 55.0371 126.984 55.6157L127.121 55.5477Z" fill="white"></path><path d="M154.521 72.6004C153.769 72.9407 153.016 73.2811 152.434 73.8597C151.853 74.4043 151.442 75.2552 151.579 76.0381C151.784 77.2634 153.153 77.9782 154.418 78.1143C155.65 78.2845 156.95 78.0803 158.147 78.4887C159.276 78.8631 160.542 79.7141 161.568 79.1014C162.252 78.693 162.457 77.842 163.073 77.3655C163.723 76.855 164.647 76.855 165.399 76.5486C166.22 76.2083 166.836 75.5275 167.315 74.7787C167.623 74.3022 167.896 73.7917 167.896 73.2471C167.93 72.0218 166.802 71.0687 165.639 70.6603C162.115 69.503 157.702 71.1708 154.521 72.6004Z" fill="#54413F"></path><path d="M159.755 76.6508C160.918 79.2036 161.773 81.8584 162.32 84.6154C162.457 85.3302 163.586 85.0238 163.449 84.3091C162.868 81.45 161.978 78.693 160.781 76.0722C160.439 75.3914 159.447 75.9701 159.755 76.6508Z" fill="#54413F"></path><path d="M156.984 84.6494C158.181 85.194 159.447 85.4322 160.747 85.6364C161.876 85.8407 163.005 85.8407 164.133 85.4662C166.186 84.7515 167.759 83.1517 168.58 81.1776C168.717 80.8713 168.444 80.5309 168.17 80.4628C167.828 80.3607 167.588 80.565 167.452 80.8713C166.767 82.471 165.365 83.8665 163.689 84.4111C162.765 84.7174 161.842 84.6834 160.884 84.5132C159.755 84.309 158.592 84.1388 157.566 83.6623C156.881 83.3219 156.3 84.343 156.984 84.6494Z" fill="#54413F"></path><path d="M232.104 150.408C235.319 154.935 237.132 160.381 240.656 164.704C241.545 165.793 242.571 166.848 243.871 167.393C246.984 168.754 250.473 167.12 253.723 166.133C256.973 165.146 261.454 165.453 262.548 168.652C263.369 171.069 261.625 173.553 259.949 175.493C252.697 183.9 243.392 192.001 232.241 192.171C228.957 192.239 225.707 191.559 222.491 190.878C211.34 188.495 200.667 183.798 189.242 183.798C184.932 183.798 179.287 183.9 175.011 183.186C173.917 183.016 173.062 184.411 172.754 184.207C171.317 183.05 171.864 180.735 172.377 178.965C176.722 164.057 186.3 150.715 199.025 141.763C201.591 139.959 204.361 138.291 207.406 137.508C216.505 135.16 227.178 143.499 232.104 150.408Z" fill="#FDC35C"></path><path d="M104.544 192.478C110.907 191.048 116.995 188.598 123.358 187.202C127.463 186.283 131.67 185.841 135.844 185.432C140.633 184.99 145.456 184.615 150.245 184.956C153.734 185.228 157.258 185.875 160.747 185.432C160.713 183.901 160.713 182.369 160.678 180.837C160.678 180.463 160.678 180.054 160.507 179.714C160.063 178.829 158.865 178.727 157.839 178.693C153.221 178.557 148.706 177.297 144.19 176.344C139.675 175.391 134.92 174.745 130.439 175.902C126.676 176.889 123.358 179.033 120.108 181.144C114.84 184.581 109.47 188.019 103.552 190.163C97.7366 192.274 92.2292 192.512 86.2087 191.559C87.3033 193.431 92.8107 193.465 94.7606 193.533C98.0787 193.635 101.363 193.193 104.544 192.478Z" fill="#F0A23B"></path><path d="M218.968 191.899C212.161 190.47 205.661 188.019 198.854 186.624C194.476 185.705 190.234 186.249 185.753 185.875C180.621 185.432 175.696 185.16 170.564 185.5C166.836 185.773 162.594 186.045 158.865 185.568C158.9 184.037 158.9 181.756 158.934 180.259C158.934 179.884 158.934 179.476 159.139 179.135C159.618 178.251 160.918 178.148 161.978 178.114C166.938 177.978 171.728 176.719 176.585 175.766C181.408 174.813 186.505 174.166 191.294 175.323C195.296 176.31 198.854 178.455 202.309 180.565C207.953 184.003 213.666 187.44 219.994 189.585C226.186 191.695 232.104 191.933 238.535 190.98C237.372 192.852 231.454 192.886 229.367 192.954C225.878 193.022 222.355 192.614 218.968 191.899Z" fill="#F0A23B"></path><path d="M66.6078 170.932C67.8734 170.252 69.3786 170.388 70.7811 170.66C80.1881 172.396 88.5006 179.271 91.8871 188.189C92.2976 189.278 92.6055 190.572 91.9213 191.525C91.4082 192.239 90.4504 192.478 89.5952 192.58C83.7457 193.226 78.3067 189.619 74.065 185.602C71.8415 183.492 61.7161 173.519 66.6078 170.932Z" fill="#FFE1CA"></path><path d="M144.19 131.756C143.78 127.399 145.182 123.043 147.474 119.163C145.49 120.388 143.917 122.124 142.993 124.098C141.625 122.668 140.667 120.32 139.196 119.163C138.478 120.66 140.154 124.064 140.804 125.63C141.249 126.719 141.762 127.808 142.377 128.863C142.754 129.578 144.122 130.973 144.19 131.756Z" fill="#F7E9E2"></path><path d="M152.503 148.128C152.092 143.771 153.495 139.414 155.787 135.534C153.803 136.759 152.229 138.495 151.306 140.469C149.937 139.04 148.979 136.691 147.509 135.534C146.79 137.032 148.466 140.435 149.116 142.001C149.561 143.09 150.074 144.179 150.69 145.235C151.066 145.983 152.434 147.345 152.503 148.128Z" fill="#F7E9E2"></path><path d="M170.838 141.831C170.428 137.474 171.83 133.117 174.122 129.237C172.138 130.463 170.564 132.199 169.641 134.173C168.273 132.743 167.315 130.395 165.844 129.237C165.125 130.735 166.802 134.139 167.452 135.704C167.896 136.793 168.409 137.883 169.025 138.938C169.401 139.687 170.77 141.048 170.838 141.831Z" fill="#F7E9E2"></path><path d="M162.184 162.083C161.842 158.509 163.005 154.935 164.886 151.77C163.244 152.791 161.978 154.186 161.192 155.786C160.063 154.595 159.31 152.689 158.079 151.736C157.497 152.961 158.865 155.752 159.379 157.046C159.755 157.931 160.165 158.815 160.644 159.666C161.021 160.313 162.115 161.436 162.184 162.083Z" fill="#F7E9E2"></path><path d="M140.975 157.794C140.633 154.221 141.796 150.647 143.677 147.481C142.07 148.502 140.77 149.898 139.983 151.498C138.854 150.306 138.101 148.4 136.87 147.447C136.288 148.673 137.657 151.464 138.17 152.757C138.546 153.642 138.957 154.527 139.436 155.378C139.812 156.059 140.907 157.182 140.975 157.794Z" fill="#F7E9E2"></path><path d="M178.398 153.642C178.056 150.068 179.219 146.494 181.1 143.329C179.458 144.35 178.193 145.746 177.406 147.345C176.277 146.154 175.525 144.248 174.293 143.295C173.712 144.52 175.08 147.311 175.593 148.605C175.969 149.49 176.38 150.375 176.859 151.226C177.235 151.872 178.364 152.995 178.398 153.642Z" fill="#F7E9E2"></path><path d="M88.1243 107.318C88.3295 107.386 99.9601 97.7876 99.9601 97.7876C99.9601 97.7876 116.277 99.0129 128.592 104.527C140.907 110.041 158.797 121.137 158.797 121.137C158.797 121.137 168.307 111.232 181.203 107.658C194.099 104.084 218.079 97.7876 218.079 97.7876L229.641 105.922C229.641 105.922 174.601 130.429 174.738 130.531C174.84 130.633 141.351 140.742 141.351 140.742L88.1243 107.318Z" fill="#F7E9E2"></path><path d="M83.8484 108.645L86.2429 106.739L149.527 125.017C149.527 125.017 153.426 128.693 159.036 128.965C165.468 129.272 168.204 124.915 168.204 124.915L231.625 105.174L233.301 106.773L177.816 130.088L141.864 136.215L83.8484 108.645Z" fill="#685E61"></path><path d="M83.8484 108.645L148.911 127.297L154.761 182.539L99.5154 157.794L83.8484 108.645Z" fill="#231F20"></path><path d="M233.335 106.739L168.717 127.297L164.886 182.403L219.344 156.263L233.335 106.739Z" fill="#231F20"></path><path d="M148.911 127.298C148.911 127.298 152.366 130.769 158.318 130.633C165.57 130.463 168.717 127.298 168.717 127.298L164.886 182.403C164.886 182.403 164.031 183.969 160.371 183.833C156.71 183.697 154.761 182.539 154.761 182.539L148.911 127.298Z" fill="#4C4446"></path><path d="M152.127 124.404H165.639C165.639 124.404 163.723 127.502 159.139 127.74C155.342 127.91 152.127 124.404 152.127 124.404Z" fill="#685E61"></path><path d="M102.32 100.544C102.731 100.647 120.964 103.608 132.834 108.645C144.704 113.683 154.795 122.6 154.35 122.396C153.905 122.192 140.633 113.07 129.31 108.645C122.503 105.956 97.2577 102.11 97.2577 102.11L102.32 100.544Z" fill="white"></path><path d="M161.26 123.145C161.055 122.873 167.93 114.125 176.859 111.504C185.787 108.85 216.505 100.068 216.505 100.068L219.686 101.532C219.686 101.532 182.434 110.449 177.645 112.083C167.828 115.419 161.26 123.145 161.26 123.145Z" fill="white"></path><path d="M163.997 122.43C163.997 122.43 172.07 115.249 185.342 112.389C198.649 109.53 224.236 103.914 224.236 103.914L226.186 105.174C226.186 105.174 191.363 112.253 186.197 113.377C174.738 115.861 163.997 122.43 163.997 122.43Z" fill="white"></path><path d="M94.6579 105.139C94.6579 105.139 117.098 107.794 127.326 111.606C137.554 115.419 152.879 123.145 152.879 123.145C152.879 123.145 133.894 114.874 124.521 112.083C112.856 108.645 91.3398 106.365 91.3398 106.365L94.6579 105.139Z" fill="white"></path><path d="M96.3341 145.167C97.1209 145.473 98.0103 145.711 98.8312 145.541C99.6864 145.371 100.473 144.758 100.61 143.941C100.747 143.125 100.268 142.342 99.8233 141.661C100.781 140.912 100.952 139.483 100.507 138.359C100.063 137.236 99.1049 136.385 98.1129 135.705C99.4128 134.309 98.6602 131.892 97.1893 130.667C95.7184 129.442 93.8027 128.931 92.0924 128.08C90.382 127.195 88.74 125.63 88.8769 123.724C88.4322 131.076 88.0901 141.899 96.3341 145.167Z" fill="#FDC35C"></path><path d="M222.286 140.708C221.499 141.014 220.61 141.253 219.789 141.082C218.934 140.912 218.147 140.3 218.01 139.483C217.873 138.666 218.352 137.883 218.797 137.202C217.839 136.453 217.668 135.024 218.113 133.901C218.558 132.777 219.515 131.927 220.507 131.246C219.208 129.85 219.96 127.434 221.431 126.208C222.902 124.983 224.818 124.473 226.528 123.622C228.238 122.737 229.88 121.171 229.743 119.265C230.222 126.617 230.53 137.475 222.286 140.708Z" fill="#FDC35C"></path><path d="M261.112 170.286C259.846 169.639 258.341 169.775 256.938 170.081C247.531 171.953 239.356 178.965 236.106 187.917C235.696 189.006 235.422 190.333 236.106 191.252C236.653 191.933 237.577 192.171 238.466 192.273C244.316 192.852 249.721 189.142 253.894 185.058C256.049 182.947 266.038 172.838 261.112 170.286Z" fill="#FFE1CA"></path><path d="M95.6842 146.392C96.4367 146.868 97.2577 147.243 98.1471 147.345C99.0365 147.447 99.9943 147.209 100.644 146.596C101.773 145.541 101.602 143.669 100.918 142.308C102.184 140.129 101.465 137.032 99.3786 135.602C99.9943 133.424 98.5918 130.871 96.4025 130.19C96.9498 131.143 97.3603 132.199 97.2577 133.288C97.1551 134.377 96.4025 135.432 95.3079 135.636C95.9236 136.283 96.5736 136.93 97.0183 137.679C97.463 138.461 97.7024 139.38 97.463 140.231C97.2235 141.082 96.4367 141.831 95.5473 141.831C95.7526 141.967 95.7184 142.308 95.5473 142.478C95.3763 142.648 95.1026 142.716 94.8632 142.716C93.4265 142.818 92.0582 141.899 91.203 140.742C90.4846 139.755 90.1083 138.632 89.7321 137.508C89.9373 140.946 92.9134 144.69 95.6842 146.392Z" fill="#F0A23B"></path><path d="M222.799 142.069C222.047 142.546 221.226 142.92 220.336 143.022C219.447 143.125 218.489 142.886 217.839 142.274C216.71 141.218 216.881 139.346 217.566 137.985C216.3 135.807 217.018 132.709 219.105 131.28C218.489 129.101 219.892 126.549 222.081 125.868C221.534 126.821 221.123 127.876 221.226 128.965C221.328 130.054 222.081 131.11 223.176 131.314C222.56 131.96 221.91 132.607 221.465 133.356C221.021 134.139 220.781 135.058 221.021 135.909C221.26 136.76 222.047 137.508 222.936 137.508C222.731 137.645 222.765 137.985 222.936 138.155C223.107 138.325 223.381 138.393 223.62 138.393C225.057 138.496 226.425 137.577 227.281 136.419C227.999 135.432 228.375 134.309 228.751 133.186C228.512 136.624 225.536 140.368 222.799 142.069Z" fill="#F0A23B"></path><path d="M147.953 22.3961C148.843 22.3961 148.843 21.0347 147.953 21.0347C147.064 21.0347 147.064 22.3961 147.953 22.3961Z" fill="#EFC16F"></path><path d="M156.06 21.8175C156.95 21.8175 156.95 20.4561 156.06 20.4561C155.171 20.4561 155.171 21.8175 156.06 21.8175Z" fill="#EFC16F"></path><path d="M156.368 109.735C157.258 109.735 157.258 108.373 156.368 108.373C155.479 108.373 155.479 109.735 156.368 109.735Z" fill="#EFC16F"></path><path d="M195.194 8.44116C196.049 7.86253 196.938 7.28391 197.828 6.73932C198.136 6.5351 198.273 6.12666 198.067 5.78629C197.862 5.47996 197.452 5.34381 197.11 5.54803C196.254 6.12666 195.365 6.70528 194.476 7.24987C194.168 7.45409 194.031 7.86253 194.236 8.2029C194.441 8.47519 194.886 8.64538 195.194 8.44116Z" fill="#FFF6E6"></path><path d="M154.624 10.6536C154.692 10.109 154.829 9.59842 155 9.08787C155.068 8.84961 155.171 8.57731 155.274 8.33906C155.274 8.30502 155.308 8.27098 155.308 8.27098C155.342 8.20291 155.376 8.13484 155.376 8.1008C155.445 7.96465 155.513 7.82851 155.547 7.7264C155.718 7.42007 155.65 6.97759 155.308 6.77337C155 6.60318 154.555 6.67126 154.35 7.01162C153.803 8.03273 153.461 9.15594 153.29 10.3132C153.255 10.5174 153.255 10.6536 153.358 10.8578C153.367 10.8756 153.378 10.8934 153.39 10.911C153.314 11.2934 153.531 11.7427 154.042 11.7427C154.652 11.7427 154.844 11.1023 154.617 10.6999C154.62 10.6848 154.622 10.6694 154.624 10.6536Z" fill="#FFF6E6"></path><path d="M148.569 21.7155C148.295 19.401 148.227 17.0865 148.364 14.806C148.398 14.4316 148.022 14.1253 147.68 14.1253C147.303 14.1253 147.03 14.4316 146.996 14.806C146.859 17.1205 146.893 19.435 147.201 21.7155C147.235 22.0899 147.474 22.3962 147.885 22.3962C148.227 22.3962 148.637 22.0899 148.569 21.7155Z" fill="#FFF6E6"></path><path d="M156.71 20.9667C156.334 19.4691 156.334 17.9034 156.71 16.4398C156.813 16.0654 156.608 15.691 156.232 15.5889C155.889 15.4868 155.479 15.691 155.376 16.0654C154.932 17.8013 154.932 19.6052 155.376 21.3411C155.479 21.7155 155.855 21.9197 156.232 21.8176C156.608 21.7155 156.813 21.3071 156.71 20.9667Z" fill="#FFF6E6"></path><path d="M167.212 21.6304C166.947 22.1495 166.682 22.6685 166.425 23.1791C166.254 23.5194 165.81 23.5875 165.468 23.4173C165.125 23.2131 165.057 22.7706 165.228 22.4643C165.485 21.9538 165.75 21.4347 166.015 20.9156L166.016 20.9139C166.281 20.3954 166.545 19.877 166.802 19.367C167.007 19.0266 167.452 18.9585 167.759 19.1287C168.101 19.3329 168.17 19.7754 167.999 20.0817C167.743 20.5917 167.478 21.1102 167.213 21.6287L167.212 21.6304Z" fill="#FFF6E6"></path><path d="M164.578 11.9129C164.544 11.6406 164.544 11.3003 164.612 11.028V11.0619C164.612 11.0279 164.612 10.9939 164.647 10.9599C164.647 10.9258 164.655 10.8918 164.664 10.8578C164.672 10.8237 164.681 10.7897 164.681 10.7557C164.686 10.7336 164.692 10.7106 164.698 10.687C164.727 10.5652 164.76 10.4272 164.818 10.3132C164.852 10.2451 164.886 10.177 164.886 10.109C164.886 10.0919 164.895 10.0749 164.903 10.0579C164.912 10.0409 164.92 10.0239 164.92 10.0069C164.989 9.87071 165.057 9.73456 165.126 9.63245C165.16 9.56443 165.202 9.5049 165.245 9.44539C165.288 9.38582 165.331 9.32613 165.365 9.25805C165.378 9.24505 165.386 9.23204 165.393 9.22094C165.404 9.20297 165.412 9.18997 165.433 9.18997C165.458 9.16586 165.478 9.14174 165.496 9.11913C165.53 9.07794 165.56 9.04177 165.604 9.01979C165.844 8.7475 165.878 8.30502 165.604 8.06676C165.331 7.8285 164.886 7.79447 164.647 8.06676C163.655 9.1219 163.141 10.5514 163.21 11.9469C163.244 12.2873 163.518 12.6617 163.894 12.6277C164.236 12.5936 164.578 12.2873 164.578 11.9129Z" fill="#FFF6E6"></path><path d="M176.26 19.9286C175.901 20.4476 175.542 20.9667 175.182 21.4772C174.977 21.7836 174.601 21.9197 174.225 21.7155C173.917 21.5453 173.78 21.0688 173.985 20.7625C174.344 20.2519 174.704 19.7329 175.063 19.2138C175.422 18.6947 175.781 18.1757 176.14 17.6651C176.38 17.3588 176.756 17.2567 177.098 17.4269C177.406 17.597 177.543 18.0736 177.338 18.3799C176.978 18.8904 176.619 19.4095 176.26 19.9286Z" fill="#FFF6E6"></path><path d="M181.853 10.5174C181.921 10.4153 181.99 10.3132 182.092 10.2111C182.105 10.1981 182.113 10.1851 182.12 10.174C182.132 10.156 182.14 10.143 182.161 10.143C182.171 10.1327 182.181 10.1193 182.193 10.1046C182.219 10.0709 182.25 10.0306 182.298 10.0069C182.469 9.80263 182.64 9.59841 182.845 9.42823C182.896 9.37717 182.948 9.33462 182.999 9.29207C183.05 9.24953 183.101 9.20698 183.153 9.15594C183.163 9.14563 183.177 9.13533 183.191 9.12408C183.222 9.10048 183.259 9.07273 183.283 9.03211L183.289 9.02845L183.293 9.02593C183.311 9.01482 183.324 9.00679 183.324 8.98575C183.529 8.81557 183.769 8.67942 184.008 8.54327C184.316 8.37309 184.453 7.93061 184.247 7.59024C184.042 7.28391 183.632 7.14777 183.29 7.35199C182.229 7.96465 181.34 8.81557 180.656 9.83667C180.45 10.143 180.587 10.6195 180.895 10.7897C181.237 10.9599 181.613 10.8237 181.853 10.5174Z" fill="#FFF6E6"></path><path d="M190.268 14.9762C189.832 15.3591 189.396 15.7421 188.968 16.1335C188.694 16.3717 188.284 16.3717 188.01 16.1335C187.737 15.8952 187.737 15.4187 188.01 15.1804C188.438 14.789 188.874 14.4061 189.31 14.0232L189.311 14.0225C189.747 13.6399 190.183 13.2571 190.61 12.8659C190.884 12.6277 191.294 12.5937 191.568 12.8659C191.842 13.1042 191.842 13.5807 191.568 13.819C191.141 14.2102 190.705 14.5929 190.269 14.9756L190.268 14.9762Z" fill="#FFF6E6"></path><path d="M208.945 15.9973C207.269 16.61 205.661 17.4949 204.225 18.5841C203.917 18.8224 203.472 18.6182 203.267 18.3459C203.062 17.9715 203.198 17.6311 203.506 17.3928C205.046 16.2015 206.756 15.3166 208.569 14.6699C208.945 14.5337 209.322 14.806 209.424 15.1464C209.527 15.5208 209.287 15.8612 208.945 15.9973Z" fill="#FFF6E6"></path><path d="M206.517 31.5181C207.286 31.1437 208.065 30.7607 208.843 30.3778C209.621 29.9949 210.399 29.612 211.169 29.2376C211.511 29.0674 211.579 28.5909 211.408 28.2846C211.203 27.9442 210.793 27.8762 210.45 28.0463C209.681 28.4207 208.903 28.8036 208.125 29.1865C207.346 29.5694 206.568 29.9524 205.798 30.3268C205.456 30.497 205.388 30.9735 205.559 31.2798C205.764 31.6202 206.175 31.6883 206.517 31.5181Z" fill="#FFF6E6"></path><path d="M208.808 44.8605C207.338 44.8945 206.038 45.0647 204.635 45.4391C204.259 45.5412 203.883 45.303 203.814 44.9626C203.712 44.5882 203.951 44.2138 204.293 44.1117C205.764 43.7032 207.269 43.499 208.808 43.499C209.185 43.499 209.493 43.8054 209.493 44.1798C209.527 44.5542 209.185 44.8605 208.808 44.8605Z" fill="#FFF6E6"></path><path d="M215.924 35.0579C216.231 34.9898 216.539 34.9218 216.847 34.8877C216.847 34.8877 217.052 34.8537 216.95 34.8877C216.984 34.8877 217.027 34.8792 217.069 34.8707C217.112 34.8622 217.155 34.8537 217.189 34.8537C217.275 34.8537 217.352 34.8452 217.429 34.8367C217.506 34.8282 217.583 34.8197 217.668 34.8197C218.284 34.7856 218.9 34.7856 219.515 34.8537C219.892 34.8877 220.234 34.5133 220.2 34.173C220.165 33.7645 219.892 33.5263 219.515 33.4922C218.181 33.3561 216.847 33.4922 215.582 33.7645C215.239 33.8326 215 34.2751 215.103 34.6154C215.205 34.9218 215.547 35.126 215.924 35.0579Z" fill="#FFF6E6"></path><path d="M219.139 51.0892C218.387 51.0552 217.805 51.0892 217.121 51.2934C216.745 51.3955 216.368 51.1573 216.3 50.851C216.197 50.4766 216.437 50.1022 216.779 50C218.421 49.5235 220.165 49.6937 221.705 50.4425C222.047 50.6127 222.115 51.0892 221.944 51.3955C221.739 51.7359 221.294 51.804 220.986 51.6338C220.969 51.6168 220.944 51.6083 220.918 51.5998C220.892 51.5913 220.867 51.5828 220.85 51.5657C220.812 51.5472 220.795 51.5287 220.793 51.5212C220.763 51.5077 220.73 51.4942 220.696 51.4807L220.68 51.4743L220.665 51.4683C220.656 51.465 220.648 51.4617 220.64 51.4584C220.617 51.4488 220.595 51.4392 220.576 51.4296C220.405 51.3615 220.234 51.2934 220.063 51.2594L219.55 51.1573C219.55 51.1573 219.31 51.1233 219.413 51.1233C219.31 51.0892 219.242 51.0892 219.139 51.0892Z" fill="#FFF6E6"></path><path d="M207.235 61.9129C208.466 62.4575 209.766 62.8319 211.135 62.968C211.511 63.0021 211.853 62.6277 211.819 62.2873C211.785 61.8789 211.511 61.6406 211.135 61.6066C211.083 61.6066 211.041 61.5981 210.998 61.5896C210.955 61.5811 210.912 61.5725 210.861 61.5725C210.758 61.5555 210.793 61.564 210.827 61.5725C210.861 61.581 210.895 61.5896 210.793 61.5725C210.724 61.5555 210.647 61.547 210.57 61.5385C210.493 61.53 210.416 61.5215 210.348 61.5045C210.251 61.4805 210.151 61.4607 210.048 61.4407C209.861 61.4039 209.67 61.3663 209.493 61.3003C209.219 61.2322 208.945 61.1301 208.672 61.028C208.535 60.994 208.398 60.9258 208.261 60.8578C208.261 60.8578 208.056 60.7897 208.193 60.8237C208.159 60.8067 208.116 60.7897 208.073 60.7727C208.03 60.7556 207.987 60.7386 207.953 60.7216C207.611 60.5855 207.201 60.6195 206.995 60.9599C206.824 61.2662 206.893 61.7427 207.235 61.9129Z" fill="#FFF6E6"></path><path fill-rule="evenodd" clip-rule="evenodd" d="M221.61 67.8594C221.345 67.7606 221.079 67.6629 220.781 67.597C220.405 67.529 220.234 67.0865 220.268 66.7802C220.371 66.4058 220.781 66.2356 221.123 66.3036C222.081 66.5079 223.005 66.9844 223.723 67.6651C223.997 67.9034 223.962 68.3459 223.723 68.6182C223.484 68.8904 223.039 68.8564 222.765 68.6182C222.714 68.5672 222.663 68.5246 222.611 68.4821C222.56 68.4396 222.509 68.3969 222.457 68.3459C222.628 68.4819 222.526 68.3801 222.492 68.346C222.475 68.329 222.457 68.3203 222.44 68.3118C222.432 68.3075 222.423 68.3032 222.414 68.2978C222.411 68.2956 222.407 68.2932 222.404 68.2905L222.4 68.2874L222.396 68.2842L222.393 68.2815L222.389 68.2778C222.37 68.2681 222.353 68.2585 222.337 68.2488C222.326 68.2415 222.314 68.2341 222.303 68.2267C222.278 68.2097 222.252 68.1927 222.218 68.1757C222.021 68.064 221.825 67.9522 221.61 67.8594ZM221.559 67.838C221.528 67.8253 221.497 67.8131 221.465 67.8013C221.499 67.8183 221.525 67.8268 221.551 67.8353L221.559 67.838Z" fill="#FFF6E6"></path><path d="M205.832 74.7788L205.833 74.7792C206.791 75.2556 207.748 75.732 208.74 76.2083C209.048 76.3785 209.493 76.3105 209.698 75.9701C209.869 75.6638 209.8 75.1872 209.458 75.0171C208.501 74.5405 207.543 74.064 206.551 73.5875C206.243 73.4173 205.798 73.4854 205.593 73.8258C205.422 74.1321 205.49 74.6086 205.832 74.7788Z" fill="#FFF6E6"></path><path d="M211.921 87.4405C210.929 86.8618 209.972 86.2832 209.014 85.7046C208.706 85.5344 208.603 85.126 208.774 84.7516C208.945 84.4452 209.424 84.3431 209.732 84.5133C210.723 85.0913 211.68 85.6693 212.636 86.2472L212.64 86.2491C212.947 86.4533 213.05 86.8619 212.879 87.2022C212.708 87.5085 212.229 87.6107 211.921 87.4405Z" fill="#FFF6E6"></path><path d="M200.086 90.9463C200.376 91.3718 200.667 91.8059 200.958 92.24C201.249 92.6738 201.539 93.1077 201.83 93.5331C202.035 93.8394 202.446 93.9755 202.788 93.7713C203.096 93.5671 203.233 93.1587 203.027 92.8183C202.737 92.3929 202.446 91.9591 202.155 91.5252C201.864 91.0911 201.574 90.6571 201.283 90.2315C201.078 89.9252 200.667 89.789 200.325 89.9932C200.017 90.1975 199.846 90.6399 200.086 90.9463Z" fill="#FFF6E6"></path><path d="M155.94 110.988C155.846 110.411 155.752 109.835 155.65 109.258C155.582 108.85 155.718 108.509 156.129 108.407C156.471 108.305 156.916 108.543 156.984 108.884C157.087 109.462 157.181 110.041 157.275 110.62C157.369 111.198 157.463 111.777 157.566 112.355C157.634 112.73 157.463 113.07 157.087 113.206C156.745 113.308 156.3 113.07 156.231 112.73C156.129 112.153 156.035 111.576 155.942 111L155.94 110.988Z" fill="#FFF6E6"></path><path d="M165.262 107.42C165.194 107.897 165.194 108.373 165.331 108.85C165.468 109.326 165.707 109.735 166.015 110.109C166.117 110.245 166.357 110.313 166.494 110.313C166.665 110.313 166.87 110.245 166.973 110.109C167.11 109.973 167.178 109.803 167.178 109.632C167.178 109.428 167.11 109.292 166.973 109.156C166.938 109.122 166.904 109.088 166.904 109.054L166.907 109.057L166.909 109.058C166.91 109.06 166.911 109.061 166.913 109.063C166.915 109.065 166.917 109.067 166.918 109.07L166.922 109.075C166.935 109.093 166.948 109.111 166.961 109.13C166.976 109.152 166.992 109.175 167.007 109.19C166.991 109.17 166.976 109.15 166.961 109.13L166.947 109.108L166.939 109.097C166.936 109.093 166.933 109.09 166.931 109.086L166.928 109.081C166.926 109.079 166.924 109.077 166.922 109.075C166.843 108.956 166.778 108.829 166.727 108.713C166.72 108.693 166.712 108.672 166.699 108.645C166.708 108.667 166.717 108.69 166.727 108.713C166.729 108.719 166.731 108.725 166.733 108.73C166.742 108.756 166.75 108.782 166.767 108.816C166.691 108.664 166.653 108.493 166.624 108.331C166.626 108.334 166.628 108.337 166.631 108.339C166.604 108.182 166.598 108.006 166.612 107.84C166.631 107.803 166.631 107.748 166.631 107.692C166.624 107.734 166.618 107.777 166.614 107.82L166.612 107.84C166.608 107.849 166.603 107.856 166.596 107.863V107.794C166.631 107.59 166.631 107.454 166.528 107.25C166.46 107.114 166.289 106.978 166.117 106.944C165.946 106.91 165.741 106.91 165.57 107.012C165.433 107.114 165.297 107.25 165.262 107.42Z" fill="#FFF6E6"></path><path d="M184.658 103.165C184.59 102.893 184.487 102.587 184.384 102.315C184.316 102.144 184.35 101.94 184.453 101.77C184.521 101.634 184.692 101.532 184.863 101.464C184.873 101.464 184.883 101.463 184.893 101.463C184.904 101.462 184.914 101.461 184.924 101.46C184.937 101.459 184.949 101.457 184.96 101.456C185.017 101.448 185.07 101.441 185.137 101.464C185.205 101.464 185.308 101.498 185.376 101.532C185.513 101.634 185.616 101.77 185.684 101.94C185.753 102.212 185.855 102.519 185.958 102.791C186.026 102.995 185.958 103.165 185.889 103.336C185.821 103.472 185.65 103.574 185.479 103.642C185.473 103.642 185.466 103.642 185.46 103.642C185.449 103.643 185.439 103.644 185.429 103.644C185.412 103.646 185.397 103.648 185.382 103.65C185.325 103.657 185.272 103.664 185.205 103.642C185.137 103.642 185.034 103.608 184.966 103.574C184.829 103.472 184.726 103.336 184.658 103.165Z" fill="#FFF6E6"></path><path d="M95.8894 93.8054L95.8911 93.8046L95.8936 93.8032C97.5341 93.0211 99.1748 92.2389 100.815 91.4909C101.157 91.3207 101.226 90.8442 101.055 90.5378C100.85 90.1975 100.439 90.1294 100.097 90.2996C98.455 91.0824 96.813 91.8653 95.1711 92.6141C94.829 92.7843 94.7606 93.2608 94.9316 93.5671C95.1369 93.9075 95.5473 93.9755 95.8894 93.8054Z" fill="#FFF6E6"></path><path d="M111.728 92.3758C111.043 93.6352 110.154 94.7584 109.094 95.7454C108.82 96.0177 108.409 96.0177 108.17 95.7454C107.896 95.5072 107.896 95.0307 108.17 94.7924C108.649 94.3159 109.128 93.8394 109.538 93.2948C109.436 93.3969 109.504 93.2948 109.538 93.2608C109.543 93.2564 109.546 93.2521 109.55 93.2478C109.552 93.245 109.554 93.2421 109.556 93.2393L109.558 93.2359C109.564 93.2272 109.568 93.2185 109.572 93.2097C109.581 93.1927 109.59 93.1757 109.607 93.1587C109.624 93.1246 109.649 93.0906 109.675 93.0566C109.701 93.0225 109.726 92.9885 109.743 92.9544C109.812 92.8183 109.914 92.6822 110.017 92.5461C110.103 92.393 110.188 92.2482 110.274 92.1036C110.359 91.9589 110.445 91.8142 110.53 91.661C110.736 91.3207 111.18 91.2526 111.488 91.4228C111.83 91.627 111.899 92.0695 111.728 92.3758Z" fill="#FFF6E6"></path><path d="M100.986 83.6624C101.192 83.4582 101.397 83.254 101.602 83.0838C101.705 82.9817 101.807 82.8796 101.944 82.8115C101.978 82.7945 102.004 82.7689 102.03 82.7434C102.055 82.7179 102.081 82.6924 102.115 82.6753C102.128 82.6623 102.141 82.6543 102.153 82.6474C102.171 82.6363 102.184 82.6283 102.184 82.6073C102.184 82.6073 102.32 82.5051 102.218 82.5732L102.252 82.5392C102.265 82.5262 102.278 82.5181 102.289 82.5113C102.307 82.5002 102.32 82.4921 102.32 82.4711C102.355 82.4541 102.38 82.4286 102.406 82.403C102.432 82.3775 102.457 82.352 102.491 82.335C102.628 82.2328 102.731 82.1648 102.868 82.0967C103.044 81.9711 103.24 81.8641 103.426 81.7619C103.492 81.7256 103.558 81.6899 103.62 81.6542C103.928 81.484 104.065 81.0075 103.86 80.7012C103.655 80.3949 103.244 80.2587 102.902 80.4629C101.807 81.0756 100.815 81.8244 99.9601 82.7094C99.7207 82.9817 99.6865 83.4241 99.9601 83.6624C100.302 83.9007 100.713 83.9347 100.986 83.6624Z" fill="#FFF6E6"></path><path d="M97.463 71.1028C95.1027 71.5453 92.7081 71.8176 90.3136 71.8857C89.4242 71.8857 89.4242 70.5242 90.3136 70.5242C92.6055 70.4561 94.8632 70.2179 97.0867 69.7754C97.463 69.7073 97.8393 69.8775 97.9419 70.2519C98.0445 70.5923 97.8393 71.0348 97.463 71.1028Z" fill="#FFF6E6"></path><path d="M101.807 70.2519C102.184 70.1498 102.594 70.0477 102.97 69.9796C103.141 69.9456 103.312 69.8094 103.381 69.6733C103.484 69.5371 103.518 69.2989 103.449 69.1287C103.381 68.9585 103.278 68.7883 103.141 68.7203C102.97 68.6181 102.799 68.6181 102.594 68.6522C102.218 68.7543 101.807 68.8564 101.431 68.9245C101.26 68.9585 101.089 69.0947 101.021 69.2308C100.918 69.367 100.884 69.6052 100.952 69.7754C101.021 69.9456 101.123 70.1158 101.26 70.1838C101.431 70.2519 101.602 70.2859 101.807 70.2519Z" fill="#FFF6E6"></path><path d="M91.1004 61.9129C89.1164 62.5936 86.9613 62.6277 84.9431 62.0491C84.0879 61.8108 84.4642 60.4834 85.3194 60.7216C87.0982 61.2322 88.9796 61.1981 90.7241 60.5855C91.1004 60.4493 91.4767 60.7216 91.5793 61.062C91.682 61.4364 91.4425 61.7768 91.1004 61.9129Z" fill="#FFF6E6"></path><path d="M91.1688 57.5562H93.187C93.5633 57.5562 93.9054 57.2499 93.8712 56.8755C93.8712 56.5011 93.5633 56.1947 93.187 56.1947H91.1688C90.7925 56.1947 90.4504 56.5011 90.4846 56.8755C90.5189 57.2499 90.7925 57.5562 91.1688 57.5562Z" fill="#FFF6E6"></path><path d="M90.0741 47.9919C89.561 47.8557 89.0821 47.6175 88.6716 47.2771C88.5348 47.175 88.4664 46.9708 88.5006 46.7665C88.5006 46.5964 88.569 46.4262 88.7058 46.29C88.8085 46.1539 89.0137 46.0858 89.1847 46.0858C89.3731 46.0858 89.5038 46.1718 89.6298 46.2648C89.6553 46.2861 89.6855 46.3118 89.6979 46.3241C89.715 46.3411 89.7406 46.3581 89.7663 46.3751C89.7919 46.3921 89.8176 46.4092 89.8347 46.4262C89.9121 46.4775 89.9895 46.5289 90.0669 46.5656L90.057 46.5623L90.0411 46.557C90.0565 46.5631 90.072 46.5692 90.0875 46.575C90.1059 46.5831 90.1242 46.5903 90.1426 46.5964L90.1341 46.5923C90.3209 46.6594 90.5122 46.7062 90.7241 46.7325C90.7165 46.725 90.7072 46.7191 90.6966 46.7145C90.849 46.7271 91.0092 46.7272 91.1616 46.7146C91.1974 46.6985 91.2448 46.6985 91.2714 46.6985C91.4767 46.6644 91.6477 46.6644 91.8187 46.7665C91.9556 46.8346 92.0582 47.0048 92.1266 47.175C92.195 47.3452 92.1608 47.5834 92.0582 47.7196C91.9898 47.8557 91.8187 47.9919 91.6477 48.0259C91.1346 48.128 90.5873 48.128 90.0741 47.9919Z" fill="#FFF6E6"></path><path d="M90.553 46.6985C90.5998 46.7051 90.6478 46.7105 90.6966 46.7145C90.6595 46.6985 90.6063 46.6985 90.553 46.6985Z" fill="#FFF6E6"></path><path d="M90.1341 46.5923C90.1186 46.5867 90.103 46.5809 90.0875 46.575C90.0807 46.572 90.0738 46.5689 90.0669 46.5656C90.0873 46.5724 90.1082 46.5799 90.1341 46.5923Z" fill="#FFF6E6"></path><path d="M89.6298 46.2648L89.5946 46.2356L89.5904 46.2321L89.5888 46.2307C89.589 46.2306 89.607 46.2449 89.6572 46.2849L89.6584 46.2858L89.6598 46.287L89.661 46.2879L89.6631 46.2896L89.6637 46.29C89.6524 46.2816 89.6411 46.2732 89.6298 46.2648Z" fill="#FFF6E6"></path><path d="M89.561 29.3738C90.7241 30.3608 92.024 31.2117 93.4265 31.8584C93.7685 31.9946 94.179 31.9606 94.3843 31.6202C94.5553 31.3139 94.4869 30.8373 94.1448 30.6672C93.4949 30.3608 92.8449 30.0205 92.2292 29.612C92.1846 29.5824 92.1407 29.5536 92.0975 29.5251C91.8421 29.3571 91.608 29.2031 91.374 28.9994C91.3398 28.9653 91.3056 28.9398 91.2714 28.9143C91.2372 28.8887 91.203 28.8632 91.1688 28.8292C91.1319 28.8047 91.1216 28.7978 91.1218 28.7975C91.1219 28.7973 91.1236 28.7982 91.126 28.7994C91.1346 28.8036 91.1517 28.8122 91.1346 28.7951C91.1004 28.7611 91.0662 28.7271 91.0319 28.7271C90.9635 28.676 90.8866 28.6165 90.8096 28.5569C90.7327 28.4974 90.6557 28.4377 90.5872 28.3867C90.3136 28.1484 89.8689 28.1144 89.6294 28.3867C89.3216 28.659 89.2874 29.1355 89.561 29.3738Z" fill="#FFF6E6"></path><path d="M107.417 28.1825H107.418C107.438 28.2057 107.461 28.2284 107.486 28.2506C109.299 29.8843 111.522 31.0075 113.883 31.5521C114.259 31.6202 114.635 31.45 114.738 31.0756C114.84 30.7352 114.635 30.3268 114.259 30.2247C112.104 29.7482 110.12 28.7271 108.478 27.2635C108.316 27.1345 108.138 27.0895 107.97 27.1037C107.863 26.9382 107.678 26.821 107.417 26.821C106.528 26.787 106.528 28.1825 107.417 28.1825Z" fill="#FFF6E6"></path><path d="M117.919 20.0818C117.569 19.5117 117.218 18.9415 116.859 18.3799C116.653 18.0395 116.79 17.6311 117.098 17.4269C117.44 17.2226 117.851 17.3588 118.056 17.6651C118.415 18.2268 118.766 18.7969 119.116 19.3671L119.117 19.3676L119.117 19.368L119.117 19.3685C119.468 19.9381 119.818 20.5077 120.177 21.0688C120.382 21.4092 120.245 21.8176 119.937 22.0218C119.595 22.2261 119.185 22.0899 118.98 21.7836C118.621 21.2225 118.27 20.6528 117.92 20.0832L117.92 20.0827L117.92 20.0824L117.919 20.0818Z" fill="#FFF6E6"></path><path d="M122.845 31.7223L123.7 32.5732C123.837 32.7094 124.008 32.7774 124.179 32.7774C124.282 32.7774 124.35 32.7774 124.453 32.7094C124.466 32.7028 124.48 32.6963 124.495 32.6895C124.558 32.661 124.63 32.6282 124.658 32.5732C124.795 32.4371 124.863 32.2669 124.863 32.0967C124.863 31.9265 124.795 31.7563 124.658 31.6202L123.803 30.7693C123.666 30.6331 123.495 30.5651 123.324 30.5651C123.221 30.5651 123.153 30.5651 123.05 30.6331C122.948 30.6672 122.879 30.7012 122.845 30.7693C122.708 30.9054 122.64 31.0756 122.64 31.2458C122.64 31.416 122.708 31.5862 122.845 31.7223Z" fill="#FFF6E6"></path><path d="M132.423 26.2424C131.773 25.4936 131.294 24.6086 131.089 23.6216C130.986 23.2472 131.192 22.9068 131.534 22.8047C131.876 22.7026 132.32 22.9408 132.389 23.2812C132.453 23.5694 132.518 23.8578 132.639 24.1461L132.635 24.1355C132.634 24.1308 132.632 24.1263 132.631 24.1217L132.628 24.1151C132.624 24.1032 132.62 24.0914 132.616 24.0787C132.715 24.3007 132.843 24.5228 132.97 24.7448C133.005 24.7958 133.047 24.8554 133.09 24.915C133.133 24.9746 133.176 25.0341 133.21 25.0851C133.21 25.1022 133.218 25.1107 133.227 25.1192C133.235 25.1277 133.244 25.1362 133.244 25.1532C133.292 25.1769 133.323 25.2172 133.349 25.251C133.36 25.2656 133.371 25.2791 133.381 25.2894C133.62 25.5617 133.655 25.9361 133.381 26.2424C133.141 26.5147 132.663 26.5147 132.423 26.2424Z" fill="#FFF6E6"></path><path d="M132.594 24.03C132.601 24.0462 132.608 24.0625 132.616 24.0787C132.61 24.064 132.603 24.0482 132.594 24.03Z" fill="#FFF6E6"></path><path d="M126.608 13.5467L127.771 14.7039C127.908 14.8401 128.079 14.9081 128.25 14.9081C128.421 14.9081 128.626 14.8401 128.729 14.7039C128.866 14.5678 128.934 14.3976 128.934 14.2274C128.934 14.0572 128.866 13.887 128.729 13.7509L127.566 12.5936C127.429 12.4575 127.258 12.3894 127.087 12.3894C126.916 12.3894 126.71 12.4575 126.608 12.5936C126.471 12.7298 126.403 12.9 126.403 13.0702C126.437 13.2403 126.471 13.4105 126.608 13.5467Z" fill="#FFF6E6"></path><path d="M138.273 21.0688C137.623 18.516 137.144 15.9633 136.802 13.3765C136.733 13.0021 137.144 12.6958 137.52 12.6958C137.931 12.6958 138.17 13.0021 138.204 13.3765C138.512 15.8271 138.991 18.2778 139.607 20.6944C139.812 21.5453 138.478 21.9197 138.273 21.0688Z" fill="#FFF6E6"></path><path d="M252.594 95.2009C254.612 93.7033 257.178 93.0906 259.675 92.8183C262.172 92.546 264.738 92.546 267.201 92.0695C270.006 91.5249 272.708 90.2996 275 88.5637C273.529 91.2186 273.221 94.35 272.4 97.3112C271.442 100.783 269.732 104.153 266.995 106.535C264.259 108.884 260.359 110.109 256.87 109.122C251.089 107.522 247.052 99.3193 252.594 95.2009Z" fill="#F18736"></path><path opacity="0.19" d="M115.08 54.5948C115.49 56.1946 116.859 57.9304 118.501 57.556C119.39 57.3518 120.04 56.603 120.553 55.8542C122.229 53.5737 123.7 51.1231 124.897 48.5703C125.65 46.9366 126.3 45.2688 127.258 43.7371C129.755 39.7548 133.997 37.3042 137.93 34.7514C138.273 34.5132 138.649 34.2409 138.717 33.8324C138.854 32.8794 137.417 32.6411 136.494 32.8794C130.815 34.343 125.924 37.9168 121.203 41.4226C117.132 44.52 113.677 49.149 115.08 54.5948Z" fill="white"></path></g><defs><clipPath id="clip0"><rect width="210" height="200" fill="white" transform="translate(65)"></rect></clipPath></defs></svg> 