<?xml version="1.0" encoding="UTF-8"?> <svg xmlns="http://www.w3.org/2000/svg" width="212" height="60" viewBox="0 0 212 60" fill="none"><rect y="6" width="48" height="48" rx="24" fill="#CEDFEF"></rect><path d="M22.6706 9.74282C23.11 9.71442 23.5533 9.7 24 9.7C24.4467 9.7 24.89 9.71442 25.3295 9.74282C25.605 9.76063 25.8428 9.55167 25.8607 9.2761C25.8785 9.00054 25.6695 8.76271 25.3939 8.7449C24.9331 8.71512 24.4683 8.7 24 8.7C23.5318 8.7 23.067 8.71512 22.6061 8.7449C22.3305 8.76271 22.1216 9.00054 22.1394 9.2761C22.1572 9.55167 22.395 9.76063 22.6706 9.74282Z" fill="white"></path><path d="M30.8491 9.82524C30.5876 9.73649 30.3037 9.87653 30.2149 10.138C30.1262 10.3995 30.2662 10.6834 30.5277 10.7722C31.3714 11.0585 32.1903 11.3989 32.9801 11.7891C33.2277 11.9115 33.5276 11.8099 33.6499 11.5623C33.7722 11.3148 33.6707 11.0149 33.4231 10.8926C32.5942 10.483 31.7347 10.1258 30.8491 9.82524Z" fill="white"></path><path d="M17.4723 10.7722C17.7338 10.6834 17.8738 10.3995 17.7851 10.138C17.6964 9.87653 17.4124 9.73649 17.1509 9.82524C16.2653 10.1258 15.4058 10.483 14.5769 10.8926C14.3294 11.0149 14.2278 11.3148 14.3501 11.5623C14.4725 11.8099 14.7723 11.9115 15.0199 11.7891C15.8097 11.3989 16.6286 11.0585 17.4723 10.7722Z" fill="white"></path><path d="M38.0443 13.9857C37.8368 13.8035 37.5209 13.8241 37.3387 14.0316C37.1566 14.2392 37.1771 14.5551 37.3847 14.7372C38.0507 15.3218 38.6782 15.9493 39.2628 16.6153C39.4449 16.8229 39.7608 16.8435 39.9684 16.6613C40.1759 16.4791 40.1965 16.1632 40.0143 15.9557C39.4012 15.257 38.743 14.5989 38.0443 13.9857Z" fill="white"></path><path d="M10.6153 14.7373C10.8229 14.5551 10.8435 14.2392 10.6613 14.0316C10.4792 13.8241 10.1632 13.8035 9.9557 13.9857C9.25704 14.5989 8.59886 15.257 7.98568 15.9557C7.80352 16.1632 7.8241 16.4791 8.03165 16.6613C8.23919 16.8435 8.5551 16.8229 8.73726 16.6153C9.32183 15.9493 9.94929 15.3218 10.6153 14.7373Z" fill="white"></path><path d="M43.1074 20.5769C42.9851 20.3293 42.6852 20.2278 42.4377 20.3501C42.1901 20.4724 42.0886 20.7723 42.2109 21.0199C42.6011 21.8097 42.9415 22.6286 43.2278 23.4723C43.3166 23.7338 43.6005 23.8738 43.862 23.7851C44.1235 23.6963 44.2635 23.4124 44.1748 23.1509C43.8742 22.2653 43.517 21.4058 43.1074 20.5769Z" fill="white"></path><path d="M5.78914 21.0199C5.91146 20.7723 5.80993 20.4725 5.56236 20.3501C5.31478 20.2278 5.01493 20.3293 4.8926 20.5769C4.48305 21.4058 4.12582 22.2653 3.82525 23.1509C3.7365 23.4124 3.87654 23.6963 4.13803 23.7851C4.39953 23.8738 4.68345 23.7338 4.7722 23.4723C5.05855 22.6286 5.3989 21.8097 5.78914 21.0199Z" fill="white"></path><path d="M3.74283 28.6706C3.76064 28.395 3.55168 28.1572 3.27612 28.1394C3.00055 28.1215 2.76272 28.3305 2.74491 28.6061C2.71513 29.0669 2.70001 29.5317 2.70001 30C2.70001 30.4683 2.71513 30.9331 2.74491 31.3939C2.76272 31.6695 3.00055 31.8785 3.27612 31.8606C3.55168 31.8428 3.76064 31.605 3.74283 31.3294C3.71443 30.89 3.70001 30.4467 3.70001 30C3.70001 29.5533 3.71443 29.11 3.74283 28.6706Z" fill="white"></path><path d="M45.2551 28.6061C45.2373 28.3305 44.9995 28.1215 44.7239 28.1394C44.4483 28.1572 44.2394 28.395 44.2572 28.6706C44.2856 29.11 44.3 29.5533 44.3 30C44.3 30.4467 44.2856 30.89 44.2572 31.3294C44.2394 31.605 44.4483 31.8428 44.7239 31.8606C44.9995 31.8785 45.2373 31.6695 45.2551 31.3939C45.2849 30.9331 45.3 30.4683 45.3 30C45.3 29.5317 45.2849 29.0669 45.2551 28.6061Z" fill="white"></path><path d="M44.1748 36.8491C44.2635 36.5876 44.1235 36.3037 43.862 36.2149C43.6005 36.1262 43.3166 36.2662 43.2278 36.5277C42.9415 37.3714 42.6011 38.1903 42.2109 38.9801C42.0886 39.2277 42.1901 39.5275 42.4377 39.6499C42.6852 39.7722 42.9851 39.6707 43.1074 39.4231C43.517 38.5942 43.8742 37.7347 44.1748 36.8491Z" fill="white"></path><path d="M4.7722 36.5277C4.68345 36.2662 4.39953 36.1262 4.13803 36.2149C3.87654 36.3037 3.7365 36.5876 3.82525 36.8491C4.12582 37.7347 4.48305 38.5942 4.89261 39.4231C5.01493 39.6707 5.31479 39.7722 5.56236 39.6499C5.80993 39.5276 5.91147 39.2277 5.78915 38.9801C5.3989 38.1903 5.05855 37.3714 4.7722 36.5277Z" fill="white"></path><path d="M40.0143 44.0443C40.1965 43.8368 40.1759 43.5209 39.9684 43.3387C39.7608 43.1565 39.4449 43.1771 39.2628 43.3847C38.6782 44.0507 38.0507 44.6782 37.3847 45.2627C37.1771 45.4449 37.1566 45.7608 37.3387 45.9684C37.5209 46.1759 37.8368 46.1965 38.0443 46.0143C38.743 45.4011 39.4012 44.743 40.0143 44.0443Z" fill="white"></path><path d="M8.73726 43.3847C8.55511 43.1771 8.23919 43.1565 8.03165 43.3387C7.82411 43.5209 7.80353 43.8368 7.98568 44.0443C8.59887 44.743 9.25705 45.4011 9.9557 46.0143C10.1632 46.1965 10.4792 46.1759 10.6613 45.9684C10.8435 45.7608 10.8229 45.4449 10.6153 45.2628C9.9493 44.6782 9.32183 44.0507 8.73726 43.3847Z" fill="white"></path><path d="M33.4231 49.1074C33.6707 48.9851 33.7722 48.6852 33.6499 48.4377C33.5276 48.1901 33.2277 48.0885 32.9801 48.2109C32.1903 48.6011 31.3714 48.9415 30.5277 49.2278C30.2662 49.3166 30.1262 49.6005 30.2149 49.862C30.3037 50.1235 30.5876 50.2635 30.8491 50.1748C31.7347 49.8742 32.5942 49.517 33.4231 49.1074Z" fill="white"></path><path d="M15.0199 48.2109C14.7723 48.0885 14.4725 48.1901 14.3501 48.4377C14.2278 48.6852 14.3294 48.9851 14.5769 49.1074C15.4058 49.517 16.2653 49.8742 17.1509 50.1748C17.4124 50.2635 17.6964 50.1235 17.7851 49.862C17.8738 49.6005 17.7338 49.3166 17.4723 49.2278C16.6286 48.9415 15.8097 48.6011 15.0199 48.2109Z" fill="white"></path><path d="M22.6706 50.2572C22.395 50.2394 22.1572 50.4483 22.1394 50.7239C22.1216 50.9995 22.3305 51.2373 22.6061 51.2551C23.067 51.2849 23.5318 51.3 24 51.3C24.4683 51.3 24.9331 51.2849 25.3939 51.2551C25.6695 51.2373 25.8785 50.9995 25.8607 50.7239C25.8428 50.4483 25.605 50.2394 25.3295 50.2572C24.89 50.2856 24.4467 50.3 24 50.3C23.5533 50.3 23.11 50.2856 22.6706 50.2572Z" fill="white"></path><path d="M36.7391 39.6C37.4926 39.6 37.9754 38.7981 37.6229 38.1321L24.8838 14.0694C24.5082 13.3599 23.4918 13.3599 23.1162 14.0694L10.3771 38.1321C10.0245 38.7981 10.5073 39.6 11.2609 39.6H21.4C21.9523 39.6 22.4 40.0477 22.4 40.6V45C22.4 45.5523 22.8477 46 23.4 46H24.6C25.1523 46 25.6 45.5523 25.6 45V40.6C25.6 40.0477 26.0477 39.6 26.6 39.6H36.7391Z" fill="#82B712"></path><path d="M83.956 20.688C84.1427 20.1653 84.4414 19.764 84.852 19.484C85.2814 19.204 85.748 19.064 86.252 19.064C86.868 19.064 87.4 19.26 87.848 19.652C88.3147 20.044 88.548 20.576 88.548 21.248C88.548 21.5467 88.4734 21.92 88.324 22.368L82.696 37.6C82.5094 38.1227 82.164 38.5333 81.66 38.832C81.1747 39.112 80.6334 39.252 80.036 39.252C79.4387 39.252 78.8974 39.112 78.412 38.832C77.9267 38.5333 77.5907 38.1227 77.404 37.6L73.764 27.212L69.956 37.6C69.7507 38.1227 69.4054 38.5333 68.92 38.832C68.4347 39.112 67.9027 39.252 67.324 39.252C66.7267 39.252 66.1854 39.112 65.7 38.832C65.2147 38.5333 64.8787 38.1227 64.692 37.6L59.036 22.368C58.9054 21.9947 58.84 21.64 58.84 21.304C58.84 20.6133 59.0827 20.072 59.568 19.68C60.072 19.2693 60.6507 19.064 61.304 19.064C61.8267 19.064 62.3027 19.204 62.732 19.484C63.18 19.7453 63.4974 20.1467 63.684 20.688L67.52 31.72L71.58 20.688C71.7667 20.1653 72.0654 19.764 72.476 19.484C72.9054 19.204 73.372 19.064 73.876 19.064C74.38 19.064 74.8374 19.204 75.248 19.484C75.6587 19.764 75.9574 20.1747 76.144 20.716L79.952 31.972L83.956 20.688Z" fill="#021B2D"></path><path d="M96.0953 39.224C94.5833 39.224 93.2487 38.9347 92.0913 38.356C90.9527 37.7587 90.066 36.9187 89.4313 35.836C88.8153 34.7533 88.5073 33.484 88.5073 32.028C88.5073 30.572 88.8153 29.312 89.4313 28.248C90.066 27.1653 90.9527 26.3347 92.0913 25.756C93.23 25.1773 94.5647 24.888 96.0953 24.888C97.626 24.888 98.9607 25.1773 100.099 25.756C101.238 26.3347 102.115 27.1653 102.731 28.248C103.366 29.312 103.683 30.572 103.683 32.028C103.683 33.484 103.366 34.7533 102.731 35.836C102.115 36.9187 101.238 37.7587 100.099 38.356C98.9607 38.9347 97.626 39.224 96.0953 39.224ZM96.0953 35.5C97.8687 35.5 98.7553 34.3427 98.7553 32.028C98.7553 29.7133 97.8687 28.556 96.0953 28.556C94.322 28.556 93.4353 29.7133 93.4353 32.028C93.4353 34.3427 94.322 35.5 96.0953 35.5Z" fill="#021B2D"></path><path d="M112.884 39.224C111.372 39.224 110.038 38.9347 108.88 38.356C107.742 37.7587 106.855 36.9187 106.22 35.836C105.604 34.7533 105.296 33.484 105.296 32.028C105.296 30.572 105.604 29.312 106.22 28.248C106.855 27.1653 107.742 26.3347 108.88 25.756C110.019 25.1773 111.354 24.888 112.884 24.888C114.415 24.888 115.75 25.1773 116.888 25.756C118.027 26.3347 118.904 27.1653 119.52 28.248C120.155 29.312 120.472 30.572 120.472 32.028C120.472 33.484 120.155 34.7533 119.52 35.836C118.904 36.9187 118.027 37.7587 116.888 38.356C115.75 38.9347 114.415 39.224 112.884 39.224ZM112.884 35.5C114.658 35.5 115.544 34.3427 115.544 32.028C115.544 29.7133 114.658 28.556 112.884 28.556C111.111 28.556 110.224 29.7133 110.224 32.028C110.224 34.3427 111.111 35.5 112.884 35.5Z" fill="#021B2D"></path><path d="M134.769 19.12C135.516 19.12 136.123 19.3347 136.589 19.764C137.075 20.1747 137.317 20.7067 137.317 21.36V36.872C137.317 37.5813 137.093 38.1413 136.645 38.552C136.197 38.9627 135.6 39.168 134.853 39.168C134.163 39.168 133.593 38.9907 133.145 38.636C132.716 38.2627 132.473 37.7587 132.417 37.124C132.025 37.7773 131.447 38.2907 130.681 38.664C129.935 39.0373 129.104 39.224 128.189 39.224C127.013 39.224 125.959 38.9253 125.025 38.328C124.111 37.712 123.392 36.8533 122.869 35.752C122.347 34.6507 122.085 33.3907 122.085 31.972C122.085 30.5533 122.337 29.312 122.841 28.248C123.364 27.1653 124.083 26.3347 124.997 25.756C125.931 25.1773 126.995 24.888 128.189 24.888C129.067 24.888 129.869 25.0653 130.597 25.42C131.344 25.7747 131.923 26.2507 132.333 26.848V21.276C132.333 20.6227 132.548 20.1 132.977 19.708C133.425 19.316 134.023 19.12 134.769 19.12ZM129.701 35.5C130.579 35.5 131.251 35.2013 131.717 34.604C132.184 34.0067 132.417 33.148 132.417 32.028C132.417 30.9267 132.184 30.0867 131.717 29.508C131.251 28.9107 130.579 28.612 129.701 28.612C128.843 28.612 128.18 28.9013 127.713 29.48C127.247 30.0587 127.013 30.8893 127.013 31.972C127.013 33.092 127.247 33.96 127.713 34.576C128.199 35.192 128.861 35.5 129.701 35.5Z" fill="#021B2D"></path><path d="M157.813 24.888C159.325 24.888 160.492 25.3453 161.313 26.26C162.135 27.156 162.545 28.6773 162.545 30.824V36.872C162.545 37.6373 162.303 38.216 161.817 38.608C161.351 38.9813 160.763 39.168 160.053 39.168C159.344 39.168 158.747 38.9813 158.261 38.608C157.795 38.216 157.561 37.6373 157.561 36.872V30.712C157.561 29.9653 157.431 29.4427 157.169 29.144C156.908 28.8453 156.525 28.696 156.021 28.696C155.368 28.696 154.845 28.9293 154.453 29.396C154.061 29.8627 153.865 30.5067 153.865 31.328V36.872C153.865 37.6373 153.632 38.216 153.165 38.608C152.699 38.9813 152.101 39.168 151.373 39.168C150.664 39.168 150.067 38.9813 149.581 38.608C149.115 38.216 148.881 37.6373 148.881 36.872V30.712C148.881 29.9653 148.751 29.4427 148.489 29.144C148.228 28.8453 147.845 28.696 147.341 28.696C146.688 28.696 146.165 28.9293 145.773 29.396C145.4 29.8627 145.213 30.5067 145.213 31.328V36.872C145.213 37.6373 144.971 38.216 144.485 38.608C144.019 38.9813 143.431 39.168 142.721 39.168C142.012 39.168 141.415 38.9813 140.929 38.608C140.463 38.216 140.229 37.6373 140.229 36.872V27.184C140.229 26.456 140.472 25.9053 140.957 25.532C141.461 25.14 142.059 24.944 142.749 24.944C143.403 24.944 143.944 25.1213 144.373 25.476C144.821 25.812 145.055 26.3067 145.073 26.96C145.988 25.5787 147.388 24.888 149.273 24.888C151.271 24.888 152.605 25.7 153.277 27.324C153.744 26.5773 154.369 25.9893 155.153 25.56C155.937 25.112 156.824 24.888 157.813 24.888Z" fill="#021B2D"></path><path d="M171.77 24.888C173.898 24.888 175.466 25.4013 176.474 26.428C177.501 27.436 178.014 28.976 178.014 31.048V36.9C178.014 37.6093 177.8 38.1693 177.37 38.58C176.96 38.972 176.381 39.168 175.634 39.168C174.981 39.168 174.44 38.9813 174.01 38.608C173.6 38.2347 173.376 37.7307 173.338 37.096C173.077 37.768 172.638 38.2907 172.022 38.664C171.406 39.0373 170.669 39.224 169.81 39.224C168.858 39.224 168 39.0373 167.234 38.664C166.469 38.272 165.862 37.74 165.414 37.068C164.985 36.3773 164.77 35.6027 164.77 34.744C164.77 33.7547 165.022 32.9707 165.526 32.392C166.049 31.7947 166.87 31.3653 167.99 31.104C169.11 30.8427 170.622 30.712 172.526 30.712H173.282V30.376C173.282 29.7227 173.133 29.256 172.834 28.976C172.536 28.6773 172.032 28.528 171.322 28.528C170.557 28.528 169.437 28.7893 167.962 29.312C167.533 29.4613 167.169 29.536 166.87 29.536C166.404 29.536 166.03 29.368 165.75 29.032C165.47 28.696 165.33 28.2573 165.33 27.716C165.33 27.3053 165.414 26.9693 165.582 26.708C165.75 26.4467 166.021 26.2133 166.394 26.008C167.048 25.672 167.869 25.4013 168.858 25.196C169.848 24.9907 170.818 24.888 171.77 24.888ZM170.986 35.892C171.658 35.892 172.209 35.6587 172.638 35.192C173.068 34.7067 173.282 34.0907 173.282 33.344V33.008H172.834C171.64 33.008 170.79 33.12 170.286 33.344C169.782 33.5493 169.53 33.904 169.53 34.408C169.53 34.8373 169.661 35.192 169.922 35.472C170.202 35.752 170.557 35.892 170.986 35.892Z" fill="#021B2D"></path><path d="M189.544 24.944C190.178 24.888 190.682 25.0373 191.056 25.392C191.429 25.728 191.616 26.232 191.616 26.904C191.616 27.6507 191.438 28.192 191.084 28.528C190.748 28.864 190.132 29.0787 189.236 29.172L188.396 29.256C187.462 29.368 186.79 29.6667 186.38 30.152C185.988 30.6187 185.792 31.2627 185.792 32.084V36.872C185.792 37.6373 185.549 38.216 185.064 38.608C184.597 38.9813 184.009 39.168 183.3 39.168C182.59 39.168 181.993 38.9813 181.508 38.608C181.041 38.216 180.808 37.6373 180.808 36.872V27.184C180.808 26.4747 181.041 25.924 181.508 25.532C181.993 25.14 182.572 24.944 183.244 24.944C183.934 24.944 184.485 25.1307 184.896 25.504C185.325 25.8773 185.54 26.4 185.54 27.072V27.604C185.838 26.7827 186.324 26.148 186.996 25.7C187.686 25.252 188.405 25.0093 189.152 24.972L189.544 24.944Z" fill="#021B2D"></path><path d="M202.163 35.612C203.413 35.6867 204.039 36.2467 204.039 37.292C204.039 37.9453 203.787 38.4307 203.283 38.748C202.779 39.0653 202.06 39.196 201.127 39.14L200.343 39.084C198.663 38.9533 197.384 38.4493 196.507 37.572C195.648 36.676 195.219 35.4347 195.219 33.848V28.892H194.407C192.913 28.892 192.167 28.276 192.167 27.044C192.167 25.8307 192.913 25.224 194.407 25.224H195.219V23.404C195.219 22.6947 195.443 22.1347 195.891 21.724C196.339 21.2947 196.945 21.08 197.711 21.08C198.476 21.08 199.083 21.2947 199.531 21.724C199.979 22.1347 200.203 22.6947 200.203 23.404V25.224H201.743C203.236 25.224 203.983 25.8307 203.983 27.044C203.983 28.276 203.236 28.892 201.743 28.892H200.203V34.268C200.203 34.6227 200.305 34.9213 200.511 35.164C200.735 35.4067 201.015 35.5373 201.351 35.556L202.163 35.612Z" fill="#021B2D"></path><path d="M208.507 39.168C207.723 39.168 207.07 38.9067 206.547 38.384C206.043 37.8613 205.791 37.2173 205.791 36.452C205.791 35.6867 206.043 35.0427 206.547 34.52C207.07 33.9973 207.723 33.736 208.507 33.736C209.273 33.736 209.907 33.9973 210.411 34.52C210.934 35.0427 211.195 35.6867 211.195 36.452C211.195 37.2173 210.934 37.8613 210.411 38.384C209.907 38.9067 209.273 39.168 208.507 39.168Z" fill="#021B2D"></path></svg> 