<?xml version="1.0" encoding="UTF-8"?> <svg xmlns="http://www.w3.org/2000/svg" id="Group_5" data-name="Group 5" width="306.25" height="119.547" viewBox="0 0 1225 478.188"><defs><style> .cls-1, .cls-4 { fill: #eecba3; } .cls-1, .cls-10, .cls-11, .cls-12, .cls-13, .cls-14, .cls-15, .cls-2, .cls-3, .cls-4, .cls-7, .cls-8, .cls-9 { fill-rule: evenodd; } .cls-2, .cls-6 { fill: #e3a773; } .cls-3, .cls-5 { fill: #b06351; } .cls-4 { stroke: #e3a773; stroke-width: 2px; } .cls-7 { fill: #d9253e; } .cls-8 { fill: #ce2937; } .cls-9 { fill: #f1757d; } .cls-10 { fill: #db2139; stroke: #b51f33; stroke-width: 3px; } .cls-11 { fill: #a99a3d; } .cls-12 { fill: #4b553a; } .cls-13 { fill: #939d60; } .cls-14 { fill: #bb2e36; } .cls-15 { fill: #fff; } </style></defs><g id="bell"><g id="balls"><path id="Figure_18" data-name="Figure 18" class="cls-1" d="M615,271c-42.839-2.943-76,133-76,133l152-1S657.838,273.943,615,271Z" transform="translate(0 -0.813)"></path><path id="Figure_20" data-name="Figure 20" class="cls-2" d="M554.015,413l32.244-5.909s9.892-111.5,42.252-112.274,52.258,113.456,52.258,113.456L693,413s-19.445-131.273-66.713-135.91S554.015,413,554.015,413Z" transform="translate(0 -0.813)"></path><path id="Figure_19" data-name="Figure 19" class="cls-3" d="M534,421l24.615-8.25s20.263-104.342,45.874-126.107,49.231,5.893,49.231,5.893S638.66,261.781,631.343,256C564.385,253.688,534,421,534,421Z" transform="translate(0 -0.813)"></path></g><g id="Group_4" data-name="Group 4"><path id="Figure_21" data-name="Figure 21" class="cls-4" d="M536,408c-6.877,10.316-12.058,37.134-13,42s2.271,29.327,87,29,100.042-23.2,100-26-8.413-33.268-17-48-45.333-13-78-13S542.877,397.684,536,408Z" transform="translate(0 -0.813)"></path><ellipse id="Ellipse_1" data-name="Ellipse 1" class="cls-5" cx="616.5" cy="452.688" rx="93.5" ry="25.5"></ellipse><ellipse id="Ellipse_2" data-name="Ellipse 2" class="cls-6" cx="602" cy="431.688" rx="19" ry="19.5"></ellipse></g><g id="Group_3" data-name="Group 3"><path id="Figure_14" data-name="Figure 14" class="cls-7" d="M521,295c6.675,12.629,10,34.7,10,43,31.032-11.366,71-60,71-60l-9-13S551.671,287.422,521,295Z" transform="translate(0 -0.813)"></path><path id="Figure_15" data-name="Figure 15" class="cls-8" d="M592,259c-24.176-13.171-41-9.638-63-21s-36.181-36.762-36-53,14.129-39.083,19-38,26.382,3.768,17,9-10.639,25.031-11,29c5.773,25.078,18.015,29.917,20,31s49,22,49,22l11,14S595.228,252.533,592,259Z" transform="translate(0 -0.813)"></path><path id="Figure_16" data-name="Figure 16" class="cls-9" d="M594,254s-25.387-58.811-44-79-28.978-26.705-40-27,32.752-7,47-2,38.171,25.667,49,61,8,39,8,39Z" transform="translate(0 -0.813)"></path><path id="Figure_14_сopy" data-name="Figure 14 сopy" class="cls-7" d="M704.079,294.965c-6.656,12.64-9.971,34.729-9.971,43.035-30.945-11.376-70.8-60.048-70.8-60.048l8.974-13.011S673.5,287.382,704.079,294.965Z" transform="translate(0 -0.813)"></path><path id="Figure_15_сopy" data-name="Figure 15 сopy" class="cls-8" d="M633.28,258.936c24.108-13.181,40.886-9.646,62.822-21.017s36.078-36.792,35.9-53.042-14.089-39.114-18.946-38.031-26.307,3.771-16.952,9.007,10.609,25.051,10.969,29.024c-5.757,25.1-17.965,29.941-19.944,31.025s-48.861,22.017-48.861,22.017L627.3,251.931S630.061,252.464,633.28,258.936Z" transform="translate(0 -0.813)"></path><path id="Figure_16_сopy" data-name="Figure 16 сopy" class="cls-9" d="M631.286,253.932s25.315-58.858,43.875-79.063,28.9-26.727,39.887-27.022-32.659-7-46.867-2-38.063,25.688-48.861,61.049-7.977,39.032-7.977,39.032Z" transform="translate(0 -0.813)"></path><path id="Figure_17" data-name="Figure 17" class="cls-10" d="M600,244c-5.718,2.861-9.621,15.548-8,22s4.88,14.778,21,14,20.432-5.446,21-15-0.076-22.082-9-23S605.718,241.139,600,244Z" transform="translate(0 -0.813)"></path></g></g><g id="leaves"><g id="Group_1" data-name="Group 1"><path id="Figure_3" data-name="Figure 3" class="cls-11" d="M835.37,297.775l-12-15.043h-5l13.993,17.049Z" transform="translate(0 -0.813)"></path><path id="Figure_2" data-name="Figure 2" class="cls-12" d="M886.346,364.966s-40.7-8.733-50.976-23.066-5-45.128-5-45.128,26.787-5.17,38.982,6.017S886.346,364.966,886.346,364.966Z" transform="translate(0 -0.813)"></path></g><g id="Group_1_сopy" data-name="Group 1 сopy"><path id="Figure_3-2" data-name="Figure 3" class="cls-11" d="M946.318,309.809l-12-15.043h-5l13.993,17.049Z" transform="translate(0 -0.813)"></path><path id="Figure_2-2" data-name="Figure 2" class="cls-12" d="M997.294,377s-40.7-8.732-50.976-23.066-5-45.128-5-45.128,26.787-5.169,38.982,6.017S997.294,377,997.294,377Z" transform="translate(0 -0.813)"></path></g><g id="Group_1_сopy_2" data-name="Group 1 сopy 2"><path id="Figure_3-3" data-name="Figure 3" class="cls-11" d="M1057.1,295.881L1043.58,282.2l-4.97.532,15.72,15.463Z" transform="translate(0 -0.813)"></path><path id="Figure_2-3" data-name="Figure 2" class="cls-12" d="M1114.89,357.267s-41.39-4.351-53.13-17.509-9.74-44.342-9.74-44.342,26.09-7.991,39.4,1.834S1114.89,357.267,1114.89,357.267Z" transform="translate(0 -0.813)"></path></g><g id="Group_1_сopy_3" data-name="Group 1 сopy 3"><path id="Figure_3-4" data-name="Figure 3" class="cls-11" d="M871.852,269.406l-13.444,13.848-4.979-.5L869.063,267.1Z" transform="translate(0 -0.813)"></path><path id="Figure_2-4" data-name="Figure 2" class="cls-12" d="M929.311,207.3s-41.411,4.677-53.075,17.986-9.463,44.63-9.463,44.63,26.172,7.839,39.432-2.133S929.311,207.3,929.311,207.3Z" transform="translate(0 -0.813)"></path></g><g id="Group_1_сopy_4" data-name="Group 1 сopy 4"><path id="Figure_3-5" data-name="Figure 3" class="cls-11" d="M972.3,272.686l-13.81,13.48-4.963-.632,16.047-15.227Z" transform="translate(0 -0.813)"></path><path id="Figure_2-5" data-name="Figure 2" class="cls-12" d="M1031.4,212.143s-41.521,3.561-53.537,16.551-10.652,44.36-10.652,44.36,25.952,8.54,39.479-1.071S1031.4,212.143,1031.4,212.143Z" transform="translate(0 -0.813)"></path></g><g id="Group_1_сopy_5" data-name="Group 1 сopy 5"><path id="Figure_3-6" data-name="Figure 3" class="cls-11" d="M1081,265.616l-12.68,14.441-4.97-.256,14.76-16.345Z" transform="translate(0 -0.813)"></path><path id="Figure_2-6" data-name="Figure 2" class="cls-12" d="M1135.05,200.985s-40.92,6.657-51.85,20.474-7.22,44.9-7.22,44.9,26.38,6.544,39.07-4.027S1135.05,200.985,1135.05,200.985Z" transform="translate(0 -0.813)"></path></g><g id="Group_1_сopy_6" data-name="Group 1 сopy 6"><path id="Figure_3-7" data-name="Figure 3" class="cls-11" d="M1141.58,267.812l-18.96,2.876-2.48,4.331,21.69-3.606Z" transform="translate(0 -0.813)"></path><path id="Figure_2-7" data-name="Figure 2" class="cls-12" d="M1225,257.218s-27.73,30.906-45.23,32.649-41.53-18.225-41.53-18.225,8.8-25.8,24.53-30.776S1225,257.218,1225,257.218Z" transform="translate(0 -0.813)"></path></g><path id="Figure_1" data-name="Figure 1" class="cls-13" d="M759.405,266.687c6.208,5.678,39.46,13.883,54.974,16.045,50.226,11.769,107.264,12.995,142.934,12.034s84.837-4.052,111.947-8.022,70.35-11.184,69.97-16.046-45.59,5.233-65.97,7.02-70.18,6.3-114.948,7.02c-64.875,1.681-124.323-9.68-142.933-13.037s-40.766-11.75-47.978-14.04S753.2,261.008,759.405,266.687Z" transform="translate(0 -0.813)"></path></g><g id="candy1"><path id="Figure_4" data-name="Figure 4" class="cls-14" d="M774.217,193.935c-4.031,6.672,3.224,21.193,17.054,15.008C815.84,190.185,905.955,97.459,922.93,69.781c10.821-25.708-4.042-46.331-10.574-53.55-16.746-15.4-33.01-18.781-53.55-5.116S835.393,30.75,835.271,33.967s4.517,12.457,9.891,12.62,9.572-7.789,24.217-18.76,23.691-1.549,28.31,3.07,9.815,17.051,4.776,26.6C888.236,82.607,778.248,187.264,774.217,193.935Z" transform="translate(0 -0.813)"></path><path id="Figure_13" data-name="Figure 13" class="cls-15" d="M777.969,187.455c5.84,5.565,21.631,11.512,25.581,11.938s20.71-10.563,15.008-12.279-22.81-4.74-30.016-10.233S772.129,181.89,777.969,187.455Zm24.217-24.9c5.726,4.712,21.37,11.682,27.969,11.6s14.974-10,9.55-10.915-23.991-7.267-26.605-12.279S796.46,157.843,802.186,162.556ZM827.426,138c5.581,5.511,20.635,10.613,24.558,10.914s15.184-8.331,11.256-8.527-20.678-6.14-26.605-10.915S821.845,132.486,827.426,138ZM847.209,114.8c3.25,2.911,20.082,11.856,27.628,11.938s14.443-6.922,7.5-8.868-21.322-6.52-24.9-11.256S843.959,111.892,847.209,114.8Zm21.829-21.829c3.81,4.225,19.767,12.162,24.217,12.62s17.037-8.835,10.233-10.233-17.959-5.787-22.512-10.233S865.229,88.75,869.038,92.975Zm22.171-20.806c4.027,3.663,20.229,11.359,24.217,11.938s16.475-13.223,9.55-13.643-17.764-3.436-25.922-7.5S887.181,68.505,891.209,72.168Zm12.279-23.876c3.752,2.086,18.8,5.934,23.535,5.116s1.558-21.55-2.047-19.1-18.092,5.736-22.17,3.752S899.736,46.207,903.488,48.293Zm-13.3-22.17c1.221-2.985,14.428-11.267,20.807-10.574S893.478-2.218,890.527,1.223s-7.8,12.129-7.845,22.853S888.965,29.107,890.185,26.122ZM868.7,29.874c-2.575-5.8-4.4-15.735.341-24.9s-19.024,2.647-18.759,11.256,4.187,17.51,7.845,20.806S871.272,35.675,868.7,29.874Z" transform="translate(0 -0.813)"></path></g><g id="leaves-2" data-name="leaves"><g id="Group_1-2" data-name="Group 1"><path id="Figure_3-8" data-name="Figure 3" class="cls-11" d="M389.63,297.814l12-15.035h5l-13.993,17.04Z" transform="translate(0 -0.813)"></path><path id="Figure_2-8" data-name="Figure 2" class="cls-12" d="M338.654,364.972s40.7-8.728,50.976-23.054,5-45.106,5-45.106-26.787-5.167-38.982,6.014S338.654,364.972,338.654,364.972Z" transform="translate(0 -0.813)"></path></g><g id="Group_1_сopy-2" data-name="Group 1 сopy"><path id="Figure_3-9" data-name="Figure 3" class="cls-11" d="M278.682,309.843l12-15.036h5l-13.993,17.04Z" transform="translate(0 -0.813)"></path><path id="Figure_2-9" data-name="Figure 2" class="cls-12" d="M227.706,377s40.7-8.728,50.976-23.054,5-45.106,5-45.106-26.787-5.167-38.982,6.014S227.706,377,227.706,377Z" transform="translate(0 -0.813)"></path></g><g id="Group_1_сopy_2-2" data-name="Group 1 сopy 2"><path id="Figure_3-10" data-name="Figure 3" class="cls-11" d="M167.9,295.922l13.518-13.675,4.969,0.532-15.717,15.455Z" transform="translate(0 -0.813)"></path><path id="Figure_2-10" data-name="Figure 2" class="cls-12" d="M110.111,357.277s41.391-4.349,53.128-17.5,9.741-44.319,9.741-44.319-26.089-7.988-39.4,1.833S110.111,357.277,110.111,357.277Z" transform="translate(0 -0.813)"></path></g><g id="Group_1_сopy_3-2" data-name="Group 1 сopy 3"><path id="Figure_3-11" data-name="Figure 3" class="cls-11" d="M353.148,269.46L366.592,283.3l4.979-.5-15.635-15.646Z" transform="translate(0 -0.813)"></path><path id="Figure_2-11" data-name="Figure 2" class="cls-12" d="M295.689,207.379s41.411,4.675,53.075,17.977,9.463,44.609,9.463,44.609-26.172,7.834-39.432-2.132S295.689,207.379,295.689,207.379Z" transform="translate(0 -0.813)"></path></g><g id="Group_1_сopy_4-2" data-name="Group 1 сopy 4"><path id="Figure_3-12" data-name="Figure 3" class="cls-11" d="M252.7,272.738l13.809,13.474,4.964-.632-16.047-15.22Z" transform="translate(0 -0.813)"></path><path id="Figure_2-12" data-name="Figure 2" class="cls-12" d="M193.6,212.225s41.522,3.559,53.538,16.543,10.652,44.337,10.652,44.337-25.952,8.537-39.475-1.07S193.6,212.225,193.6,212.225Z" transform="translate(0 -0.813)"></path></g><g id="Group_1_сopy_5-2" data-name="Group 1 сopy 5"><path id="Figure_3-13" data-name="Figure 3" class="cls-11" d="M144,265.672l12.679,14.433,4.971-.256-14.768-16.336Z" transform="translate(0 -0.813)"></path><path id="Figure_2-13" data-name="Figure 2" class="cls-12" d="M89.955,201.072s40.913,6.654,51.85,20.465,7.219,44.883,7.219,44.883-26.385,6.54-39.071-4.026S89.955,201.072,89.955,201.072Z" transform="translate(0 -0.813)"></path></g><g id="Group_1_сopy_6-2" data-name="Group 1 сopy 6"><path id="Figure_3-14" data-name="Figure 3" class="cls-11" d="M83.419,267.866l18.965,2.875,2.477,4.329-21.692-3.6Z" transform="translate(0 -0.813)"></path><path id="Figure_2-14" data-name="Figure 2" class="cls-12" d="M0,257.278s27.731,30.89,45.232,32.633,41.536-18.217,41.536-18.217-8.8-25.786-24.531-30.76S0,257.278,0,257.278Z" transform="translate(0 -0.813)"></path></g><path id="Figure_1-2" data-name="Figure 1" class="cls-13" d="M465.6,266.742c-6.208,5.675-39.46,13.876-54.974,16.037-50.226,11.764-107.265,12.989-142.934,12.028s-84.842-4.05-111.947-8.018-70.352-11.178-69.968-16.038,45.591,5.231,65.97,7.016,70.18,6.3,114.946,7.017c64.874,1.68,124.323-9.675,142.933-13.031s40.766-11.744,47.978-14.033S471.8,261.066,465.6,266.742Z" transform="translate(0 -0.813)"></path></g><g id="candy2"><path id="Figure_4-2" data-name="Figure 4" class="cls-14" d="M450.783,194.027c4.031,6.668-3.225,21.182-17.054,15C409.16,190.278,319.045,97.6,302.07,69.934c-10.822-25.7,4.042-46.308,10.574-53.523,16.746-15.39,33.01-18.772,53.55-5.114s23.413,19.626,23.535,22.841-4.517,12.451-9.891,12.614S370.265,38.967,355.621,28s-23.691-1.549-28.31,3.068-9.815,17.043-4.776,26.591C336.764,82.754,446.752,187.358,450.783,194.027Z" transform="translate(0 -0.813)"></path><path id="Figure_13-2" data-name="Figure 13" class="cls-15" d="M447.031,187.549c-5.84,5.562-21.631,11.507-25.581,11.932s-20.71-10.557-15.008-12.273,22.81-4.737,30.015-10.227S452.871,181.987,447.031,187.549Zm-24.217-24.886c-5.726,4.71-21.37,11.676-27.969,11.591s-14.974-10-9.55-10.91,23.991-7.263,26.6-12.273S428.54,157.952,422.814,162.663Zm-25.24-24.546c-5.581,5.509-20.635,10.608-24.558,10.909S357.832,140.7,361.76,140.5s20.678-6.137,26.605-10.909S403.155,132.608,397.574,138.117Zm-19.783-23.182c-3.25,2.91-20.082,11.849-27.628,11.932s-14.443-6.919-7.5-8.864,21.322-6.516,24.9-11.25S381.041,112.025,377.791,114.935ZM355.962,93.116c-3.81,4.223-19.767,12.156-24.217,12.614S314.708,96.9,321.512,95.5s17.958-5.784,22.512-10.227S359.771,88.894,355.962,93.116Zm-22.171-20.8c-4.028,3.662-20.229,11.353-24.217,11.932s-16.475-13.217-9.55-13.637,17.764-3.434,25.922-7.5S337.819,68.659,333.791,72.32ZM321.512,48.456c-3.752,2.085-18.8,5.931-23.535,5.114s-1.558-21.539,2.047-19.091,18.091,5.733,22.17,3.75S325.264,46.372,321.512,48.456Zm13.3-22.159c-1.22-2.984-14.427-11.261-20.806-10.568S331.522-2.029,334.473,1.41s7.8,12.123,7.845,22.841S336.035,29.281,334.814,26.3Zm21.489,3.75c2.575-5.8,4.4-15.727-.341-24.887s19.024,2.646,18.759,11.25-4.187,17.5-7.845,20.8S353.728,35.845,356.3,30.047Z" transform="translate(0 -0.813)"></path></g></svg> 